<svg width="176" height="60" viewBox="0 0 176 60" xmlns="http://www.w3.org/2000/svg" xmlns:xlink="http://www.w3.org/1999/xlink"><title>joyent-cloud-1</title><desc>Created using Figma</desc><path id="a" fill="#D8D8D8" d="M175.67 60a16.303 16.303 0 0 0-2.724-7.875 16.344 16.344 0 0 0-6.262-5.508 16.37 16.37 0 0 0-16.115.838 38.689 38.689 0 0 0-5.527-30.199 38.775 38.775 0 0 0-11.168-11.013A38.85 38.85 0 0 0 103.561 1.1a38.839 38.839 0 0 0-14.184 6.714 38.77 38.77 0 0 0-10.362 11.773 38.707 38.707 0 0 0-4.843 14.909 25.76 25.76 0 0 0-13.037-7.712 25.79 25.79 0 0 0-15.123.944 25.746 25.746 0 0 0-11.974 9.273 25.684 25.684 0 0 0-4.677 14.39 16.35 16.35 0 0 0-7.919-5.67 16.375 16.375 0 0 0-9.744-.166 16.352 16.352 0 0 0-8.107 5.399A16.31 16.31 0 0 0 0 60h175.67z"/></svg>