<svg width="24" height="24" viewBox="0 0 24 24" xmlns="http://www.w3.org/2000/svg"><title>cpu</title><path fill="#8043DC" fill-rule="evenodd" d="M8 16h8V8H8v8zm-1 1h10V7H7v10z"/><path fill="#8043DC" fill-rule="evenodd" d="M20 18c0 1.103-.897 2-2 2H6c-1.103 0-2-.897-2-2V6c0-1.103.897-2 2-2h12c1.103 0 2 .897 2 2v12zm3-5a1 1 0 1 0 0-2h-1v-1h1a1 1 0 1 0 0-2h-1V6a4 4 0 0 0-4-4h-2V1a1 1 0 1 0-2 0v1h-1V1a1 1 0 1 0-2 0v1h-1V1a1 1 0 1 0-2 0v1H6a4 4 0 0 0-4 4v2H1a1 1 0 1 0 0 2h1v1H1a1 1 0 1 0 0 2h1v1H1a1 1 0 1 0 0 2h1v2a4 4 0 0 0 4 4h2v1a1 1 0 1 0 2 0v-1h1v1a1 1 0 1 0 2 0v-1h1v1a1 1 0 1 0 2 0v-1h2a4 4 0 0 0 4-4v-2h1a1 1 0 1 0 0-2h-1v-1h1z"/></svg>