<svg width="22" height="20" viewBox="0 0 22 20" xmlns="http://www.w3.org/2000/svg" xmlns:xlink="http://www.w3.org/1999/xlink"><title>Icon: GP</title><desc>Created using Figma</desc><path fill="#E08A0E" fill-rule="evenodd" d="M17 16a1 1 0 1 1 2 0 1 1 0 0 1-2 0zM7 17h1v-2H7v2zm-2 0h1v-2H5v2zm-2 0h1v-2H3v2zm14-7a1 1 0 1 1 2 0 1 1 0 0 1-2 0zM7 11h1V9H7v2zm-2 0h1V9H5v2zm-2 0h1V9H3v2zm16-7a1 1 0 1 1-2 0 1 1 0 0 1 2 0zM7 5h1V3H7v2zM5 5h1V3H5v2zM3 5h1V3H3v2zM2 18h18v-4H2v4zm0-6h18V8H2v4zm0-6h18V2H2v4zm20-4a2 2 0 0 0-2-2H2a2 2 0 0 0-2 2v4c0 .366.105.705.277 1A1.977 1.977 0 0 0 0 8v4c0 .366.105.705.277 1A1.977 1.977 0 0 0 0 14v4a2 2 0 0 0 2 2h18a2 2 0 0 0 2-2v-4c0-.366-.105-.705-.277-1 .172-.295.277-.634.277-1V8c0-.366-.105-.705-.277-1 .172-.295.277-.634.277-1V2z"/></svg>