<svg width="23" height="23" viewBox="0 0 23 23" xmlns="http://www.w3.org/2000/svg" xmlns:xlink="http://www.w3.org/1999/xlink"><title>Icon: MO</title><desc>Created using Figma</desc><path transform="rotate(45 7.8 18.83)" fill="#32ABCF" fill-rule="evenodd" d="M3 15h3v-2H3v2zm0 2.999h3v-2H3v2zm0-6h3v-2H3v2zm0-3h3V7H3v2zM3 6h3V4H3v2zM2 20h7V2H2v18zM12 9a1 1 0 1 0 0-2h-1V6h1a1 1 0 1 0 0-2h-1V2a2 2 0 0 0-2-2H2a2 2 0 0 0-2 2v18a2 2 0 0 0 2 2h7a2 2 0 0 0 2-2v-2h1a1 1 0 1 0 0-2h-1v-1h1a1 1 0 1 0 0-2h-1v-1h1a1 1 0 1 0 0-2h-1V9h1z"/></svg>