<svg width="20" height="20" viewBox="0 0 20 20" xmlns="http://www.w3.org/2000/svg" xmlns:xlink="http://www.w3.org/1999/xlink"><title>Icon: SO</title><desc>Created using Figma</desc><path fill="#A88A83" fill-rule="evenodd" d="M18 17a1 1 0 0 1-1 1H3a1 1 0 0 1-1-1V3a1 1 0 0 1 1-1h14a1 1 0 0 1 1 1v14zM17 0H3a3 3 0 0 0-3 3v14a3 3 0 0 0 3 3h14a3 3 0 0 0 3-3V3a3 3 0 0 0-3-3z"/><path  transform="translate(4 4)" fill="#A88A83" fill-rule="evenodd" d="M6 11c-2.757 0-5-2.243-5-5s2.243-5 5-5 5 2.243 5 5-2.243 5-5 5zM6 0a6 6 0 0 0 0 12A6 6 0 0 0 6 0z"/><path transform="translate(9 9)" fill="#A88A83" fill-rule="evenodd" d="M0 1a1 1 0 1 0 2 0 1 1 0 1 0-2 0z"/></svg>