<svg xmlns="http://www.w3.org/2000/svg" viewBox="0 0 42 42"><title>Artboard 1 copy 17</title><path fill="#1B3240" d="M14.79 32.38s-1.6.9 1.1 1.2a23.57 23.57 0 0 0 8.7-.4 16.47 16.47 0 0 0 2.3 1.1c-8.2 3.7-18.6 0-12.1-1.9m-1-4.6s-1.8 1.3.9 1.6a33.65 33.65 0 0 0 11.2-.5 5.63 5.63 0 0 0 1.7 1.1c-9.9 2.9-21 .2-13.8-2.2m8.4-7.78c2 2.3-.5 4.4-.5 4.4s5.1-2.7 2.8-6c-2.2-3.1-3.9-4.6 5.3-10-.1.1-14.4 3.7-7.6 11.6"/><path fill="#1B3240" d="M33.09 35.78s1.2 1-1.3 1.7c-4.7 1.4-19.8 1.9-23.9.1-1.5-.7 1.3-1.6 2.2-1.7a7.21 7.21 0 0 1 1.4-.2C9.79 34.48.69 38 6.89 39c16.8 2.8 30.6-1.2 26.2-3.2m-17.6-12.72s-7.6 1.8-2.7 2.5a57.48 57.48 0 0 0 10.1-.1c3.2-.3 6.3-.8 6.3-.8a19.64 19.64 0 0 0-1.9 1c-7.8 2-22.7 1.1-18.4-1a14.31 14.31 0 0 1 6.6-1.6m13.7 7.6c7.9-4.1 4.2-8 1.7-7.5a6.59 6.59 0 0 0-.9.2 1 1 0 0 1 .7-.5c5-1.8 8.9 5.2-1.6 8a.35.35 0 0 0 .1-.2M24.49 0s4.4 4.4-4.1 11.1c-6.8 5.4-1.6 8.5 0 12-4-3.6-6.9-6.8-4.9-9.7 2.8-4.4 10.7-6.5 9-13.4"/><path fill="#1B3240" d="M16.29 41.78c7.6.5 19.2-.3 19.5-3.8 0 0-.5 1.4-6.3 2.4a61.75 61.75 0 0 1-19.1.3s.9.8 5.9 1.1"/></svg>
