<svg width="27" height="18" viewBox="0 0 27 18" version="1.1" xmlns="http://www.w3.org/2000/svg" xmlns:xlink="http://www.w3.org/1999/xlink">
<path fill="#494949" fill-rule="evenodd" d="M 13.5039 16.7949C 12.1797 17.5625 10.6406 18 9 18C 4.03125 18 0 13.9707 0 9C 0 4.0293 4.03125 0 9 0C 10.6406 0 12.1797 0.4375 13.5039 1.20508C 14.8281 0.4375 16.3594 0 18 0C 22.9688 0 27 4.0293 27 9C 27 13.9707 22.9688 18 18 18C 16.3594 18 14.8281 17.5625 13.5039 16.7949ZM 11.7266 15.4492C 10.8906 15.8027 9.96875 16 9 16C 7.19531 16 5.55078 15.3164 4.30859 14.1953C 2.89062 12.9141 2 11.0605 2 9C 2 7.86133 2.27344 6.78516 2.75781 5.83398C 3.91016 3.55859 6.27344 2 9 2C 9.96484 2 10.8828 2.19531 11.7188 2.54883C 10.043 4.18359 9 6.47656 9 9C 9 11.5332 10.043 13.8145 11.7266 15.4492ZM 13.5 14.3613C 13.168 14.082 12.8594 13.7715 12.582 13.4355C 11.5938 12.2285 11 10.6836 11 9C 11 6.84766 11.9805 4.92969 13.5078 3.64453C 15.0312 4.92773 16 6.84961 16 9C 16 11.1523 15.0273 13.0762 13.5 14.3613ZM 15.2852 15.4395C 16.1211 15.791 17.0352 16 18 16C 21.8672 16 25 12.8652 25 9C 25 5.13477 21.8672 2 18 2C 17.0312 2 16.1016 2.1875 15.2656 2.54102C 16.9492 4.17578 18 6.4668 18 9C 18 11.5234 16.9609 13.8047 15.2852 15.4395Z"/>
</svg>
