<svg width="48" height="48" viewBox="0 0 48 48" xmlns="http://www.w3.org/2000/svg"><title>icon: disk</title><g fill="none" fill-rule="evenodd"><circle stroke="#A88A83" stroke-width="2" cx="24" cy="24" r="23"/><g fill="#A88A83"><path d="M32 31a1 1 0 0 1-1 1H17a1 1 0 0 1-1-1V17a1 1 0 0 1 1-1h14a1 1 0 0 1 1 1v14zm-1-17H17a3 3 0 0 0-3 3v14a3 3 0 0 0 3 3h14a3 3 0 0 0 3-3V17a3 3 0 0 0-3-3z"/><path d="M24 29c-2.757 0-5-2.243-5-5s2.243-5 5-5 5 2.243 5 5-2.243 5-5 5m0-11a6 6 0 0 0 0 12 6 6 0 0 0 0-12"/><path d="M23 24a1 1 0 1 0 2 0 1 1 0 1 0-2 0z"/></g></g></svg>