<svg xmlns="http://www.w3.org/2000/svg" xmlns:xlink="http://www.w3.org/1999/xlink" viewBox="0 0 17 16"><defs><style>.cls-1{fill:#d8d8d8;}.cls-2{fill:#fff;}.cls-3{fill:url(#linear-gradient);}.cls-4{fill:#a2a2a2;}</style><linearGradient id="linear-gradient" x1="8.5" y1="14" x2="8.5" y2="2" gradientUnits="userSpaceOnUse"><stop offset="0" stop-color="#e6e6e6"/><stop offset="0.04" stop-color="#eaeaea"/><stop offset="0.21" stop-color="#f6f6f6"/><stop offset="0.43" stop-color="#fdfdfd"/><stop offset="1" stop-color="#fff"/></linearGradient></defs><title>calendar_</title><g id="Layer_2" data-name="Layer 2"><g id="Layer_1-2" data-name="Layer 1"><rect class="cls-1" x="1" y="2" width="15" height="14"/><rect class="cls-2" y="1" width="17" height="14"/><rect class="cls-3" x="1" y="2" width="15" height="12"/><rect class="cls-4" x="3" y="4" width="2" height="2"/><rect class="cls-4" x="6" y="4" width="2" height="2"/><rect class="cls-4" x="9" y="4" width="2" height="2"/><rect class="cls-4" x="12" y="4" width="2" height="2"/><rect class="cls-4" x="3" y="7" width="2" height="2"/><rect class="cls-4" x="6" y="7" width="2" height="2"/><rect class="cls-4" x="9" y="7" width="2" height="2"/><rect class="cls-4" x="12" y="7" width="2" height="2"/><rect class="cls-4" x="3" y="10" width="2" height="2"/><rect class="cls-4" x="6" y="10" width="2" height="2"/><rect class="cls-4" x="9" y="10" width="2" height="2"/><path class="cls-4" d="M15,1V.5a.5.5,0,0,0-1,0V1H3V.5a.5.5,0,0,0-1,0V1H0V15H17V1Zm1,13H1V2H2v.5a.5.5,0,0,0,1,0V2H14v.5a.5.5,0,0,0,1,0V2h1Z"/></g></g></svg>