<svg width="18" height="18" viewBox="0 0 18 18" style="padding:1px" xmlns="http://www.w3.org/2000/svg"><path fill="#fff" fill-rule="evenodd" d="M9 18A9 9 0 1 0 9 0a9 9 0 0 0 0 18z"/><path fill="#008138" d="M9 19c5.523 0 10-4.477 10-10h-2a8 8 0 0 1-8 8v2zM19 9C19 3.477 14.523-1 9-1v2a8 8 0 0 1 8 8h2zM9-1C3.477-1-1 3.477-1 9h2a8 8 0 0 1 8-8v-2zM-1 9c0 5.523 4.477 10 10 10v-2a8 8 0 0 1-8-8h-2z"/><path fill="#464646" fill-rule="evenodd" d="M12.316 5l-4.062 5.477-1.55-2.165L5 9.495 8.223 14 14 6.21 12.316 5z"/></svg>