<svg width="48" height="48" viewBox="0 0 48 48" xmlns="http://www.w3.org/2000/svg"><title>icon: cpu</title><g fill="none" fill-rule="evenodd"><circle stroke="#8043DC" stroke-width="2" cx="24" cy="24" r="23"/><g fill="#8043DC"><path d="M20 28h8v-8h-8v8zm-1 1h10V19H19v10z"/><path d="M32 30c0 1.103-.897 2-2 2H18c-1.103 0-2-.897-2-2V18c0-1.103.897-2 2-2h12c1.103 0 2 .897 2 2v12zm3-5a1 1 0 1 0 0-2h-1v-1h1a1 1 0 1 0 0-2h-1v-2a4 4 0 0 0-4-4h-2v-1a1 1 0 1 0-2 0v1h-1v-1a1 1 0 1 0-2 0v1h-1v-1a1 1 0 1 0-2 0v1h-2a4 4 0 0 0-4 4v2h-1a1 1 0 1 0 0 2h1v1h-1a1 1 0 1 0 0 2h1v1h-1a1 1 0 1 0 0 2h1v2a4 4 0 0 0 4 4h2v1a1 1 0 1 0 2 0v-1h1v1a1 1 0 1 0 2 0v-1h1v1a1 1 0 1 0 2 0v-1h2a4 4 0 0 0 4-4v-2h1a1 1 0 1 0 0-2h-1v-1h1z"/></g></g></svg>