<?xml version="1.0" encoding="UTF-8"?>
<svg width="12px" height="12px" viewBox="0 0 12 12" version="1.1" xmlns="http://www.w3.org/2000/svg" xmlns:xlink="http://www.w3.org/1999/xlink">
    <!-- Generator: Sketch 43.2 (39069) - http://www.bohemiancoding.com/sketch -->
    <title>Shape</title>
    <desc>Created with Sketch.</desc>
    <defs>
        <linearGradient x1="49.9665552%" y1="100%" x2="49.9665552%" y2="0%" id="linearGradient-1">
            <stop stop-color="#E6E6E6" offset="0%"></stop>
            <stop stop-color="#FFFFFF" offset="100%"></stop>
        </linearGradient>
    </defs>
    <g id="Page-1" stroke="none" stroke-width="1" fill="none" fill-rule="evenodd">
        <g id="topology" transform="translate(-1280.000000, -21.000000)" fill-rule="nonzero" fill="url(#linearGradient-1)">
            <g id="header" transform="translate(0.000000, -1.000000)">
                <g id="user_" transform="translate(1280.000000, 22.000000)">
                    <path d="M12,12 L0,12 C0.0879206862,10.6850688 0.610056844,9.4361191 1.48494983,8.448 C1.91244945,7.94595587 2.6394085,7.8212683 3.21070234,8.152 C4.84372259,9.09118114 6.87643212,8.99426146 8.41204013,7.904 C8.95662257,7.53065583 9.69030531,7.59438751 10.1618729,8.056 C11.2498099,9.09393775 11.9060055,10.5019119 12,12 Z M5.6187291,0 C3.84550716,-1.082166e-16 2.40802676,1.4326888 2.40802676,3.2 C2.40802676,4.968 3.82876254,7.2 5.6187291,7.2 C7.40869565,7.2 8.82943144,4.968 8.82943144,3.2 C8.82943144,1.4326888 7.39195104,1.082166e-16 5.6187291,0 Z" id="Shape"></path>
                </g>
            </g>
        </g>
    </g>
</svg>