<svg xmlns="http://www.w3.org/2000/svg" viewBox="0 0 17 16"><defs><style>.cls-1{fill:#d8d8d8}.cls-2{fill:#fff}.cls-3{fill:url(#linear-gradient)}.cls-4{fill:#a2a2a2}</style><linearGradient id="linear-gradient" x1="8.5" y1="14" x2="8.5" y2="2" gradientUnits="userSpaceOnUse"><stop offset="0" stop-color="#e6e6e6"/><stop offset=".04" stop-color="#eaeaea"/><stop offset=".21" stop-color="#f6f6f6"/><stop offset=".43" stop-color="#fdfdfd"/><stop offset="1" stop-color="#fff"/></linearGradient></defs><title>calendar_</title><g id="Layer_2" data-name="Layer 2"><g id="Layer_1-2" data-name="Layer 1"><path class="cls-1" d="M1 2h15v14H1z"/><path class="cls-2" d="M0 1h17v14H0z"/><path class="cls-3" d="M1 2h15v12H1z"/><path class="cls-4" d="M3 4h2v2H3zm3 0h2v2H6zm3 0h2v2H9zm3 0h2v2h-2zM3 7h2v2H3zm3 0h2v2H6zm3 0h2v2H9zm3 0h2v2h-2zm-9 3h2v2H3zm3 0h2v2H6zm3 0h2v2H9z"/><path class="cls-4" d="M15 1V.5a.5.5 0 0 0-1 0V1H3V.5a.5.5 0 0 0-1 0V1H0v14h17V1zm1 13H1V2h1v.5a.5.5 0 0 0 1 0V2h11v.5a.5.5 0 0 0 1 0V2h1z"/></g></g></svg>