<?xml version="1.0" encoding="UTF-8"?>
<svg width="48px" height="48px" viewBox="0 0 48 48" version="1.1" xmlns="http://www.w3.org/2000/svg" xmlns:xlink="http://www.w3.org/1999/xlink">
    <!-- Generator: Sketch 43.2 (39069) - http://www.bohemiancoding.com/sketch -->
    <title>icon: disk</title>
    <desc>Created with Sketch.</desc>
    <defs></defs>
    <g id="Page-1" stroke="none" stroke-width="1" fill="none" fill-rule="evenodd">
        <g id="creating-deployment-group:-review-(without-package-selection)" transform="translate(-202.000000, -1200.000000)">
            <g id="service:-wordpress" transform="translate(183.000000, 1116.000000)">
                <g id="package" transform="translate(0.000000, 72.000000)">
                    <g id="icon:-disk" transform="translate(19.000000, 12.000000)">
                        <circle id="Oval-4" stroke="#A88A83" stroke-width="2" cx="24" cy="24" r="23"></circle>
                        <g transform="translate(14.000000, 14.000000)" fill="#A88A83">
                            <path d="M18,17 C18,17.552 17.552,18 17,18 L3,18 C2.448,18 2,17.552 2,17 L2,3 C2,2.448 2.448,2 3,2 L17,2 C17.552,2 18,2.448 18,3 L18,17 Z M17,0 L3,0 C1.343,0 0,1.343 0,3 L0,17 C0,18.657 1.343,20 3,20 L17,20 C18.657,20 20,18.657 20,17 L20,3 C20,1.343 18.657,0 17,0 L17,0 Z" id="Fill-1"></path>
                            <path d="M10,15 C7.243,15 5,12.757 5,10 C5,7.243 7.243,5 10,5 C12.757,5 15,7.243 15,10 C15,12.757 12.757,15 10,15 M10,4 C6.687,4 4,6.687 4,10 C4,13.313 6.687,16 10,16 C13.313,16 16,13.313 16,10 C16,6.687 13.313,4 10,4" id="Fill-3"></path>
                            <path d="M9,10 C9,10.553 9.447,11 10,11 C10.553,11 11,10.553 11,10 C11,9.447 10.553,9 10,9 C9.447,9 9,9.447 9,10 Z" id="Fill-5"></path>
                        </g>
                    </g>
                </g>
            </g>
        </g>
    </g>
</svg>