<svg width="12" height="13" viewBox="0 0 12 13" xmlns="http://www.w3.org/2000/svg"><title>icon: alert</title><defs><linearGradient x1="49.967%" y1="100%" x2="49.967%" y2="0%" id="a"><stop stop-color="#E6E6E6" offset="0%"/><stop stop-color="#FFF" offset="100%"/></linearGradient></defs><path d="M27 33a1 1 0 0 1-1-1h2a1 1 0 0 1-1 1zm3.6-5.667c0 1.35 1.075 2.445 2.4 2.445V31H21v-1.222c1.325 0 2.4-1.095 2.4-2.445v-1.222a3.65 3.65 0 0 1 2.4-3.442v-1.447c0-.674.538-1.222 1.2-1.222.662 0 1.2.548 1.2 1.222v1.447a3.65 3.65 0 0 1 2.4 3.442v1.222z" transform="translate(-21 -20)" fill="url(#a)" fill-rule="evenodd"/></svg>