<?xml version="1.0" encoding="UTF-8"?>
<svg width="48px" height="48px" viewBox="0 0 48 48" version="1.1" xmlns="http://www.w3.org/2000/svg" xmlns:xlink="http://www.w3.org/1999/xlink">
    <!-- Generator: Sketch 43.2 (39069) - http://www.bohemiancoding.com/sketch -->
    <title>icon: cpu</title>
    <desc>Created with Sketch.</desc>
    <defs></defs>
    <g id="Page-1" stroke="none" stroke-width="1" fill="none" fill-rule="evenodd">
        <g id="creating-deployment-group:-review-(without-package-selection)" transform="translate(-202.000000, -552.000000)">
            <g id="service:-wordpress" transform="translate(183.000000, 468.000000)">
                <g id="package" transform="translate(0.000000, 72.000000)">
                    <g id="icon:-cpu" transform="translate(19.000000, 12.000000)">
                        <circle id="Oval-4" stroke="#8043DC" stroke-width="2" cx="24" cy="24" r="23"></circle>
                        <g id="cpu" transform="translate(12.000000, 12.000000)" fill="#8043DC">
                            <path d="M8,16 L16,16 L16,8 L8,8 L8,16 Z M7,17 L17,17 L17,7 L7,7 L7,17 Z" id="Fill-1"></path>
                            <path d="M20,18 C20,19.103 19.103,20 18,20 L6,20 C4.897,20 4,19.103 4,18 L4,6 C4,4.897 4.897,4 6,4 L18,4 C19.103,4 20,4.897 20,6 L20,18 Z M23,13 C23.552,13 24,12.553 24,12 C24,11.447 23.552,11 23,11 L22,11 L22,10 L23,10 C23.552,10 24,9.553 24,9 C24,8.447 23.552,8 23,8 L22,8 L22,6 C22,3.791 20.209,2 18,2 L16,2 L16,1 C16,0.447 15.552,0 15,0 C14.448,0 14,0.447 14,1 L14,2 L13,2 L13,1 C13,0.447 12.552,0 12,0 C11.448,0 11,0.447 11,1 L11,2 L10,2 L10,1 C10,0.447 9.552,0 9,0 C8.448,0 8,0.447 8,1 L8,2 L6,2 C3.791,2 2,3.791 2,6 L2,8 L1,8 C0.448,8 0,8.447 0,9 C0,9.553 0.448,10 1,10 L2,10 L2,11 L1,11 C0.448,11 0,11.447 0,12 C0,12.553 0.448,13 1,13 L2,13 L2,14 L1,14 C0.448,14 0,14.447 0,15 C0,15.553 0.448,16 1,16 L2,16 L2,18 C2,20.209 3.791,22 6,22 L8,22 L8,23 C8,23.553 8.448,24 9,24 C9.552,24 10,23.553 10,23 L10,22 L11,22 L11,23 C11,23.553 11.448,24 12,24 C12.552,24 13,23.553 13,23 L13,22 L14,22 L14,23 C14,23.553 14.448,24 15,24 C15.552,24 16,23.553 16,23 L16,22 L18,22 C20.209,22 22,20.209 22,18 L22,16 L23,16 C23.552,16 24,15.553 24,15 C24,14.447 23.552,14 23,14 L22,14 L22,13 L23,13 Z" id="Fill-2"></path>
                        </g>
                    </g>
                </g>
            </g>
        </g>
    </g>
</svg>