<svg width="48" height="48" viewBox="0 0 48 48" xmlns="http://www.w3.org/2000/svg"><title>icon: cpu</title><g fill="none" fill-rule="evenodd"><circle stroke="#32ABCF" stroke-width="2" cx="24" cy="24" r="23"/><path d="M19.197 24.354l2.121 2.12 1.414-1.413-2.121-2.122-1.414 1.415zm-2.122 2.12l2.122 2.122 1.414-1.414-2.121-2.121-1.415 1.414zm4.243-4.242l2.121 2.122 1.415-1.415-2.122-2.121-1.414 1.414zm2.121-2.121l2.122 2.121 1.414-1.414-2.121-2.121-1.415 1.414zm2.122-2.121l2.121 2.12 1.414-1.413-2.121-2.122-1.414 1.415zm-10.607 9.192l4.95 4.95 12.728-12.728-4.95-4.95-12.728 12.728zm14.85-.707a1 1 0 1 0 1.414-1.414l-.708-.707.708-.708.707.708a1 1 0 1 0 1.414-1.415l-.707-.707 1.414-1.414a2 2 0 0 0 0-2.828l-4.95-4.95a2 2 0 0 0-2.828 0L13.54 25.768a2 2 0 0 0 0 2.828l4.95 4.95a2 2 0 0 0 2.828 0l1.414-1.414.707.707a1 1 0 1 0 1.415-1.414l-.708-.707.708-.708.707.708a1 1 0 1 0 1.414-1.415l-.707-.707.707-.707.707.707a1 1 0 1 0 1.414-1.414l-.707-.707.707-.707.707.707z" fill="#32ABCF"/></g></svg>