<?xml version="1.0" encoding="UTF-8"?>
<svg width="48px" height="48px" viewBox="0 0 48 48" version="1.1" xmlns="http://www.w3.org/2000/svg" xmlns:xlink="http://www.w3.org/1999/xlink">
    <!-- Generator: Sketch 43.2 (39069) - http://www.bohemiancoding.com/sketch -->
    <title>icon: cpu</title>
    <desc>Created with Sketch.</desc>
    <defs></defs>
    <g id="Page-1" stroke="none" stroke-width="1" fill="none" fill-rule="evenodd">
        <g id="creating-deployment-group:-review-(without-package-selection)" transform="translate(-202.000000, -1038.000000)">
            <g id="service:-wordpress" transform="translate(183.000000, 954.000000)">
                <g id="package" transform="translate(0.000000, 72.000000)">
                    <g id="icon:-cpu" transform="translate(19.000000, 12.000000)">
                        <circle id="Oval-4" stroke="#32ABCF" stroke-width="2" cx="24" cy="24" r="23"></circle>
                        <path d="M21,28 L24,28 L24,26 L21,26 L21,28 Z M21,31 L24,31 L24,29 L21,29 L21,31 Z M21,25 L24,25 L24,23 L21,23 L21,25 Z M21,22 L24,22 L24,20 L21,20 L21,22 Z M21,19 L24,19 L24,17 L21,17 L21,19 Z M20,33 L27,33 L27,15 L20,15 L20,33 Z M30,22 C30.552,22 31,21.553 31,21 C31,20.447 30.552,20 30,20 L29,20 L29,19 L30,19 C30.552,19 31,18.553 31,18 C31,17.447 30.552,17 30,17 L29,17 L29,15 C29,13.896 28.104,13 27,13 L20,13 C18.896,13 18,13.896 18,15 L18,33 C18,34.104 18.896,35 20,35 L27,35 C28.104,35 29,34.104 29,33 L29,31 L30,31 C30.552,31 31,30.553 31,30 C31,29.447 30.552,29 30,29 L29,29 L29,28 L30,28 C30.552,28 31,27.553 31,27 C31,26.447 30.552,26 30,26 L29,26 L29,25 L30,25 C30.552,25 31,24.553 31,24 C31,23.447 30.552,23 30,23 L29,23 L29,22 L30,22 Z" id="Page-1" fill="#32ABCF" transform="translate(24.500000, 24.000000) rotate(45.000000) translate(-24.500000, -24.000000) "></path>
                    </g>
                </g>
            </g>
        </g>
    </g>
</svg>