<?xml version="1.0" encoding="UTF-8"?>
<svg width="9px" height="13px" viewBox="0 0 9 13" version="1.1" xmlns="http://www.w3.org/2000/svg" xmlns:xlink="http://www.w3.org/1999/xlink">
    <!-- Generator: Sketch 43.2 (39069) - http://www.bohemiancoding.com/sketch -->
    <title>icon:  data center</title>
    <desc>Created with Sketch.</desc>
    <defs>
        <linearGradient x1="49.9665552%" y1="100%" x2="49.9665552%" y2="0%" id="linearGradient-1">
            <stop stop-color="#E6E6E6" offset="0%"></stop>
            <stop stop-color="#FFFFFF" offset="100%"></stop>
        </linearGradient>
    </defs>
    <g id="Page-1" stroke="none" stroke-width="1" fill="none" fill-rule="evenodd">
        <g id="creating-deployment-group:-editing-manifest" transform="translate(-1174.000000, -20.000000)" fill="url(#linearGradient-1)">
            <g id="header" transform="translate(0.000000, -1.000000)">
                <path d="M1174,34 L1183,34 L1183,21 L1174,21 L1174,34 Z M1176,32 L1181,32 L1181,23 L1176,23 L1176,32 Z M1177,25 L1180.001,25 L1180.001,24 L1177,24 L1177,25 Z M1177,27 L1180.001,27 L1180.001,26 L1177,26 L1177,27 Z M1177,29 L1180.001,29 L1180.001,28 L1177,28 L1177,29 Z" id="icon:--data-center"></path>
            </g>
        </g>
    </g>
</svg>