<svg width="24" height="24" viewBox="0 0 24 24" version="1.1" xmlns="http://www.w3.org/2000/svg" xmlns:xlink="http://www.w3.org/1999/xlink">
<title>Import</title>
<desc>Created using Figma</desc>
<g id="Canvas" transform="translate(-2061 2768)">
<clipPath id="clip-0" clip-rule="evenodd">
<path d="M 2061 -2768L 2085 -2768L 2085 -2744L 2061 -2744L 2061 -2768Z" fill="#FFFFFF"/>
</clipPath>
<g id="Import" clip-path="url(#clip-0)">
<path d="M 2061 -2768L 2085 -2768L 2085 -2744L 2061 -2744L 2061 -2768Z" fill="#FFFFFF"/>
<g id="Bottom">
<use xlink:href="#path0_fill" transform="translate(2061 -2754)" fill="#464646"/>
</g>
<g id="Line">
<use xlink:href="#path1_fill" transform="matrix(1 0 0 1 2072 -2768)" fill="#464646"/>
</g>
<g id="Arrow">
<use xlink:href="#path2_fill" transform="translate(2067.29 -2755)" fill="#464646"/>
</g>
</g>
</g>
<defs>
<path id="path0_fill" fill-rule="evenodd" d="M 0 0L 2 0L 2 8L 22 8L 22 0L 24 0L 24 10L 22 10L 2 10L 0 10L 0 0Z"/>
<path id="path1_fill" fill-rule="evenodd" d="M 0 0L 2 0L 2 18L 0 18L 0 0Z"/>
<path id="path2_fill" fill-rule="evenodd" d="M 1.41431 0L 0 1.41431L 4.29468 5.70557L 4.94971 6.36401L 5.70874 7.11987L 11.4143 1.41455L 10 0.000244141L 5.70728 4.29297L 1.41431 0Z"/>
</defs>
</svg>
