<svg width="24" height="22" viewBox="0 0 24 22" version="1.1" xmlns="http://www.w3.org/2000/svg" xmlns:xlink="http://www.w3.org/1999/xlink">
<path fill="#494949" fill-rule="evenodd" d="M 10.1387 0.000962711C 10.0979 0.00784194 10.0579 0.0194454 10.0197 0.035497L 1.5726 3.37669C 1.2804 3.49228 1.14214 3.89611 1.30066 4.17097L 2.9408 6.97688L 0.17042 9.40292C -0.112742 9.64681 -0.0283339 10.1916 0.314877 10.3353L 3.10225 11.5095L 3.10225 17.3026C 3.11612 17.6517 3.25796 17.8121 3.53566 17.9329L 12.9006 21.6194C 13.0356 21.6744 13.1926 21.6713 13.3255 21.6108L 21.3392 17.907C 21.6256 17.7472 21.6758 17.6281 21.7046 17.3027L 21.7046 11.734L 23.1662 10.9311C 23.4139 10.7939 23.5186 10.4423 23.3872 10.1886L 21.832 7.19279L 23.8631 5.0603C 24.1168 4.79718 24.0002 4.27878 23.6591 4.15378L 14.8126 0.924822C 14.7605 0.907997 14.7058 0.899242 14.6512 0.898938C 14.5242 0.892418 14.3954 0.932933 14.2942 1.01117L 12.0933 2.75515L 10.6911 0.268688C 10.589 0.0956018 10.3878 -0.0118135 10.1897 0.00104702C 10.1728 0.000218201 10.1557 0.000218201 10.1387 0.00104702L 10.1387 0.000962711ZM 9.97721 1.23556L 11.1584 3.31625L 3.87559 6.39843L 2.56689 4.17097L 9.97721 1.23556ZM 14.7276 2.07302L 22.4949 4.90483L 21.0162 6.45024L 13.028 3.41122L 14.7276 2.07302ZM 11.9488 4.17961L 19.7415 7.14955L 13.0875 10.2231L 5.09931 7.08049L 11.9488 4.17961ZM 3.73962 7.73664L 12.0082 10.9829L 9.44185 13.0031L 1.54711 9.66192L 3.73962 7.73664ZM 20.9142 7.81434L 22.1719 10.2231L 15.518 13.8837L 13.8778 11.0692L 20.9142 7.81434ZM 12.5606 11.9498L 12.5606 20.2985L 4.19001 17.0005L 4.19001 11.9757L 9.32285 14.1427C 9.49675 14.216 9.70786 14.1887 9.85824 14.0737L 12.5606 11.9498ZM 20.6168 12.3383L 20.6168 17.0264L 13.6484 20.2467L 13.6484 12.8563L 14.8466 14.9025C 14.9874 15.1483 15.3318 15.246 15.5774 15.1097L 20.6168 12.3383Z"/>
</svg>
