<svg width="105" height="19" viewBox="0 0 105 19" xmlns="http://www.w3.org/2000/svg"><path fill="#FDFDFD" fill-rule="evenodd" d="M81 9.502C81 4.256 76.747.004 71.5.004V0C66.253.002 62 4.256 62 9.502S66.253 19 71.5 19 81 14.748 81 9.502zM16.227 1H.773A.773.773 0 0 0 0 1.772v3.094c0 .426.346.772.773.772h4.61c.421 0 .765.336.773.756v10.834c0 .426.346.772.773.772h3.093a.773.773 0 0 0 .773-.772V6.394c0-.426.346-.772.773-.772h4.68a.773.773 0 0 0 .752-.76v-3.09A.773.773 0 0 0 16.227 1zM33 1.772v3.094c0 .426-.35.772-.783.772h-6.723a.778.778 0 0 0-.784.773v10.817c0 .426-.35.772-.783.772h-3.14a.788.788 0 0 1-.726-.472.763.763 0 0 1-.061-.3V5.634C20.002 3.074 22.107 1 24.702 1h7.515c.432 0 .783.346.783.772zM40.167 1h-3.334c-.46 0-.833.346-.833.772v15.456c0 .426.373.772.833.772h3.334c.46 0 .833-.346.833-.772V1.772c0-.426-.373-.772-.833-.772zm3.605 0h15.456c.426 0 .772.346.772.772V4.85a.772.772 0 0 1-.772.772h-4.662a.772.772 0 0 0-.772.772v10.833a.772.772 0 0 1-.772.773H49.93a.775.775 0 0 1-.784-.773V6.394a.772.772 0 0 0-.772-.756h-4.6A.772.772 0 0 1 43 4.866V1.772c0-.426.346-.772.772-.772zM84 1.772A.77.77 0 0 1 84.77 1h11.61c2.55 0 4.618 2.074 4.62 4.634v11.594a.77.77 0 0 1-.769.772H97.15a.77.77 0 0 1-.77-.772V6.394a.77.77 0 0 0-.765-.772H89.39a.77.77 0 0 0-.77.772v10.834a.77.77 0 0 1-.769.772h-3.08a.77.77 0 0 1-.77-.772V1.772zM71.5 5a4.5 4.5 0 1 0 0 9 4.5 4.5 0 0 0 0-9zm31.112-3.854H103v.84h.314v-.753l.551.767.253-.014.551-.764v.764H105V1h-.446l-.551.767L103.49 1H102v.146h.388V2h.228l-.004-.854z"/></svg>