<svg width="176" height="60" viewBox="0 0 176 60" version="1.1" xmlns="http://www.w3.org/2000/svg" xmlns:xlink="http://www.w3.org/1999/xlink">
<title>joyent-cloud-1</title>
<desc>Created using Figma</desc>
<g id="Canvas" transform="translate(-13555 -35663)">
<g id="joyent-cloud-1">
<g id="Layer 2">
<g id="Layer 1">
<g id="Vector">
<use xlink:href="#path0_fill" transform="translate(13555 35663)" fill="#D8D8D8"/>
</g>
</g>
</g>
</g>
</g>
<defs>
<path id="path0_fill" d="M 175.67 60C 175.46 57.1838 174.521 54.4703 172.946 52.1246C 171.371 49.7789 169.213 47.8813 166.684 46.6172C 164.155 45.3531 161.34 44.7657 158.516 44.9125C 155.691 45.0592 152.953 45.9351 150.569 47.4545C 151.756 42.3105 151.879 36.9785 150.928 31.7856C 149.978 26.5927 147.975 21.6484 145.042 17.2561C 142.11 12.8637 138.309 9.11598 133.874 6.24275C 129.438 3.36953 124.462 1.43141 119.249 0.547318C 114.037 -0.336776 108.698 -0.148206 103.561 1.10146C 98.4245 2.35112 93.5975 4.63553 89.3766 7.81452C 85.1557 10.9935 81.6298 15.0001 79.0153 19.5883C 76.4008 24.1766 74.7528 29.2499 74.1725 34.4969C 70.6998 30.679 66.1574 27.9922 61.1354 26.7853C 56.1135 25.5785 50.844 25.9074 46.0118 27.7294C 41.1795 29.5514 37.0076 32.7822 34.0382 37.0021C 31.0688 41.2221 29.4391 46.2361 29.3608 51.3928C 27.36 48.7427 24.5977 46.7643 21.4422 45.7215C 18.2866 44.6787 14.8877 44.6209 11.6984 45.5558C 8.50906 46.4908 5.68092 48.374 3.5909 50.9546C 1.50088 53.5352 0.248256 56.6905 0 60L 175.67 60Z"/>
</defs>
</svg>
