<svg xmlns="http://www.w3.org/2000/svg" viewBox="0 0 42 42"><title>Artboard 1 copy</title><path d="M24.37 22.2c-.7 0 .1.4 1 .5a4.35 4.35 0 0 0 .7-.6 9.15 9.15 0 0 1-1.7.1m3.8-1a4.76 4.76 0 0 0 .8-1.8 3.1 3.1 0 0 1-.6 1.3c-1.3.8-.1-.5 0-1-1.4 1.7-.2 1-.2 1.5m1.3-3.6c.1-1.3-.2-.9-.4-.4.2.1.3.9.4.4M21.77.5c.4.1.8.1.7.2.4-.1.5-.2-.7-.2m.7.2l-.3.1.3-.1"/><path d="M34.07 18.1a5.59 5.59 0 0 1-.7 2.6l-.6.3c-.5 1 0 .6-.3 1.4a22.09 22.09 0 0 1-2.8 2.3c-.4 0 .2-.4.3-.6-1 .7-.8 1.1-2.4 1.5v-.1c-3.9 1.8-9.3-1.8-9.2-6.7 0 .3-.1.2-.2.4a6.2 6.2 0 0 1 3.5-6.1 5.69 5.69 0 0 1 6.5.9 5.88 5.88 0 0 0-4.8-2.3 5.06 5.06 0 0 0-4.6 2.8c-1.1.7-1.2 2.6-1.6 2.9-.6 4.5 1.2 6.5 4.2 8.8.5.3.1.4.2.6a10.52 10.52 0 0 1-2.7-2 5.39 5.39 0 0 0 1.4 1.6c-.9-.3-2.2-2.3-2.6-2.4 1.6 2.9 6.6 5.1 9.2 4a12.11 12.11 0 0 1-4.1-.5c-.6-.3-1.3-.9-1.2-1a10.14 10.14 0 0 0 10.3-1.5c.8-.6 1.6-1.6 1.9-1.7-.4.6.1.3-.2.8.8-1.3-.3-.5.8-2.2l.4.6c-.2-1 1.3-2.3 1.1-4 .3-.5.4.5 0 1.7.5-1.3.1-1.5.3-2.6.1.4.3.7.4 1.1a4.71 4.71 0 0 1 .5-2.8c-.2-.1-.5.6-.6-.9 0-.6.2-.3.2-.5A3.3 3.3 0 0 1 36 13c.1-.2.4.6.6.6-.1-.7-.3-1.3-.4-1.9-.6-1.2-.2.2-.7-.5-.6-1.9.5-.4.6-1.3a14.09 14.09 0 0 1 1.7 4.3 15.83 15.83 0 0 0-.9-3.1c.3.1-.5-2.2.4-.7a14.05 14.05 0 0 0-6.4-7.7c.3.3.7.7.6.7-1.3-.8-1.1-.8-1.3-1.2-1.1-.4-1.1 0-1.9 0A16.23 16.23 0 0 0 24 .6l.1.4c-1.3-.4-1.6.2-3 0-.1-.1.5-.2.9-.3-1.3.2-1.2-.3-2.5 0a8.79 8.79 0 0 1 1-.6c-1.1.1-2.5.6-2.1.1-1.7.8-4.8 1.9-6.5 3.5l-.1-.4c-.8.9-3.4 2.8-3.6 4.1H8a21.4 21.4 0 0 0-1 2.2c-.5.9-.8.4-.7.5a24.48 24.48 0 0 0-2 5.4c.3.5 0 2.9.1 4.8-.5 9.6 6.7 18.9 14.6 21a15.34 15.34 0 0 0 4.4.4c-1.7-.5-2-.3-3.6-.9a7.56 7.56 0 0 1-2.3-2l.3.6c-1.7-.6-1-.7-2.4-1.2l.4-.5a2.91 2.91 0 0 1-1.7-1.4h-.6c-.7-.9-1.1-1.5-1.1-2l-.2.3c-.2-.4-2.7-3.3-1.4-2.6a3 3 0 0 1-.9-1l.3-.3a6 6 0 0 1-1.1-2.1 1.41 1.41 0 0 0 .8.6c-1.5-3.8-1.6-.2-2.8-3.9h.2c-.2-.3-.3-.6-.5-.9l.1-1.1c-1.1-1.3-.3-5.4-.1-7.7.1-.9.9-1.9 1.5-3.5l-.4-.1c.7-1.3 4.1-5 5.7-4.8.8-1-.2 0-.3-.2 1.7-1.7 2.2-1.2 3.3-1.5 1.2-.7-1 .3-.5-.3 2.1-.5 1.5-1.2 4.2-1.5.3.2-.7.3-.9.5 1.7-.9 5.5-.7 8 .5 2.8 1.3 6.1 5.3 6.2 9h.1c-.1 1.5.2 3.2-.3 4.7l.7-.3"/><path d="M16.77 23.1l-.1.5a12.38 12.38 0 0 0 1.4 1.8c-.4-.8-.7-1.2-1.3-2.3m1.1 0a4.05 4.05 0 0 1-.5-.9 7.14 7.14 0 0 0 .8 1.5l-.3-.6M37 18.9l-.1.3a14.58 14.58 0 0 1-1.2 3.9 11.34 11.34 0 0 0 1.3-4.2M21.87.2a9.85 9.85 0 0 1 1.7-.2c-.7.1-1.3.1-1.9.2h.2M5.37 9c.1 1-.8 1.4.2.7.5-1.2-.2-.3-.2-.7m-1.1 4.6a5.56 5.56 0 0 0 .3-1.5c-.6.8-.2 1-.3 1.5"/></svg>