<svg id="svg4300" xmlns="http://www.w3.org/2000/svg" viewBox="0 0 42 42"><defs><style>.cls-1{fill:none}.cls-2{fill:url(#linear-gradient)}.cls-3{clip-path:url(#clip-path)}.cls-4{fill:#b4b4b4;opacity:.66;isolation:isolate}.cls-5{fill:url(#linear-gradient-2)}</style><linearGradient id="linear-gradient" x1="6" y1="127.4" x2="36" y2="127.4" gradientTransform="matrix(1 0 0 -1 0 147.4)" gradientUnits="userSpaceOnUse"><stop offset=".01"/><stop offset=".19" stop-color="#171717"/><stop offset=".54" stop-color="#3d3d3d"/><stop offset=".82" stop-color="#545454"/><stop offset="1" stop-color="#5c5c5c"/></linearGradient><clipPath id="clip-path"><path class="cls-1" d="M21.8 3.15a1.53 1.53 0 0 0-1.6 0l-13.4 7.7a1.6 1.6 0 0 0-.8 1.4v15.5a1.6 1.6 0 0 0 .8 1.4l13.4 7.7a1.53 1.53 0 0 0 1.6 0l13.4-7.7a1.6 1.6 0 0 0 .8-1.4v-15.5a1.6 1.6 0 0 0-.8-1.4z"/></clipPath><linearGradient id="linear-gradient-2" x1="5.81" y1="127.46" x2="36.75" y2="127.46" gradientTransform="matrix(1 0 0 -1 0 147.4)" gradientUnits="userSpaceOnUse"><stop offset="0" stop-color="#5c5c5c"/><stop offset=".18" stop-color="#545454"/><stop offset=".46" stop-color="#3d3d3d"/><stop offset=".81" stop-color="#171717"/><stop offset=".99"/></linearGradient></defs><title>Artboard 1 copy 10</title><path id="_Path_" data-name="&lt;Path&gt;" class="cls-2" d="M20.2 3.15a1.53 1.53 0 0 1 1.6 0l13.4 7.7a1.6 1.6 0 0 1 .8 1.4v15.5a1.6 1.6 0 0 1-.8 1.4l-13.4 7.7a1.53 1.53 0 0 1-1.6 0l-13.4-7.7a1.6 1.6 0 0 1-.8-1.4v-15.5a1.6 1.6 0 0 1 .8-1.4z"/><g class="cls-3"><path class="cls-1" d="M20.2 3.15l-13.4 7.7a1.6 1.6 0 0 0-.8 1.4v15.5a1.28 1.28 0 0 0 .4 1L21.5 3a2.74 2.74 0 0 0-1.3.15zm1.3 33.9c.1 0 .2-.1.3-.1l13.4-7.7a1.51 1.51 0 0 0 .7-1.4v-15.5a1.49 1.49 0 0 0-.3-1z"/><path class="cls-4" d="M35.1 11L21.8 3.25c-.1-.1-.3-.1-.4-.2L6.3 28.85a1 1 0 0 0 .5.4L20.2 37a1.5 1.5 0 0 0 1.3.1l14.1-25.8c-.2-.15-.3-.25-.5-.3z"/></g><g class="cls-3"><path class="cls-1" d="M6.9 10.85l-.2.1a1.6 1.6 0 0 0-.8 1.4v15.5a1.6 1.6 0 0 0 .8 1.4L20.1 37a1.72 1.72 0 0 0 1.2.2zm29 1.5a1.51 1.51 0 0 0-.7-1.4l-13.3-7.7c-.1-.1-.2-.1-.4-.2l14.4 24.7z"/><path class="cls-5" d="M21.8 36.85l13.4-7.7a1.51 1.51 0 0 0 .7-1.4v-.1L21.5 3a1.53 1.53 0 0 0-1.3.2L7 10.75 21.4 37c.1.05.2 0 .4-.15z"/></g></svg>