<svg xmlns="http://www.w3.org/2000/svg" id="nav" width="133.5" height="36" viewBox="0 0 106.78 29.01">
    <title>logo</title>
    <path fill="#464646" fill-rule="evenodd" d="M112.32,36.78a5.3,5.3,0,0,0,3.31,1.32c2.1,0,2.65-1.27,2.65-2.94V20.54h2.28V32.46c0,1,0,2.16-.06,3.2C120.38,38.43,119,40,115.72,40a6.43,6.43,0,0,1-4.55-1.64ZM134,32.61c0-3.46-1-5.88-3.8-5.88s-4,2.3-4,5.42c0,2.85.58,6.22,3.86,6.22C132.77,38.37,134,35.75,134,32.61ZM130.32,25c2,0,5.91.63,5.91,7.14,0,5.62-2.79,8-6.39,8s-5.91-2.48-5.91-7.66C123.93,26.47,127.47,25,130.32,25ZM150,39.12V25.38h-2.19V34a3.23,3.23,0,0,1-3.51,3.37c-3.05,0-3.25-1.67-3.25-3.86V25.38h-2.25v8.7c0,3.28,1.59,4.47,4,4.72-1.41.92-3.17,2.59-3.17,4.93s1.41,3.63,4.35,3.63a5.24,5.24,0,0,0,5.62-4.26A18.85,18.85,0,0,0,150,39.12Zm-5.76,6.51c2.62,0,3.54-2.28,3.54-5.41V37.7c-3.46,1.44-6,3-6,5.73C141.84,44.85,142.68,45.63,144.26,45.63ZM159.3,25c-4.38,0-6.68,3.51-6.68,7.78s1.9,7.35,6.4,7.35a7.47,7.47,0,0,0,4.7-1.64L162.85,37a5.92,5.92,0,0,1-3.69,1.33c-3.05,0-4.21-2.48-4.32-4.84,0.23,0,.46,0,0.75,0,2.79,0,7.92-.69,7.92-5C163.51,26.41,162,25,159.3,25Zm-0.11,1.67c-3.08,0-4.26,2.91-4.35,5.19,0.17,0,.35,0,0.58,0,2,0,6-.46,6-3.05A2.06,2.06,0,0,0,159.19,26.64Zm9.53,13V30.3a3.84,3.84,0,0,1,3.89-3.54c2.42,0,2.88,1.73,2.88,3.86v9.07h2.25V29.93c0-3.28-1.61-5-4.58-5a5.48,5.48,0,0,0-4.64,2.48l-0.26-2.07h-1.93l0.14,2.16V39.69h2.25Zm12.33-20v16.1c0,2.1.12,4.32,3.95,4.32a6.09,6.09,0,0,0,3.26-1l-0.66-1.5a4.19,4.19,0,0,1-2.19.69c-1.35,0-2.1-.6-2.1-2.51V27.31h4.09V25.38H183.3v-5.7h-2.25ZM97.58,41.21A11.43,11.43,0,1,0,86.15,29.78,11.43,11.43,0,0,0,97.58,41.21Zm-2-17.55A0.43,0.43,0,0,1,96,23.22h3.21a0.43,0.43,0,0,1,.43.43v4.09h4.09a0.43,0.43,0,0,1,.43.43v3.21a0.43,0.43,0,0,1-.43.43H99.62V35.9a0.43,0.43,0,0,1-.43.43H96a0.43,0.43,0,0,1-.43-0.43V31.81H91.46A0.43,0.43,0,0,1,91,31.38V28.17a0.43,0.43,0,0,1,.43-0.43h4.09V23.65ZM190,21a1.46,1.46,0,1,0,1.46-1.45A1.45,1.45,0,0,0,190,21Zm0.26,0a1.2,1.2,0,1,1,1.2,1.25A1.2,1.2,0,0,1,190.27,21Zm0.63,0.85h0.26V21.11h0.28l0.46,0.73h0.28l-0.49-.75a0.44,0.44,0,0,0,.45-0.46,0.48,0.48,0,0,0-.59-0.49h-0.66v1.7Zm0.26-1.48h0.35c0.18,0,.37,0,0.37.26s-0.21.28-.45,0.28h-0.28V20.36Z" transform="translate(-86.15 -18.34)"/>
</svg>
