<svg width="18px" height="18px" viewBox="0 0 18 18" version="1.1" xmlns="http://www.w3.org/2000/svg" xmlns:xlink="http://www.w3.org/1999/xlink">
    <defs>
        <circle id="path-1" cx="9" cy="9" r="9"></circle>
        <mask id="mask-2" maskContentUnits="userSpaceOnUse" maskUnits="objectBoundingBox" x="0" y="0" width="18" height="18" fill="white">
            <use xlink:href="#path-1"></use>
        </mask>
    </defs>
    <g id="Page-1" stroke="none" stroke-width="1" fill="none" fill-rule="evenodd">
        <g id="Project:-activity-feed-1.2" transform="translate(-229.000000, -717.000000)">
            <g id="event" transform="translate(213.000000, 702.000000)">
                <g id="icon:-user-action" transform="translate(16.000000, 15.000000)">
                    <use id="Oval" stroke="#646464" mask="url(#mask-2)" stroke-width="4" xlink:href="#path-1"></use>
                    <path d="M9.16666667,9.53838165 C8.596,9.53838165 8.06733333,9.37568559 7.598,9.11398725 C6.08133333,9.70384701 5,11.2193435 5,13 L13,13 C13,11.2954991 12.0106667,9.83261921 10.596,9.19221982 C10.1613333,9.40753248 9.68066667,9.53838165 9.16666667,9.53838165 Z M9.16666667,8.15394201 C10.2713333,8.15394201 11.1666667,7.22415133 11.1666667,6.07697101 C11.1666667,4.92979069 10.2713333,4 9.16666667,4 C8.062,4 7.16666667,4.92979069 7.16666667,6.07697101 C7.16666667,7.22415133 8.062,8.15394201 9.16666667,8.15394201 Z" id="icon:-user" fill="#646464"></path>
                </g>
            </g>
        </g>
    </g>
</svg>