<svg width="18px" height="24px" viewBox="0 0 18 24" version="1.1" xmlns="http://www.w3.org/2000/svg" xmlns:xlink="http://www.w3.org/1999/xlink">
    <g id="Page-1" stroke="none" stroke-width="1" fill="none" fill-rule="evenodd">
        <g id="creating-a-project-1.8-" transform="translate(-229.000000, -515.000000)" fill="#646464">
            <g id="button:-upload" transform="translate(213.000000, 504.000000)">
                <g id="icon:-upload" transform="translate(16.000000, 11.000000)">
                    <path d="M5.0004,-0.0003 L0.0004,4.0007 L0.0004,23.9997 L18.0004,23.9997 L18.0004,-0.0003 L5.0004,-0.0003 Z M1.9994,4.9997 L5.0004,4.9997 L5.0004,2.0007 L16.0004,2.0007 L16.0004,22.0007 L1.9994,22.0007 L1.9994,4.9997 Z" id="Fill-1"></path>
                    <path d="M9,9.9463 L9.044,10.0003 L8.956,10.0003 L9,9.9463 Z M8,11.1533 L8,17.0003 L10,17.0003 L10,11.1533 L11.23,12.6383 L12.77,11.3623 L9,6.8113 L5.23,11.3623 L6.77,12.6383 L8,11.1533 Z" id="Fill-2"></path>
                </g>
            </g>
        </g>
    </g>
</svg>