<svg width="18px" height="18px" viewBox="0 0 18 18" version="1.1" xmlns="http://www.w3.org/2000/svg" xmlns:xlink="http://www.w3.org/1999/xlink">
    <g id="Page-1" stroke="none" stroke-width="1" fill="none" fill-rule="evenodd">
        <g id="project:-adding-metrics-1.4" transform="translate(-979.000000, -413.000000)" fill="#FFFFFF">
            <g id="metric:-cpu" transform="translate(208.000000, 391.000000)">
                <g id="metric-head" transform="translate(5.000000, 0.000000)">
                    <g id="button:-settinga" transform="translate(742.000000, 0.000000)">
                        <path d="M33,34 C31.3425,34 30,32.6575 30,31 C30,29.3425 31.3425,28 33,28 C34.6575,28 36,29.3425 36,31 C36,32.6575 34.6575,34 33,34 L33,34 Z M42,32.5 L42,29.5 L40.3485,29.5 C40.155,28.543 39.774,27.655 39.252,26.869 L40.425,25.696 L38.304,23.575 L37.131,24.748 C36.345,24.226 35.457,23.845 34.5,23.6515 L34.5,22 L31.5,22 L31.5,23.6515 C30.543,23.845 29.655,24.226 28.869,24.748 L27.696,23.575 L25.575,25.696 L26.748,26.869 C26.226,27.655 25.845,28.543 25.6515,29.5 L24,29.5 L24,32.5 L25.6515,32.5 C25.845,33.457 26.226,34.345 26.748,35.131 L25.575,36.304 L27.696,38.425 L28.869,37.252 C29.655,37.774 30.543,38.155 31.5,38.3485 L31.5,40 L34.5,40 L34.5,38.3485 C35.457,38.155 36.345,37.774 37.131,37.252 L38.304,38.425 L40.425,36.304 L39.252,35.131 C39.774,34.345 40.155,33.457 40.3485,32.5 L42,32.5 Z" id="icon:-settings-"></path>
                    </g>
                </g>
            </g>
        </g>
    </g>
</svg>