<svg width="883" height="288" xmlns="http://www.w3.org/2000/svg" xmlns:xlink="http://www.w3.org/1999/xlink"><use xlink:href="#path0_fill" transform="matrix(0 1 -1 0 883 17.603)" fill="#2D3884" opacity=".5"/><use xlink:href="#path1_fill" transform="translate(305.2 1)" fill="#2D3884"/><use xlink:href="#path2_fill" transform="translate(4.1)" fill="#2D3884"/><use xlink:href="#path3_fill" fill="#2D3884" opacity=".5"/><use xlink:href="#path3_fill" transform="translate(55.9)" fill="#2D3884" opacity=".5"/><use xlink:href="#path4_fill" transform="matrix(0 1 -1 0 56.8 30.39)" fill="#2D3884" opacity=".5"/><use xlink:href="#path3_fill" transform="translate(882.1)" fill="#2D3884" opacity=".5"/><use xlink:href="#path5_fill" transform="translate(0 30)" fill="#3B46CC" opacity=".25"/><use xlink:href="#path5_fill" transform="translate(75.1 30)" fill="#3B46CC" opacity=".25"/><use xlink:href="#path5_fill" transform="translate(150.2 30)" fill="#3B46CC" opacity=".25"/><use xlink:href="#path5_fill" transform="translate(225.3 30)" fill="#3B46CC" opacity=".25"/><use xlink:href="#path5_fill" transform="translate(300.4 30)" fill="#3B46CC" opacity=".25"/><use xlink:href="#path5_fill" transform="translate(375.5 30)" fill="#3B46CC" opacity=".25"/><use xlink:href="#path5_fill" transform="translate(450.7 30)" fill="#3B46CC" opacity=".25"/><use xlink:href="#path5_fill" transform="translate(525.8 30)" fill="#3B46CC" opacity=".25"/><use xlink:href="#path5_fill" transform="translate(600.9 30)" fill="#3B46CC" opacity=".25"/><use xlink:href="#path5_fill" transform="translate(676 30)" fill="#3B46CC" opacity=".25"/><use xlink:href="#path5_fill" transform="translate(751.1 30)" fill="#3B46CC" opacity=".25"/><use xlink:href="#path5_fill" transform="translate(826.2 30)" fill="#3B46CC" opacity=".25"/><defs><path id="path0_fill" d="M0 0h.676v882.999H0V0z"/><path id="path1_fill" d="M70.104 3.224c.572 0 1.114.121 1.625.364.52.243.95.568 1.287.975.338.407.542.85.611 1.326l.013.091c0 .035-.013.06-.039.078a.088.088 0 0 1-.065.026l-.975.078h-.026a.088.088 0 0 1-.065-.026.288.288 0 0 1-.039-.104c-.13-.563-.399-1.014-.806-1.352-.407-.338-.901-.507-1.482-.507-.91 0-1.608.338-2.093 1.014-.477.667-.715 1.668-.715 3.003 0 1.309.238 2.297.715 2.964.485.659 1.205.988 2.158.988.615 0 1.127-.147 1.534-.442.416-.303.75-.776 1.001-1.417.017-.06.07-.078.156-.052l.767.182c.06.017.082.078.065.182-.13.433-.355.845-.676 1.235-.32.381-.728.693-1.222.936-.494.243-1.053.364-1.677.364-.858 0-1.595-.2-2.21-.598-.615-.399-1.088-.97-1.417-1.716-.33-.745-.494-1.63-.494-2.652 0-1.023.16-1.902.481-2.639.33-.745.797-1.313 1.404-1.703.615-.399 1.343-.598 2.184-.598zm8.165 9.906c-.65 0-1.227-.147-1.73-.442a3.13 3.13 0 0 1-1.157-1.261c-.268-.537-.403-1.148-.403-1.833 0-.702.14-1.326.416-1.872.287-.546.677-.97 1.17-1.274.503-.312 1.075-.468 1.716-.468.642 0 1.21.156 1.703.468.503.303.889.728 1.157 1.274.278.546.416 1.166.416 1.859 0 .685-.138 1.296-.416 1.833a3.101 3.101 0 0 1-1.17 1.261c-.493.303-1.061.455-1.703.455zm.025-.819c.677 0 1.2-.243 1.574-.728.38-.494.572-1.17.572-2.028 0-.85-.195-1.521-.585-2.015-.382-.503-.906-.754-1.574-.754-.675 0-1.209.251-1.599.754-.39.494-.585 1.166-.585 2.015 0 .85.196 1.521.586 2.015.39.494.927.741 1.611.741zm5.053.689c-.122 0-.182-.056-.182-.169V6.279c0-.113.047-.169.143-.169h.78c.095 0 .143.048.143.143v.754c0 .095.039.108.117.039.485-.381.897-.654 1.235-.819a2.662 2.662 0 0 1 1.157-.247c.658 0 1.17.178 1.534.533.372.355.559.832.559 1.43v4.849c0 .139-.065.208-.195.208h-.728c-.113 0-.17-.056-.17-.169V8.19c0-.433-.112-.767-.337-1.001-.217-.234-.555-.351-1.014-.351a2.14 2.14 0 0 0-1.014.247c-.304.156-.676.425-1.118.806v4.914c0 .07-.018.121-.052.156-.026.026-.074.039-.143.039h-.715zm9.23-6.084c-.07 0-.105.039-.105.117v4.121c0 .39.066.659.196.806.13.147.342.221.636.221h.897c.096 0 .144.048.144.143l-.013.442c0 .087-.052.143-.156.169-.226.043-.633.065-1.222.065-.546 0-.945-.126-1.197-.377-.25-.26-.377-.667-.377-1.222V7.059c0-.095-.043-.143-.13-.143h-1.04c-.095 0-.142-.043-.142-.13V6.24c0-.087.043-.13.13-.13h1.105c.06 0 .09-.035.09-.104l.144-2.067c0-.113.047-.169.142-.169h.65c.105 0 .157.06.157.182v2.054c0 .07.034.104.103.104h1.639c.095 0 .143.039.143.117v.559c0 .087-.048.13-.143.13h-1.651zm7.21 5.252c-.666.641-1.438.962-2.313.962-.676 0-1.21-.169-1.6-.507-.38-.347-.571-.806-.571-1.378 0-.693.29-1.24.87-1.638.59-.399 1.44-.633 2.549-.702l1.014-.078c.147-.017.22-.082.22-.195v-.351c0-.468-.147-.836-.441-1.105-.286-.277-.676-.416-1.17-.416-.763 0-1.387.347-1.872 1.04a.282.282 0 0 1-.078.091c-.026.009-.06.004-.104-.013l-.702-.234c-.043-.017-.065-.048-.065-.091a.3.3 0 0 1 .039-.117c.26-.46.628-.815 1.105-1.066.485-.26 1.057-.39 1.716-.39.85 0 1.5.2 1.95.598.451.39.676.932.676 1.625v4.602c0 .078-.013.13-.039.156-.026.026-.074.039-.143.039h-.65c-.104 0-.165-.07-.182-.208l-.026-.598c-.009-.06-.03-.091-.065-.091s-.074.022-.117.065zm.17-2.47c0-.139-.065-.208-.195-.208l-.845.078c-.806.052-1.43.208-1.872.468-.433.26-.65.62-.65 1.079 0 .373.13.667.39.884.269.217.624.325 1.066.325.269 0 .533-.048.793-.143.26-.095.49-.225.689-.39.2-.156.35-.32.455-.494a.994.994 0 0 0 .169-.52V9.698zm4.093-5.07c0 .087-.017.152-.052.195-.035.035-.095.052-.182.052h-.754c-.13 0-.195-.074-.195-.221V3.562c0-.139.061-.208.182-.208h.819c.052 0 .095.017.13.052a.192.192 0 0 1 .052.143v1.079zm-.052 8.151c0 .087-.017.147-.052.182-.035.026-.095.039-.182.039h-.663c-.078 0-.13-.013-.156-.039-.026-.026-.039-.074-.039-.143V6.292c0-.121.052-.182.156-.182h.793c.095 0 .143.056.143.169v6.5zm2.2.221c-.121 0-.182-.056-.182-.169V6.279c0-.113.048-.169.143-.169h.78c.096 0 .143.048.143.143v.754c0 .095.039.108.117.039.486-.381.897-.654 1.235-.819a2.666 2.666 0 0 1 1.157-.247c.659 0 1.17.178 1.534.533.373.355.559.832.559 1.43v4.849c0 .139-.065.208-.195.208h-.728c-.112 0-.169-.056-.169-.169V8.19c0-.433-.112-.767-.338-1.001-.216-.234-.554-.351-1.014-.351a2.14 2.14 0 0 0-1.014.247c-.303.156-.676.425-1.118.806v4.914c0 .07-.017.121-.052.156-.026.026-.073.039-.143.039h-.715zm8.138-3.016c0 .416.1.802.299 1.157.208.355.485.637.832.845.347.208.728.312 1.144.312.867 0 1.543-.36 2.028-1.079.035-.035.065-.052.091-.052.026-.009.056-.004.091.013l.546.273c.069.043.078.104.026.182-.338.52-.741.901-1.209 1.144-.468.234-1.027.351-1.677.351-.633 0-1.2-.147-1.703-.442a3.12 3.12 0 0 1-1.183-1.235c-.277-.537-.416-1.148-.416-1.833 0-.737.143-1.378.429-1.924.286-.555.676-.98 1.17-1.274a3.28 3.28 0 0 1 1.69-.442c.624 0 1.17.139 1.638.416.477.277.845.685 1.105 1.222.26.529.39 1.157.39 1.885v.052a.355.355 0 0 1-.039.182c-.026.035-.078.052-.156.052h-4.979c-.078 0-.117.065-.117.195zm3.978-.91c.095 0 .156-.009.182-.026.026-.026.039-.078.039-.156 0-.381-.082-.732-.247-1.053-.156-.33-.39-.59-.702-.78a1.897 1.897 0 0 0-1.066-.299c-.442 0-.828.113-1.157.338a2.123 2.123 0 0 0-.754.858c-.173.347-.256.72-.247 1.118h3.952zm3.03 3.926c-.122 0-.182-.056-.182-.169V6.279c0-.113.047-.169.143-.169h.754c.095 0 .143.048.143.143v.845c0 .052.013.082.039.091.034.009.069-.009.104-.052.658-.771 1.33-1.157 2.015-1.157.303 0 .455.056.455.169v.78c0 .087-.039.121-.117.104a3.652 3.652 0 0 0-.585-.039c-.252 0-.525.074-.819.221a2.318 2.318 0 0 0-.741.572c-.2.234-.299.472-.299.715v4.303c0 .13-.065.195-.195.195h-.715zm16.401-6.89c.052 0 .091.022.117.065a.112.112 0 0 1 .013.117l-1.989 6.539c-.034.113-.117.169-.247.169h-.624c-.147 0-.238-.056-.273-.169l-1.547-4.862c-.026-.078-.056-.117-.091-.117-.017 0-.039.039-.065.117l-1.469 4.862c-.034.113-.117.169-.247.169h-.663c-.147 0-.238-.056-.273-.169l-2.041-6.526a.154.154 0 0 1-.013-.065c0-.087.052-.13.156-.13h.767c.096 0 .165.048.208.143l1.547 5.057c.026.087.057.13.091.13.026 0 .061-.048.104-.143l1.534-5.057c.026-.087.087-.13.182-.13h.611c.104 0 .169.048.195.143l1.599 5.057c.026.087.057.13.091.13.035 0 .065-.048.091-.143l1.495-5.044a.226.226 0 0 1 .221-.143h.52zm2.677-1.482c0 .087-.017.152-.052.195-.035.035-.095.052-.182.052h-.754c-.13 0-.195-.074-.195-.221V3.562c0-.139.061-.208.182-.208h.819c.052 0 .095.017.13.052a.192.192 0 0 1 .052.143v1.079zm-.052 8.151c0 .087-.017.147-.052.182-.035.026-.095.039-.182.039h-.663c-.078 0-.13-.013-.156-.039-.026-.026-.039-.074-.039-.143V6.292c0-.121.052-.182.156-.182h.793c.095 0 .143.056.143.169v6.5zm6.919.221c-.121 0-.182-.06-.182-.182v-.559c0-.078-.021-.117-.065-.117-.026 0-.06.022-.104.065-.26.26-.546.481-.858.663-.303.173-.697.26-1.183.26-.554 0-1.048-.13-1.482-.39-.433-.26-.775-.65-1.027-1.17-.251-.529-.377-1.166-.377-1.911 0-.728.13-1.37.39-1.924.26-.555.62-.984 1.079-1.287.46-.312.984-.468 1.573-.468.39 0 .728.06 1.014.182.286.121.555.29.806.507.07.052.117.078.143.078.044 0 .065-.056.065-.169V3.523c0-.113.048-.169.143-.169h.793c.096 0 .143.056.143.169v9.269c0 .078-.013.134-.039.169-.026.026-.082.039-.169.039h-.663zm-.221-5.369a3.16 3.16 0 0 0-.845-.624 1.907 1.907 0 0 0-.91-.221c-.658 0-1.187.247-1.586.741-.398.494-.598 1.192-.598 2.093 0 .91.195 1.59.585 2.041.399.45.906.676 1.521.676a1.888 1.888 0 0 0 1.586-.845c.165-.243.247-.485.247-.728V7.631zm4.923-.715c-.07 0-.104.039-.104.117v4.121c0 .39.065.659.195.806.13.147.342.221.637.221h.897c.095 0 .143.048.143.143l-.013.442c0 .087-.052.143-.156.169-.226.043-.633.065-1.222.065-.546 0-.945-.126-1.196-.377-.252-.26-.377-.667-.377-1.222V7.059c0-.095-.044-.143-.13-.143h-1.04c-.096 0-.143-.043-.143-.13V6.24c0-.087.043-.13.13-.13h1.105c.06 0 .091-.035.091-.104l.143-2.067c0-.113.047-.169.143-.169h.65c.104 0 .156.06.156.182v2.054c0 .07.034.104.104.104h1.638c.095 0 .143.039.143.117v.559c0 .087-.048.13-.143.13h-1.651zM155.38 13c-.113 0-.169-.056-.169-.169V3.523c0-.113.048-.169.143-.169h.767c.095 0 .143.052.143.156v3.471c0 .095.039.108.117.039.494-.381.914-.65 1.261-.806a2.757 2.757 0 0 1 1.144-.234c.667 0 1.179.178 1.534.533.364.355.546.836.546 1.443v4.836c0 .139-.065.208-.195.208h-.728c-.113 0-.169-.056-.169-.169V8.19c0-.433-.113-.767-.338-1.001-.217-.234-.555-.351-1.014-.351-.364 0-.698.082-1.001.247-.295.156-.667.425-1.118.806v4.914c0 .13-.069.195-.208.195h-.715zm8.424-5.343c0 .139-.078.208-.234.208h-.91c-.13 0-.195-.065-.195-.195V6.578c0-.113.047-.169.143-.169h1.066c.086 0 .13.048.13.143v1.105zm0 5.096c0 .139-.078.208-.234.208h-.91c-.13 0-.195-.06-.195-.182v-1.105c0-.104.047-.156.143-.156h1.066c.086 0 .13.048.13.143v1.092zm7.29.364c-.615 0-1.144-.117-1.586-.351a3.014 3.014 0 0 1-1.027-.91.314.314 0 0 1-.039-.104c0-.043.026-.078.078-.104l.741-.299.052-.013c.052 0 .1.03.143.091.208.243.438.429.689.559.26.13.577.195.949.195.876 0 1.534-.316 1.976-.949.451-.641.676-1.482.676-2.522a.696.696 0 0 0-.026-.234c-.008-.043-.03-.065-.065-.065a.31.31 0 0 0-.13.039 8.59 8.59 0 0 1-1.17.494 3.91 3.91 0 0 1-1.209.169c-.641 0-1.2-.121-1.677-.364a2.628 2.628 0 0 1-1.079-1.001 2.877 2.877 0 0 1-.377-1.469c0-.59.148-1.114.442-1.573a2.922 2.922 0 0 1 1.209-1.079 3.705 3.705 0 0 1 1.703-.39c.746 0 1.387.19 1.924.572.546.381.967.932 1.261 1.651.295.72.442 1.577.442 2.574 0 1.049-.156 1.954-.468 2.717-.312.763-.762 1.348-1.352 1.755-.589.407-1.282.611-2.08.611zm.195-4.914c.364 0 .754-.06 1.17-.182.425-.13.767-.29 1.027-.481a.583.583 0 0 0 .208-.208.9.9 0 0 0 .052-.351c0-.433-.091-.867-.273-1.3a2.539 2.539 0 0 0-.806-1.092c-.355-.295-.788-.442-1.3-.442a2.15 2.15 0 0 0-1.079.273c-.32.182-.576.433-.767.754-.182.32-.273.676-.273 1.066 0 .364.083.698.247 1.001.174.295.412.529.715.702.312.173.672.26 1.079.26zm9.363-4.966c.598 0 1.109.121 1.534.364.425.234.758.533 1.001.897a.314.314 0 0 1 .039.104c0 .043-.026.078-.078.104l-.741.299a.144.144 0 0 1-.065.013c-.052 0-.095-.03-.13-.091a2.112 2.112 0 0 0-.676-.559c-.234-.13-.524-.195-.871-.195-.901 0-1.582.32-2.041.962-.451.633-.676 1.469-.676 2.509 0 .113.004.19.013.234.017.043.048.065.091.065a.305.305 0 0 0 .13-.039 9.189 9.189 0 0 1 1.183-.494 4.043 4.043 0 0 1 1.222-.169c.65 0 1.213.121 1.69.364.477.243.841.58 1.092 1.014.251.425.377.906.377 1.443 0 .598-.147 1.131-.442 1.599-.295.46-.698.819-1.209 1.079a3.807 3.807 0 0 1-1.703.377c-.754 0-1.408-.186-1.963-.559-.555-.381-.979-.932-1.274-1.651-.295-.728-.442-1.59-.442-2.587 0-1.049.156-1.954.468-2.717.321-.763.776-1.348 1.365-1.755.598-.407 1.3-.611 2.106-.611zm-.208 4.914c-.355 0-.745.06-1.17.182-.425.113-.771.251-1.04.416a.552.552 0 0 0-.208.221c-.035.07-.052.182-.052.338 0 .442.091.888.273 1.339.182.442.455.815.819 1.118.364.295.806.442 1.326.442.399 0 .758-.091 1.079-.273.321-.19.572-.446.754-.767a2.02 2.02 0 0 0 .286-1.053c0-.563-.191-1.031-.572-1.404-.373-.373-.871-.559-1.495-.559zm9.024-4.667a.456.456 0 0 1 .143-.104.505.505 0 0 1 .182-.026h.871c.104 0 .156.052.156.156v5.85c0 .078.035.117.104.117h1.222c.121 0 .182.043.182.13v.637c0 .113-.061.169-.182.169h-1.209c-.078 0-.117.043-.117.13v2.262c0 .13-.069.195-.208.195h-.884c-.113 0-.169-.056-.169-.169v-2.327c0-.06-.039-.091-.117-.091h-4.212c-.13 0-.195-.056-.195-.169v-.663c0-.052.017-.113.052-.182.043-.078.095-.16.156-.247l4.225-5.668zm-.052 5.993c.035 0 .061-.009.078-.026.026-.017.039-.039.039-.065V5.044c0-.104-.017-.156-.052-.156-.017 0-.061.035-.13.104l-3.172 4.316c-.026.035-.039.065-.039.091 0 .052.043.078.13.078h3.146zm5.374-3.367c.122 0 .182.065.182.195v.546c0 .078.022.117.065.117.026 0 .061-.022.104-.065.182-.182.343-.33.481-.442a2.32 2.32 0 0 1 .611-.325c.269-.104.585-.156.949-.156.546 0 1.032.13 1.456.39.434.26.772.65 1.014 1.17.252.52.377 1.157.377 1.911 0 .763-.125 1.421-.377 1.976-.242.555-.589.98-1.04 1.274-.45.286-.975.429-1.573.429-.719 0-1.334-.217-1.846-.65-.06-.06-.108-.091-.143-.091-.043 0-.065.056-.065.169v2.418c0 .113-.047.169-.143.169h-.806c-.095 0-.143-.056-.143-.169V6.318c0-.07.013-.121.039-.156.035-.035.091-.052.169-.052h.689zm.195 5.369c.278.286.555.503.832.65.286.139.598.208.936.208.65 0 1.17-.247 1.56-.741.399-.494.598-1.205.598-2.132 0-.901-.195-1.573-.585-2.015-.39-.45-.892-.676-1.508-.676a1.88 1.88 0 0 0-.936.234 1.867 1.867 0 0 0-.663.572c-.156.234-.234.464-.234.689v3.211zM207 12.727c.06.087.091.152.091.195 0 .052-.048.078-.143.078h-.91c-.13 0-.221-.039-.273-.117l-1.833-2.522c-.044-.07-.078-.104-.104-.104-.026 0-.065.035-.117.104l-1.911 2.522c-.052.078-.143.117-.273.117h-.611c-.122 0-.182-.039-.182-.117 0-.043.03-.108.091-.195l2.366-3.016c.043-.06.065-.108.065-.143 0-.035-.022-.082-.065-.143l-2.262-3.068a.125.125 0 0 1-.039-.091c0-.035.013-.06.039-.078a.14.14 0 0 1 .104-.039h.871c.06 0 .108.009.143.026a.337.337 0 0 1 .104.091l1.755 2.379c.043.052.078.078.104.078.034 0 .065-.026.091-.078l1.703-2.379a.316.316 0 0 1 .104-.091.358.358 0 0 1 .156-.026h.676c.086 0 .13.026.13.078 0 .017-.018.052-.052.104l-2.197 2.938c-.044.06-.065.104-.065.13 0 .043.021.095.065.156L207 12.727z"/><path id="path2_fill" d="M13.749 3.237c.598 0 1.11.121 1.534.364.425.234.758.533 1 .897a.314.314 0 0 1 .04.104c0 .043-.026.078-.078.104l-.741.299a.145.145 0 0 1-.065.013c-.052 0-.095-.03-.13-.091a2.115 2.115 0 0 0-.676-.559c-.234-.13-.524-.195-.871-.195-.902 0-1.582.32-2.041.962-.45.633-.676 1.469-.676 2.509 0 .113.004.19.013.234.017.043.047.065.09.065a.306.306 0 0 0 .13-.039 9.212 9.212 0 0 1 1.184-.494 4.043 4.043 0 0 1 1.222-.169c.65 0 1.213.121 1.69.364.476.243.84.58 1.092 1.014.251.425.377.906.377 1.443 0 .598-.148 1.131-.442 1.599-.295.46-.698.819-1.21 1.079a3.808 3.808 0 0 1-1.702.377c-.754 0-1.409-.186-1.963-.559-.555-.381-.98-.932-1.274-1.651-.295-.728-.442-1.59-.442-2.587 0-1.049.156-1.954.468-2.717.32-.763.775-1.348 1.365-1.755.598-.407 1.3-.611 2.106-.611zm-.208 4.914c-.356 0-.745.06-1.17.182-.425.113-.771.251-1.04.416a.55.55 0 0 0-.208.221c-.035.07-.052.182-.052.338 0 .442.09.888.273 1.339.182.442.455.815.819 1.118.364.295.806.442 1.326.442.398 0 .758-.091 1.079-.273.32-.19.572-.446.754-.767.19-.32.286-.672.286-1.053 0-.563-.19-1.031-.572-1.404-.373-.373-.871-.559-1.495-.559zm7.763.806c.745-.702 1.26-1.27 1.547-1.703.286-.442.429-.897.429-1.365 0-.529-.191-.94-.572-1.235a2.107 2.107 0 0 0-1.352-.455c-.408 0-.81.104-1.21.312-.398.208-.736.533-1.013.975-.026.043-.07.065-.13.065a.306.306 0 0 1-.13-.039l-.572-.338c-.07-.043-.104-.095-.104-.156 0-.043.017-.087.052-.13.38-.555.849-.97 1.404-1.248a4.036 4.036 0 0 1 1.807-.416c.554 0 1.061.104 1.52.312.46.2.824.503 1.093.91.277.407.416.901.416 1.482 0 .563-.156 1.088-.468 1.573-.304.485-.845 1.096-1.625 1.833l-2.613 2.457c-.044.026-.065.056-.065.091 0 .043.047.065.143.065h4.563c.06 0 .104.013.13.039.026.017.039.052.039.104v.754c0 .104-.057.156-.17.156h-6.031c-.078 0-.135-.013-.17-.039-.025-.035-.038-.091-.038-.169v-.533c0-.095.021-.178.065-.247.043-.07.138-.169.286-.299l2.769-2.756zm5.923-2.847c.121 0 .182.065.182.195v.546c0 .078.021.117.065.117.026 0 .06-.022.104-.065a6.49 6.49 0 0 1 .48-.442c.14-.113.343-.221.612-.325.268-.104.585-.156.949-.156.546 0 1.031.13 1.456.39.433.26.771.65 1.014 1.17.251.52.377 1.157.377 1.911 0 .763-.126 1.421-.377 1.976-.243.555-.59.98-1.04 1.274-.45.286-.975.429-1.573.429-.72 0-1.335-.217-1.846-.65-.06-.06-.108-.091-.143-.091-.043 0-.065.056-.065.169v2.418c0 .113-.048.169-.143.169h-.806c-.095 0-.143-.056-.143-.169V6.318c0-.07.013-.121.039-.156.035-.035.09-.052.169-.052h.689zm.195 5.369c.277.286.555.503.832.65.286.139.598.208.936.208.65 0 1.17-.247 1.56-.741.398-.494.598-1.205.598-2.132 0-.901-.195-1.573-.585-2.015-.39-.45-.893-.676-1.508-.676-.347 0-.659.078-.936.234a1.861 1.861 0 0 0-.663.572c-.156.234-.234.464-.234.689v3.211zm12.014 1.248c.061.087.091.152.091.195 0 .052-.047.078-.143.078h-.91c-.13 0-.22-.039-.273-.117l-1.833-2.522c-.043-.07-.078-.104-.104-.104-.026 0-.065.035-.117.104l-1.91 2.522c-.053.078-.144.117-.274.117h-.61c-.122 0-.183-.039-.183-.117 0-.043.03-.108.091-.195l2.366-3.016c.044-.06.065-.108.065-.143 0-.035-.021-.082-.065-.143l-2.262-3.068a.125.125 0 0 1-.039-.091c0-.035.013-.06.04-.078a.14.14 0 0 1 .103-.039h.871c.061 0 .109.009.143.026.035.017.07.048.104.091l1.755 2.379c.044.052.078.078.104.078.035 0 .065-.026.091-.078l1.703-2.379a.327.327 0 0 1 .104-.091.362.362 0 0 1 .156-.026h.676c.087 0 .13.026.13.078 0 .017-.017.052-.052.104L37.057 9.23c-.043.06-.065.104-.065.13 0 .043.022.095.065.156l2.38 3.211z"/><path id="path3_fill" d="M0 0h.916v288H0V0z"/><path id="path4_fill" d="M0 0h.676v56.79H0V0z"/><path id="path5_fill" d="M0 0h56.79v258H0V0z"/></defs></svg>