<svg width="229" height="223" viewBox="0 0 229 223" version="1.1" xmlns="http://www.w3.org/2000/svg" xmlns:xlink="http://www.w3.org/1999/xlink">
<g id="Canvas" fill="none">
<g id="SingleInline">
<rect id="SingleInline_2" width="198" height="6" transform="matrix(0 1 -1 0 6 25)" fill="#3B46CC" fill-opacity="0.6"/>
</g>
<g id="SmallInline">
<rect id="SmallInline_2" width="162" height="12" transform="matrix(0 1 -1 0 36 61)" fill="#3B46CC" fill-opacity="0.5"/>
</g>
<g id="MediumInline">
<rect id="MediumInline_2" width="126" height="18" transform="matrix(0 1 -1 0 72 97)" fill="#3B46CC" fill-opacity="0.4"/>
</g>
<g id="LargeInline">
<rect id="LargeInline_2" width="82" height="30" transform="matrix(0 1 -1 0 120 141)" fill="#3B46CC" fill-opacity="0.4"/>
</g>
<path id="6px &#226;&#128;&#148; Single Inline" d="M 5.565 5.735C 6.125 5.735 6.635 5.83 7.095 6.02C 7.555 6.2 7.935 6.43 8.235 6.71C 8.545 6.99 8.765 7.275 8.895 7.565C 8.915 7.625 8.925 7.67 8.925 7.7C 8.925 7.78 8.885 7.835 8.805 7.865L 7.44 8.345L 7.38 8.36C 7.31 8.36 7.24 8.305 7.17 8.195C 6.95 7.905 6.72 7.685 6.48 7.535C 6.24 7.385 5.935 7.31 5.565 7.31C 4.735 7.31 4.095 7.61 3.645 8.21C 3.205 8.8 2.985 9.585 2.985 10.565C 2.985 10.705 2.99 10.8 3 10.85C 3.02 10.9 3.055 10.925 3.105 10.925C 3.125 10.925 3.185 10.905 3.285 10.865C 3.745 10.665 4.15 10.515 4.5 10.415C 4.85 10.305 5.26 10.25 5.73 10.25C 6.49 10.25 7.155 10.39 7.725 10.67C 8.295 10.95 8.735 11.34 9.045 11.84C 9.355 12.34 9.51 12.905 9.51 13.535C 9.51 14.225 9.325 14.845 8.955 15.395C 8.585 15.945 8.08 16.375 7.44 16.685C 6.8 16.985 6.095 17.135 5.325 17.135C 4.395 17.135 3.585 16.915 2.895 16.475C 2.215 16.035 1.69 15.405 1.32 14.585C 0.96 13.755 0.78 12.775 0.78 11.645C 0.78 10.425 0.975 9.375 1.365 8.495C 1.755 7.605 2.31 6.925 3.03 6.455C 3.75 5.975 4.595 5.735 5.565 5.735ZM 5.31 11.735C 4.98 11.735 4.615 11.795 4.215 11.915C 3.815 12.025 3.495 12.155 3.255 12.305C 3.155 12.375 3.09 12.445 3.06 12.515C 3.03 12.585 3.015 12.7 3.015 12.86C 3.015 13.32 3.1 13.765 3.27 14.195C 3.45 14.615 3.71 14.96 4.05 15.23C 4.39 15.5 4.8 15.635 5.28 15.635C 5.86 15.635 6.345 15.445 6.735 15.065C 7.125 14.675 7.32 14.19 7.32 13.61C 7.32 13.06 7.13 12.61 6.75 12.26C 6.38 11.91 5.9 11.735 5.31 11.735ZM 12.7614 9.05C 12.9514 9.05 13.0464 9.14 13.0464 9.32L 13.0464 9.83C 13.0464 9.91 13.0714 9.95 13.1214 9.95C 13.1514 9.95 13.1914 9.925 13.2414 9.875C 13.5614 9.575 13.8814 9.34 14.2014 9.17C 14.5314 8.99 14.9614 8.9 15.4914 8.9C 16.1014 8.9 16.6414 9.05 17.1114 9.35C 17.5914 9.65 17.9664 10.105 18.2364 10.715C 18.5064 11.315 18.6414 12.055 18.6414 12.935C 18.6414 14.305 18.3414 15.35 17.7414 16.07C 17.1414 16.79 16.3464 17.15 15.3564 17.15C 14.5564 17.15 13.8764 16.895 13.3164 16.385C 13.2164 16.305 13.1514 16.265 13.1214 16.265C 13.0714 16.265 13.0464 16.335 13.0464 16.475L 13.0464 19.235C 13.0464 19.395 12.9764 19.475 12.8364 19.475L 11.3064 19.475C 11.1664 19.475 11.0964 19.395 11.0964 19.235L 11.0964 9.35C 11.0964 9.24 11.1164 9.165 11.1564 9.125C 11.2064 9.075 11.2864 9.05 11.3964 9.05L 12.7614 9.05ZM 13.0464 15.05C 13.5464 15.6 14.0914 15.875 14.6814 15.875C 15.3014 15.875 15.7864 15.635 16.1364 15.155C 16.4864 14.665 16.6614 13.92 16.6614 12.92C 16.6614 11.96 16.4864 11.265 16.1364 10.835C 15.7964 10.395 15.3314 10.175 14.7414 10.175C 14.4214 10.175 14.1314 10.245 13.8714 10.385C 13.6114 10.515 13.4064 10.685 13.2564 10.895C 13.1164 11.105 13.0464 11.325 13.0464 11.555L 13.0464 15.05ZM 26.8804 16.565C 26.9904 16.705 27.0454 16.81 27.0454 16.88C 27.0454 16.96 26.9604 17 26.7904 17L 25.1704 17C 24.9704 17 24.8254 16.935 24.7354 16.805L 22.9954 14.36C 22.9254 14.26 22.8704 14.21 22.8304 14.21C 22.7904 14.21 22.7354 14.26 22.6654 14.36L 20.8804 16.805C 20.7904 16.935 20.6454 17 20.4454 17L 19.3954 17C 19.1854 17 19.0804 16.935 19.0804 16.805C 19.0804 16.745 19.1354 16.635 19.2454 16.475L 21.7954 13.205C 21.8554 13.125 21.8854 13.065 21.8854 13.025C 21.8854 12.965 21.8504 12.885 21.7804 12.785L 19.2904 9.41C 19.2504 9.37 19.2304 9.315 19.2304 9.245C 19.2304 9.185 19.2504 9.14 19.2904 9.11C 19.3404 9.07 19.4054 9.05 19.4854 9.05L 21.0304 9.05C 21.1404 9.05 21.2204 9.065 21.2704 9.095C 21.3304 9.125 21.3904 9.175 21.4504 9.245L 23.0554 11.495C 23.1054 11.555 23.1454 11.585 23.1754 11.585C 23.2154 11.585 23.2554 11.555 23.2954 11.495L 24.8404 9.245C 24.8904 9.175 24.9454 9.125 25.0054 9.095C 25.0654 9.065 25.1504 9.05 25.2604 9.05L 26.4154 9.05C 26.5654 9.05 26.6404 9.095 26.6404 9.185C 26.6404 9.225 26.6154 9.28 26.5654 9.35L 24.2254 12.5C 24.1654 12.57 24.1354 12.635 24.1354 12.695C 24.1354 12.735 24.1704 12.81 24.2404 12.92L 26.8804 16.565ZM 42.8559 13.43C 42.8559 13.57 42.7759 13.64 42.6159 13.64L 31.7109 13.64C 31.6409 13.64 31.5909 13.63 31.5609 13.61C 31.5309 13.58 31.5159 13.53 31.5159 13.46L 31.5159 12.8C 31.5159 12.69 31.5609 12.635 31.6509 12.635L 42.7059 12.62C 42.8059 12.62 42.8559 12.67 42.8559 12.77L 42.8559 13.43ZM 54.4768 7.94C 53.8368 7.19 52.9868 6.815 51.9268 6.815C 51.1768 6.815 50.5868 6.98 50.1568 7.31C 49.7268 7.64 49.5118 8.1 49.5118 8.69C 49.5118 9.47 50.0468 10.04 51.1168 10.4L 53.2918 11.12C 54.1718 11.41 54.8068 11.8 55.1968 12.29C 55.5968 12.77 55.7968 13.36 55.7968 14.06C 55.7968 15.02 55.4418 15.775 54.7318 16.325C 54.0218 16.875 53.0518 17.15 51.8218 17.15C 50.9218 17.15 50.1268 16.99 49.4368 16.67C 48.7568 16.35 48.2068 15.885 47.7868 15.275C 47.7468 15.195 47.7268 15.145 47.7268 15.125C 47.7268 15.055 47.7768 14.985 47.8768 14.915L 48.4168 14.54C 48.5068 14.48 48.5768 14.45 48.6268 14.45C 48.6868 14.45 48.7418 14.48 48.7918 14.54C 49.2218 15.09 49.6468 15.48 50.0668 15.71C 50.4868 15.94 51.0518 16.055 51.7618 16.055C 52.6018 16.055 53.2518 15.905 53.7118 15.605C 54.1818 15.305 54.4168 14.84 54.4168 14.21C 54.4168 13.82 54.2918 13.49 54.0418 13.22C 53.8018 12.94 53.3618 12.68 52.7218 12.44L 50.4418 11.66C 49.6518 11.39 49.0668 11.005 48.6868 10.505C 48.3168 9.995 48.1318 9.435 48.1318 8.825C 48.1318 8.205 48.2868 7.66 48.5968 7.19C 48.9168 6.72 49.3618 6.36 49.9318 6.11C 50.5118 5.85 51.1768 5.72 51.9268 5.72C 52.6568 5.72 53.3168 5.85 53.9068 6.11C 54.5068 6.37 55.0168 6.735 55.4368 7.205C 55.4868 7.255 55.5118 7.305 55.5118 7.355C 55.5118 7.405 55.4868 7.45 55.4368 7.49L 54.7468 8.03C 54.7168 8.06 54.6868 8.075 54.6568 8.075C 54.6268 8.075 54.5668 8.03 54.4768 7.94ZM 59.0912 7.34C 59.0912 7.44 59.0712 7.515 59.0312 7.565C 58.9912 7.605 58.9212 7.625 58.8212 7.625L 57.9512 7.625C 57.8012 7.625 57.7262 7.54 57.7262 7.37L 57.7262 6.11C 57.7262 5.95 57.7962 5.87 57.9362 5.87L 58.8812 5.87C 58.9412 5.87 58.9912 5.89 59.0312 5.93C 59.0712 5.97 59.0912 6.025 59.0912 6.095L 59.0912 7.34ZM 59.0312 16.745C 59.0312 16.845 59.0112 16.915 58.9712 16.955C 58.9312 16.985 58.8612 17 58.7612 17L 57.9962 17C 57.9062 17 57.8462 16.985 57.8162 16.955C 57.7862 16.925 57.7712 16.87 57.7712 16.79L 57.7712 9.26C 57.7712 9.12 57.8312 9.05 57.9512 9.05L 58.8662 9.05C 58.9762 9.05 59.0312 9.115 59.0312 9.245L 59.0312 16.745ZM 61.5701 17C 61.4301 17 61.3601 16.935 61.3601 16.805L 61.3601 9.245C 61.3601 9.115 61.4151 9.05 61.5251 9.05L 62.4251 9.05C 62.5351 9.05 62.5901 9.105 62.5901 9.215L 62.5901 10.085C 62.5901 10.195 62.6351 10.21 62.7251 10.13C 63.2851 9.69 63.7601 9.375 64.1501 9.185C 64.5501 8.995 64.9951 8.9 65.4851 8.9C 66.2451 8.9 66.8351 9.105 67.2551 9.515C 67.6851 9.925 67.9001 10.475 67.9001 11.165L 67.9001 16.76C 67.9001 16.92 67.8251 17 67.6751 17L 66.8351 17C 66.7051 17 66.6401 16.935 66.6401 16.805L 66.6401 11.45C 66.6401 10.95 66.5101 10.565 66.2501 10.295C 66.0001 10.025 65.6101 9.89 65.0801 9.89C 64.6601 9.89 64.2701 9.985 63.9101 10.175C 63.5601 10.355 63.1301 10.665 62.6201 11.105L 62.6201 16.775C 62.6201 16.855 62.6001 16.915 62.5601 16.955C 62.5301 16.985 62.4751 17 62.3951 17L 61.5701 17ZM 77.3048 8.915C 77.4948 8.915 77.5898 8.995 77.5898 9.155L 77.5898 9.68C 77.5898 9.78 77.5648 9.855 77.5148 9.905C 77.4748 9.945 77.3998 9.96 77.2898 9.95C 76.9598 9.95 76.6998 9.995 76.5098 10.085C 76.2698 10.185 76.1698 10.3 76.2098 10.43C 76.2198 10.47 76.2498 10.545 76.2998 10.655C 76.3498 10.765 76.3898 10.89 76.4198 11.03C 76.4498 11.16 76.4648 11.3 76.4648 11.45C 76.4648 12.16 76.1848 12.74 75.6248 13.19C 75.0748 13.64 74.2698 13.865 73.2098 13.865C 72.4998 13.865 71.9898 13.925 71.6798 14.045C 71.3698 14.165 71.2148 14.32 71.2148 14.51C 71.2148 14.66 71.3198 14.775 71.5298 14.855C 71.7398 14.925 72.0898 14.975 72.5798 15.005L 74.5148 15.11C 75.3748 15.16 76.0148 15.365 76.4348 15.725C 76.8548 16.085 77.0648 16.575 77.0648 17.195C 77.0648 17.955 76.7298 18.55 76.0598 18.98C 75.3998 19.41 74.4548 19.625 73.2248 19.625C 71.9548 19.625 70.9848 19.44 70.3148 19.07C 69.6548 18.71 69.3248 18.19 69.3248 17.51C 69.3248 16.84 69.7948 16.275 70.7348 15.815C 70.8448 15.765 70.8448 15.71 70.7348 15.65C 70.2748 15.45 70.0448 15.155 70.0448 14.765C 70.0448 14.545 70.1448 14.335 70.3448 14.135C 70.5548 13.935 70.8498 13.77 71.2298 13.64C 71.2798 13.63 71.3048 13.605 71.3048 13.565C 71.3048 13.515 71.2798 13.48 71.2298 13.46C 70.7898 13.23 70.4648 12.955 70.2548 12.635C 70.0448 12.305 69.9398 11.91 69.9398 11.45C 69.9398 10.67 70.2348 10.055 70.8248 9.605C 71.4148 9.155 72.2498 8.93 73.3298 8.93C 74.2798 8.93 75.0298 9.155 75.5798 9.605C 75.6498 9.655 75.6998 9.68 75.7298 9.68C 75.7698 9.68 75.8248 9.655 75.8948 9.605C 76.0848 9.415 76.3048 9.255 76.5548 9.125C 76.8148 8.985 77.0648 8.915 77.3048 8.915ZM 73.2098 13.07C 73.8998 13.07 74.4148 12.93 74.7548 12.65C 75.1048 12.37 75.2798 11.965 75.2798 11.435C 75.2798 10.895 75.1048 10.475 74.7548 10.175C 74.4048 9.875 73.8898 9.725 73.2098 9.725C 72.5498 9.725 72.0348 9.88 71.6648 10.19C 71.2948 10.49 71.1098 10.905 71.1098 11.435C 71.1098 11.955 71.2898 12.36 71.6498 12.65C 72.0198 12.93 72.5398 13.07 73.2098 13.07ZM 71.8898 16.025C 71.7098 16.015 71.5048 16.07 71.2748 16.19C 71.0448 16.3 70.8498 16.46 70.6898 16.67C 70.5298 16.88 70.4498 17.11 70.4498 17.36C 70.4498 17.84 70.6948 18.205 71.1848 18.455C 71.6748 18.715 72.3998 18.845 73.3598 18.845C 75.0498 18.845 75.8948 18.345 75.8948 17.345C 75.8948 16.995 75.7748 16.72 75.5348 16.52C 75.3048 16.32 74.9248 16.205 74.3948 16.175L 71.8898 16.025ZM 80.4183 16.745C 80.4183 16.845 80.3983 16.915 80.3583 16.955C 80.3183 16.985 80.2483 17 80.1483 17L 79.3683 17C 79.2783 17 79.2183 16.985 79.1883 16.955C 79.1583 16.925 79.1433 16.87 79.1433 16.79L 79.1583 6.08C 79.1583 5.94 79.2183 5.87 79.3383 5.87L 80.2383 5.87C 80.3583 5.87 80.4183 5.935 80.4183 6.065L 80.4183 16.745ZM 83.5721 13.52C 83.5721 14 83.6871 14.445 83.9171 14.855C 84.1571 15.265 84.4771 15.59 84.8771 15.83C 85.2771 16.07 85.7171 16.19 86.1971 16.19C 87.1971 16.19 87.9771 15.775 88.5371 14.945C 88.5771 14.905 88.6121 14.885 88.6421 14.885C 88.6721 14.875 88.7071 14.88 88.7471 14.9L 89.3771 15.215C 89.4571 15.265 89.4671 15.335 89.4071 15.425C 89.0171 16.025 88.5521 16.465 88.0121 16.745C 87.4721 17.015 86.8271 17.15 86.0771 17.15C 85.3471 17.15 84.6921 16.98 84.1121 16.64C 83.5321 16.3 83.0771 15.825 82.7471 15.215C 82.4271 14.595 82.2671 13.89 82.2671 13.1C 82.2671 12.25 82.4321 11.51 82.7621 10.88C 83.0921 10.24 83.5421 9.75 84.1121 9.41C 84.6921 9.07 85.3421 8.9 86.0621 8.9C 86.7821 8.9 87.4121 9.06 87.9521 9.38C 88.5021 9.7 88.9271 10.17 89.2271 10.79C 89.5271 11.4 89.6771 12.125 89.6771 12.965L 89.6771 13.025C 89.6771 13.115 89.6621 13.185 89.6321 13.235C 89.6021 13.275 89.5421 13.295 89.4521 13.295L 83.7071 13.295C 83.6171 13.295 83.5721 13.37 83.5721 13.52ZM 88.1621 12.47C 88.2721 12.47 88.3421 12.46 88.3721 12.44C 88.4021 12.41 88.4171 12.35 88.4171 12.26C 88.4171 11.82 88.3221 11.415 88.1321 11.045C 87.9521 10.665 87.6821 10.365 87.3221 10.145C 86.9721 9.915 86.5621 9.8 86.0921 9.8C 85.5821 9.8 85.1371 9.93 84.7571 10.19C 84.3771 10.44 84.0871 10.77 83.8871 11.18C 83.6871 11.58 83.5921 12.01 83.6021 12.47L 88.1621 12.47ZM 96.2306 5.87C 96.3506 5.87 96.4106 5.935 96.4106 6.065L 96.4106 16.745C 96.4106 16.845 96.3906 16.915 96.3506 16.955C 96.3106 16.985 96.2406 17 96.1406 17L 95.1956 17C 95.1056 17 95.0456 16.985 95.0156 16.955C 94.9856 16.925 94.9706 16.87 94.9706 16.79L 94.9706 6.08C 94.9706 5.94 95.0306 5.87 95.1506 5.87L 96.2306 5.87ZM 99.2312 17C 99.0912 17 99.0212 16.935 99.0212 16.805L 99.0212 9.245C 99.0212 9.115 99.0762 9.05 99.1862 9.05L 100.086 9.05C 100.196 9.05 100.251 9.105 100.251 9.215L 100.251 10.085C 100.251 10.195 100.296 10.21 100.386 10.13C 100.946 9.69 101.421 9.375 101.811 9.185C 102.211 8.995 102.656 8.9 103.146 8.9C 103.906 8.9 104.496 9.105 104.916 9.515C 105.346 9.925 105.561 10.475 105.561 11.165L 105.561 16.76C 105.561 16.92 105.486 17 105.336 17L 104.496 17C 104.366 17 104.301 16.935 104.301 16.805L 104.301 11.45C 104.301 10.95 104.171 10.565 103.911 10.295C 103.661 10.025 103.271 9.89 102.741 9.89C 102.321 9.89 101.931 9.985 101.571 10.175C 101.221 10.355 100.791 10.665 100.281 11.105L 100.281 16.775C 100.281 16.855 100.261 16.915 100.221 16.955C 100.191 16.985 100.136 17 100.056 17L 99.2312 17ZM 109.056 16.745C 109.056 16.845 109.036 16.915 108.996 16.955C 108.956 16.985 108.886 17 108.786 17L 108.006 17C 107.916 17 107.856 16.985 107.826 16.955C 107.796 16.925 107.781 16.87 107.781 16.79L 107.796 6.08C 107.796 5.94 107.856 5.87 107.976 5.87L 108.876 5.87C 108.996 5.87 109.056 5.935 109.056 6.065L 109.056 16.745ZM 112.69 7.34C 112.69 7.44 112.67 7.515 112.63 7.565C 112.59 7.605 112.52 7.625 112.42 7.625L 111.55 7.625C 111.4 7.625 111.325 7.54 111.325 7.37L 111.325 6.11C 111.325 5.95 111.395 5.87 111.535 5.87L 112.48 5.87C 112.54 5.87 112.59 5.89 112.63 5.93C 112.67 5.97 112.69 6.025 112.69 6.095L 112.69 7.34ZM 112.63 16.745C 112.63 16.845 112.61 16.915 112.57 16.955C 112.53 16.985 112.46 17 112.36 17L 111.595 17C 111.505 17 111.445 16.985 111.415 16.955C 111.385 16.925 111.37 16.87 111.37 16.79L 111.37 9.26C 111.37 9.12 111.43 9.05 111.55 9.05L 112.465 9.05C 112.575 9.05 112.63 9.115 112.63 9.245L 112.63 16.745ZM 115.169 17C 115.029 17 114.959 16.935 114.959 16.805L 114.959 9.245C 114.959 9.115 115.014 9.05 115.124 9.05L 116.024 9.05C 116.134 9.05 116.189 9.105 116.189 9.215L 116.189 10.085C 116.189 10.195 116.234 10.21 116.324 10.13C 116.884 9.69 117.359 9.375 117.749 9.185C 118.149 8.995 118.594 8.9 119.084 8.9C 119.844 8.9 120.434 9.105 120.854 9.515C 121.284 9.925 121.499 10.475 121.499 11.165L 121.499 16.76C 121.499 16.92 121.424 17 121.274 17L 120.434 17C 120.304 17 120.239 16.935 120.239 16.805L 120.239 11.45C 120.239 10.95 120.109 10.565 119.849 10.295C 119.599 10.025 119.209 9.89 118.679 9.89C 118.259 9.89 117.869 9.985 117.509 10.175C 117.159 10.355 116.729 10.665 116.219 11.105L 116.219 16.775C 116.219 16.855 116.199 16.915 116.159 16.955C 116.129 16.985 116.074 17 115.994 17L 115.169 17ZM 124.558 13.52C 124.558 14 124.673 14.445 124.903 14.855C 125.143 15.265 125.463 15.59 125.863 15.83C 126.263 16.07 126.703 16.19 127.183 16.19C 128.183 16.19 128.963 15.775 129.523 14.945C 129.563 14.905 129.598 14.885 129.628 14.885C 129.658 14.875 129.693 14.88 129.733 14.9L 130.363 15.215C 130.443 15.265 130.453 15.335 130.393 15.425C 130.003 16.025 129.538 16.465 128.998 16.745C 128.458 17.015 127.813 17.15 127.063 17.15C 126.333 17.15 125.678 16.98 125.098 16.64C 124.518 16.3 124.063 15.825 123.733 15.215C 123.413 14.595 123.253 13.89 123.253 13.1C 123.253 12.25 123.418 11.51 123.748 10.88C 124.078 10.24 124.528 9.75 125.098 9.41C 125.678 9.07 126.328 8.9 127.048 8.9C 127.768 8.9 128.398 9.06 128.938 9.38C 129.488 9.7 129.913 10.17 130.213 10.79C 130.513 11.4 130.663 12.125 130.663 12.965L 130.663 13.025C 130.663 13.115 130.648 13.185 130.618 13.235C 130.588 13.275 130.528 13.295 130.438 13.295L 124.693 13.295C 124.603 13.295 124.558 13.37 124.558 13.52ZM 129.148 12.47C 129.258 12.47 129.328 12.46 129.358 12.44C 129.388 12.41 129.403 12.35 129.403 12.26C 129.403 11.82 129.308 11.415 129.118 11.045C 128.938 10.665 128.668 10.365 128.308 10.145C 127.958 9.915 127.548 9.8 127.078 9.8C 126.568 9.8 126.123 9.93 125.743 10.19C 125.363 10.44 125.073 10.77 124.873 11.18C 124.673 11.58 124.578 12.01 124.588 12.47L 129.148 12.47Z" transform="translate(0 -5)" fill="#494949"/>
<path id="12px &#226;&#128;&#148; Small Inline" d="M 6.615 15.335C 6.775 15.335 6.855 15.405 6.855 15.545L 6.855 16.775C 6.855 16.835 6.835 16.89 6.795 16.94C 6.755 16.98 6.69 17 6.6 17L 0.9 17C 0.74 17 0.66 16.93 0.66 16.79L 0.66 15.545C 0.66 15.405 0.735 15.335 0.885 15.335L 2.565 15.335C 2.655 15.335 2.7 15.305 2.7 15.245L 2.7 8.27C 2.7 8.2 2.685 8.155 2.655 8.135C 2.635 8.115 2.59 8.11 2.52 8.12L 0.93 8.645C 0.91 8.655 0.88 8.66 0.84 8.66C 0.71 8.66 0.645 8.575 0.645 8.405L 0.645 7.535C 0.645 7.445 0.655 7.385 0.675 7.355C 0.705 7.315 0.76 7.275 0.84 7.235L 3.255 6.02C 3.365 5.97 3.46 5.935 3.54 5.915C 3.63 5.885 3.725 5.87 3.825 5.87L 4.725 5.87C 4.855 5.87 4.92 5.95 4.92 6.11L 4.92 15.2C 4.92 15.29 4.965 15.335 5.055 15.335L 6.615 15.335ZM 11.5521 12.23C 12.1821 11.67 12.6571 11.215 12.9771 10.865C 13.3071 10.505 13.5371 10.185 13.6671 9.905C 13.7971 9.615 13.8621 9.31 13.8621 8.99C 13.8621 8.49 13.6821 8.095 13.3221 7.805C 12.9621 7.505 12.5221 7.355 12.0021 7.355C 11.0821 7.355 10.3121 7.87 9.69211 8.9C 9.66211 8.97 9.60211 9.005 9.51211 9.005C 9.45211 9.005 9.38711 8.985 9.31711 8.945L 8.20711 8.36C 8.10711 8.3 8.05711 8.225 8.05711 8.135C 8.05711 8.075 8.08211 8.005 8.13211 7.925C 9.08211 6.455 10.4221 5.72 12.1521 5.72C 12.9021 5.72 13.5671 5.85 14.1471 6.11C 14.7371 6.37 15.1971 6.75 15.5271 7.25C 15.8571 7.74 16.0221 8.325 16.0221 9.005C 16.0221 9.625 15.8521 10.205 15.5121 10.745C 15.1721 11.275 14.5921 11.885 13.7721 12.575L 10.9071 14.99C 10.8571 15.04 10.8321 15.075 10.8321 15.095C 10.8321 15.145 10.8871 15.17 10.9971 15.17L 15.8721 15.17C 15.9621 15.17 16.0271 15.185 16.0671 15.215C 16.1071 15.245 16.1271 15.3 16.1271 15.38L 16.1271 16.76C 16.1271 16.92 16.0371 17 15.8571 17L 8.34211 17C 8.22211 17 8.13711 16.98 8.08711 16.94C 8.04711 16.9 8.02711 16.825 8.02711 16.715L 8.02711 15.74C 8.02711 15.65 8.06211 15.555 8.13211 15.455C 8.20211 15.345 8.36711 15.185 8.62711 14.975L 11.5521 12.23ZM 19.4411 9.05C 19.6311 9.05 19.7261 9.14 19.7261 9.32L 19.7261 9.83C 19.7261 9.91 19.7511 9.95 19.8011 9.95C 19.8311 9.95 19.8711 9.925 19.9211 9.875C 20.2411 9.575 20.5611 9.34 20.8811 9.17C 21.2111 8.99 21.6411 8.9 22.1711 8.9C 22.7811 8.9 23.3211 9.05 23.7911 9.35C 24.2711 9.65 24.6461 10.105 24.9161 10.715C 25.1861 11.315 25.3211 12.055 25.3211 12.935C 25.3211 14.305 25.0211 15.35 24.4211 16.07C 23.8211 16.79 23.0261 17.15 22.0361 17.15C 21.2361 17.15 20.5561 16.895 19.9961 16.385C 19.8961 16.305 19.8311 16.265 19.8011 16.265C 19.7511 16.265 19.7261 16.335 19.7261 16.475L 19.7261 19.235C 19.7261 19.395 19.6561 19.475 19.5161 19.475L 17.9861 19.475C 17.8461 19.475 17.7761 19.395 17.7761 19.235L 17.7761 9.35C 17.7761 9.24 17.7961 9.165 17.8361 9.125C 17.8861 9.075 17.9661 9.05 18.0761 9.05L 19.4411 9.05ZM 19.7261 15.05C 20.2261 15.6 20.7711 15.875 21.3611 15.875C 21.9811 15.875 22.4661 15.635 22.8161 15.155C 23.1661 14.665 23.3411 13.92 23.3411 12.92C 23.3411 11.96 23.1661 11.265 22.8161 10.835C 22.4761 10.395 22.0111 10.175 21.4211 10.175C 21.1011 10.175 20.8111 10.245 20.5511 10.385C 20.2911 10.515 20.0861 10.685 19.9361 10.895C 19.7961 11.105 19.7261 11.325 19.7261 11.555L 19.7261 15.05ZM 33.56 16.565C 33.67 16.705 33.725 16.81 33.725 16.88C 33.725 16.96 33.64 17 33.47 17L 31.85 17C 31.65 17 31.505 16.935 31.415 16.805L 29.675 14.36C 29.605 14.26 29.55 14.21 29.51 14.21C 29.47 14.21 29.415 14.26 29.345 14.36L 27.56 16.805C 27.47 16.935 27.325 17 27.125 17L 26.075 17C 25.865 17 25.76 16.935 25.76 16.805C 25.76 16.745 25.815 16.635 25.925 16.475L 28.475 13.205C 28.535 13.125 28.565 13.065 28.565 13.025C 28.565 12.965 28.53 12.885 28.46 12.785L 25.97 9.41C 25.93 9.37 25.91 9.315 25.91 9.245C 25.91 9.185 25.93 9.14 25.97 9.11C 26.02 9.07 26.085 9.05 26.165 9.05L 27.71 9.05C 27.82 9.05 27.9 9.065 27.95 9.095C 28.01 9.125 28.07 9.175 28.13 9.245L 29.735 11.495C 29.785 11.555 29.825 11.585 29.855 11.585C 29.895 11.585 29.935 11.555 29.975 11.495L 31.52 9.245C 31.57 9.175 31.625 9.125 31.685 9.095C 31.745 9.065 31.83 9.05 31.94 9.05L 33.095 9.05C 33.245 9.05 33.32 9.095 33.32 9.185C 33.32 9.225 33.295 9.28 33.245 9.35L 30.905 12.5C 30.845 12.57 30.815 12.635 30.815 12.695C 30.815 12.735 30.85 12.81 30.92 12.92L 33.56 16.565ZM 49.5356 13.43C 49.5356 13.57 49.4556 13.64 49.2956 13.64L 38.3906 13.64C 38.3206 13.64 38.2706 13.63 38.2406 13.61C 38.2106 13.58 38.1956 13.53 38.1956 13.46L 38.1956 12.8C 38.1956 12.69 38.2406 12.635 38.3306 12.635L 49.3856 12.62C 49.4856 12.62 49.5356 12.67 49.5356 12.77L 49.5356 13.43ZM 61.1565 7.94C 60.5165 7.19 59.6665 6.815 58.6065 6.815C 57.8565 6.815 57.2665 6.98 56.8365 7.31C 56.4065 7.64 56.1915 8.1 56.1915 8.69C 56.1915 9.47 56.7265 10.04 57.7965 10.4L 59.9715 11.12C 60.8515 11.41 61.4865 11.8 61.8765 12.29C 62.2765 12.77 62.4765 13.36 62.4765 14.06C 62.4765 15.02 62.1215 15.775 61.4115 16.325C 60.7015 16.875 59.7315 17.15 58.5015 17.15C 57.6015 17.15 56.8065 16.99 56.1165 16.67C 55.4365 16.35 54.8865 15.885 54.4665 15.275C 54.4265 15.195 54.4065 15.145 54.4065 15.125C 54.4065 15.055 54.4565 14.985 54.5565 14.915L 55.0965 14.54C 55.1865 14.48 55.2565 14.45 55.3065 14.45C 55.3665 14.45 55.4215 14.48 55.4715 14.54C 55.9015 15.09 56.3265 15.48 56.7465 15.71C 57.1665 15.94 57.7315 16.055 58.4415 16.055C 59.2815 16.055 59.9315 15.905 60.3915 15.605C 60.8615 15.305 61.0965 14.84 61.0965 14.21C 61.0965 13.82 60.9715 13.49 60.7215 13.22C 60.4815 12.94 60.0415 12.68 59.4015 12.44L 57.1215 11.66C 56.3315 11.39 55.7465 11.005 55.3665 10.505C 54.9965 9.995 54.8115 9.435 54.8115 8.825C 54.8115 8.205 54.9665 7.66 55.2765 7.19C 55.5965 6.72 56.0415 6.36 56.6115 6.11C 57.1915 5.85 57.8565 5.72 58.6065 5.72C 59.3365 5.72 59.9965 5.85 60.5865 6.11C 61.1865 6.37 61.6965 6.735 62.1165 7.205C 62.1665 7.255 62.1915 7.305 62.1915 7.355C 62.1915 7.405 62.1665 7.45 62.1165 7.49L 61.4265 8.03C 61.3965 8.06 61.3665 8.075 61.3365 8.075C 61.3065 8.075 61.2465 8.03 61.1565 7.94ZM 64.6609 17C 64.5209 17 64.4509 16.935 64.4509 16.805L 64.4509 9.245C 64.4509 9.115 64.5059 9.05 64.6159 9.05L 65.5159 9.05C 65.6159 9.05 65.6659 9.105 65.6659 9.215L 65.6659 10.085C 65.6659 10.205 65.7159 10.22 65.8159 10.13C 66.3559 9.69 66.8159 9.375 67.1959 9.185C 67.5759 8.995 68.0009 8.9 68.4709 8.9C 69.0309 8.9 69.4909 9.025 69.8509 9.275C 70.2209 9.525 70.4709 9.84 70.6009 10.22C 70.6209 10.25 70.6409 10.265 70.6609 10.265C 70.6909 10.265 70.7409 10.24 70.8109 10.19C 71.3309 9.75 71.7959 9.425 72.2059 9.215C 72.6259 9.005 73.0659 8.9 73.5259 8.9C 74.2459 8.9 74.8059 9.105 75.2059 9.515C 75.6159 9.925 75.8209 10.48 75.8209 11.18L 75.8209 16.76C 75.8209 16.92 75.7459 17 75.5959 17L 74.7559 17C 74.6259 17 74.5609 16.935 74.5609 16.805L 74.5609 11.45C 74.5609 10.95 74.4409 10.565 74.2009 10.295C 73.9609 10.025 73.6009 9.89 73.1209 9.89C 72.7209 9.89 72.3459 9.99 71.9959 10.19C 71.6459 10.38 71.3059 10.62 70.9759 10.91C 70.8959 10.99 70.8409 11.06 70.8109 11.12C 70.7809 11.18 70.7659 11.255 70.7659 11.345L 70.7659 16.76C 70.7659 16.92 70.6909 17 70.5409 17L 69.7009 17C 69.5709 17 69.5059 16.935 69.5059 16.805L 69.5059 11.45C 69.5059 10.41 69.0259 9.89 68.0659 9.89C 67.6659 9.89 67.2959 9.985 66.9559 10.175C 66.6259 10.355 66.2109 10.665 65.7109 11.105L 65.7109 16.775C 65.7109 16.855 65.6909 16.915 65.6509 16.955C 65.6209 16.985 65.5659 17 65.4859 17L 64.6609 17ZM 82.6646 16.04C 81.8946 16.78 81.0046 17.15 79.9946 17.15C 79.2146 17.15 78.5996 16.955 78.1496 16.565C 77.7096 16.165 77.4896 15.635 77.4896 14.975C 77.4896 14.175 77.8246 13.545 78.4946 13.085C 79.1746 12.625 80.1546 12.355 81.4346 12.275L 82.6046 12.185C 82.7746 12.165 82.8596 12.09 82.8596 11.96L 82.8596 11.555C 82.8596 11.015 82.6896 10.59 82.3496 10.28C 82.0196 9.96 81.5696 9.8 80.9996 9.8C 80.1196 9.8 79.3996 10.2 78.8396 11C 78.8096 11.05 78.7796 11.085 78.7496 11.105C 78.7196 11.115 78.6796 11.11 78.6296 11.09L 77.8196 10.82C 77.7696 10.8 77.7446 10.765 77.7446 10.715C 77.7446 10.685 77.7596 10.64 77.7896 10.58C 78.0896 10.05 78.5146 9.64 79.0646 9.35C 79.6246 9.05 80.2846 8.9 81.0446 8.9C 82.0246 8.9 82.7746 9.13 83.2946 9.59C 83.8146 10.04 84.0746 10.665 84.0746 11.465L 84.0746 16.775C 84.0746 16.865 84.0596 16.925 84.0296 16.955C 83.9996 16.985 83.9446 17 83.8646 17L 83.1146 17C 82.9946 17 82.9246 16.92 82.9046 16.76L 82.8746 16.07C 82.8646 16 82.8396 15.965 82.7996 15.965C 82.7596 15.965 82.7146 15.99 82.6646 16.04ZM 82.8596 13.19C 82.8596 13.03 82.7846 12.95 82.6346 12.95L 81.6596 13.04C 80.7296 13.1 80.0096 13.28 79.4996 13.58C 78.9996 13.88 78.7496 14.295 78.7496 14.825C 78.7496 15.255 78.8996 15.595 79.1996 15.845C 79.5096 16.095 79.9196 16.22 80.4296 16.22C 80.7396 16.22 81.0446 16.165 81.3446 16.055C 81.6446 15.945 81.9096 15.795 82.1396 15.605C 82.3696 15.425 82.5446 15.235 82.6646 15.035C 82.7946 14.825 82.8596 14.625 82.8596 14.435L 82.8596 13.19ZM 87.5374 16.745C 87.5374 16.845 87.5174 16.915 87.4774 16.955C 87.4374 16.985 87.3674 17 87.2674 17L 86.4874 17C 86.3974 17 86.3374 16.985 86.3074 16.955C 86.2774 16.925 86.2624 16.87 86.2624 16.79L 86.2774 6.08C 86.2774 5.94 86.3374 5.87 86.4574 5.87L 87.3574 5.87C 87.4774 5.87 87.5374 5.935 87.5374 6.065L 87.5374 16.745ZM 91.1263 16.745C 91.1263 16.845 91.1063 16.915 91.0663 16.955C 91.0263 16.985 90.9563 17 90.8563 17L 90.0763 17C 89.9863 17 89.9263 16.985 89.8963 16.955C 89.8663 16.925 89.8513 16.87 89.8513 16.79L 89.8663 6.08C 89.8663 5.94 89.9263 5.87 90.0463 5.87L 90.9463 5.87C 91.0663 5.87 91.1263 5.935 91.1263 6.065L 91.1263 16.745ZM 98.2228 5.87C 98.3428 5.87 98.4028 5.935 98.4028 6.065L 98.4028 16.745C 98.4028 16.845 98.3828 16.915 98.3428 16.955C 98.3028 16.985 98.2328 17 98.1328 17L 97.1878 17C 97.0978 17 97.0378 16.985 97.0078 16.955C 96.9778 16.925 96.9628 16.87 96.9628 16.79L 96.9628 6.08C 96.9628 5.94 97.0228 5.87 97.1428 5.87L 98.2228 5.87ZM 101.223 17C 101.083 17 101.013 16.935 101.013 16.805L 101.013 9.245C 101.013 9.115 101.068 9.05 101.178 9.05L 102.078 9.05C 102.188 9.05 102.243 9.105 102.243 9.215L 102.243 10.085C 102.243 10.195 102.288 10.21 102.378 10.13C 102.938 9.69 103.413 9.375 103.803 9.185C 104.203 8.995 104.648 8.9 105.138 8.9C 105.898 8.9 106.488 9.105 106.908 9.515C 107.338 9.925 107.553 10.475 107.553 11.165L 107.553 16.76C 107.553 16.92 107.478 17 107.328 17L 106.488 17C 106.358 17 106.293 16.935 106.293 16.805L 106.293 11.45C 106.293 10.95 106.163 10.565 105.903 10.295C 105.653 10.025 105.263 9.89 104.733 9.89C 104.313 9.89 103.923 9.985 103.563 10.175C 103.213 10.355 102.783 10.665 102.273 11.105L 102.273 16.775C 102.273 16.855 102.253 16.915 102.213 16.955C 102.183 16.985 102.128 17 102.048 17L 101.223 17ZM 111.048 16.745C 111.048 16.845 111.028 16.915 110.988 16.955C 110.948 16.985 110.878 17 110.778 17L 109.998 17C 109.908 17 109.848 16.985 109.818 16.955C 109.788 16.925 109.773 16.87 109.773 16.79L 109.788 6.08C 109.788 5.94 109.848 5.87 109.968 5.87L 110.868 5.87C 110.988 5.87 111.048 5.935 111.048 6.065L 111.048 16.745ZM 114.682 7.34C 114.682 7.44 114.662 7.515 114.622 7.565C 114.582 7.605 114.512 7.625 114.412 7.625L 113.542 7.625C 113.392 7.625 113.317 7.54 113.317 7.37L 113.317 6.11C 113.317 5.95 113.387 5.87 113.527 5.87L 114.472 5.87C 114.532 5.87 114.582 5.89 114.622 5.93C 114.662 5.97 114.682 6.025 114.682 6.095L 114.682 7.34ZM 114.622 16.745C 114.622 16.845 114.602 16.915 114.562 16.955C 114.522 16.985 114.452 17 114.352 17L 113.587 17C 113.497 17 113.437 16.985 113.407 16.955C 113.377 16.925 113.362 16.87 113.362 16.79L 113.362 9.26C 113.362 9.12 113.422 9.05 113.542 9.05L 114.457 9.05C 114.567 9.05 114.622 9.115 114.622 9.245L 114.622 16.745ZM 117.161 17C 117.021 17 116.951 16.935 116.951 16.805L 116.951 9.245C 116.951 9.115 117.006 9.05 117.116 9.05L 118.016 9.05C 118.126 9.05 118.181 9.105 118.181 9.215L 118.181 10.085C 118.181 10.195 118.226 10.21 118.316 10.13C 118.876 9.69 119.351 9.375 119.741 9.185C 120.141 8.995 120.586 8.9 121.076 8.9C 121.836 8.9 122.426 9.105 122.846 9.515C 123.276 9.925 123.491 10.475 123.491 11.165L 123.491 16.76C 123.491 16.92 123.416 17 123.266 17L 122.426 17C 122.296 17 122.231 16.935 122.231 16.805L 122.231 11.45C 122.231 10.95 122.101 10.565 121.841 10.295C 121.591 10.025 121.201 9.89 120.671 9.89C 120.251 9.89 119.861 9.985 119.501 10.175C 119.151 10.355 118.721 10.665 118.211 11.105L 118.211 16.775C 118.211 16.855 118.191 16.915 118.151 16.955C 118.121 16.985 118.066 17 117.986 17L 117.161 17ZM 126.551 13.52C 126.551 14 126.666 14.445 126.896 14.855C 127.136 15.265 127.456 15.59 127.856 15.83C 128.256 16.07 128.696 16.19 129.176 16.19C 130.176 16.19 130.956 15.775 131.516 14.945C 131.556 14.905 131.591 14.885 131.621 14.885C 131.651 14.875 131.686 14.88 131.726 14.9L 132.356 15.215C 132.436 15.265 132.446 15.335 132.386 15.425C 131.996 16.025 131.531 16.465 130.991 16.745C 130.451 17.015 129.806 17.15 129.056 17.15C 128.326 17.15 127.671 16.98 127.091 16.64C 126.511 16.3 126.056 15.825 125.726 15.215C 125.406 14.595 125.246 13.89 125.246 13.1C 125.246 12.25 125.411 11.51 125.741 10.88C 126.071 10.24 126.521 9.75 127.091 9.41C 127.671 9.07 128.321 8.9 129.041 8.9C 129.761 8.9 130.391 9.06 130.931 9.38C 131.481 9.7 131.906 10.17 132.206 10.79C 132.506 11.4 132.656 12.125 132.656 12.965L 132.656 13.025C 132.656 13.115 132.641 13.185 132.611 13.235C 132.581 13.275 132.521 13.295 132.431 13.295L 126.686 13.295C 126.596 13.295 126.551 13.37 126.551 13.52ZM 131.141 12.47C 131.251 12.47 131.321 12.46 131.351 12.44C 131.381 12.41 131.396 12.35 131.396 12.26C 131.396 11.82 131.301 11.415 131.111 11.045C 130.931 10.665 130.661 10.365 130.301 10.145C 129.951 9.915 129.541 9.8 129.071 9.8C 128.561 9.8 128.116 9.93 127.736 10.19C 127.356 10.44 127.066 10.77 126.866 11.18C 126.666 11.58 126.571 12.01 126.581 12.47L 131.141 12.47Z" transform="translate(24 31)" fill="#494949"/>
<path id="18px &#226;&#128;&#148; Medium Inline" d="M 6.615 15.335C 6.775 15.335 6.855 15.405 6.855 15.545L 6.855 16.775C 6.855 16.835 6.835 16.89 6.795 16.94C 6.755 16.98 6.69 17 6.6 17L 0.9 17C 0.74 17 0.66 16.93 0.66 16.79L 0.66 15.545C 0.66 15.405 0.735 15.335 0.885 15.335L 2.565 15.335C 2.655 15.335 2.7 15.305 2.7 15.245L 2.7 8.27C 2.7 8.2 2.685 8.155 2.655 8.135C 2.635 8.115 2.59 8.11 2.52 8.12L 0.93 8.645C 0.91 8.655 0.88 8.66 0.84 8.66C 0.71 8.66 0.645 8.575 0.645 8.405L 0.645 7.535C 0.645 7.445 0.655 7.385 0.675 7.355C 0.705 7.315 0.76 7.275 0.84 7.235L 3.255 6.02C 3.365 5.97 3.46 5.935 3.54 5.915C 3.63 5.885 3.725 5.87 3.825 5.87L 4.725 5.87C 4.855 5.87 4.92 5.95 4.92 6.11L 4.92 15.2C 4.92 15.29 4.965 15.335 5.055 15.335L 6.615 15.335ZM 12.4521 5.72C 13.2121 5.72 13.8921 5.855 14.4921 6.125C 15.0921 6.385 15.5621 6.75 15.9021 7.22C 16.2421 7.69 16.4121 8.22 16.4121 8.81C 16.4121 9.25 16.2921 9.645 16.0521 9.995C 15.8121 10.345 15.4421 10.675 14.9421 10.985C 14.8621 11.035 14.8221 11.08 14.8221 11.12C 14.8221 11.16 14.8571 11.2 14.9271 11.24C 15.6271 11.59 16.1321 11.98 16.4421 12.41C 16.7521 12.84 16.9071 13.345 16.9071 13.925C 16.9071 14.585 16.7171 15.16 16.3371 15.65C 15.9571 16.13 15.4221 16.5 14.7321 16.76C 14.0521 17.02 13.2671 17.15 12.3771 17.15C 11.0871 17.15 10.0571 16.895 9.28711 16.385C 8.51711 15.875 8.13211 15.165 8.13211 14.255C 8.13211 13.735 8.26211 13.275 8.52211 12.875C 8.79211 12.475 9.23711 12.09 9.85711 11.72C 9.95711 11.66 10.0071 11.615 10.0071 11.585C 10.0071 11.545 9.96211 11.495 9.87211 11.435C 9.42211 11.145 9.06711 10.815 8.80711 10.445C 8.55711 10.075 8.43211 9.615 8.43211 9.065C 8.43211 8.445 8.59711 7.88 8.92711 7.37C 9.25711 6.86 9.72711 6.46 10.3371 6.17C 10.9471 5.87 11.6521 5.72 12.4521 5.72ZM 12.4821 7.22C 11.9221 7.22 11.4521 7.37 11.0721 7.67C 10.7021 7.97 10.5171 8.355 10.5171 8.825C 10.5171 9.545 10.9221 10.005 11.7321 10.205L 13.0371 10.565C 13.0671 10.575 13.1071 10.58 13.1571 10.58C 13.3471 10.58 13.5471 10.495 13.7571 10.325C 13.9771 10.145 14.1571 9.92 14.2971 9.65C 14.4471 9.38 14.5221 9.11 14.5221 8.84C 14.5221 8.37 14.3371 7.985 13.9671 7.685C 13.5971 7.375 13.1021 7.22 12.4821 7.22ZM 12.5121 15.65C 13.1921 15.65 13.7271 15.51 14.1171 15.23C 14.5071 14.94 14.7021 14.55 14.7021 14.06C 14.7021 13.69 14.5971 13.39 14.3871 13.16C 14.1871 12.92 13.8471 12.735 13.3671 12.605L 11.7621 12.17C 11.6821 12.15 11.6221 12.14 11.5821 12.14C 11.3721 12.14 11.1421 12.22 10.8921 12.38C 10.6521 12.54 10.4471 12.76 10.2771 13.04C 10.1171 13.31 10.0371 13.61 10.0371 13.94C 10.0371 14.48 10.2421 14.9 10.6521 15.2C 11.0721 15.5 11.6921 15.65 12.5121 15.65ZM 20.1881 9.05C 20.3781 9.05 20.4731 9.14 20.4731 9.32L 20.4731 9.83C 20.4731 9.91 20.4981 9.95 20.5481 9.95C 20.5781 9.95 20.6181 9.925 20.6681 9.875C 20.9881 9.575 21.3081 9.34 21.6281 9.17C 21.9581 8.99 22.3881 8.9 22.9181 8.9C 23.5281 8.9 24.0681 9.05 24.5381 9.35C 25.0181 9.65 25.3931 10.105 25.6631 10.715C 25.9331 11.315 26.0681 12.055 26.0681 12.935C 26.0681 14.305 25.7681 15.35 25.1681 16.07C 24.5681 16.79 23.7731 17.15 22.7831 17.15C 21.9831 17.15 21.3031 16.895 20.7431 16.385C 20.6431 16.305 20.5781 16.265 20.5481 16.265C 20.4981 16.265 20.4731 16.335 20.4731 16.475L 20.4731 19.235C 20.4731 19.395 20.4031 19.475 20.2631 19.475L 18.7331 19.475C 18.5931 19.475 18.5231 19.395 18.5231 19.235L 18.5231 9.35C 18.5231 9.24 18.5431 9.165 18.5831 9.125C 18.6331 9.075 18.7131 9.05 18.8231 9.05L 20.1881 9.05ZM 20.4731 15.05C 20.9731 15.6 21.5181 15.875 22.1081 15.875C 22.7281 15.875 23.2131 15.635 23.5631 15.155C 23.9131 14.665 24.0881 13.92 24.0881 12.92C 24.0881 11.96 23.9131 11.265 23.5631 10.835C 23.2231 10.395 22.7581 10.175 22.1681 10.175C 21.8481 10.175 21.5581 10.245 21.2981 10.385C 21.0381 10.515 20.8331 10.685 20.6831 10.895C 20.5431 11.105 20.4731 11.325 20.4731 11.555L 20.4731 15.05ZM 34.3071 16.565C 34.4171 16.705 34.4721 16.81 34.4721 16.88C 34.4721 16.96 34.3871 17 34.2171 17L 32.5971 17C 32.3971 17 32.2521 16.935 32.1621 16.805L 30.4221 14.36C 30.3521 14.26 30.2971 14.21 30.2571 14.21C 30.2171 14.21 30.1621 14.26 30.0921 14.36L 28.3071 16.805C 28.2171 16.935 28.0721 17 27.8721 17L 26.8221 17C 26.6121 17 26.5071 16.935 26.5071 16.805C 26.5071 16.745 26.5621 16.635 26.6721 16.475L 29.2221 13.205C 29.2821 13.125 29.3121 13.065 29.3121 13.025C 29.3121 12.965 29.2771 12.885 29.2071 12.785L 26.7171 9.41C 26.6771 9.37 26.6571 9.315 26.6571 9.245C 26.6571 9.185 26.6771 9.14 26.7171 9.11C 26.7671 9.07 26.8321 9.05 26.9121 9.05L 28.4571 9.05C 28.5671 9.05 28.6471 9.065 28.6971 9.095C 28.7571 9.125 28.8171 9.175 28.8771 9.245L 30.4821 11.495C 30.5321 11.555 30.5721 11.585 30.6021 11.585C 30.6421 11.585 30.6821 11.555 30.7221 11.495L 32.2671 9.245C 32.3171 9.175 32.3721 9.125 32.4321 9.095C 32.4921 9.065 32.5771 9.05 32.6871 9.05L 33.8421 9.05C 33.9921 9.05 34.0671 9.095 34.0671 9.185C 34.0671 9.225 34.0421 9.28 33.9921 9.35L 31.6521 12.5C 31.5921 12.57 31.5621 12.635 31.5621 12.695C 31.5621 12.735 31.5971 12.81 31.6671 12.92L 34.3071 16.565ZM 50.2827 13.43C 50.2827 13.57 50.2027 13.64 50.0427 13.64L 39.1377 13.64C 39.0677 13.64 39.0177 13.63 38.9877 13.61C 38.9577 13.58 38.9427 13.53 38.9427 13.46L 38.9427 12.8C 38.9427 12.69 38.9877 12.635 39.0777 12.635L 50.1327 12.62C 50.2327 12.62 50.2827 12.67 50.2827 12.77L 50.2827 13.43ZM 56.0986 17C 55.9586 17 55.8886 16.925 55.8886 16.775L 55.8886 6.08C 55.8886 6 55.8986 5.945 55.9186 5.915C 55.9486 5.885 55.9986 5.87 56.0686 5.87L 57.5086 5.87C 57.5886 5.87 57.6436 5.885 57.6736 5.915C 57.7136 5.935 57.7436 5.975 57.7636 6.035L 61.0936 14.63C 61.1236 14.72 61.1586 14.765 61.1986 14.765C 61.2486 14.765 61.2936 14.715 61.3336 14.615L 64.6636 6.065C 64.6936 5.935 64.7686 5.87 64.8886 5.87L 66.4036 5.87C 66.5136 5.87 66.5686 5.935 66.5686 6.065L 66.5686 16.775C 66.5686 16.925 66.4936 17 66.3436 17L 65.3536 17C 65.2036 17 65.1286 16.935 65.1286 16.805L 65.1286 8.225C 65.1286 8.175 65.1186 8.155 65.0986 8.165C 65.0886 8.165 65.0736 8.185 65.0536 8.225L 61.7536 16.805C 61.6936 16.935 61.5986 17 61.4686 17L 60.7486 17C 60.5986 17 60.4986 16.94 60.4486 16.82L 57.1936 8.315C 57.1836 8.265 57.1686 8.24 57.1486 8.24C 57.1286 8.24 57.1186 8.265 57.1186 8.315L 57.1186 16.805C 57.1186 16.875 57.1036 16.925 57.0736 16.955C 57.0436 16.985 56.9886 17 56.9086 17L 56.0986 17ZM 70.0223 13.52C 70.0223 14 70.1373 14.445 70.3673 14.855C 70.6073 15.265 70.9273 15.59 71.3273 15.83C 71.7273 16.07 72.1673 16.19 72.6473 16.19C 73.6473 16.19 74.4273 15.775 74.9873 14.945C 75.0273 14.905 75.0623 14.885 75.0923 14.885C 75.1223 14.875 75.1573 14.88 75.1973 14.9L 75.8273 15.215C 75.9073 15.265 75.9173 15.335 75.8573 15.425C 75.4673 16.025 75.0023 16.465 74.4623 16.745C 73.9223 17.015 73.2773 17.15 72.5273 17.15C 71.7973 17.15 71.1423 16.98 70.5623 16.64C 69.9823 16.3 69.5273 15.825 69.1973 15.215C 68.8773 14.595 68.7173 13.89 68.7173 13.1C 68.7173 12.25 68.8823 11.51 69.2123 10.88C 69.5423 10.24 69.9923 9.75 70.5623 9.41C 71.1423 9.07 71.7923 8.9 72.5123 8.9C 73.2323 8.9 73.8623 9.06 74.4023 9.38C 74.9523 9.7 75.3773 10.17 75.6773 10.79C 75.9773 11.4 76.1273 12.125 76.1273 12.965L 76.1273 13.025C 76.1273 13.115 76.1123 13.185 76.0823 13.235C 76.0523 13.275 75.9923 13.295 75.9023 13.295L 70.1573 13.295C 70.0673 13.295 70.0223 13.37 70.0223 13.52ZM 74.6123 12.47C 74.7223 12.47 74.7923 12.46 74.8223 12.44C 74.8523 12.41 74.8673 12.35 74.8673 12.26C 74.8673 11.82 74.7723 11.415 74.5823 11.045C 74.4023 10.665 74.1323 10.365 73.7723 10.145C 73.4223 9.915 73.0123 9.8 72.5423 9.8C 72.0323 9.8 71.5873 9.93 71.2073 10.19C 70.8273 10.44 70.5373 10.77 70.3373 11.18C 70.1373 11.58 70.0423 12.01 70.0523 12.47L 74.6123 12.47ZM 83.5532 17C 83.4132 17 83.3432 16.93 83.3432 16.79L 83.3432 16.145C 83.3432 16.055 83.3182 16.01 83.2682 16.01C 83.2382 16.01 83.1982 16.035 83.1482 16.085C 82.8482 16.385 82.5182 16.64 82.1582 16.85C 81.8082 17.05 81.3532 17.15 80.7932 17.15C 80.1532 17.15 79.5832 17 79.0832 16.7C 78.5832 16.4 78.1882 15.95 77.8982 15.35C 77.6082 14.74 77.4632 14.005 77.4632 13.145C 77.4632 12.305 77.6132 11.565 77.9132 10.925C 78.2132 10.285 78.6282 9.79 79.1582 9.44C 79.6882 9.08 80.2932 8.9 80.9732 8.9C 81.4232 8.9 81.8132 8.97 82.1432 9.11C 82.4732 9.25 82.7832 9.445 83.0732 9.695C 83.1532 9.755 83.2082 9.785 83.2382 9.785C 83.2882 9.785 83.3132 9.72 83.3132 9.59L 83.3132 6.065C 83.3132 5.935 83.3682 5.87 83.4782 5.87L 84.3932 5.87C 84.5032 5.87 84.5582 5.935 84.5582 6.065L 84.5582 16.76C 84.5582 16.85 84.5432 16.915 84.5132 16.955C 84.4832 16.985 84.4182 17 84.3182 17L 83.5532 17ZM 83.2982 10.805C 82.9782 10.485 82.6532 10.245 82.3232 10.085C 82.0032 9.915 81.6532 9.83 81.2732 9.83C 80.5132 9.83 79.9032 10.115 79.4432 10.685C 78.9832 11.255 78.7532 12.06 78.7532 13.1C 78.7532 14.15 78.9782 14.935 79.4282 15.455C 79.8882 15.975 80.4732 16.235 81.1832 16.235C 81.5732 16.235 81.9282 16.145 82.2482 15.965C 82.5782 15.775 82.8332 15.54 83.0132 15.26C 83.2032 14.98 83.2982 14.7 83.2982 14.42L 83.2982 10.805ZM 88.1977 7.34C 88.1977 7.44 88.1777 7.515 88.1377 7.565C 88.0977 7.605 88.0277 7.625 87.9277 7.625L 87.0577 7.625C 86.9077 7.625 86.8327 7.54 86.8327 7.37L 86.8327 6.11C 86.8327 5.95 86.9027 5.87 87.0427 5.87L 87.9877 5.87C 88.0477 5.87 88.0977 5.89 88.1377 5.93C 88.1777 5.97 88.1977 6.025 88.1977 6.095L 88.1977 7.34ZM 88.1377 16.745C 88.1377 16.845 88.1177 16.915 88.0777 16.955C 88.0377 16.985 87.9677 17 87.8677 17L 87.1027 17C 87.0127 17 86.9527 16.985 86.9227 16.955C 86.8927 16.925 86.8777 16.87 86.8777 16.79L 86.8777 9.26C 86.8777 9.12 86.9377 9.05 87.0577 9.05L 87.9727 9.05C 88.0827 9.05 88.1377 9.115 88.1377 9.245L 88.1377 16.745ZM 93.1665 16.16C 93.5765 16.16 93.9765 16.05 94.3665 15.83C 94.7665 15.6 95.1715 15.275 95.5815 14.855L 95.5815 9.26C 95.5815 9.12 95.6615 9.05 95.8215 9.05L 96.6465 9.05C 96.7865 9.05 96.8565 9.12 96.8565 9.26L 96.8265 16.805C 96.8265 16.935 96.7715 17 96.6615 17L 95.7915 17C 95.6815 17 95.6265 16.945 95.6265 16.835L 95.6265 15.95C 95.6265 15.83 95.5815 15.815 95.4915 15.905C 94.9515 16.365 94.4715 16.69 94.0515 16.88C 93.6315 17.06 93.2015 17.15 92.7615 17.15C 92.0615 17.15 91.4865 16.94 91.0365 16.52C 90.5865 16.1 90.3615 15.545 90.3615 14.855L 90.3615 9.275C 90.3615 9.125 90.4365 9.05 90.5865 9.05L 91.4265 9.05C 91.5565 9.05 91.6215 9.12 91.6215 9.26L 91.6215 14.525C 91.6215 15.025 91.7565 15.425 92.0265 15.725C 92.3065 16.015 92.6865 16.16 93.1665 16.16ZM 99.363 17C 99.223 17 99.153 16.935 99.153 16.805L 99.153 9.245C 99.153 9.115 99.208 9.05 99.318 9.05L 100.218 9.05C 100.318 9.05 100.368 9.105 100.368 9.215L 100.368 10.085C 100.368 10.205 100.418 10.22 100.518 10.13C 101.058 9.69 101.518 9.375 101.898 9.185C 102.278 8.995 102.703 8.9 103.173 8.9C 103.733 8.9 104.193 9.025 104.553 9.275C 104.923 9.525 105.173 9.84 105.303 10.22C 105.323 10.25 105.343 10.265 105.363 10.265C 105.393 10.265 105.443 10.24 105.513 10.19C 106.033 9.75 106.498 9.425 106.908 9.215C 107.328 9.005 107.768 8.9 108.228 8.9C 108.948 8.9 109.508 9.105 109.908 9.515C 110.318 9.925 110.523 10.48 110.523 11.18L 110.523 16.76C 110.523 16.92 110.448 17 110.298 17L 109.458 17C 109.328 17 109.263 16.935 109.263 16.805L 109.263 11.45C 109.263 10.95 109.143 10.565 108.903 10.295C 108.663 10.025 108.303 9.89 107.823 9.89C 107.423 9.89 107.048 9.99 106.698 10.19C 106.348 10.38 106.008 10.62 105.678 10.91C 105.598 10.99 105.543 11.06 105.513 11.12C 105.483 11.18 105.468 11.255 105.468 11.345L 105.468 16.76C 105.468 16.92 105.393 17 105.243 17L 104.403 17C 104.273 17 104.208 16.935 104.208 16.805L 104.208 11.45C 104.208 10.41 103.728 9.89 102.768 9.89C 102.368 9.89 101.998 9.985 101.658 10.175C 101.328 10.355 100.913 10.665 100.413 11.105L 100.413 16.775C 100.413 16.855 100.393 16.915 100.353 16.955C 100.323 16.985 100.268 17 100.188 17L 99.363 17ZM 117.529 5.87C 117.649 5.87 117.709 5.935 117.709 6.065L 117.709 16.745C 117.709 16.845 117.689 16.915 117.649 16.955C 117.609 16.985 117.539 17 117.439 17L 116.494 17C 116.404 17 116.344 16.985 116.314 16.955C 116.284 16.925 116.269 16.87 116.269 16.79L 116.269 6.08C 116.269 5.94 116.329 5.87 116.449 5.87L 117.529 5.87ZM 120.53 17C 120.39 17 120.32 16.935 120.32 16.805L 120.32 9.245C 120.32 9.115 120.375 9.05 120.485 9.05L 121.385 9.05C 121.495 9.05 121.55 9.105 121.55 9.215L 121.55 10.085C 121.55 10.195 121.595 10.21 121.685 10.13C 122.245 9.69 122.72 9.375 123.11 9.185C 123.51 8.995 123.955 8.9 124.445 8.9C 125.205 8.9 125.795 9.105 126.215 9.515C 126.645 9.925 126.86 10.475 126.86 11.165L 126.86 16.76C 126.86 16.92 126.785 17 126.635 17L 125.795 17C 125.665 17 125.6 16.935 125.6 16.805L 125.6 11.45C 125.6 10.95 125.47 10.565 125.21 10.295C 124.96 10.025 124.57 9.89 124.04 9.89C 123.62 9.89 123.23 9.985 122.87 10.175C 122.52 10.355 122.09 10.665 121.58 11.105L 121.58 16.775C 121.58 16.855 121.56 16.915 121.52 16.955C 121.49 16.985 121.435 17 121.355 17L 120.53 17ZM 130.355 16.745C 130.355 16.845 130.335 16.915 130.295 16.955C 130.255 16.985 130.185 17 130.085 17L 129.305 17C 129.215 17 129.155 16.985 129.125 16.955C 129.095 16.925 129.08 16.87 129.08 16.79L 129.095 6.08C 129.095 5.94 129.155 5.87 129.275 5.87L 130.175 5.87C 130.295 5.87 130.355 5.935 130.355 6.065L 130.355 16.745ZM 133.989 7.34C 133.989 7.44 133.969 7.515 133.929 7.565C 133.889 7.605 133.819 7.625 133.719 7.625L 132.849 7.625C 132.699 7.625 132.624 7.54 132.624 7.37L 132.624 6.11C 132.624 5.95 132.694 5.87 132.834 5.87L 133.779 5.87C 133.839 5.87 133.889 5.89 133.929 5.93C 133.969 5.97 133.989 6.025 133.989 6.095L 133.989 7.34ZM 133.929 16.745C 133.929 16.845 133.909 16.915 133.869 16.955C 133.829 16.985 133.759 17 133.659 17L 132.894 17C 132.804 17 132.744 16.985 132.714 16.955C 132.684 16.925 132.669 16.87 132.669 16.79L 132.669 9.26C 132.669 9.12 132.729 9.05 132.849 9.05L 133.764 9.05C 133.874 9.05 133.929 9.115 133.929 9.245L 133.929 16.745ZM 136.468 17C 136.328 17 136.258 16.935 136.258 16.805L 136.258 9.245C 136.258 9.115 136.313 9.05 136.423 9.05L 137.323 9.05C 137.433 9.05 137.488 9.105 137.488 9.215L 137.488 10.085C 137.488 10.195 137.533 10.21 137.623 10.13C 138.183 9.69 138.658 9.375 139.048 9.185C 139.448 8.995 139.893 8.9 140.383 8.9C 141.143 8.9 141.733 9.105 142.153 9.515C 142.583 9.925 142.798 10.475 142.798 11.165L 142.798 16.76C 142.798 16.92 142.723 17 142.573 17L 141.733 17C 141.603 17 141.538 16.935 141.538 16.805L 141.538 11.45C 141.538 10.95 141.408 10.565 141.148 10.295C 140.898 10.025 140.508 9.89 139.978 9.89C 139.558 9.89 139.168 9.985 138.808 10.175C 138.458 10.355 138.028 10.665 137.518 11.105L 137.518 16.775C 137.518 16.855 137.498 16.915 137.458 16.955C 137.428 16.985 137.373 17 137.293 17L 136.468 17ZM 145.857 13.52C 145.857 14 145.972 14.445 146.202 14.855C 146.442 15.265 146.762 15.59 147.162 15.83C 147.562 16.07 148.002 16.19 148.482 16.19C 149.482 16.19 150.262 15.775 150.822 14.945C 150.862 14.905 150.897 14.885 150.927 14.885C 150.957 14.875 150.992 14.88 151.032 14.9L 151.662 15.215C 151.742 15.265 151.752 15.335 151.692 15.425C 151.302 16.025 150.837 16.465 150.297 16.745C 149.757 17.015 149.112 17.15 148.362 17.15C 147.632 17.15 146.977 16.98 146.397 16.64C 145.817 16.3 145.362 15.825 145.032 15.215C 144.712 14.595 144.552 13.89 144.552 13.1C 144.552 12.25 144.717 11.51 145.047 10.88C 145.377 10.24 145.827 9.75 146.397 9.41C 146.977 9.07 147.627 8.9 148.347 8.9C 149.067 8.9 149.697 9.06 150.237 9.38C 150.787 9.7 151.212 10.17 151.512 10.79C 151.812 11.4 151.962 12.125 151.962 12.965L 151.962 13.025C 151.962 13.115 151.947 13.185 151.917 13.235C 151.887 13.275 151.827 13.295 151.737 13.295L 145.992 13.295C 145.902 13.295 145.857 13.37 145.857 13.52ZM 150.447 12.47C 150.557 12.47 150.627 12.46 150.657 12.44C 150.687 12.41 150.702 12.35 150.702 12.26C 150.702 11.82 150.607 11.415 150.417 11.045C 150.237 10.665 149.967 10.365 149.607 10.145C 149.257 9.915 148.847 9.8 148.377 9.8C 147.867 9.8 147.422 9.93 147.042 10.19C 146.662 10.44 146.372 10.77 146.172 11.18C 145.972 11.58 145.877 12.01 145.887 12.47L 150.447 12.47Z" transform="translate(55 67)" fill="#494949"/>
<path id="30px &#226;&#128;&#148; Large Inline" d="M 1.035 7.55C 0.995 7.49 0.975 7.445 0.975 7.415C 0.975 7.385 0.995 7.33 1.035 7.25C 1.465 6.76 2.005 6.385 2.655 6.125C 3.315 5.855 4.025 5.72 4.785 5.72C 5.605 5.72 6.32 5.845 6.93 6.095C 7.54 6.335 8.005 6.675 8.325 7.115C 8.655 7.545 8.82 8.04 8.82 8.6C 8.82 9.11 8.66 9.58 8.34 10.01C 8.02 10.44 7.575 10.745 7.005 10.925C 6.895 10.955 6.84 11 6.84 11.06C 6.84 11.11 6.895 11.15 7.005 11.18C 7.645 11.38 8.165 11.715 8.565 12.185C 8.965 12.655 9.165 13.205 9.165 13.835C 9.165 14.875 8.775 15.69 7.995 16.28C 7.225 16.86 6.09 17.15 4.59 17.15C 3.76 17.15 2.995 16.995 2.295 16.685C 1.595 16.375 1.025 15.94 0.585 15.38C 0.535 15.31 0.51 15.255 0.51 15.215C 0.51 15.135 0.555 15.065 0.645 15.005L 1.635 14.285C 1.715 14.235 1.775 14.21 1.815 14.21C 1.865 14.21 1.905 14.235 1.935 14.285C 2.395 14.755 2.83 15.085 3.24 15.275C 3.66 15.465 4.155 15.56 4.725 15.56C 5.425 15.56 5.975 15.405 6.375 15.095C 6.785 14.785 6.99 14.38 6.99 13.88C 6.99 13.32 6.76 12.88 6.3 12.56C 5.85 12.23 5.3 12.06 4.65 12.05L 3.345 12.035C 3.185 12.035 3.105 11.97 3.105 11.84L 3.105 10.655C 3.105 10.545 3.185 10.48 3.345 10.46L 4.395 10.43C 5.055 10.41 5.595 10.245 6.015 9.935C 6.445 9.615 6.66 9.21 6.66 8.72C 6.66 8.31 6.48 7.97 6.12 7.7C 5.76 7.42 5.305 7.28 4.755 7.28C 4.285 7.28 3.85 7.37 3.45 7.55C 3.05 7.73 2.65 8.01 2.25 8.39C 2.18 8.46 2.125 8.495 2.085 8.495C 2.045 8.495 1.995 8.465 1.935 8.405L 1.035 7.55ZM 15.153 5.705C 16.003 5.705 16.763 5.94 17.433 6.41C 18.113 6.87 18.643 7.54 19.023 8.42C 19.413 9.29 19.608 10.305 19.608 11.465C 19.608 12.625 19.418 13.635 19.038 14.495C 18.658 15.345 18.128 16 17.448 16.46C 16.778 16.91 16.008 17.135 15.138 17.135C 14.268 17.135 13.493 16.91 12.813 16.46C 12.143 16 11.613 15.345 11.223 14.495C 10.843 13.645 10.653 12.64 10.653 11.48C 10.653 10.31 10.848 9.29 11.238 8.42C 11.628 7.55 12.163 6.88 12.843 6.41C 13.523 5.94 14.293 5.705 15.153 5.705ZM 15.138 15.545C 15.878 15.545 16.433 15.225 16.803 14.585C 17.173 13.935 17.358 12.9 17.358 11.48C 17.358 10.03 17.168 8.97 16.788 8.3C 16.418 7.62 15.868 7.28 15.138 7.28C 13.648 7.28 12.903 8.68 12.903 11.48C 12.903 12.89 13.093 13.92 13.473 14.57C 13.853 15.22 14.408 15.545 15.138 15.545ZM 23.0006 9.05C 23.1906 9.05 23.2856 9.14 23.2856 9.32L 23.2856 9.83C 23.2856 9.91 23.3106 9.95 23.3606 9.95C 23.3906 9.95 23.4306 9.925 23.4806 9.875C 23.8006 9.575 24.1206 9.34 24.4406 9.17C 24.7706 8.99 25.2006 8.9 25.7306 8.9C 26.3406 8.9 26.8806 9.05 27.3506 9.35C 27.8306 9.65 28.2056 10.105 28.4756 10.715C 28.7456 11.315 28.8806 12.055 28.8806 12.935C 28.8806 14.305 28.5806 15.35 27.9806 16.07C 27.3806 16.79 26.5856 17.15 25.5956 17.15C 24.7956 17.15 24.1156 16.895 23.5556 16.385C 23.4556 16.305 23.3906 16.265 23.3606 16.265C 23.3106 16.265 23.2856 16.335 23.2856 16.475L 23.2856 19.235C 23.2856 19.395 23.2156 19.475 23.0756 19.475L 21.5456 19.475C 21.4056 19.475 21.3356 19.395 21.3356 19.235L 21.3356 9.35C 21.3356 9.24 21.3556 9.165 21.3956 9.125C 21.4456 9.075 21.5256 9.05 21.6356 9.05L 23.0006 9.05ZM 23.2856 15.05C 23.7856 15.6 24.3306 15.875 24.9206 15.875C 25.5406 15.875 26.0256 15.635 26.3756 15.155C 26.7256 14.665 26.9006 13.92 26.9006 12.92C 26.9006 11.96 26.7256 11.265 26.3756 10.835C 26.0356 10.395 25.5706 10.175 24.9806 10.175C 24.6606 10.175 24.3706 10.245 24.1106 10.385C 23.8506 10.515 23.6456 10.685 23.4956 10.895C 23.3556 11.105 23.2856 11.325 23.2856 11.555L 23.2856 15.05ZM 37.1196 16.565C 37.2296 16.705 37.2846 16.81 37.2846 16.88C 37.2846 16.96 37.1996 17 37.0296 17L 35.4096 17C 35.2096 17 35.0646 16.935 34.9746 16.805L 33.2346 14.36C 33.1646 14.26 33.1096 14.21 33.0696 14.21C 33.0296 14.21 32.9746 14.26 32.9046 14.36L 31.1196 16.805C 31.0296 16.935 30.8846 17 30.6846 17L 29.6346 17C 29.4246 17 29.3196 16.935 29.3196 16.805C 29.3196 16.745 29.3746 16.635 29.4846 16.475L 32.0346 13.205C 32.0946 13.125 32.1246 13.065 32.1246 13.025C 32.1246 12.965 32.0896 12.885 32.0196 12.785L 29.5296 9.41C 29.4896 9.37 29.4696 9.315 29.4696 9.245C 29.4696 9.185 29.4896 9.14 29.5296 9.11C 29.5796 9.07 29.6446 9.05 29.7246 9.05L 31.2696 9.05C 31.3796 9.05 31.4596 9.065 31.5096 9.095C 31.5696 9.125 31.6296 9.175 31.6896 9.245L 33.2946 11.495C 33.3446 11.555 33.3846 11.585 33.4146 11.585C 33.4546 11.585 33.4946 11.555 33.5346 11.495L 35.0796 9.245C 35.1296 9.175 35.1846 9.125 35.2446 9.095C 35.3046 9.065 35.3896 9.05 35.4996 9.05L 36.6546 9.05C 36.8046 9.05 36.8796 9.095 36.8796 9.185C 36.8796 9.225 36.8546 9.28 36.8046 9.35L 34.4646 12.5C 34.4046 12.57 34.3746 12.635 34.3746 12.695C 34.3746 12.735 34.4096 12.81 34.4796 12.92L 37.1196 16.565ZM 53.0952 13.43C 53.0952 13.57 53.0152 13.64 52.8552 13.64L 41.9502 13.64C 41.8802 13.64 41.8302 13.63 41.8002 13.61C 41.7702 13.58 41.7552 13.53 41.7552 13.46L 41.7552 12.8C 41.7552 12.69 41.8002 12.635 41.8902 12.635L 52.9452 12.62C 53.0452 12.62 53.0952 12.67 53.0952 12.77L 53.0952 13.43ZM 58.7011 6.08C 58.7011 5.94 58.7611 5.87 58.8811 5.87L 59.9611 5.87C 60.0811 5.87 60.1411 5.935 60.1411 6.065L 60.1411 15.74C 60.1411 15.8 60.1511 15.84 60.1711 15.86C 60.1911 15.88 60.2311 15.89 60.2911 15.89L 65.4811 15.89C 65.5411 15.89 65.5861 15.9 65.6161 15.92C 65.6461 15.94 65.6611 15.98 65.6611 16.04L 65.6611 16.835C 65.6611 16.945 65.6011 17 65.4811 17L 58.9111 17C 58.8311 17 58.7761 16.985 58.7461 16.955C 58.7161 16.925 58.7011 16.87 58.7011 16.79L 58.7011 6.08ZM 72.0445 16.04C 71.2745 16.78 70.3845 17.15 69.3745 17.15C 68.5945 17.15 67.9795 16.955 67.5295 16.565C 67.0895 16.165 66.8695 15.635 66.8695 14.975C 66.8695 14.175 67.2045 13.545 67.8745 13.085C 68.5545 12.625 69.5345 12.355 70.8145 12.275L 71.9845 12.185C 72.1545 12.165 72.2395 12.09 72.2395 11.96L 72.2395 11.555C 72.2395 11.015 72.0695 10.59 71.7295 10.28C 71.3995 9.96 70.9495 9.8 70.3795 9.8C 69.4995 9.8 68.7795 10.2 68.2195 11C 68.1895 11.05 68.1595 11.085 68.1295 11.105C 68.0995 11.115 68.0595 11.11 68.0095 11.09L 67.1995 10.82C 67.1495 10.8 67.1245 10.765 67.1245 10.715C 67.1245 10.685 67.1395 10.64 67.1695 10.58C 67.4695 10.05 67.8945 9.64 68.4445 9.35C 69.0045 9.05 69.6645 8.9 70.4245 8.9C 71.4045 8.9 72.1545 9.13 72.6745 9.59C 73.1945 10.04 73.4545 10.665 73.4545 11.465L 73.4545 16.775C 73.4545 16.865 73.4395 16.925 73.4095 16.955C 73.3795 16.985 73.3245 17 73.2445 17L 72.4945 17C 72.3745 17 72.3045 16.92 72.2845 16.76L 72.2545 16.07C 72.2445 16 72.2195 15.965 72.1795 15.965C 72.1395 15.965 72.0945 15.99 72.0445 16.04ZM 72.2395 13.19C 72.2395 13.03 72.1645 12.95 72.0145 12.95L 71.0395 13.04C 70.1095 13.1 69.3895 13.28 68.8795 13.58C 68.3795 13.88 68.1295 14.295 68.1295 14.825C 68.1295 15.255 68.2795 15.595 68.5795 15.845C 68.8895 16.095 69.2995 16.22 69.8095 16.22C 70.1195 16.22 70.4245 16.165 70.7245 16.055C 71.0245 15.945 71.2895 15.795 71.5195 15.605C 71.7495 15.425 71.9245 15.235 72.0445 15.035C 72.1745 14.825 72.2395 14.625 72.2395 14.435L 72.2395 13.19ZM 75.8523 17C 75.7123 17 75.6423 16.935 75.6423 16.805L 75.6423 9.245C 75.6423 9.115 75.6973 9.05 75.8073 9.05L 76.6773 9.05C 76.7873 9.05 76.8423 9.105 76.8423 9.215L 76.8423 10.19C 76.8423 10.25 76.8573 10.285 76.8873 10.295C 76.9273 10.305 76.9673 10.285 77.0073 10.235C 77.7673 9.345 78.5423 8.9 79.3323 8.9C 79.6823 8.9 79.8573 8.965 79.8573 9.095L 79.8573 9.995C 79.8573 10.095 79.8123 10.135 79.7223 10.115C 79.5423 10.085 79.3173 10.07 79.0473 10.07C 78.7573 10.07 78.4423 10.155 78.1023 10.325C 77.7623 10.495 77.4773 10.715 77.2473 10.985C 77.0173 11.255 76.9023 11.53 76.9023 11.81L 76.9023 16.775C 76.9023 16.925 76.8273 17 76.6773 17L 75.8523 17ZM 88.5695 8.915C 88.7595 8.915 88.8545 8.995 88.8545 9.155L 88.8545 9.68C 88.8545 9.78 88.8295 9.855 88.7795 9.905C 88.7395 9.945 88.6645 9.96 88.5545 9.95C 88.2245 9.95 87.9645 9.995 87.7745 10.085C 87.5345 10.185 87.4345 10.3 87.4745 10.43C 87.4845 10.47 87.5145 10.545 87.5645 10.655C 87.6145 10.765 87.6545 10.89 87.6845 11.03C 87.7145 11.16 87.7295 11.3 87.7295 11.45C 87.7295 12.16 87.4495 12.74 86.8895 13.19C 86.3395 13.64 85.5345 13.865 84.4745 13.865C 83.7645 13.865 83.2545 13.925 82.9445 14.045C 82.6345 14.165 82.4795 14.32 82.4795 14.51C 82.4795 14.66 82.5845 14.775 82.7945 14.855C 83.0045 14.925 83.3545 14.975 83.8445 15.005L 85.7795 15.11C 86.6395 15.16 87.2795 15.365 87.6995 15.725C 88.1195 16.085 88.3295 16.575 88.3295 17.195C 88.3295 17.955 87.9945 18.55 87.3245 18.98C 86.6645 19.41 85.7195 19.625 84.4895 19.625C 83.2195 19.625 82.2495 19.44 81.5795 19.07C 80.9195 18.71 80.5895 18.19 80.5895 17.51C 80.5895 16.84 81.0595 16.275 81.9995 15.815C 82.1095 15.765 82.1095 15.71 81.9995 15.65C 81.5395 15.45 81.3095 15.155 81.3095 14.765C 81.3095 14.545 81.4095 14.335 81.6095 14.135C 81.8195 13.935 82.1145 13.77 82.4945 13.64C 82.5445 13.63 82.5695 13.605 82.5695 13.565C 82.5695 13.515 82.5445 13.48 82.4945 13.46C 82.0545 13.23 81.7295 12.955 81.5195 12.635C 81.3095 12.305 81.2045 11.91 81.2045 11.45C 81.2045 10.67 81.4995 10.055 82.0895 9.605C 82.6795 9.155 83.5145 8.93 84.5945 8.93C 85.5445 8.93 86.2945 9.155 86.8445 9.605C 86.9145 9.655 86.9645 9.68 86.9945 9.68C 87.0345 9.68 87.0895 9.655 87.1595 9.605C 87.3495 9.415 87.5695 9.255 87.8195 9.125C 88.0795 8.985 88.3295 8.915 88.5695 8.915ZM 84.4745 13.07C 85.1645 13.07 85.6795 12.93 86.0195 12.65C 86.3695 12.37 86.5445 11.965 86.5445 11.435C 86.5445 10.895 86.3695 10.475 86.0195 10.175C 85.6695 9.875 85.1545 9.725 84.4745 9.725C 83.8145 9.725 83.2995 9.88 82.9295 10.19C 82.5595 10.49 82.3745 10.905 82.3745 11.435C 82.3745 11.955 82.5545 12.36 82.9145 12.65C 83.2845 12.93 83.8045 13.07 84.4745 13.07ZM 83.1545 16.025C 82.9745 16.015 82.7695 16.07 82.5395 16.19C 82.3095 16.3 82.1145 16.46 81.9545 16.67C 81.7945 16.88 81.7145 17.11 81.7145 17.36C 81.7145 17.84 81.9595 18.205 82.4495 18.455C 82.9395 18.715 83.6645 18.845 84.6245 18.845C 86.3145 18.845 87.1595 18.345 87.1595 17.345C 87.1595 16.995 87.0395 16.72 86.7995 16.52C 86.5695 16.32 86.1895 16.205 85.6595 16.175L 83.1545 16.025ZM 91.1307 13.52C 91.1307 14 91.2457 14.445 91.4757 14.855C 91.7157 15.265 92.0357 15.59 92.4357 15.83C 92.8357 16.07 93.2757 16.19 93.7557 16.19C 94.7557 16.19 95.5357 15.775 96.0957 14.945C 96.1357 14.905 96.1707 14.885 96.2007 14.885C 96.2307 14.875 96.2657 14.88 96.3057 14.9L 96.9357 15.215C 97.0157 15.265 97.0257 15.335 96.9657 15.425C 96.5757 16.025 96.1107 16.465 95.5707 16.745C 95.0307 17.015 94.3857 17.15 93.6357 17.15C 92.9057 17.15 92.2507 16.98 91.6707 16.64C 91.0907 16.3 90.6357 15.825 90.3057 15.215C 89.9857 14.595 89.8257 13.89 89.8257 13.1C 89.8257 12.25 89.9907 11.51 90.3207 10.88C 90.6507 10.24 91.1007 9.75 91.6707 9.41C 92.2507 9.07 92.9007 8.9 93.6207 8.9C 94.3407 8.9 94.9707 9.06 95.5107 9.38C 96.0607 9.7 96.4857 10.17 96.7857 10.79C 97.0857 11.4 97.2357 12.125 97.2357 12.965L 97.2357 13.025C 97.2357 13.115 97.2207 13.185 97.1907 13.235C 97.1607 13.275 97.1007 13.295 97.0107 13.295L 91.2657 13.295C 91.1757 13.295 91.1307 13.37 91.1307 13.52ZM 95.7207 12.47C 95.8307 12.47 95.9007 12.46 95.9307 12.44C 95.9607 12.41 95.9757 12.35 95.9757 12.26C 95.9757 11.82 95.8807 11.415 95.6907 11.045C 95.5107 10.665 95.2407 10.365 94.8807 10.145C 94.5307 9.915 94.1207 9.8 93.6507 9.8C 93.1407 9.8 92.6957 9.93 92.3157 10.19C 91.9357 10.44 91.6457 10.77 91.4457 11.18C 91.2457 11.58 91.1507 12.01 91.1607 12.47L 95.7207 12.47ZM 103.789 5.87C 103.909 5.87 103.969 5.935 103.969 6.065L 103.969 16.745C 103.969 16.845 103.949 16.915 103.909 16.955C 103.869 16.985 103.799 17 103.699 17L 102.754 17C 102.664 17 102.604 16.985 102.574 16.955C 102.544 16.925 102.529 16.87 102.529 16.79L 102.529 6.08C 102.529 5.94 102.589 5.87 102.709 5.87L 103.789 5.87ZM 106.79 17C 106.65 17 106.58 16.935 106.58 16.805L 106.58 9.245C 106.58 9.115 106.635 9.05 106.745 9.05L 107.645 9.05C 107.755 9.05 107.81 9.105 107.81 9.215L 107.81 10.085C 107.81 10.195 107.855 10.21 107.945 10.13C 108.505 9.69 108.98 9.375 109.37 9.185C 109.77 8.995 110.215 8.9 110.705 8.9C 111.465 8.9 112.055 9.105 112.475 9.515C 112.905 9.925 113.12 10.475 113.12 11.165L 113.12 16.76C 113.12 16.92 113.045 17 112.895 17L 112.055 17C 111.925 17 111.86 16.935 111.86 16.805L 111.86 11.45C 111.86 10.95 111.73 10.565 111.47 10.295C 111.22 10.025 110.83 9.89 110.3 9.89C 109.88 9.89 109.49 9.985 109.13 10.175C 108.78 10.355 108.35 10.665 107.84 11.105L 107.84 16.775C 107.84 16.855 107.82 16.915 107.78 16.955C 107.75 16.985 107.695 17 107.615 17L 106.79 17ZM 116.615 16.745C 116.615 16.845 116.595 16.915 116.555 16.955C 116.515 16.985 116.445 17 116.345 17L 115.565 17C 115.475 17 115.415 16.985 115.385 16.955C 115.355 16.925 115.34 16.87 115.34 16.79L 115.355 6.08C 115.355 5.94 115.415 5.87 115.535 5.87L 116.435 5.87C 116.555 5.87 116.615 5.935 116.615 6.065L 116.615 16.745ZM 120.248 7.34C 120.248 7.44 120.228 7.515 120.188 7.565C 120.148 7.605 120.078 7.625 119.978 7.625L 119.108 7.625C 118.958 7.625 118.883 7.54 118.883 7.37L 118.883 6.11C 118.883 5.95 118.953 5.87 119.093 5.87L 120.038 5.87C 120.098 5.87 120.148 5.89 120.188 5.93C 120.228 5.97 120.248 6.025 120.248 6.095L 120.248 7.34ZM 120.188 16.745C 120.188 16.845 120.168 16.915 120.128 16.955C 120.088 16.985 120.018 17 119.918 17L 119.153 17C 119.063 17 119.003 16.985 118.973 16.955C 118.943 16.925 118.928 16.87 118.928 16.79L 118.928 9.26C 118.928 9.12 118.988 9.05 119.108 9.05L 120.023 9.05C 120.133 9.05 120.188 9.115 120.188 9.245L 120.188 16.745ZM 122.727 17C 122.587 17 122.517 16.935 122.517 16.805L 122.517 9.245C 122.517 9.115 122.572 9.05 122.682 9.05L 123.582 9.05C 123.692 9.05 123.747 9.105 123.747 9.215L 123.747 10.085C 123.747 10.195 123.792 10.21 123.882 10.13C 124.442 9.69 124.917 9.375 125.307 9.185C 125.707 8.995 126.152 8.9 126.642 8.9C 127.402 8.9 127.992 9.105 128.412 9.515C 128.842 9.925 129.057 10.475 129.057 11.165L 129.057 16.76C 129.057 16.92 128.982 17 128.832 17L 127.992 17C 127.862 17 127.797 16.935 127.797 16.805L 127.797 11.45C 127.797 10.95 127.667 10.565 127.407 10.295C 127.157 10.025 126.767 9.89 126.237 9.89C 125.817 9.89 125.427 9.985 125.067 10.175C 124.717 10.355 124.287 10.665 123.777 11.105L 123.777 16.775C 123.777 16.855 123.757 16.915 123.717 16.955C 123.687 16.985 123.632 17 123.552 17L 122.727 17ZM 132.117 13.52C 132.117 14 132.232 14.445 132.462 14.855C 132.702 15.265 133.022 15.59 133.422 15.83C 133.822 16.07 134.262 16.19 134.742 16.19C 135.742 16.19 136.522 15.775 137.082 14.945C 137.122 14.905 137.157 14.885 137.187 14.885C 137.217 14.875 137.252 14.88 137.292 14.9L 137.922 15.215C 138.002 15.265 138.012 15.335 137.952 15.425C 137.562 16.025 137.097 16.465 136.557 16.745C 136.017 17.015 135.372 17.15 134.622 17.15C 133.892 17.15 133.237 16.98 132.657 16.64C 132.077 16.3 131.622 15.825 131.292 15.215C 130.972 14.595 130.812 13.89 130.812 13.1C 130.812 12.25 130.977 11.51 131.307 10.88C 131.637 10.24 132.087 9.75 132.657 9.41C 133.237 9.07 133.887 8.9 134.607 8.9C 135.327 8.9 135.957 9.06 136.497 9.38C 137.047 9.7 137.472 10.17 137.772 10.79C 138.072 11.4 138.222 12.125 138.222 12.965L 138.222 13.025C 138.222 13.115 138.207 13.185 138.177 13.235C 138.147 13.275 138.087 13.295 137.997 13.295L 132.252 13.295C 132.162 13.295 132.117 13.37 132.117 13.52ZM 136.707 12.47C 136.817 12.47 136.887 12.46 136.917 12.44C 136.947 12.41 136.962 12.35 136.962 12.26C 136.962 11.82 136.867 11.415 136.677 11.045C 136.497 10.665 136.227 10.365 135.867 10.145C 135.517 9.915 135.107 9.8 134.637 9.8C 134.127 9.8 133.682 9.93 133.302 10.19C 132.922 10.44 132.632 10.77 132.432 11.18C 132.232 11.58 132.137 12.01 132.147 12.47L 136.707 12.47Z" transform="translate(90 103)" fill="#494949"/>
</g>
</svg>
