<svg width="800" height="348" xmlns="http://www.w3.org/2000/svg" xmlns:xlink="http://www.w3.org/1999/xlink"><g opacity=".5"><use xlink:href="#path0_fill" transform="translate(62.8 60)" fill="#2D3884"/><use xlink:href="#path0_fill" transform="translate(106.5 60)" fill="#2D3884"/><use xlink:href="#path1_fill" transform="matrix(0 1 -1 0 107.3 79.576)" fill="#2D3884"/></g><g opacity=".5"><use xlink:href="#path2_fill" fill="#2D3884"/><use xlink:href="#path2_fill" transform="translate(799)" fill="#2D3884"/><use xlink:href="#path3_fill" transform="matrix(0 1 -1 0 800 33.015)" fill="#2D3884"/><use xlink:href="#path3_fill" transform="matrix(0 1 -1 0 800 69.417)" fill="#2D3884"/></g><use xlink:href="#path4_fill" transform="translate(62.8 42)" fill="#2D3884"/><use xlink:href="#path5_fill" transform="translate(337.2 7)" fill="#2D3884"/><g opacity=".5"><use xlink:href="#path0_fill" transform="translate(680.4 60)" fill="#2D3884"/><use xlink:href="#path0_fill" transform="translate(691.9 60)" fill="#2D3884"/><use xlink:href="#path6_fill" transform="matrix(0 1 -1 0 692.7 79.576)" fill="#2D3884"/></g><use xlink:href="#path7_fill" transform="translate(578.5 40)" fill="#2D3884"/><use xlink:href="#path8_fill" transform="translate(0 90)" fill="#2D3884" opacity=".05"/><use xlink:href="#path8_fill" transform="translate(737.5 90)" fill="#2D3884" opacity=".05"/><use xlink:href="#path9_fill" transform="translate(119.8 90)" fill="#3B46CC" fill-opacity=".25"/><use xlink:href="#path9_fill" transform="translate(234.4 90)" fill="#3B46CC" fill-opacity=".25"/><use xlink:href="#path9_fill" transform="translate(62.5 90)" fill="#3B46CC" fill-opacity=".25"/><use xlink:href="#path9_fill" transform="translate(177.1 90)" fill="#3B46CC" fill-opacity=".25"/><use xlink:href="#path9_fill" transform="translate(291.7 90)" fill="#3B46CC" fill-opacity=".25"/><use xlink:href="#path9_fill" transform="translate(349 90)" fill="#3B46CC" fill-opacity=".25"/><use xlink:href="#path9_fill" transform="translate(406.2 90)" fill="#3B46CC" fill-opacity=".25"/><use xlink:href="#path9_fill" transform="translate(463.5 90)" fill="#3B46CC" fill-opacity=".25"/><use xlink:href="#path9_fill" transform="translate(520.8 90)" fill="#3B46CC" fill-opacity=".25"/><use xlink:href="#path9_fill" transform="translate(578.1 90)" fill="#3B46CC" fill-opacity=".25"/><use xlink:href="#path9_fill" transform="translate(635.4 90)" fill="#3B46CC" fill-opacity=".25"/><use xlink:href="#path9_fill" transform="translate(692.7 90)" fill="#3B46CC" fill-opacity=".25"/><defs><path id="path0_fill" d="M0 0h1.042v288H0V0z"/><path id="path1_fill" d="M0 0h.847v44.792H0V0z"/><path id="path2_fill" d="M0 0h1.042v348H0V0z"/><path id="path3_fill" d="M0 0h.847v800H0V0z"/><path id="path4_fill" d="M5.79 3.02c.06-.06.115-.1.165-.12.05-.02.12-.03.21-.03H7.17c.12 0 .18.06.18.18V9.8c0 .09.04.135.12.135h1.41c.14 0 .21.05.21.15v.735c0 .13-.07.195-.21.195H7.485c-.09 0-.135.05-.135.15v2.61c0 .15-.08.225-.24.225H6.09c-.13 0-.195-.065-.195-.195V11.12c0-.07-.045-.105-.135-.105H.9c-.15 0-.225-.065-.225-.195v-.765c0-.06.02-.13.06-.21.05-.09.11-.185.18-.285L5.79 3.02zm-.06 6.915c.04 0 .07-.01.09-.03.03-.02.045-.045.045-.075V4.82c0-.12-.02-.18-.06-.18-.02 0-.07.04-.15.12l-3.66 4.98c-.03.04-.045.075-.045.105 0 .06.05.09.15.09h3.63zm5.166-5.505a.144.144 0 0 1-.045-.105.2.2 0 0 1 .045-.12c.92-.99 2.075-1.485 3.465-1.485.75 0 1.41.125 1.98.375.57.24 1.005.575 1.305 1.005.31.42.465.9.465 1.44 0 .54-.17 1.03-.51 1.47-.33.43-.795.75-1.395.96-.11.03-.165.065-.165.105 0 .02.055.055.165.105.65.18 1.185.515 1.605 1.005.43.48.645 1.06.645 1.74 0 .63-.165 1.19-.495 1.68-.32.48-.8.86-1.44 1.14-.64.27-1.425.405-2.355.405-1.53 0-2.78-.53-3.75-1.59a.256.256 0 0 1-.045-.12c0-.05.03-.095.09-.135l.645-.51c.07-.05.115-.075.135-.075.04 0 .075.025.105.075.44.46.885.785 1.335.975.46.19.99.285 1.59.285.86 0 1.535-.19 2.025-.57.49-.38.735-.885.735-1.515 0-.46-.135-.86-.405-1.2a2.366 2.366 0 0 0-1.035-.765 3.72 3.72 0 0 0-1.38-.255l-1.335-.015c-.12 0-.18-.05-.18-.15v-.78c0-.08.06-.13.18-.15l1.08-.015c.51 0 .975-.09 1.395-.27.42-.18.75-.425.99-.735s.36-.655.36-1.035c0-.33-.1-.63-.3-.9-.2-.28-.48-.5-.84-.66-.35-.16-.745-.24-1.185-.24-.99 0-1.885.385-2.685 1.155-.05.05-.095.075-.135.075-.02 0-.065-.025-.135-.075l-.525-.525zm10.645 1.62c.14 0 .21.075.21.225v.63c0 .09.025.135.075.135.03 0 .07-.025.12-.075.21-.21.395-.38.555-.51.16-.13.395-.255.705-.375.31-.12.675-.18 1.095-.18.63 0 1.19.15 1.68.45.5.3.89.75 1.17 1.35.29.6.435 1.335.435 2.205 0 .88-.145 1.64-.435 2.28-.28.64-.68 1.13-1.2 1.47-.52.33-1.125.495-1.815.495-.83 0-1.54-.25-2.13-.75-.07-.07-.125-.105-.165-.105-.05 0-.075.065-.075.195v2.79c0 .13-.055.195-.165.195h-.93c-.11 0-.165-.065-.165-.195V6.29c0-.08.015-.14.045-.18.04-.04.105-.06.195-.06h.795zm.225 6.195c.32.33.64.58.96.75.33.16.69.24 1.08.24.75 0 1.35-.285 1.8-.855.46-.57.69-1.39.69-2.46 0-1.04-.225-1.815-.675-2.325-.45-.52-1.03-.78-1.74-.78-.4 0-.76.09-1.08.27-.32.17-.575.39-.765.66-.18.27-.27.535-.27.795v3.705zm13.863 1.44c.07.1.105.175.105.225 0 .06-.056.09-.166.09h-1.05c-.15 0-.255-.045-.315-.135l-2.114-2.91c-.05-.08-.09-.12-.12-.12s-.076.04-.136.12l-2.204 2.91c-.06.09-.166.135-.316.135h-.704c-.14 0-.21-.045-.21-.135 0-.05.034-.125.104-.225l2.73-3.48c.05-.07.075-.125.075-.165 0-.04-.024-.095-.075-.165l-2.61-3.54a.144.144 0 0 1-.045-.105c0-.04.015-.07.046-.09.03-.03.07-.045.12-.045h1.005c.07 0 .125.01.165.03.04.02.08.055.12.105l2.025 2.745c.05.06.09.09.12.09.04 0 .075-.03.104-.09l1.965-2.745c.04-.05.08-.085.12-.105.04-.02.1-.03.18-.03h.78c.1 0 .15.03.15.09 0 .02-.02.06-.06.12l-2.535 3.39c-.05.07-.075.12-.075.15 0 .05.026.11.075.18l2.745 3.705zm4.046.975c-.12 0-.16-.045-.12-.135l3.75-11.52c.03-.09.095-.135.195-.135h.66c.1 0 .15.035.15.105 0 .03-.01.075-.03.135l-3.69 11.355c-.04.13-.13.195-.27.195h-.645zM55.87 2.87c.1 0 .165.015.195.045s.04.085.03.165l-.06.825c-.01.07-.025.115-.045.135-.02.02-.075.03-.165.03h-5.1c-.12 0-.18.055-.18.165l-.27 3.255v.03c0 .07.015.12.045.15.04.02.085.02.135 0 .48-.25.895-.43 1.245-.54.35-.12.765-.18 1.245-.18.69 0 1.315.125 1.875.375.57.25 1.02.63 1.35 1.14.34.51.51 1.14.51 1.89 0 .78-.185 1.46-.555 2.04A3.457 3.457 0 0 1 54.61 13.7c-.64.3-1.375.45-2.205.45a5.84 5.84 0 0 1-2.175-.405 4.605 4.605 0 0 1-1.695-1.155c-.05-.07-.075-.12-.075-.15 0-.06.035-.11.105-.15l.645-.525c.03-.03.06-.045.09-.045.05 0 .105.03.165.09.47.44.9.76 1.29.96.39.2.88.3 1.47.3.94 0 1.68-.245 2.22-.735.55-.49.825-1.135.825-1.935 0-.76-.24-1.34-.72-1.74-.48-.41-1.09-.615-1.83-.615-.47 0-.9.08-1.29.24-.39.15-.82.365-1.29.645a.407.407 0 0 1-.135.06.68.68 0 0 1-.135-.075l-.735-.42a.98.98 0 0 1-.105-.06.102.102 0 0 1-.03-.075l.03-.195.405-5.085c.01-.09.03-.145.06-.165.03-.03.12-.045.27-.045h6.105zm3.98 10.89c0 .09-.02.155-.06.195-.04.03-.11.045-.21.045h-1.05c-.08 0-.14-.015-.18-.045-.03-.03-.046-.085-.046-.165V12.5c0-.13.055-.195.165-.195h1.23c.1 0 .15.06.15.18v1.275zm6.344-11.025c.69 0 1.28.14 1.77.42.49.27.875.615 1.155 1.035.03.06.045.1.045.12 0 .05-.03.09-.09.12l-.855.345a.167.167 0 0 1-.075.015c-.06 0-.11-.035-.15-.105-.24-.29-.5-.505-.78-.645-.27-.15-.605-.225-1.005-.225-1.04 0-1.825.37-2.355 1.11-.52.73-.78 1.695-.78 2.895 0 .13.005.22.015.27.02.05.055.075.105.075.04 0 .09-.015.15-.045.51-.25.965-.44 1.365-.57.41-.13.88-.195 1.41-.195.75 0 1.4.14 1.95.42.55.28.97.67 1.26 1.17.29.49.435 1.045.435 1.665 0 .69-.17 1.305-.51 1.845A3.51 3.51 0 0 1 67.86 13.7c-.59.29-1.245.435-1.965.435-.87 0-1.625-.215-2.265-.645-.64-.44-1.13-1.075-1.47-1.905-.34-.84-.51-1.835-.51-2.985 0-1.21.18-2.255.54-3.135.37-.88.895-1.555 1.575-2.025.69-.47 1.5-.705 2.43-.705zm-.24 5.67c-.41 0-.86.07-1.35.21-.49.13-.89.29-1.2.48-.12.08-.2.165-.24.255-.04.08-.06.21-.06.39 0 .51.105 1.025.315 1.545.21.51.525.94.945 1.29.42.34.93.51 1.53.51.46 0 .875-.105 1.245-.315.37-.22.66-.515.87-.885.22-.37.33-.775.33-1.215 0-.65-.22-1.19-.66-1.62-.43-.43-1.005-.645-1.725-.645zm8.057-5.7c.5 0 .945.13 1.335.39s.695.63.915 1.11c.22.48.33 1.04.33 1.68 0 .65-.11 1.215-.33 1.695-.22.48-.525.85-.915 1.11a2.42 2.42 0 0 1-1.335.375c-.51 0-.965-.125-1.365-.375-.39-.26-.695-.63-.915-1.11-.22-.48-.33-1.045-.33-1.695 0-.64.11-1.2.33-1.68.23-.48.54-.85.93-1.11.4-.26.85-.39 1.35-.39zm.255 11.22a.376.376 0 0 1-.12.105.374.374 0 0 1-.165.03h-.39c-.11 0-.165-.045-.165-.135 0-.06.015-.11.045-.15l7.26-10.92c.03-.05.065-.08.105-.09a.695.695 0 0 1 .135-.015h.495c.13 0 .16.055.09.165l-7.29 11.01zm-.27-5.595c.5 0 .89-.22 1.17-.66.29-.45.435-1.04.435-1.77 0-.75-.145-1.35-.435-1.8-.28-.45-.67-.675-1.17-.675-.5 0-.895.23-1.185.69-.28.45-.42 1.045-.42 1.785 0 .73.14 1.32.42 1.77.29.44.685.66 1.185.66zm6.915-.54c.5 0 .945.13 1.335.39s.695.63.915 1.11c.22.48.33 1.04.33 1.68 0 .65-.11 1.215-.33 1.695-.22.48-.525.85-.915 1.11a2.42 2.42 0 0 1-1.335.375c-.51 0-.965-.125-1.365-.375-.39-.26-.695-.63-.915-1.11-.22-.48-.33-1.045-.33-1.695 0-.64.11-1.2.33-1.68.23-.48.54-.85.93-1.11.4-.26.85-.39 1.35-.39zm-.015 5.625c.49 0 .88-.225 1.17-.675.29-.45.435-1.035.435-1.755 0-.73-.15-1.325-.45-1.785-.29-.46-.675-.69-1.155-.69s-.87.235-1.17.705c-.29.46-.435 1.05-.435 1.77 0 .71.145 1.295.435 1.755.29.45.68.675 1.17.675z"/><path id="path5_fill" d="M18.18 2.72c.72 0 1.354.13 1.904.39.56.25.995.61 1.305 1.08.31.46.465.99.465 1.59 0 .47-.12.89-.36 1.26s-.625.74-1.155 1.11c-.08.06-.12.105-.12.135 0 .04.035.075.105.105 1.35.53 2.025 1.415 2.025 2.655 0 .63-.175 1.18-.525 1.65-.35.46-.845.82-1.485 1.08-.63.25-1.365.375-2.205.375-1.25 0-2.235-.255-2.955-.765-.72-.51-1.08-1.225-1.08-2.145 0-.53.13-1.005.39-1.425.27-.43.71-.835 1.32-1.215.13-.08.195-.14.195-.18 0-.04-.06-.09-.18-.15-.95-.53-1.425-1.305-1.425-2.325 0-.6.16-1.145.48-1.635.32-.49.765-.875 1.335-1.155.58-.29 1.235-.435 1.965-.435zm.014 1.05c-.45 0-.865.09-1.245.27-.37.18-.66.425-.87.735-.21.31-.315.66-.315 1.05 0 .91.515 1.48 1.545 1.71l1.545.36c.19.05.42-.025.69-.225.28-.21.52-.49.72-.84.21-.36.315-.715.315-1.065 0-.59-.215-1.07-.645-1.44-.43-.37-1.01-.555-1.74-.555zm.015 9.33c.83 0 1.49-.18 1.98-.54.49-.36.735-.845.735-1.455 0-.47-.125-.845-.375-1.125-.25-.29-.655-.505-1.215-.645l-1.95-.465a.455.455 0 0 0-.135-.015c-.22 0-.48.1-.78.3-.3.2-.56.47-.78.81-.21.34-.315.71-.315 1.11 0 .64.24 1.14.72 1.5.49.35 1.195.525 2.115.525zM28.38 2.72c.8 0 1.51.225 2.13.675.63.44 1.125 1.095 1.485 1.965.36.86.54 1.895.54 3.105 0 1.2-.18 2.23-.54 3.09-.36.85-.855 1.495-1.485 1.935-.62.43-1.335.645-2.145.645s-1.53-.215-2.16-.645c-.63-.44-1.125-1.085-1.485-1.935-.35-.85-.525-1.875-.525-3.075 0-1.21.18-2.25.54-3.12.36-.87.855-1.525 1.485-1.965.64-.45 1.36-.675 2.16-.675zm0 10.32c1.79 0 2.685-1.525 2.685-4.575 0-1.59-.24-2.76-.72-3.51-.47-.76-1.13-1.14-1.98-1.14-.85 0-1.515.38-1.995 1.14-.47.76-.705 1.93-.705 3.51 0 1.56.24 2.715.72 3.465.48.74 1.145 1.11 1.995 1.11zM38.706 2.72c.8 0 1.51.225 2.13.675.63.44 1.125 1.095 1.485 1.965.36.86.54 1.895.54 3.105 0 1.2-.18 2.23-.54 3.09-.36.85-.855 1.495-1.485 1.935-.62.43-1.335.645-2.145.645s-1.53-.215-2.16-.645c-.63-.44-1.125-1.085-1.485-1.935-.35-.85-.525-1.875-.525-3.075 0-1.21.18-2.25.54-3.12.36-.87.855-1.525 1.485-1.965.64-.45 1.36-.675 2.16-.675zm0 10.32c1.79 0 2.685-1.525 2.685-4.575 0-1.59-.24-2.76-.72-3.51-.47-.76-1.13-1.14-1.98-1.14-.85 0-1.515.38-1.995 1.14-.47.76-.705 1.93-.705 3.51 0 1.56.24 2.715.72 3.465.48.74 1.145 1.11 1.995 1.11zm7.342-6.99c.14 0 .21.075.21.225v.63c0 .09.025.135.075.135.03 0 .07-.025.12-.075.21-.21.395-.38.555-.51.16-.13.395-.255.705-.375.31-.12.675-.18 1.095-.18.63 0 1.19.15 1.68.45.5.3.89.75 1.17 1.35.29.6.435 1.335.435 2.205 0 .88-.145 1.64-.435 2.28-.28.64-.68 1.13-1.2 1.47-.52.33-1.125.495-1.815.495-.83 0-1.54-.25-2.13-.75-.07-.07-.125-.105-.165-.105-.05 0-.075.065-.075.195v2.79c0 .13-.055.195-.165.195h-.93c-.11 0-.165-.065-.165-.195V6.29c0-.08.015-.14.045-.18.04-.04.105-.06.195-.06h.795zm.225 6.195c.32.33.64.58.96.75.33.16.69.24 1.08.24.75 0 1.35-.285 1.8-.855.46-.57.69-1.39.69-2.46 0-1.04-.225-1.815-.675-2.325-.45-.52-1.03-.78-1.74-.78-.4 0-.76.09-1.08.27-.32.17-.575.39-.765.66-.18.27-.27.535-.27.795v3.705zm13.863 1.44c.07.1.105.175.105.225 0 .06-.055.09-.165.09h-1.05c-.15 0-.255-.045-.315-.135l-2.115-2.91c-.05-.08-.09-.12-.12-.12s-.075.04-.135.12l-2.205 2.91c-.06.09-.165.135-.315.135h-.705c-.14 0-.21-.045-.21-.135 0-.05.035-.125.105-.225l2.73-3.48c.05-.07.075-.125.075-.165 0-.04-.025-.095-.075-.165l-2.61-3.54a.144.144 0 0 1-.045-.105c0-.04.015-.07.045-.09.03-.03.07-.045.12-.045h1.005c.07 0 .125.01.165.03.04.02.08.055.12.105l2.025 2.745c.05.06.09.09.12.09.04 0 .075-.03.105-.09l1.965-2.745c.04-.05.08-.085.12-.105.04-.02.1-.03.18-.03h.78c.1 0 .15.03.15.09 0 .02-.02.06-.06.12l-2.535 3.39c-.05.07-.075.12-.075.15 0 .05.025.11.075.18l2.745 3.705zm4.047.975c-.12 0-.16-.045-.12-.135l3.75-11.52c.03-.09.095-.135.195-.135h.66c.1 0 .15.035.15.105 0 .03-.01.075-.03.135l-3.69 11.355c-.04.13-.13.195-.27.195h-.645zm14.215-1.8c.11 0 .165.05.165.15v.84c0 .04-.015.075-.045.105a.162.162 0 0 1-.12.045h-5.265c-.11 0-.165-.05-.165-.15v-.84c0-.1.055-.15.165-.15h1.89c.08 0 .12-.025.12-.075v-8.25c0-.11-.045-.15-.135-.12l-1.86.69c-.01 0-.02.005-.03.015-.01 0-.02-.005-.03-.015-.09 0-.135-.06-.135-.18v-.6c0-.07.01-.115.03-.135a.31.31 0 0 1 .12-.09l2.22-1.11c.17-.08.32-.12.45-.12h.645c.11 0 .165.06.165.18v9.705c0 .07.03.105.09.105h1.725zm5.967-10.14c.8 0 1.51.225 2.13.675.63.44 1.125 1.095 1.485 1.965.36.86.54 1.895.54 3.105 0 1.2-.18 2.23-.54 3.09-.36.85-.855 1.495-1.485 1.935-.62.43-1.335.645-2.145.645s-1.53-.215-2.16-.645c-.63-.44-1.125-1.085-1.485-1.935-.35-.85-.525-1.875-.525-3.075 0-1.21.18-2.25.54-3.12.36-.87.855-1.525 1.485-1.965.64-.45 1.36-.675 2.16-.675zm0 10.32c1.79 0 2.685-1.525 2.685-4.575 0-1.59-.24-2.76-.72-3.51-.47-.76-1.13-1.14-1.98-1.14-.85 0-1.515.38-1.995 1.14-.47.76-.705 1.93-.705 3.51 0 1.56.24 2.715.72 3.465.48.74 1.145 1.11 1.995 1.11zM94.692 2.72c.8 0 1.51.225 2.13.675.63.44 1.125 1.095 1.485 1.965.36.86.54 1.895.54 3.105 0 1.2-.18 2.23-.54 3.09-.36.85-.855 1.495-1.485 1.935-.62.43-1.335.645-2.145.645s-1.53-.215-2.16-.645c-.63-.44-1.125-1.085-1.485-1.935-.35-.85-.525-1.875-.525-3.075 0-1.21.18-2.25.54-3.12.36-.87.855-1.525 1.485-1.965.64-.45 1.36-.675 2.16-.675zm0 10.32c1.79 0 2.685-1.525 2.685-4.575 0-1.59-.24-2.76-.72-3.51-.47-.76-1.13-1.14-1.98-1.14-.85 0-1.515.38-1.995 1.14-.47.76-.705 1.93-.705 3.51 0 1.56.24 2.715.72 3.465.48.74 1.145 1.11 1.995 1.11zm8.588-10.335c.5 0 .945.13 1.335.39s.695.63.915 1.11c.22.48.33 1.04.33 1.68 0 .65-.11 1.215-.33 1.695-.22.48-.525.85-.915 1.11a2.42 2.42 0 0 1-1.335.375c-.51 0-.965-.125-1.365-.375-.39-.26-.695-.63-.915-1.11-.22-.48-.33-1.045-.33-1.695 0-.64.11-1.2.33-1.68.23-.48.54-.85.93-1.11.4-.26.85-.39 1.35-.39zm.255 11.22a.376.376 0 0 1-.12.105.374.374 0 0 1-.165.03h-.39c-.11 0-.165-.045-.165-.135 0-.06.015-.11.045-.15L110 2.855c.03-.05.065-.08.105-.09a.695.695 0 0 1 .135-.015h.495c.13 0 .16.055.09.165l-7.29 11.01zm-.27-5.595c.5 0 .89-.22 1.17-.66.29-.45.435-1.04.435-1.77 0-.75-.145-1.35-.435-1.8-.28-.45-.67-.675-1.17-.675-.5 0-.895.23-1.185.69-.28.45-.42 1.045-.42 1.785 0 .73.14 1.32.42 1.77.29.44.685.66 1.185.66zm6.915-.54c.5 0 .945.13 1.335.39s.695.63.915 1.11c.22.48.33 1.04.33 1.68 0 .65-.11 1.215-.33 1.695-.22.48-.525.85-.915 1.11a2.42 2.42 0 0 1-1.335.375c-.51 0-.965-.125-1.365-.375-.39-.26-.695-.63-.915-1.11-.22-.48-.33-1.045-.33-1.695 0-.64.11-1.2.33-1.68.23-.48.54-.85.93-1.11.4-.26.85-.39 1.35-.39zm-.015 5.625c.49 0 .88-.225 1.17-.675.29-.45.435-1.035.435-1.755 0-.73-.15-1.325-.45-1.785-.29-.46-.675-.69-1.155-.69s-.87.235-1.17.705c-.29.46-.435 1.05-.435 1.77 0 .71.145 1.295.435 1.755.29.45.68.675 1.17.675z"/><path id="path6_fill" d="M0 0h.847v12.5H0V0z"/><path id="path7_fill" d="M32.75 13.86c.11 0 .166.05.166.15v.84c0 .04-.015.075-.045.105a.162.162 0 0 1-.12.045h-5.265c-.11 0-.165-.05-.165-.15v-.84c0-.1.055-.15.165-.15h1.89c.08 0 .12-.025.12-.075v-8.25c0-.11-.045-.15-.135-.12l-1.86.69c-.01 0-.02.005-.03.015-.01 0-.02-.005-.03-.015-.09 0-.135-.06-.135-.18v-.6c0-.07.01-.115.03-.135a.31.31 0 0 1 .12-.09l2.22-1.11c.17-.08.32-.12.45-.12h.645c.11 0 .165.06.165.18v9.705c0 .07.03.105.09.105h1.725zm5.129-3.525c.86-.81 1.455-1.465 1.785-1.965.33-.51.495-1.035.495-1.575 0-.61-.22-1.085-.66-1.425-.44-.35-.96-.525-1.56-.525-.47 0-.935.12-1.395.36-.46.24-.85.615-1.17 1.125-.03.05-.08.075-.15.075a.354.354 0 0 1-.15-.045l-.66-.39c-.08-.05-.12-.11-.12-.18 0-.05.02-.1.06-.15.44-.64.98-1.12 1.62-1.44.65-.32 1.345-.48 2.085-.48.64 0 1.225.12 1.755.36.53.23.95.58 1.26 1.05.32.47.48 1.04.48 1.71 0 .65-.18 1.255-.54 1.815-.35.56-.975 1.265-1.875 2.115l-3.015 2.835c-.05.03-.075.065-.075.105 0 .05.055.075.165.075h5.265c.07 0 .12.015.15.045.03.02.045.06.045.12v.87c0 .12-.065.18-.195.18h-6.96c-.09 0-.155-.015-.195-.045-.03-.04-.045-.105-.045-.195v-.615c0-.11.025-.205.075-.285.05-.08.16-.195.33-.345l3.195-3.18zm6.834-3.285c.14 0 .21.075.21.225v.63c0 .09.025.135.075.135.03 0 .07-.025.12-.075.21-.21.395-.38.555-.51.16-.13.395-.255.705-.375.31-.12.675-.18 1.095-.18.63 0 1.19.15 1.68.45.5.3.89.75 1.17 1.35.29.6.435 1.335.435 2.205 0 .88-.145 1.64-.435 2.28-.28.64-.68 1.13-1.2 1.47-.52.33-1.125.495-1.815.495-.83 0-1.54-.25-2.13-.75-.07-.07-.125-.105-.165-.105-.05 0-.075.065-.075.195v2.79c0 .13-.055.195-.165.195h-.93c-.11 0-.165-.065-.165-.195V7.29c0-.08.015-.14.045-.18.04-.04.105-.06.195-.06h.795zm.225 6.195c.32.33.64.58.96.75.33.16.69.24 1.08.24.75 0 1.35-.285 1.8-.855.46-.57.69-1.39.69-2.46 0-1.04-.225-1.815-.675-2.325-.45-.52-1.03-.78-1.74-.78-.4 0-.76.09-1.08.27-.32.17-.575.39-.765.66-.18.27-.27.535-.27.795v3.705zm13.863 1.44c.07.1.105.175.105.225 0 .06-.055.09-.165.09h-1.05c-.15 0-.255-.045-.315-.135l-2.115-2.91c-.05-.08-.09-.12-.12-.12s-.075.04-.135.12l-2.205 2.91c-.06.09-.165.135-.315.135h-.705c-.14 0-.21-.045-.21-.135 0-.05.035-.125.105-.225l2.73-3.48c.05-.07.075-.125.075-.165 0-.04-.025-.095-.075-.165l-2.61-3.54a.144.144 0 0 1-.045-.105c0-.04.015-.07.045-.09.03-.03.07-.045.12-.045h1.005c.07 0 .125.01.165.03.04.02.08.055.12.105l2.025 2.745c.05.06.09.09.12.09.04 0 .075-.03.105-.09l1.965-2.745c.04-.05.08-.085.12-.105.04-.02.1-.03.18-.03h.78c.1 0 .15.03.15.09 0 .02-.02.06-.06.12l-2.535 3.39c-.05.07-.075.12-.075.15 0 .05.025.11.075.18l2.745 3.705zm4.047.975c-.12 0-.16-.045-.12-.135l3.75-11.52c.03-.09.095-.135.195-.135h.66c.1 0 .15.035.15.105 0 .03-.01.075-.03.135l-3.69 11.355c-.04.13-.13.195-.27.195h-.645zm14.214-1.8c.11 0 .165.05.165.15v.84c0 .04-.015.075-.045.105a.162.162 0 0 1-.12.045h-5.265c-.11 0-.165-.05-.165-.15v-.84c0-.1.055-.15.165-.15h1.89c.08 0 .12-.025.12-.075v-8.25c0-.11-.045-.15-.135-.12l-1.86.69c-.01 0-.02.005-.03.015-.01 0-.02-.005-.03-.015-.09 0-.135-.06-.135-.18v-.6c0-.07.01-.115.03-.135a.31.31 0 0 1 .12-.09l2.22-1.11c.17-.08.32-.12.45-.12h.645c.11 0 .165.06.165.18v9.705c0 .07.03.105.09.105h1.725zm3.118.9c0 .09-.02.155-.06.195-.04.03-.11.045-.21.045h-1.05c-.08 0-.14-.015-.18-.045-.03-.03-.045-.085-.045-.165V13.5c0-.13.055-.195.165-.195h1.23c.1 0 .15.06.15.18v1.275zm8.97-10.89c.1 0 .165.015.195.045s.04.085.03.165l-.06.825c-.01.07-.025.115-.045.135-.02.02-.075.03-.165.03h-5.1c-.12 0-.18.055-.18.165l-.27 3.255v.03c0 .07.015.12.045.15.04.02.085.02.135 0 .48-.25.895-.43 1.245-.54.35-.12.765-.18 1.245-.18.69 0 1.315.125 1.875.375.57.25 1.02.63 1.35 1.14.34.51.51 1.14.51 1.89 0 .78-.185 1.46-.555 2.04A3.457 3.457 0 0 1 87.89 14.7c-.64.3-1.375.45-2.205.45a5.84 5.84 0 0 1-2.175-.405 4.605 4.605 0 0 1-1.695-1.155c-.05-.07-.075-.12-.075-.15 0-.06.035-.11.105-.15l.645-.525c.03-.03.06-.045.09-.045.05 0 .105.03.165.09.47.44.9.76 1.29.96.39.2.88.3 1.47.3.94 0 1.68-.245 2.22-.735.55-.49.825-1.135.825-1.935 0-.76-.24-1.34-.72-1.74-.48-.41-1.09-.615-1.83-.615-.47 0-.9.08-1.29.24-.39.15-.82.365-1.29.645a.407.407 0 0 1-.135.06.68.68 0 0 1-.135-.075l-.735-.42a.98.98 0 0 1-.105-.06.102.102 0 0 1-.03-.075l.03-.195.405-5.085c.01-.09.03-.145.06-.165.03-.03.12-.045.27-.045h6.105zm7.19-.135c.69 0 1.28.14 1.77.42.49.27.874.615 1.154 1.035.03.06.045.1.045.12 0 .05-.03.09-.09.12l-.855.345a.167.167 0 0 1-.075.015c-.06 0-.11-.035-.15-.105-.24-.29-.5-.505-.78-.645-.27-.15-.605-.225-1.005-.225-1.04 0-1.825.37-2.355 1.11-.52.73-.78 1.695-.78 2.895 0 .13.005.22.015.27.02.05.055.075.105.075.04 0 .09-.015.15-.045.51-.25.965-.44 1.365-.57.41-.13.88-.195 1.41-.195.75 0 1.4.14 1.95.42.55.28.97.67 1.26 1.17.29.49.435 1.045.435 1.665 0 .69-.17 1.305-.51 1.845a3.51 3.51 0 0 1-1.395 1.245c-.59.29-1.245.435-1.965.435-.87 0-1.625-.215-2.265-.645-.64-.44-1.13-1.075-1.47-1.905-.34-.84-.51-1.835-.51-2.985 0-1.21.18-2.255.54-3.135.37-.88.895-1.555 1.575-2.025.69-.47 1.5-.705 2.43-.705zm-.24 5.67c-.41 0-.86.07-1.35.21-.49.13-.89.29-1.2.48-.12.08-.2.165-.24.255-.04.08-.06.21-.06.39 0 .51.104 1.025.314 1.545.21.51.525.94.945 1.29.42.34.93.51 1.53.51.46 0 .875-.105 1.245-.315.37-.22.66-.515.87-.885.22-.37.33-.775.33-1.215 0-.65-.22-1.19-.66-1.62-.43-.43-1.005-.645-1.725-.645zm8.056-5.7c.5 0 .945.13 1.335.39s.695.63.915 1.11c.22.48.33 1.04.33 1.68 0 .65-.11 1.215-.33 1.695-.22.48-.525.85-.915 1.11a2.42 2.42 0 0 1-1.335.375c-.51 0-.965-.125-1.365-.375-.39-.26-.695-.63-.915-1.11-.22-.48-.33-1.045-.33-1.695 0-.64.11-1.2.33-1.68.23-.48.54-.85.93-1.11.4-.26.85-.39 1.35-.39zm.255 11.22a.376.376 0 0 1-.12.105.374.374 0 0 1-.165.03h-.39c-.11 0-.165-.045-.165-.135 0-.06.015-.11.045-.15l7.26-10.92c.03-.05.065-.08.105-.09a.695.695 0 0 1 .135-.015h.495c.13 0 .16.055.09.165l-7.29 11.01zm-.27-5.595c.5 0 .89-.22 1.17-.66.29-.45.435-1.04.435-1.77 0-.75-.145-1.35-.435-1.8-.28-.45-.67-.675-1.17-.675-.5 0-.895.23-1.185.69-.28.45-.42 1.045-.42 1.785 0 .73.14 1.32.42 1.77.29.44.685.66 1.185.66zm6.915-.54c.5 0 .945.13 1.335.39s.695.63.915 1.11c.22.48.33 1.04.33 1.68 0 .65-.11 1.215-.33 1.695-.22.48-.525.85-.915 1.11a2.42 2.42 0 0 1-1.335.375c-.51 0-.965-.125-1.365-.375-.39-.26-.695-.63-.915-1.11-.22-.48-.33-1.045-.33-1.695 0-.64.11-1.2.33-1.68.23-.48.54-.85.93-1.11.4-.26.85-.39 1.35-.39zm-.015 5.625c.49 0 .88-.225 1.17-.675.29-.45.435-1.035.435-1.755 0-.73-.15-1.325-.45-1.785-.29-.46-.675-.69-1.155-.69s-.87.235-1.17.705c-.29.46-.435 1.05-.435 1.77 0 .71.145 1.295.435 1.755.29.45.68.675 1.17.675z"/><path id="path8_fill" d="M0 0h62.5v258H0V0z"/><path id="path9_fill" d="M0 0h44.792v258H0V0z"/></defs></svg>