<svg width="375" height="348" xmlns="http://www.w3.org/2000/svg" xmlns:xlink="http://www.w3.org/1999/xlink"><use xlink:href="#path0_fill" transform="rotate(90 146.5 228.5)" fill="#2D3884" opacity=".5"/><use xlink:href="#path0_fill" transform="rotate(90 167.5 207.5)" fill="#2D3884" opacity=".5"/><use xlink:href="#path1_fill" fill="#2D3884" opacity=".5"/><use xlink:href="#path2_fill" transform="translate(374)" fill="#2D3884" opacity=".5"/><g opacity=".5"><use xlink:href="#path3_fill" transform="translate(179 70)" fill="#2D3884"/><use xlink:href="#path3_fill" transform="translate(195 70)" fill="#2D3884"/><use xlink:href="#path4_fill" transform="rotate(90 51 145)" fill="#2D3884"/></g><use xlink:href="#path5_fill" transform="translate(136 8)" fill="#2D3884"/><use xlink:href="#path6_fill" transform="translate(179 47)" fill="#2D3884"/><use xlink:href="#path7_fill" transform="translate(5 47)" fill="#2D3884"/><g opacity=".5"><use xlink:href="#path8_fill" transform="translate(0 17.8)" fill="#2D3884"/><use xlink:href="#path3_fill" transform="translate(17 70)" fill="#2D3884"/><use xlink:href="#path9_fill" transform="rotate(90 -38 56)" fill="#2D3884"/></g><use xlink:href="#path10_fill" transform="translate(0 106)" fill="#3B46CC" fill-opacity=".5"/><use xlink:href="#path10_fill" transform="translate(357 106)" fill="#3B46CC" fill-opacity=".5"/><use xlink:href="#path11_fill" transform="translate(18 106)" fill="#3B46CC" fill-opacity=".25"/><use xlink:href="#path12_fill" transform="translate(87 106)" fill="#3B46CC" fill-opacity=".1"/><use xlink:href="#path12_fill" transform="translate(179 106)" fill="#3B46CC" fill-opacity=".1"/><use xlink:href="#path12_fill" transform="translate(271 106)" fill="#3B46CC" fill-opacity=".1"/><use xlink:href="#path13_fill" transform="translate(104 106)" fill="#3B46CC" fill-opacity=".25"/><use xlink:href="#path13_fill" transform="translate(196 106)" fill="#3B46CC" fill-opacity=".25"/><use xlink:href="#path11_fill" transform="translate(288 106)" fill="#3B46CC" fill-opacity=".25"/><defs><path id="path0_fill" d="M0 0h1v375H0V0z"/><path id="path1_fill" d="M0 0h1v348H0V0z"/><path id="path2_fill" d="M0 0h1v348H0V0z"/><path id="path3_fill" d="M0 0h1v278H0V0z"/><path id="path4_fill" d="M0 0h1v17H0V0z"/><path id="path5_fill" d="M30.06 4.43a.144.144 0 0 1-.045-.105.2.2 0 0 1 .045-.12c.92-.99 2.075-1.485 3.465-1.485.75 0 1.41.125 1.98.375.57.24 1.005.575 1.305 1.005.31.42.465.9.465 1.44 0 .54-.17 1.03-.51 1.47-.33.43-.795.75-1.395.96-.11.03-.165.065-.165.105 0 .02.055.055.165.105.65.18 1.185.515 1.605 1.005.43.48.645 1.06.645 1.74 0 .63-.165 1.19-.495 1.68-.32.48-.8.86-1.44 1.14-.64.27-1.425.405-2.355.405-1.53 0-2.78-.53-3.75-1.59a.256.256 0 0 1-.045-.12c0-.05.03-.095.09-.135l.645-.51c.07-.05.115-.075.135-.075.04 0 .075.025.105.075.44.46.885.785 1.335.975.46.19.99.285 1.59.285.86 0 1.535-.19 2.025-.57.49-.38.735-.885.735-1.515 0-.46-.135-.86-.405-1.2a2.366 2.366 0 0 0-1.035-.765 3.72 3.72 0 0 0-1.38-.255l-1.335-.015c-.12 0-.18-.05-.18-.15v-.78c0-.08.06-.13.18-.15l1.08-.015c.51 0 .975-.09 1.395-.27.42-.18.75-.425.99-.735s.36-.655.36-1.035c0-.33-.1-.63-.3-.9-.2-.28-.48-.5-.84-.66-.35-.16-.745-.24-1.185-.24-.99 0-1.885.385-2.685 1.155-.05.05-.095.075-.135.075-.02 0-.065-.025-.135-.075l-.525-.525zm16.554-1.56c.08 0 .14.02.18.06.04.03.055.07.045.12l-.015.54c0 .15-.07.33-.21.54-.63.94-1.24 2.03-1.83 3.27-.58 1.23-1.07 2.42-1.47 3.57-.4 1.14-.65 2.055-.75 2.745-.01.19-.085.285-.225.285h-1.185c-.08 0-.135-.02-.165-.06-.03-.05-.035-.115-.015-.195.32-1.3.835-2.775 1.545-4.425.71-1.66 1.61-3.34 2.7-5.04a.269.269 0 0 0 .045-.135c0-.05-.05-.075-.15-.075H39.31c-.12 0-.175-.06-.165-.18l.09-.87c.01-.06.03-.1.06-.12.03-.02.085-.03.165-.03h7.155zm9.04 0c.1 0 .165.015.195.045s.04.085.03.165l-.06.825c-.01.07-.025.115-.045.135-.02.02-.075.03-.165.03h-5.1c-.12 0-.18.055-.18.165l-.27 3.255v.03c0 .07.015.12.045.15.04.02.085.02.135 0 .48-.25.895-.43 1.245-.54.35-.12.765-.18 1.245-.18.69 0 1.315.125 1.875.375.57.25 1.02.63 1.35 1.14.34.51.51 1.14.51 1.89 0 .78-.185 1.46-.555 2.04a3.457 3.457 0 0 1-1.515 1.305c-.64.3-1.375.45-2.205.45a5.84 5.84 0 0 1-2.175-.405 4.605 4.605 0 0 1-1.695-1.155c-.05-.07-.075-.12-.075-.15 0-.06.035-.11.105-.15l.645-.525c.03-.03.06-.045.09-.045.05 0 .105.03.165.09.47.44.9.76 1.29.96.39.2.88.3 1.47.3.94 0 1.68-.245 2.22-.735.55-.49.825-1.135.825-1.935 0-.76-.24-1.34-.72-1.74-.48-.41-1.09-.615-1.83-.615-.47 0-.9.08-1.29.24-.39.15-.82.365-1.29.645a.407.407 0 0 1-.135.06.68.68 0 0 1-.135-.075l-.735-.42a.98.98 0 0 1-.105-.06.102.102 0 0 1-.03-.075l.03-.195.405-5.085c.01-.09.03-.145.06-.165.03-.03.12-.045.27-.045h6.105zm3.844 3.18c.14 0 .21.075.21.225v.63c0 .09.025.135.075.135.03 0 .07-.025.12-.075.21-.21.395-.38.555-.51.16-.13.395-.255.705-.375.31-.12.675-.18 1.095-.18.63 0 1.19.15 1.68.45.5.3.89.75 1.17 1.35.29.6.435 1.335.435 2.205 0 .88-.145 1.64-.435 2.28-.28.64-.68 1.13-1.2 1.47-.52.33-1.125.495-1.815.495-.83 0-1.54-.25-2.13-.75-.07-.07-.125-.105-.165-.105-.05 0-.075.065-.075.195v2.79c0 .13-.055.195-.165.195h-.93c-.11 0-.165-.065-.165-.195V6.29c0-.08.015-.14.045-.18.04-.04.105-.06.195-.06h.795zm.225 6.195c.32.33.64.58.96.75.33.16.69.24 1.08.24.75 0 1.35-.285 1.8-.855.46-.57.69-1.39.69-2.46 0-1.04-.225-1.815-.675-2.325-.45-.52-1.03-.78-1.74-.78-.4 0-.76.09-1.08.27-.32.17-.575.39-.765.66-.18.27-.27.535-.27.795v3.705zm13.863 1.44c.07.1.105.175.105.225 0 .06-.055.09-.165.09h-1.05c-.15 0-.255-.045-.315-.135l-2.115-2.91c-.05-.08-.09-.12-.12-.12s-.075.04-.135.12l-2.205 2.91c-.06.09-.165.135-.315.135h-.705c-.14 0-.21-.045-.21-.135 0-.05.035-.125.105-.225l2.73-3.48c.05-.07.075-.125.075-.165 0-.04-.025-.095-.075-.165l-2.61-3.54a.144.144 0 0 1-.045-.105c0-.04.015-.07.045-.09.03-.03.07-.045.12-.045h1.005c.07 0 .125.01.165.03.04.02.08.055.12.105l2.025 2.745c.05.06.09.09.12.09.04 0 .075-.03.105-.09l1.965-2.745c.04-.05.08-.085.12-.105.04-.02.1-.03.18-.03h.78c.1 0 .15.03.15.09 0 .02-.02.06-.06.12l-2.535 3.39c-.05.07-.075.12-.075.15 0 .05.025.11.075.18l2.745 3.705z"/><path id="path6_fill" d="M6.18 15.86c.11 0 .165.05.165.15v.84c0 .04-.015.075-.045.105a.162.162 0 0 1-.12.045H.915c-.11 0-.165-.05-.165-.15v-.84c0-.1.055-.15.165-.15h1.89c.08 0 .12-.025.12-.075v-8.25c0-.11-.045-.15-.135-.12l-1.86.69c-.01 0-.02.005-.03.015-.01 0-.02-.005-.03-.015-.09 0-.135-.06-.135-.18v-.6c0-.07.01-.115.03-.135a.31.31 0 0 1 .12-.09l2.22-1.11c.17-.08.32-.12.45-.12H4.2c.11 0 .165.06.165.18v9.705c0 .07.03.105.09.105H6.18zm8.893-9.99c.08 0 .14.02.18.06.04.03.055.07.045.12l-.015.54c0 .15-.07.33-.21.54-.63.94-1.24 2.03-1.83 3.27-.58 1.23-1.07 2.42-1.47 3.57-.4 1.14-.65 2.055-.75 2.745-.01.19-.085.285-.225.285H9.613c-.08 0-.135-.02-.165-.06-.03-.05-.035-.115-.015-.195.32-1.3.835-2.775 1.545-4.425.71-1.66 1.61-3.34 2.7-5.04a.269.269 0 0 0 .045-.135c0-.05-.05-.075-.15-.075H7.768c-.12 0-.175-.06-.165-.18l.09-.87c.01-.06.03-.1.06-.12.03-.02.085-.03.165-.03h7.155zm3.07 3.18c.14 0 .21.075.21.225v.63c0 .09.024.135.074.135.03 0 .07-.025.12-.075.21-.21.395-.38.555-.51.16-.13.395-.255.705-.375.31-.12.675-.18 1.095-.18.63 0 1.19.15 1.68.45.5.3.89.75 1.17 1.35.29.6.435 1.335.435 2.205 0 .88-.145 1.64-.435 2.28-.28.64-.68 1.13-1.2 1.47-.52.33-1.125.495-1.815.495-.83 0-1.54-.25-2.13-.75-.07-.07-.125-.105-.165-.105-.05 0-.075.065-.075.195v2.79c0 .13-.055.195-.165.195h-.93c-.11 0-.165-.065-.165-.195V9.29c0-.08.015-.14.045-.18.04-.04.105-.06.195-.06h.795zm.224 6.195c.32.33.64.58.96.75.33.16.69.24 1.08.24.75 0 1.35-.285 1.8-.855.46-.57.69-1.39.69-2.46 0-1.04-.225-1.815-.675-2.325-.45-.52-1.03-.78-1.74-.78-.4 0-.76.09-1.08.27-.32.17-.575.39-.765.66-.18.27-.27.535-.27.795v3.705zm13.863 1.44c.07.1.105.175.105.225 0 .06-.055.09-.165.09h-1.05c-.15 0-.255-.045-.315-.135l-2.115-2.91c-.05-.08-.09-.12-.12-.12s-.075.04-.135.12l-2.205 2.91c-.06.09-.165.135-.315.135h-.705c-.14 0-.21-.045-.21-.135 0-.05.035-.125.105-.225l2.73-3.48c.05-.07.075-.125.075-.165 0-.04-.025-.095-.075-.165l-2.61-3.54a.144.144 0 0 1-.045-.105c0-.04.015-.07.045-.09.03-.03.07-.045.12-.045h1.005c.07 0 .125.01.165.03.04.02.08.055.12.105l2.025 2.745c.05.06.09.09.12.09.04 0 .075-.03.105-.09l1.965-2.745c.04-.05.08-.085.12-.105.04-.02.1-.03.18-.03h.78c.1 0 .15.03.15.09 0 .02-.02.06-.06.12l-2.535 3.39c-.05.07-.075.12-.075.15 0 .05.025.11.075.18l2.745 3.705z"/><path id="path7_fill" d="M6.18 15.86c.11 0 .165.05.165.15v.84c0 .04-.015.075-.045.105a.162.162 0 0 1-.12.045H.915c-.11 0-.165-.05-.165-.15v-.84c0-.1.055-.15.165-.15h1.89c.08 0 .12-.025.12-.075v-8.25c0-.11-.045-.15-.135-.12l-1.86.69c-.01 0-.02.005-.03.015-.01 0-.02-.005-.03-.015-.09 0-.135-.06-.135-.18v-.6c0-.07.01-.115.03-.135a.31.31 0 0 1 .12-.09l2.22-1.11c.17-.08.32-.12.45-.12H4.2c.11 0 .165.06.165.18v9.705c0 .07.03.105.09.105H6.18zm5.788-10.14c.72 0 1.355.13 1.905.39.56.25.995.61 1.305 1.08.31.46.465.99.465 1.59 0 .47-.12.89-.36 1.26s-.625.74-1.155 1.11c-.08.06-.12.105-.12.135 0 .04.035.075.105.105 1.35.53 2.025 1.415 2.025 2.655 0 .63-.175 1.18-.525 1.65-.35.46-.845.82-1.485 1.08-.63.25-1.365.375-2.205.375-1.25 0-2.235-.255-2.955-.765-.72-.51-1.08-1.225-1.08-2.145 0-.53.13-1.005.39-1.425.27-.43.71-.835 1.32-1.215.13-.08.195-.14.195-.18 0-.04-.06-.09-.18-.15-.95-.53-1.425-1.305-1.425-2.325 0-.6.16-1.145.48-1.635a3.28 3.28 0 0 1 1.335-1.155c.58-.29 1.235-.435 1.965-.435zm.015 1.05c-.45 0-.865.09-1.245.27-.37.18-.66.425-.87.735-.21.31-.315.66-.315 1.05 0 .91.515 1.48 1.545 1.71l1.545.36c.19.05.42-.025.69-.225.28-.21.52-.49.72-.84.21-.36.315-.715.315-1.065 0-.59-.215-1.07-.645-1.44-.43-.37-1.01-.555-1.74-.555zm.015 9.33c.83 0 1.49-.18 1.98-.54.49-.36.735-.845.735-1.455 0-.47-.125-.845-.375-1.125-.25-.29-.655-.505-1.215-.645l-1.95-.465a.455.455 0 0 0-.135-.015c-.22 0-.48.1-.78.3-.3.2-.56.47-.78.81-.21.34-.315.71-.315 1.11 0 .64.24 1.14.72 1.5.49.35 1.195.525 2.115.525zm7.184-7.05c.14 0 .21.075.21.225v.63c0 .09.025.135.075.135.03 0 .07-.025.12-.075.21-.21.395-.38.555-.51.16-.13.395-.255.705-.375.31-.12.675-.18 1.095-.18.63 0 1.19.15 1.68.45.5.3.89.75 1.17 1.35.29.6.435 1.335.435 2.205 0 .88-.145 1.64-.435 2.28-.28.64-.68 1.13-1.2 1.47-.52.33-1.125.495-1.815.495-.83 0-1.54-.25-2.13-.75-.07-.07-.125-.105-.165-.105-.05 0-.075.065-.075.195v2.79c0 .13-.055.195-.165.195h-.93c-.11 0-.165-.065-.165-.195V9.29c0-.08.015-.14.045-.18.04-.04.105-.06.195-.06h.795zm.225 6.195c.32.33.64.58.96.75.33.16.69.24 1.08.24.75 0 1.35-.285 1.8-.855.46-.57.69-1.39.69-2.46 0-1.04-.225-1.815-.675-2.325-.45-.52-1.03-.78-1.74-.78-.4 0-.76.09-1.08.27-.32.17-.575.39-.765.66-.18.27-.27.535-.27.795v3.705zm13.863 1.44c.07.1.105.175.105.225 0 .06-.055.09-.165.09h-1.05c-.15 0-.255-.045-.315-.135l-2.115-2.91c-.05-.08-.09-.12-.12-.12s-.075.04-.135.12l-2.205 2.91c-.06.09-.165.135-.315.135h-.705c-.14 0-.21-.045-.21-.135 0-.05.035-.125.105-.225l2.73-3.48c.05-.07.075-.125.075-.165 0-.04-.025-.095-.075-.165l-2.61-3.54a.144.144 0 0 1-.045-.105c0-.04.015-.07.045-.09.03-.03.07-.045.12-.045h1.005c.07 0 .125.01.165.03.04.02.08.055.12.105L29.7 11.93c.05.06.09.09.12.09.04 0 .075-.03.105-.09l1.965-2.745c.04-.05.08-.085.12-.105.04-.02.1-.03.18-.03h.78c.1 0 .15.03.15.09 0 .02-.02.06-.06.12l-2.535 3.39c-.05.07-.075.12-.075.15 0 .05.025.11.075.18l2.745 3.705zm8.907-7.635c.1 0 .15.05.15.15v.645c0 .09-.05.135-.15.135h-1.71c-.08 0-.12.045-.12.135v6.675c0 .14-.06.21-.18.21h-.915c-.11 0-.165-.065-.165-.195V10.1c0-.08-.035-.12-.105-.12h-1.47c-.1 0-.15-.045-.15-.135V9.2c0-.1.055-.15.165-.15h1.425c.09 0 .135-.05.135-.15V7.805c0-1.29.625-1.935 1.875-1.935h1.245c.13 0 .195.06.195.18v.585c0 .1-.055.15-.165.15h-1.05c-.58 0-.87.36-.87 1.08v1.05c0 .09.045.135.135.135h1.725zm2.985-1.71c0 .1-.02.175-.06.225-.04.04-.11.06-.21.06h-.87c-.15 0-.225-.085-.225-.255V6.11c0-.16.07-.24.21-.24h.945c.06 0 .11.02.15.06.04.04.06.095.06.165V7.34zm-.06 9.405c0 .1-.02.17-.06.21-.04.03-.11.045-.21.045h-.765c-.09 0-.15-.015-.18-.045s-.045-.085-.045-.165V9.26c0-.14.06-.21.18-.21h.915c.11 0 .165.065.165.195v7.5zm8.822-.06c.07.1.105.175.105.225 0 .06-.055.09-.165.09h-1.05c-.15 0-.255-.045-.315-.135l-2.115-2.91c-.05-.08-.09-.12-.12-.12s-.075.04-.135.12l-2.205 2.91c-.06.09-.165.135-.315.135h-.705c-.14 0-.21-.045-.21-.135 0-.05.035-.125.105-.225l2.73-3.48c.05-.07.075-.125.075-.165 0-.04-.025-.095-.075-.165l-2.61-3.54a.144.144 0 0 1-.045-.105c0-.04.015-.07.045-.09.03-.03.07-.045.12-.045h1.005c.07 0 .125.01.165.03.04.02.08.055.12.105l2.025 2.745c.05.06.09.09.12.09.04 0 .075-.03.105-.09l1.965-2.745c.04-.05.08-.085.12-.105.04-.02.1-.03.18-.03h.78c.1 0 .15.03.15.09 0 .02-.02.06-.06.12l-2.535 3.39c-.05.07-.075.12-.075.15 0 .05.025.11.075.18l2.745 3.705zm2.065-3.165c0 .48.115.925.345 1.335.24.41.56.735.96.975.4.24.84.36 1.32.36 1 0 1.78-.415 2.34-1.245.04-.04.075-.06.105-.06.03-.01.065-.005.105.015l.63.315c.08.05.09.12.03.21-.39.6-.855 1.04-1.395 1.32-.54.27-1.185.405-1.935.405-.73 0-1.385-.17-1.965-.51a3.602 3.602 0 0 1-1.365-1.425c-.32-.62-.48-1.325-.48-2.115 0-.85.165-1.59.495-2.22.33-.64.78-1.13 1.35-1.47.58-.34 1.23-.51 1.95-.51s1.35.16 1.89.48c.55.32.975.79 1.275 1.41.3.61.45 1.335.45 2.175v.06a.41.41 0 0 1-.045.21c-.03.04-.09.06-.18.06h-5.745c-.09 0-.135.075-.135.225zm4.59-1.05c.11 0 .18-.01.21-.03.03-.03.045-.09.045-.18 0-.44-.095-.845-.285-1.215-.18-.38-.45-.68-.81-.9-.35-.23-.76-.345-1.23-.345-.51 0-.955.13-1.335.39-.38.25-.67.58-.87.99-.2.4-.295.83-.285 1.29h4.56zM69.52 17c-.14 0-.21-.07-.21-.21v-.645c0-.09-.025-.135-.075-.135-.03 0-.07.025-.12.075-.3.3-.63.555-.99.765-.35.2-.805.3-1.365.3-.64 0-1.21-.15-1.71-.45-.5-.3-.895-.75-1.185-1.35-.29-.61-.435-1.345-.435-2.205 0-.84.15-1.58.45-2.22.3-.64.715-1.135 1.245-1.485.53-.36 1.135-.54 1.815-.54.45 0 .84.07 1.17.21.33.14.64.335.93.585.08.06.135.09.165.09.05 0 .075-.065.075-.195V6.065c0-.13.055-.195.165-.195h.915c.11 0 .165.065.165.195V16.76c0 .09-.015.155-.045.195-.03.03-.095.045-.195.045h-.765zm-.255-6.195c-.32-.32-.645-.56-.975-.72-.32-.17-.67-.255-1.05-.255-.76 0-1.37.285-1.83.855-.46.57-.69 1.375-.69 2.415 0 1.05.225 1.835.675 2.355.46.52 1.045.78 1.755.78a2.178 2.178 0 0 0 1.83-.975c.19-.28.285-.56.285-.84v-3.615z"/><path id="path8_fill" d="M0 0h1v330.199H0V0z"/><path id="path9_fill" d="M0 0h1v18H0V0z"/><path id="path10_fill" d="M0 0h18v242H0V0z"/><path id="path11_fill" d="M0 0h69v242H0V0z"/><path id="path12_fill" d="M0 0h17v242H0V0z"/><path id="path13_fill" d="M0 0h75v242H0V0z"/></defs></svg>