<svg width="883" height="246" viewBox="0 0 883 246" version="1.1" xmlns="http://www.w3.org/2000/svg" xmlns:xlink="http://www.w3.org/1999/xlink">
<g id="Canvas" fill="none">
<rect id="Rectangle 2" width="883" height="6" transform="translate(0 12)" fill="#CC3BC6" fill-opacity="0.6"/>
<rect id="Rectangle 2.5" width="883" height="12" transform="translate(0 48)" fill="#CC3BC6" fill-opacity="0.5"/>
<rect id="Rectangle 2.3" width="883" height="18" transform="translate(0 90)" fill="#CC3BC6" fill-opacity="0.4"/>
<rect id="Rectangle 2.4" width="883" height="30" transform="translate(0 138)" fill="#CC3BC6" fill-opacity="0.3"/>
<path id="6px &#226;&#128;&#148; Single" d="M 6.35992 5.735C 6.91992 5.735 7.42992 5.83 7.88992 6.02C 8.34992 6.2 8.72992 6.43 9.02992 6.71C 9.33992 6.99 9.55992 7.275 9.68992 7.565C 9.70992 7.625 9.71992 7.67 9.71992 7.7C 9.71992 7.78 9.67992 7.835 9.59992 7.865L 8.23492 8.345L 8.17492 8.36C 8.10492 8.36 8.03492 8.305 7.96492 8.195C 7.74492 7.905 7.51492 7.685 7.27492 7.535C 7.03492 7.385 6.72992 7.31 6.35992 7.31C 5.52992 7.31 4.88992 7.61 4.43992 8.21C 3.99992 8.8 3.77992 9.585 3.77992 10.565C 3.77992 10.705 3.78492 10.8 3.79492 10.85C 3.81492 10.9 3.84992 10.925 3.89992 10.925C 3.91992 10.925 3.97992 10.905 4.07992 10.865C 4.53992 10.665 4.94492 10.515 5.29492 10.415C 5.64492 10.305 6.05492 10.25 6.52492 10.25C 7.28492 10.25 7.94992 10.39 8.51992 10.67C 9.08992 10.95 9.52992 11.34 9.83992 11.84C 10.1499 12.34 10.3049 12.905 10.3049 13.535C 10.3049 14.225 10.1199 14.845 9.74992 15.395C 9.37992 15.945 8.87492 16.375 8.23492 16.685C 7.59492 16.985 6.88992 17.135 6.11992 17.135C 5.18992 17.135 4.37992 16.915 3.68992 16.475C 3.00992 16.035 2.48492 15.405 2.11492 14.585C 1.75492 13.755 1.57492 12.775 1.57492 11.645C 1.57492 10.425 1.76992 9.375 2.15992 8.495C 2.54992 7.605 3.10492 6.925 3.82492 6.455C 4.54492 5.975 5.38992 5.735 6.35992 5.735ZM 6.10492 11.735C 5.77492 11.735 5.40992 11.795 5.00992 11.915C 4.60992 12.025 4.28992 12.155 4.04992 12.305C 3.94992 12.375 3.88492 12.445 3.85492 12.515C 3.82492 12.585 3.80992 12.7 3.80992 12.86C 3.80992 13.32 3.89492 13.765 4.06492 14.195C 4.24492 14.615 4.50492 14.96 4.84492 15.23C 5.18492 15.5 5.59492 15.635 6.07492 15.635C 6.65492 15.635 7.13992 15.445 7.52992 15.065C 7.91992 14.675 8.11492 14.19 8.11492 13.61C 8.11492 13.06 7.92492 12.61 7.54492 12.26C 7.17492 11.91 6.69492 11.735 6.10492 11.735ZM 13.5563 9.05C 13.7463 9.05 13.8413 9.14 13.8413 9.32L 13.8413 9.83C 13.8413 9.91 13.8663 9.95 13.9163 9.95C 13.9463 9.95 13.9863 9.925 14.0363 9.875C 14.3563 9.575 14.6763 9.34 14.9963 9.17C 15.3263 8.99 15.7563 8.9 16.2863 8.9C 16.8963 8.9 17.4363 9.05 17.9063 9.35C 18.3863 9.65 18.7613 10.105 19.0313 10.715C 19.3013 11.315 19.4363 12.055 19.4363 12.935C 19.4363 14.305 19.1363 15.35 18.5363 16.07C 17.9363 16.79 17.1413 17.15 16.1513 17.15C 15.3513 17.15 14.6713 16.895 14.1113 16.385C 14.0113 16.305 13.9463 16.265 13.9163 16.265C 13.8663 16.265 13.8413 16.335 13.8413 16.475L 13.8413 19.235C 13.8413 19.395 13.7713 19.475 13.6313 19.475L 12.1013 19.475C 11.9613 19.475 11.8913 19.395 11.8913 19.235L 11.8913 9.35C 11.8913 9.24 11.9113 9.165 11.9513 9.125C 12.0013 9.075 12.0813 9.05 12.1913 9.05L 13.5563 9.05ZM 13.8413 15.05C 14.3413 15.6 14.8863 15.875 15.4763 15.875C 16.0963 15.875 16.5813 15.635 16.9313 15.155C 17.2813 14.665 17.4563 13.92 17.4563 12.92C 17.4563 11.96 17.2813 11.265 16.9313 10.835C 16.5913 10.395 16.1263 10.175 15.5363 10.175C 15.2163 10.175 14.9263 10.245 14.6663 10.385C 14.4063 10.515 14.2013 10.685 14.0513 10.895C 13.9113 11.105 13.8413 11.325 13.8413 11.555L 13.8413 15.05ZM 27.6753 16.565C 27.7853 16.705 27.8403 16.81 27.8403 16.88C 27.8403 16.96 27.7553 17 27.5853 17L 25.9653 17C 25.7653 17 25.6203 16.935 25.5303 16.805L 23.7903 14.36C 23.7203 14.26 23.6653 14.21 23.6253 14.21C 23.5853 14.21 23.5303 14.26 23.4603 14.36L 21.6753 16.805C 21.5853 16.935 21.4403 17 21.2403 17L 20.1903 17C 19.9803 17 19.8753 16.935 19.8753 16.805C 19.8753 16.745 19.9303 16.635 20.0403 16.475L 22.5903 13.205C 22.6503 13.125 22.6803 13.065 22.6803 13.025C 22.6803 12.965 22.6453 12.885 22.5753 12.785L 20.0853 9.41C 20.0453 9.37 20.0253 9.315 20.0253 9.245C 20.0253 9.185 20.0453 9.14 20.0853 9.11C 20.1353 9.07 20.2003 9.05 20.2803 9.05L 21.8253 9.05C 21.9353 9.05 22.0153 9.065 22.0653 9.095C 22.1253 9.125 22.1853 9.175 22.2453 9.245L 23.8503 11.495C 23.9003 11.555 23.9403 11.585 23.9703 11.585C 24.0103 11.585 24.0503 11.555 24.0903 11.495L 25.6353 9.245C 25.6853 9.175 25.7403 9.125 25.8003 9.095C 25.8603 9.065 25.9453 9.05 26.0553 9.05L 27.2103 9.05C 27.3603 9.05 27.4353 9.095 27.4353 9.185C 27.4353 9.225 27.4103 9.28 27.3603 9.35L 25.0203 12.5C 24.9603 12.57 24.9303 12.635 24.9303 12.695C 24.9303 12.735 24.9653 12.81 25.0353 12.92L 27.6753 16.565ZM 43.563 13.43C 43.563 13.57 43.483 13.64 43.323 13.64L 32.418 13.64C 32.348 13.64 32.298 13.63 32.268 13.61C 32.238 13.58 32.223 13.53 32.223 13.46L 32.223 12.8C 32.223 12.69 32.268 12.635 32.358 12.635L 43.413 12.62C 43.513 12.62 43.563 12.67 43.563 12.77L 43.563 13.43ZM 55.1839 7.94C 54.5439 7.19 53.6939 6.815 52.6339 6.815C 51.8839 6.815 51.2939 6.98 50.8639 7.31C 50.4339 7.64 50.2189 8.1 50.2189 8.69C 50.2189 9.47 50.7539 10.04 51.8239 10.4L 53.9989 11.12C 54.8789 11.41 55.5139 11.8 55.9039 12.29C 56.3039 12.77 56.5039 13.36 56.5039 14.06C 56.5039 15.02 56.1489 15.775 55.4389 16.325C 54.7289 16.875 53.7589 17.15 52.5289 17.15C 51.6289 17.15 50.8339 16.99 50.1439 16.67C 49.4639 16.35 48.9139 15.885 48.4939 15.275C 48.4539 15.195 48.4339 15.145 48.4339 15.125C 48.4339 15.055 48.4839 14.985 48.5839 14.915L 49.1239 14.54C 49.2139 14.48 49.2839 14.45 49.3339 14.45C 49.3939 14.45 49.4489 14.48 49.4989 14.54C 49.9289 15.09 50.3539 15.48 50.7739 15.71C 51.1939 15.94 51.7589 16.055 52.4689 16.055C 53.3089 16.055 53.9589 15.905 54.4189 15.605C 54.8889 15.305 55.1239 14.84 55.1239 14.21C 55.1239 13.82 54.9989 13.49 54.7489 13.22C 54.5089 12.94 54.0689 12.68 53.4289 12.44L 51.1489 11.66C 50.3589 11.39 49.7739 11.005 49.3939 10.505C 49.0239 9.995 48.8389 9.435 48.8389 8.825C 48.8389 8.205 48.9939 7.66 49.3039 7.19C 49.6239 6.72 50.0689 6.36 50.6389 6.11C 51.2189 5.85 51.8839 5.72 52.6339 5.72C 53.3639 5.72 54.0239 5.85 54.6139 6.11C 55.2139 6.37 55.7239 6.735 56.1439 7.205C 56.1939 7.255 56.2189 7.305 56.2189 7.355C 56.2189 7.405 56.1939 7.45 56.1439 7.49L 55.4539 8.03C 55.4239 8.06 55.3939 8.075 55.3639 8.075C 55.3339 8.075 55.2739 8.03 55.1839 7.94ZM 59.7982 7.34C 59.7982 7.44 59.7782 7.515 59.7382 7.565C 59.6982 7.605 59.6282 7.625 59.5282 7.625L 58.6582 7.625C 58.5082 7.625 58.4332 7.54 58.4332 7.37L 58.4332 6.11C 58.4332 5.95 58.5032 5.87 58.6432 5.87L 59.5882 5.87C 59.6482 5.87 59.6982 5.89 59.7382 5.93C 59.7782 5.97 59.7982 6.025 59.7982 6.095L 59.7982 7.34ZM 59.7382 16.745C 59.7382 16.845 59.7182 16.915 59.6782 16.955C 59.6382 16.985 59.5682 17 59.4682 17L 58.7032 17C 58.6132 17 58.5532 16.985 58.5232 16.955C 58.4932 16.925 58.4782 16.87 58.4782 16.79L 58.4782 9.26C 58.4782 9.12 58.5382 9.05 58.6582 9.05L 59.5732 9.05C 59.6832 9.05 59.7382 9.115 59.7382 9.245L 59.7382 16.745ZM 62.2771 17C 62.1371 17 62.0671 16.935 62.0671 16.805L 62.0671 9.245C 62.0671 9.115 62.1221 9.05 62.2321 9.05L 63.1321 9.05C 63.2421 9.05 63.2971 9.105 63.2971 9.215L 63.2971 10.085C 63.2971 10.195 63.3421 10.21 63.4321 10.13C 63.9921 9.69 64.4671 9.375 64.8571 9.185C 65.2571 8.995 65.7021 8.9 66.1921 8.9C 66.9521 8.9 67.5421 9.105 67.9621 9.515C 68.3921 9.925 68.6071 10.475 68.6071 11.165L 68.6071 16.76C 68.6071 16.92 68.5321 17 68.3821 17L 67.5421 17C 67.4121 17 67.3471 16.935 67.3471 16.805L 67.3471 11.45C 67.3471 10.95 67.2171 10.565 66.9571 10.295C 66.7071 10.025 66.3171 9.89 65.7871 9.89C 65.3671 9.89 64.9771 9.985 64.6171 10.175C 64.2671 10.355 63.8371 10.665 63.3271 11.105L 63.3271 16.775C 63.3271 16.855 63.3071 16.915 63.2671 16.955C 63.2371 16.985 63.1821 17 63.1021 17L 62.2771 17ZM 78.0119 8.915C 78.2019 8.915 78.2969 8.995 78.2969 9.155L 78.2969 9.68C 78.2969 9.78 78.2719 9.855 78.2219 9.905C 78.1819 9.945 78.1069 9.96 77.9969 9.95C 77.6669 9.95 77.4069 9.995 77.2169 10.085C 76.9769 10.185 76.8769 10.3 76.9169 10.43C 76.9269 10.47 76.9569 10.545 77.0069 10.655C 77.0569 10.765 77.0969 10.89 77.1269 11.03C 77.1569 11.16 77.1719 11.3 77.1719 11.45C 77.1719 12.16 76.8919 12.74 76.3319 13.19C 75.7819 13.64 74.9769 13.865 73.9169 13.865C 73.2069 13.865 72.6969 13.925 72.3869 14.045C 72.0769 14.165 71.9219 14.32 71.9219 14.51C 71.9219 14.66 72.0269 14.775 72.2369 14.855C 72.4469 14.925 72.7969 14.975 73.2869 15.005L 75.2219 15.11C 76.0819 15.16 76.7219 15.365 77.1419 15.725C 77.5619 16.085 77.7719 16.575 77.7719 17.195C 77.7719 17.955 77.4369 18.55 76.7669 18.98C 76.1069 19.41 75.1619 19.625 73.9319 19.625C 72.6619 19.625 71.6919 19.44 71.0219 19.07C 70.3619 18.71 70.0319 18.19 70.0319 17.51C 70.0319 16.84 70.5019 16.275 71.4419 15.815C 71.5519 15.765 71.5519 15.71 71.4419 15.65C 70.9819 15.45 70.7519 15.155 70.7519 14.765C 70.7519 14.545 70.8519 14.335 71.0519 14.135C 71.2619 13.935 71.5569 13.77 71.9369 13.64C 71.9869 13.63 72.0119 13.605 72.0119 13.565C 72.0119 13.515 71.9869 13.48 71.9369 13.46C 71.4969 13.23 71.1719 12.955 70.9619 12.635C 70.7519 12.305 70.6469 11.91 70.6469 11.45C 70.6469 10.67 70.9419 10.055 71.5319 9.605C 72.1219 9.155 72.9569 8.93 74.0369 8.93C 74.9869 8.93 75.7369 9.155 76.2869 9.605C 76.3569 9.655 76.4069 9.68 76.4369 9.68C 76.4769 9.68 76.5319 9.655 76.6019 9.605C 76.7919 9.415 77.0119 9.255 77.2619 9.125C 77.5219 8.985 77.7719 8.915 78.0119 8.915ZM 73.9169 13.07C 74.6069 13.07 75.1219 12.93 75.4619 12.65C 75.8119 12.37 75.9869 11.965 75.9869 11.435C 75.9869 10.895 75.8119 10.475 75.4619 10.175C 75.1119 9.875 74.5969 9.725 73.9169 9.725C 73.2569 9.725 72.7419 9.88 72.3719 10.19C 72.0019 10.49 71.8169 10.905 71.8169 11.435C 71.8169 11.955 71.9969 12.36 72.3569 12.65C 72.7269 12.93 73.2469 13.07 73.9169 13.07ZM 72.5969 16.025C 72.4169 16.015 72.2119 16.07 71.9819 16.19C 71.7519 16.3 71.5569 16.46 71.3969 16.67C 71.2369 16.88 71.1569 17.11 71.1569 17.36C 71.1569 17.84 71.4019 18.205 71.8919 18.455C 72.3819 18.715 73.1069 18.845 74.0669 18.845C 75.7569 18.845 76.6019 18.345 76.6019 17.345C 76.6019 16.995 76.4819 16.72 76.2419 16.52C 76.0119 16.32 75.6319 16.205 75.1019 16.175L 72.5969 16.025ZM 81.1253 16.745C 81.1253 16.845 81.1053 16.915 81.0653 16.955C 81.0253 16.985 80.9553 17 80.8553 17L 80.0753 17C 79.9853 17 79.9253 16.985 79.8953 16.955C 79.8653 16.925 79.8503 16.87 79.8503 16.79L 79.8653 6.08C 79.8653 5.94 79.9253 5.87 80.0453 5.87L 80.9453 5.87C 81.0653 5.87 81.1253 5.935 81.1253 6.065L 81.1253 16.745ZM 84.2792 13.52C 84.2792 14 84.3942 14.445 84.6242 14.855C 84.8642 15.265 85.1842 15.59 85.5842 15.83C 85.9842 16.07 86.4242 16.19 86.9042 16.19C 87.9042 16.19 88.6842 15.775 89.2442 14.945C 89.2842 14.905 89.3192 14.885 89.3492 14.885C 89.3792 14.875 89.4142 14.88 89.4542 14.9L 90.0842 15.215C 90.1642 15.265 90.1742 15.335 90.1142 15.425C 89.7242 16.025 89.2592 16.465 88.7192 16.745C 88.1792 17.015 87.5342 17.15 86.7842 17.15C 86.0542 17.15 85.3992 16.98 84.8192 16.64C 84.2392 16.3 83.7842 15.825 83.4542 15.215C 83.1342 14.595 82.9742 13.89 82.9742 13.1C 82.9742 12.25 83.1392 11.51 83.4692 10.88C 83.7992 10.24 84.2492 9.75 84.8192 9.41C 85.3992 9.07 86.0492 8.9 86.7692 8.9C 87.4892 8.9 88.1192 9.06 88.6592 9.38C 89.2092 9.7 89.6342 10.17 89.9342 10.79C 90.2342 11.4 90.3842 12.125 90.3842 12.965L 90.3842 13.025C 90.3842 13.115 90.3692 13.185 90.3392 13.235C 90.3092 13.275 90.2492 13.295 90.1592 13.295L 84.4142 13.295C 84.3242 13.295 84.2792 13.37 84.2792 13.52ZM 88.8692 12.47C 88.9792 12.47 89.0492 12.46 89.0792 12.44C 89.1092 12.41 89.1242 12.35 89.1242 12.26C 89.1242 11.82 89.0292 11.415 88.8392 11.045C 88.6592 10.665 88.3892 10.365 88.0292 10.145C 87.6792 9.915 87.2692 9.8 86.7992 9.8C 86.2892 9.8 85.8442 9.93 85.4642 10.19C 85.0842 10.44 84.7942 10.77 84.5942 11.18C 84.3942 11.58 84.2992 12.01 84.3092 12.47L 88.8692 12.47Z" transform="translate(0 -5)" fill="#494949"/>
<path id="12px &#226;&#128;&#148; Small" d="M 7.41773 15.335C 7.57773 15.335 7.65773 15.405 7.65773 15.545L 7.65773 16.775C 7.65773 16.835 7.63773 16.89 7.59773 16.94C 7.55773 16.98 7.49273 17 7.40273 17L 1.70273 17C 1.54273 17 1.46273 16.93 1.46273 16.79L 1.46273 15.545C 1.46273 15.405 1.53773 15.335 1.68773 15.335L 3.36773 15.335C 3.45773 15.335 3.50273 15.305 3.50273 15.245L 3.50273 8.27C 3.50273 8.2 3.48773 8.155 3.45773 8.135C 3.43773 8.115 3.39273 8.11 3.32273 8.12L 1.73273 8.645C 1.71273 8.655 1.68273 8.66 1.64273 8.66C 1.51273 8.66 1.44773 8.575 1.44773 8.405L 1.44773 7.535C 1.44773 7.445 1.45773 7.385 1.47773 7.355C 1.50773 7.315 1.56273 7.275 1.64273 7.235L 4.05773 6.02C 4.16773 5.97 4.26273 5.935 4.34273 5.915C 4.43273 5.885 4.52773 5.87 4.62773 5.87L 5.52773 5.87C 5.65773 5.87 5.72273 5.95 5.72273 6.11L 5.72273 15.2C 5.72273 15.29 5.76773 15.335 5.85773 15.335L 7.41773 15.335ZM 12.3548 12.23C 12.9848 11.67 13.4598 11.215 13.7798 10.865C 14.1098 10.505 14.3398 10.185 14.4698 9.905C 14.5998 9.615 14.6648 9.31 14.6648 8.99C 14.6648 8.49 14.4848 8.095 14.1248 7.805C 13.7648 7.505 13.3248 7.355 12.8048 7.355C 11.8848 7.355 11.1148 7.87 10.4948 8.9C 10.4648 8.97 10.4048 9.005 10.3148 9.005C 10.2548 9.005 10.1898 8.985 10.1198 8.945L 9.00984 8.36C 8.90984 8.3 8.85984 8.225 8.85984 8.135C 8.85984 8.075 8.88484 8.005 8.93484 7.925C 9.88484 6.455 11.2248 5.72 12.9548 5.72C 13.7048 5.72 14.3698 5.85 14.9498 6.11C 15.5398 6.37 15.9998 6.75 16.3298 7.25C 16.6598 7.74 16.8248 8.325 16.8248 9.005C 16.8248 9.625 16.6548 10.205 16.3148 10.745C 15.9748 11.275 15.3948 11.885 14.5748 12.575L 11.7098 14.99C 11.6598 15.04 11.6348 15.075 11.6348 15.095C 11.6348 15.145 11.6898 15.17 11.7998 15.17L 16.6748 15.17C 16.7648 15.17 16.8298 15.185 16.8698 15.215C 16.9098 15.245 16.9298 15.3 16.9298 15.38L 16.9298 16.76C 16.9298 16.92 16.8398 17 16.6598 17L 9.14484 17C 9.02484 17 8.93984 16.98 8.88984 16.94C 8.84984 16.9 8.82984 16.825 8.82984 16.715L 8.82984 15.74C 8.82984 15.65 8.86484 15.555 8.93484 15.455C 9.00484 15.345 9.16984 15.185 9.42984 14.975L 12.3548 12.23ZM 20.2438 9.05C 20.4338 9.05 20.5288 9.14 20.5288 9.32L 20.5288 9.83C 20.5288 9.91 20.5538 9.95 20.6038 9.95C 20.6338 9.95 20.6738 9.925 20.7238 9.875C 21.0438 9.575 21.3638 9.34 21.6838 9.17C 22.0138 8.99 22.4438 8.9 22.9738 8.9C 23.5838 8.9 24.1238 9.05 24.5938 9.35C 25.0738 9.65 25.4488 10.105 25.7188 10.715C 25.9888 11.315 26.1238 12.055 26.1238 12.935C 26.1238 14.305 25.8238 15.35 25.2238 16.07C 24.6238 16.79 23.8288 17.15 22.8388 17.15C 22.0388 17.15 21.3588 16.895 20.7988 16.385C 20.6988 16.305 20.6338 16.265 20.6038 16.265C 20.5538 16.265 20.5288 16.335 20.5288 16.475L 20.5288 19.235C 20.5288 19.395 20.4588 19.475 20.3188 19.475L 18.7888 19.475C 18.6488 19.475 18.5788 19.395 18.5788 19.235L 18.5788 9.35C 18.5788 9.24 18.5988 9.165 18.6388 9.125C 18.6888 9.075 18.7688 9.05 18.8788 9.05L 20.2438 9.05ZM 20.5288 15.05C 21.0288 15.6 21.5738 15.875 22.1638 15.875C 22.7838 15.875 23.2688 15.635 23.6188 15.155C 23.9688 14.665 24.1438 13.92 24.1438 12.92C 24.1438 11.96 23.9688 11.265 23.6188 10.835C 23.2788 10.395 22.8138 10.175 22.2238 10.175C 21.9038 10.175 21.6138 10.245 21.3538 10.385C 21.0938 10.515 20.8888 10.685 20.7388 10.895C 20.5988 11.105 20.5288 11.325 20.5288 11.555L 20.5288 15.05ZM 34.3628 16.565C 34.4728 16.705 34.5278 16.81 34.5278 16.88C 34.5278 16.96 34.4428 17 34.2728 17L 32.6528 17C 32.4528 17 32.3078 16.935 32.2178 16.805L 30.4778 14.36C 30.4078 14.26 30.3528 14.21 30.3128 14.21C 30.2728 14.21 30.2178 14.26 30.1478 14.36L 28.3628 16.805C 28.2728 16.935 28.1278 17 27.9278 17L 26.8778 17C 26.6678 17 26.5628 16.935 26.5628 16.805C 26.5628 16.745 26.6178 16.635 26.7278 16.475L 29.2778 13.205C 29.3378 13.125 29.3678 13.065 29.3678 13.025C 29.3678 12.965 29.3328 12.885 29.2628 12.785L 26.7728 9.41C 26.7328 9.37 26.7128 9.315 26.7128 9.245C 26.7128 9.185 26.7328 9.14 26.7728 9.11C 26.8228 9.07 26.8878 9.05 26.9678 9.05L 28.5128 9.05C 28.6228 9.05 28.7028 9.065 28.7528 9.095C 28.8128 9.125 28.8728 9.175 28.9328 9.245L 30.5378 11.495C 30.5878 11.555 30.6278 11.585 30.6578 11.585C 30.6978 11.585 30.7378 11.555 30.7778 11.495L 32.3228 9.245C 32.3728 9.175 32.4278 9.125 32.4878 9.095C 32.5478 9.065 32.6328 9.05 32.7428 9.05L 33.8978 9.05C 34.0478 9.05 34.1228 9.095 34.1228 9.185C 34.1228 9.225 34.0978 9.28 34.0478 9.35L 31.7078 12.5C 31.6478 12.57 31.6178 12.635 31.6178 12.695C 31.6178 12.735 31.6528 12.81 31.7228 12.92L 34.3628 16.565ZM 50.2505 13.43C 50.2505 13.57 50.1705 13.64 50.0105 13.64L 39.1055 13.64C 39.0355 13.64 38.9855 13.63 38.9555 13.61C 38.9255 13.58 38.9105 13.53 38.9105 13.46L 38.9105 12.8C 38.9105 12.69 38.9555 12.635 39.0455 12.635L 50.1005 12.62C 50.2005 12.62 50.2505 12.67 50.2505 12.77L 50.2505 13.43ZM 61.8714 7.94C 61.2314 7.19 60.3814 6.815 59.3214 6.815C 58.5714 6.815 57.9814 6.98 57.5514 7.31C 57.1214 7.64 56.9064 8.1 56.9064 8.69C 56.9064 9.47 57.4414 10.04 58.5114 10.4L 60.6864 11.12C 61.5664 11.41 62.2014 11.8 62.5914 12.29C 62.9914 12.77 63.1914 13.36 63.1914 14.06C 63.1914 15.02 62.8364 15.775 62.1264 16.325C 61.4164 16.875 60.4464 17.15 59.2164 17.15C 58.3164 17.15 57.5214 16.99 56.8314 16.67C 56.1514 16.35 55.6014 15.885 55.1814 15.275C 55.1414 15.195 55.1214 15.145 55.1214 15.125C 55.1214 15.055 55.1714 14.985 55.2714 14.915L 55.8114 14.54C 55.9014 14.48 55.9714 14.45 56.0214 14.45C 56.0814 14.45 56.1364 14.48 56.1864 14.54C 56.6164 15.09 57.0414 15.48 57.4614 15.71C 57.8814 15.94 58.4464 16.055 59.1564 16.055C 59.9964 16.055 60.6464 15.905 61.1064 15.605C 61.5764 15.305 61.8114 14.84 61.8114 14.21C 61.8114 13.82 61.6864 13.49 61.4364 13.22C 61.1964 12.94 60.7564 12.68 60.1164 12.44L 57.8364 11.66C 57.0464 11.39 56.4614 11.005 56.0814 10.505C 55.7114 9.995 55.5264 9.435 55.5264 8.825C 55.5264 8.205 55.6814 7.66 55.9914 7.19C 56.3114 6.72 56.7564 6.36 57.3264 6.11C 57.9064 5.85 58.5714 5.72 59.3214 5.72C 60.0514 5.72 60.7114 5.85 61.3014 6.11C 61.9014 6.37 62.4114 6.735 62.8314 7.205C 62.8814 7.255 62.9064 7.305 62.9064 7.355C 62.9064 7.405 62.8814 7.45 62.8314 7.49L 62.1414 8.03C 62.1114 8.06 62.0814 8.075 62.0514 8.075C 62.0214 8.075 61.9614 8.03 61.8714 7.94ZM 65.3757 17C 65.2357 17 65.1657 16.935 65.1657 16.805L 65.1657 9.245C 65.1657 9.115 65.2207 9.05 65.3307 9.05L 66.2307 9.05C 66.3307 9.05 66.3807 9.105 66.3807 9.215L 66.3807 10.085C 66.3807 10.205 66.4307 10.22 66.5307 10.13C 67.0707 9.69 67.5307 9.375 67.9107 9.185C 68.2907 8.995 68.7157 8.9 69.1857 8.9C 69.7457 8.9 70.2057 9.025 70.5657 9.275C 70.9357 9.525 71.1857 9.84 71.3157 10.22C 71.3357 10.25 71.3557 10.265 71.3757 10.265C 71.4057 10.265 71.4557 10.24 71.5257 10.19C 72.0457 9.75 72.5107 9.425 72.9207 9.215C 73.3407 9.005 73.7807 8.9 74.2407 8.9C 74.9607 8.9 75.5207 9.105 75.9207 9.515C 76.3307 9.925 76.5357 10.48 76.5357 11.18L 76.5357 16.76C 76.5357 16.92 76.4607 17 76.3107 17L 75.4707 17C 75.3407 17 75.2757 16.935 75.2757 16.805L 75.2757 11.45C 75.2757 10.95 75.1557 10.565 74.9157 10.295C 74.6757 10.025 74.3157 9.89 73.8357 9.89C 73.4357 9.89 73.0607 9.99 72.7107 10.19C 72.3607 10.38 72.0207 10.62 71.6907 10.91C 71.6107 10.99 71.5557 11.06 71.5257 11.12C 71.4957 11.18 71.4807 11.255 71.4807 11.345L 71.4807 16.76C 71.4807 16.92 71.4057 17 71.2557 17L 70.4157 17C 70.2857 17 70.2207 16.935 70.2207 16.805L 70.2207 11.45C 70.2207 10.41 69.7407 9.89 68.7807 9.89C 68.3807 9.89 68.0107 9.985 67.6707 10.175C 67.3407 10.355 66.9257 10.665 66.4257 11.105L 66.4257 16.775C 66.4257 16.855 66.4057 16.915 66.3657 16.955C 66.3357 16.985 66.2807 17 66.2007 17L 65.3757 17ZM 83.3795 16.04C 82.6095 16.78 81.7195 17.15 80.7095 17.15C 79.9295 17.15 79.3145 16.955 78.8645 16.565C 78.4245 16.165 78.2045 15.635 78.2045 14.975C 78.2045 14.175 78.5395 13.545 79.2095 13.085C 79.8895 12.625 80.8695 12.355 82.1495 12.275L 83.3195 12.185C 83.4895 12.165 83.5745 12.09 83.5745 11.96L 83.5745 11.555C 83.5745 11.015 83.4045 10.59 83.0645 10.28C 82.7345 9.96 82.2845 9.8 81.7145 9.8C 80.8345 9.8 80.1145 10.2 79.5545 11C 79.5245 11.05 79.4945 11.085 79.4645 11.105C 79.4345 11.115 79.3945 11.11 79.3445 11.09L 78.5345 10.82C 78.4845 10.8 78.4595 10.765 78.4595 10.715C 78.4595 10.685 78.4745 10.64 78.5045 10.58C 78.8045 10.05 79.2295 9.64 79.7795 9.35C 80.3395 9.05 80.9995 8.9 81.7595 8.9C 82.7395 8.9 83.4895 9.13 84.0095 9.59C 84.5295 10.04 84.7895 10.665 84.7895 11.465L 84.7895 16.775C 84.7895 16.865 84.7745 16.925 84.7445 16.955C 84.7145 16.985 84.6595 17 84.5795 17L 83.8295 17C 83.7095 17 83.6395 16.92 83.6195 16.76L 83.5895 16.07C 83.5795 16 83.5545 15.965 83.5145 15.965C 83.4745 15.965 83.4295 15.99 83.3795 16.04ZM 83.5745 13.19C 83.5745 13.03 83.4995 12.95 83.3495 12.95L 82.3745 13.04C 81.4445 13.1 80.7245 13.28 80.2145 13.58C 79.7145 13.88 79.4645 14.295 79.4645 14.825C 79.4645 15.255 79.6145 15.595 79.9145 15.845C 80.2245 16.095 80.6345 16.22 81.1445 16.22C 81.4545 16.22 81.7595 16.165 82.0595 16.055C 82.3595 15.945 82.6245 15.795 82.8545 15.605C 83.0845 15.425 83.2595 15.235 83.3795 15.035C 83.5095 14.825 83.5745 14.625 83.5745 14.435L 83.5745 13.19ZM 88.2523 16.745C 88.2523 16.845 88.2323 16.915 88.1923 16.955C 88.1523 16.985 88.0823 17 87.9823 17L 87.2023 17C 87.1123 17 87.0523 16.985 87.0223 16.955C 86.9923 16.925 86.9773 16.87 86.9773 16.79L 86.9923 6.08C 86.9923 5.94 87.0523 5.87 87.1723 5.87L 88.0723 5.87C 88.1923 5.87 88.2523 5.935 88.2523 6.065L 88.2523 16.745ZM 91.8411 16.745C 91.8411 16.845 91.8211 16.915 91.7811 16.955C 91.7411 16.985 91.6711 17 91.5711 17L 90.7911 17C 90.7011 17 90.6411 16.985 90.6111 16.955C 90.5811 16.925 90.5661 16.87 90.5661 16.79L 90.5811 6.08C 90.5811 5.94 90.6411 5.87 90.7611 5.87L 91.6611 5.87C 91.7811 5.87 91.8411 5.935 91.8411 6.065L 91.8411 16.745Z" transform="translate(0 31)" fill="#494949"/>
<path id="18px &#226;&#128;&#148; Medium" d="M 7.11109 15.335C 7.27109 15.335 7.35109 15.405 7.35109 15.545L 7.35109 16.775C 7.35109 16.835 7.33109 16.89 7.29109 16.94C 7.25109 16.98 7.18609 17 7.09609 17L 1.39609 17C 1.23609 17 1.15609 16.93 1.15609 16.79L 1.15609 15.545C 1.15609 15.405 1.23109 15.335 1.38109 15.335L 3.06109 15.335C 3.15109 15.335 3.19609 15.305 3.19609 15.245L 3.19609 8.27C 3.19609 8.2 3.18109 8.155 3.15109 8.135C 3.13109 8.115 3.08609 8.11 3.01609 8.12L 1.42609 8.645C 1.40609 8.655 1.37609 8.66 1.33609 8.66C 1.20609 8.66 1.14109 8.575 1.14109 8.405L 1.14109 7.535C 1.14109 7.445 1.15109 7.385 1.17109 7.355C 1.20109 7.315 1.25609 7.275 1.33609 7.235L 3.75109 6.02C 3.86109 5.97 3.95609 5.935 4.03609 5.915C 4.12609 5.885 4.22109 5.87 4.32109 5.87L 5.22109 5.87C 5.35109 5.87 5.41609 5.95 5.41609 6.11L 5.41609 15.2C 5.41609 15.29 5.46109 15.335 5.55109 15.335L 7.11109 15.335ZM 12.9482 5.72C 13.7082 5.72 14.3882 5.855 14.9882 6.125C 15.5882 6.385 16.0582 6.75 16.3982 7.22C 16.7382 7.69 16.9082 8.22 16.9082 8.81C 16.9082 9.25 16.7882 9.645 16.5482 9.995C 16.3082 10.345 15.9382 10.675 15.4382 10.985C 15.3582 11.035 15.3182 11.08 15.3182 11.12C 15.3182 11.16 15.3532 11.2 15.4232 11.24C 16.1232 11.59 16.6282 11.98 16.9382 12.41C 17.2482 12.84 17.4032 13.345 17.4032 13.925C 17.4032 14.585 17.2132 15.16 16.8332 15.65C 16.4532 16.13 15.9182 16.5 15.2282 16.76C 14.5482 17.02 13.7632 17.15 12.8732 17.15C 11.5832 17.15 10.5532 16.895 9.7832 16.385C 9.0132 15.875 8.6282 15.165 8.6282 14.255C 8.6282 13.735 8.7582 13.275 9.0182 12.875C 9.2882 12.475 9.7332 12.09 10.3532 11.72C 10.4532 11.66 10.5032 11.615 10.5032 11.585C 10.5032 11.545 10.4582 11.495 10.3682 11.435C 9.9182 11.145 9.5632 10.815 9.3032 10.445C 9.0532 10.075 8.9282 9.615 8.9282 9.065C 8.9282 8.445 9.0932 7.88 9.4232 7.37C 9.7532 6.86 10.2232 6.46 10.8332 6.17C 11.4432 5.87 12.1482 5.72 12.9482 5.72ZM 12.9782 7.22C 12.4182 7.22 11.9482 7.37 11.5682 7.67C 11.1982 7.97 11.0132 8.355 11.0132 8.825C 11.0132 9.545 11.4182 10.005 12.2282 10.205L 13.5332 10.565C 13.5632 10.575 13.6032 10.58 13.6532 10.58C 13.8432 10.58 14.0432 10.495 14.2532 10.325C 14.4732 10.145 14.6532 9.92 14.7932 9.65C 14.9432 9.38 15.0182 9.11 15.0182 8.84C 15.0182 8.37 14.8332 7.985 14.4632 7.685C 14.0932 7.375 13.5982 7.22 12.9782 7.22ZM 13.0082 15.65C 13.6882 15.65 14.2232 15.51 14.6132 15.23C 15.0032 14.94 15.1982 14.55 15.1982 14.06C 15.1982 13.69 15.0932 13.39 14.8832 13.16C 14.6832 12.92 14.3432 12.735 13.8632 12.605L 12.2582 12.17C 12.1782 12.15 12.1182 12.14 12.0782 12.14C 11.8682 12.14 11.6382 12.22 11.3882 12.38C 11.1482 12.54 10.9432 12.76 10.7732 13.04C 10.6132 13.31 10.5332 13.61 10.5332 13.94C 10.5332 14.48 10.7382 14.9 11.1482 15.2C 11.5682 15.5 12.1882 15.65 13.0082 15.65ZM 20.6842 9.05C 20.8742 9.05 20.9692 9.14 20.9692 9.32L 20.9692 9.83C 20.9692 9.91 20.9942 9.95 21.0442 9.95C 21.0742 9.95 21.1142 9.925 21.1642 9.875C 21.4842 9.575 21.8042 9.34 22.1242 9.17C 22.4542 8.99 22.8842 8.9 23.4142 8.9C 24.0242 8.9 24.5642 9.05 25.0342 9.35C 25.5142 9.65 25.8892 10.105 26.1592 10.715C 26.4292 11.315 26.5642 12.055 26.5642 12.935C 26.5642 14.305 26.2642 15.35 25.6642 16.07C 25.0642 16.79 24.2692 17.15 23.2792 17.15C 22.4792 17.15 21.7992 16.895 21.2392 16.385C 21.1392 16.305 21.0742 16.265 21.0442 16.265C 20.9942 16.265 20.9692 16.335 20.9692 16.475L 20.9692 19.235C 20.9692 19.395 20.8992 19.475 20.7592 19.475L 19.2292 19.475C 19.0892 19.475 19.0192 19.395 19.0192 19.235L 19.0192 9.35C 19.0192 9.24 19.0392 9.165 19.0792 9.125C 19.1292 9.075 19.2092 9.05 19.3192 9.05L 20.6842 9.05ZM 20.9692 15.05C 21.4692 15.6 22.0142 15.875 22.6042 15.875C 23.2242 15.875 23.7092 15.635 24.0592 15.155C 24.4092 14.665 24.5842 13.92 24.5842 12.92C 24.5842 11.96 24.4092 11.265 24.0592 10.835C 23.7192 10.395 23.2542 10.175 22.6642 10.175C 22.3442 10.175 22.0542 10.245 21.7942 10.385C 21.5342 10.515 21.3292 10.685 21.1792 10.895C 21.0392 11.105 20.9692 11.325 20.9692 11.555L 20.9692 15.05ZM 34.8032 16.565C 34.9132 16.705 34.9682 16.81 34.9682 16.88C 34.9682 16.96 34.8832 17 34.7132 17L 33.0932 17C 32.8932 17 32.7482 16.935 32.6582 16.805L 30.9182 14.36C 30.8482 14.26 30.7932 14.21 30.7532 14.21C 30.7132 14.21 30.6582 14.26 30.5882 14.36L 28.8032 16.805C 28.7132 16.935 28.5682 17 28.3682 17L 27.3182 17C 27.1082 17 27.0032 16.935 27.0032 16.805C 27.0032 16.745 27.0582 16.635 27.1682 16.475L 29.7182 13.205C 29.7782 13.125 29.8082 13.065 29.8082 13.025C 29.8082 12.965 29.7732 12.885 29.7032 12.785L 27.2132 9.41C 27.1732 9.37 27.1532 9.315 27.1532 9.245C 27.1532 9.185 27.1732 9.14 27.2132 9.11C 27.2632 9.07 27.3282 9.05 27.4082 9.05L 28.9532 9.05C 29.0632 9.05 29.1432 9.065 29.1932 9.095C 29.2532 9.125 29.3132 9.175 29.3732 9.245L 30.9782 11.495C 31.0282 11.555 31.0682 11.585 31.0982 11.585C 31.1382 11.585 31.1782 11.555 31.2182 11.495L 32.7632 9.245C 32.8132 9.175 32.8682 9.125 32.9282 9.095C 32.9882 9.065 33.0732 9.05 33.1832 9.05L 34.3382 9.05C 34.4882 9.05 34.5632 9.095 34.5632 9.185C 34.5632 9.225 34.5382 9.28 34.4882 9.35L 32.1482 12.5C 32.0882 12.57 32.0582 12.635 32.0582 12.695C 32.0582 12.735 32.0932 12.81 32.1632 12.92L 34.8032 16.565ZM 50.6909 13.43C 50.6909 13.57 50.6109 13.64 50.4509 13.64L 39.5459 13.64C 39.4759 13.64 39.4259 13.63 39.3959 13.61C 39.3659 13.58 39.3509 13.53 39.3509 13.46L 39.3509 12.8C 39.3509 12.69 39.3959 12.635 39.4859 12.635L 50.5409 12.62C 50.6409 12.62 50.6909 12.67 50.6909 12.77L 50.6909 13.43ZM 56.5068 17C 56.3668 17 56.2968 16.925 56.2968 16.775L 56.2968 6.08C 56.2968 6 56.3068 5.945 56.3268 5.915C 56.3568 5.885 56.4068 5.87 56.4768 5.87L 57.9168 5.87C 57.9968 5.87 58.0518 5.885 58.0818 5.915C 58.1218 5.935 58.1518 5.975 58.1718 6.035L 61.5018 14.63C 61.5318 14.72 61.5668 14.765 61.6068 14.765C 61.6568 14.765 61.7018 14.715 61.7418 14.615L 65.0718 6.065C 65.1018 5.935 65.1768 5.87 65.2968 5.87L 66.8118 5.87C 66.9218 5.87 66.9768 5.935 66.9768 6.065L 66.9768 16.775C 66.9768 16.925 66.9018 17 66.7518 17L 65.7618 17C 65.6118 17 65.5368 16.935 65.5368 16.805L 65.5368 8.225C 65.5368 8.175 65.5268 8.155 65.5068 8.165C 65.4968 8.165 65.4818 8.185 65.4618 8.225L 62.1618 16.805C 62.1018 16.935 62.0068 17 61.8768 17L 61.1568 17C 61.0068 17 60.9068 16.94 60.8568 16.82L 57.6018 8.315C 57.5918 8.265 57.5768 8.24 57.5568 8.24C 57.5368 8.24 57.5268 8.265 57.5268 8.315L 57.5268 16.805C 57.5268 16.875 57.5118 16.925 57.4818 16.955C 57.4518 16.985 57.3968 17 57.3168 17L 56.5068 17ZM 70.4305 13.52C 70.4305 14 70.5455 14.445 70.7755 14.855C 71.0155 15.265 71.3355 15.59 71.7355 15.83C 72.1355 16.07 72.5755 16.19 73.0555 16.19C 74.0555 16.19 74.8355 15.775 75.3955 14.945C 75.4355 14.905 75.4705 14.885 75.5005 14.885C 75.5305 14.875 75.5655 14.88 75.6055 14.9L 76.2355 15.215C 76.3155 15.265 76.3255 15.335 76.2655 15.425C 75.8755 16.025 75.4105 16.465 74.8705 16.745C 74.3305 17.015 73.6855 17.15 72.9355 17.15C 72.2055 17.15 71.5505 16.98 70.9705 16.64C 70.3905 16.3 69.9355 15.825 69.6055 15.215C 69.2855 14.595 69.1255 13.89 69.1255 13.1C 69.1255 12.25 69.2905 11.51 69.6205 10.88C 69.9505 10.24 70.4005 9.75 70.9705 9.41C 71.5505 9.07 72.2005 8.9 72.9205 8.9C 73.6405 8.9 74.2705 9.06 74.8105 9.38C 75.3605 9.7 75.7855 10.17 76.0855 10.79C 76.3855 11.4 76.5355 12.125 76.5355 12.965L 76.5355 13.025C 76.5355 13.115 76.5205 13.185 76.4905 13.235C 76.4605 13.275 76.4005 13.295 76.3105 13.295L 70.5655 13.295C 70.4755 13.295 70.4305 13.37 70.4305 13.52ZM 75.0205 12.47C 75.1305 12.47 75.2005 12.46 75.2305 12.44C 75.2605 12.41 75.2755 12.35 75.2755 12.26C 75.2755 11.82 75.1805 11.415 74.9905 11.045C 74.8105 10.665 74.5405 10.365 74.1805 10.145C 73.8305 9.915 73.4205 9.8 72.9505 9.8C 72.4405 9.8 71.9955 9.93 71.6155 10.19C 71.2355 10.44 70.9455 10.77 70.7455 11.18C 70.5455 11.58 70.4505 12.01 70.4605 12.47L 75.0205 12.47ZM 83.9614 17C 83.8214 17 83.7514 16.93 83.7514 16.79L 83.7514 16.145C 83.7514 16.055 83.7264 16.01 83.6764 16.01C 83.6464 16.01 83.6064 16.035 83.5564 16.085C 83.2564 16.385 82.9264 16.64 82.5664 16.85C 82.2164 17.05 81.7614 17.15 81.2014 17.15C 80.5614 17.15 79.9914 17 79.4914 16.7C 78.9914 16.4 78.5964 15.95 78.3064 15.35C 78.0164 14.74 77.8714 14.005 77.8714 13.145C 77.8714 12.305 78.0214 11.565 78.3214 10.925C 78.6214 10.285 79.0364 9.79 79.5664 9.44C 80.0964 9.08 80.7014 8.9 81.3814 8.9C 81.8314 8.9 82.2214 8.97 82.5514 9.11C 82.8814 9.25 83.1914 9.445 83.4814 9.695C 83.5614 9.755 83.6164 9.785 83.6464 9.785C 83.6964 9.785 83.7214 9.72 83.7214 9.59L 83.7214 6.065C 83.7214 5.935 83.7764 5.87 83.8864 5.87L 84.8014 5.87C 84.9114 5.87 84.9664 5.935 84.9664 6.065L 84.9664 16.76C 84.9664 16.85 84.9514 16.915 84.9214 16.955C 84.8914 16.985 84.8264 17 84.7264 17L 83.9614 17ZM 83.7064 10.805C 83.3864 10.485 83.0614 10.245 82.7314 10.085C 82.4114 9.915 82.0614 9.83 81.6814 9.83C 80.9214 9.83 80.3114 10.115 79.8514 10.685C 79.3914 11.255 79.1614 12.06 79.1614 13.1C 79.1614 14.15 79.3864 14.935 79.8364 15.455C 80.2964 15.975 80.8814 16.235 81.5914 16.235C 81.9814 16.235 82.3364 16.145 82.6564 15.965C 82.9864 15.775 83.2414 15.54 83.4214 15.26C 83.6114 14.98 83.7064 14.7 83.7064 14.42L 83.7064 10.805ZM 88.6059 7.34C 88.6059 7.44 88.5859 7.515 88.5459 7.565C 88.5059 7.605 88.4359 7.625 88.3359 7.625L 87.4659 7.625C 87.3159 7.625 87.2409 7.54 87.2409 7.37L 87.2409 6.11C 87.2409 5.95 87.3109 5.87 87.4509 5.87L 88.3959 5.87C 88.4559 5.87 88.5059 5.89 88.5459 5.93C 88.5859 5.97 88.6059 6.025 88.6059 6.095L 88.6059 7.34ZM 88.5459 16.745C 88.5459 16.845 88.5259 16.915 88.4859 16.955C 88.4459 16.985 88.3759 17 88.2759 17L 87.5109 17C 87.4209 17 87.3609 16.985 87.3309 16.955C 87.3009 16.925 87.2859 16.87 87.2859 16.79L 87.2859 9.26C 87.2859 9.12 87.3459 9.05 87.4659 9.05L 88.3809 9.05C 88.4909 9.05 88.5459 9.115 88.5459 9.245L 88.5459 16.745ZM 93.5747 16.16C 93.9847 16.16 94.3847 16.05 94.7747 15.83C 95.1747 15.6 95.5797 15.275 95.9897 14.855L 95.9897 9.26C 95.9897 9.12 96.0697 9.05 96.2297 9.05L 97.0547 9.05C 97.1947 9.05 97.2647 9.12 97.2647 9.26L 97.2347 16.805C 97.2347 16.935 97.1797 17 97.0697 17L 96.1997 17C 96.0897 17 96.0347 16.945 96.0347 16.835L 96.0347 15.95C 96.0347 15.83 95.9897 15.815 95.8997 15.905C 95.3597 16.365 94.8797 16.69 94.4597 16.88C 94.0397 17.06 93.6097 17.15 93.1697 17.15C 92.4697 17.15 91.8947 16.94 91.4447 16.52C 90.9947 16.1 90.7697 15.545 90.7697 14.855L 90.7697 9.275C 90.7697 9.125 90.8447 9.05 90.9947 9.05L 91.8347 9.05C 91.9647 9.05 92.0297 9.12 92.0297 9.26L 92.0297 14.525C 92.0297 15.025 92.1647 15.425 92.4347 15.725C 92.7147 16.015 93.0947 16.16 93.5747 16.16ZM 99.7712 17C 99.6312 17 99.5612 16.935 99.5612 16.805L 99.5612 9.245C 99.5612 9.115 99.6162 9.05 99.7262 9.05L 100.626 9.05C 100.726 9.05 100.776 9.105 100.776 9.215L 100.776 10.085C 100.776 10.205 100.826 10.22 100.926 10.13C 101.466 9.69 101.926 9.375 102.306 9.185C 102.686 8.995 103.111 8.9 103.581 8.9C 104.141 8.9 104.601 9.025 104.961 9.275C 105.331 9.525 105.581 9.84 105.711 10.22C 105.731 10.25 105.751 10.265 105.771 10.265C 105.801 10.265 105.851 10.24 105.921 10.19C 106.441 9.75 106.906 9.425 107.316 9.215C 107.736 9.005 108.176 8.9 108.636 8.9C 109.356 8.9 109.916 9.105 110.316 9.515C 110.726 9.925 110.931 10.48 110.931 11.18L 110.931 16.76C 110.931 16.92 110.856 17 110.706 17L 109.866 17C 109.736 17 109.671 16.935 109.671 16.805L 109.671 11.45C 109.671 10.95 109.551 10.565 109.311 10.295C 109.071 10.025 108.711 9.89 108.231 9.89C 107.831 9.89 107.456 9.99 107.106 10.19C 106.756 10.38 106.416 10.62 106.086 10.91C 106.006 10.99 105.951 11.06 105.921 11.12C 105.891 11.18 105.876 11.255 105.876 11.345L 105.876 16.76C 105.876 16.92 105.801 17 105.651 17L 104.811 17C 104.681 17 104.616 16.935 104.616 16.805L 104.616 11.45C 104.616 10.41 104.136 9.89 103.176 9.89C 102.776 9.89 102.406 9.985 102.066 10.175C 101.736 10.355 101.321 10.665 100.821 11.105L 100.821 16.775C 100.821 16.855 100.801 16.915 100.761 16.955C 100.731 16.985 100.676 17 100.596 17L 99.7712 17Z" transform="translate(0 73)" fill="#494949"/>
<path id="30px &#226;&#128;&#148; Large" d="M 1.27133 7.55C 1.23133 7.49 1.21133 7.445 1.21133 7.415C 1.21133 7.385 1.23133 7.33 1.27133 7.25C 1.70133 6.76 2.24133 6.385 2.89133 6.125C 3.55133 5.855 4.26133 5.72 5.02133 5.72C 5.84133 5.72 6.55633 5.845 7.16633 6.095C 7.77633 6.335 8.24133 6.675 8.56133 7.115C 8.89133 7.545 9.05633 8.04 9.05633 8.6C 9.05633 9.11 8.89633 9.58 8.57633 10.01C 8.25633 10.44 7.81133 10.745 7.24133 10.925C 7.13133 10.955 7.07633 11 7.07633 11.06C 7.07633 11.11 7.13133 11.15 7.24133 11.18C 7.88133 11.38 8.40133 11.715 8.80133 12.185C 9.20133 12.655 9.40133 13.205 9.40133 13.835C 9.40133 14.875 9.01133 15.69 8.23133 16.28C 7.46133 16.86 6.32633 17.15 4.82633 17.15C 3.99633 17.15 3.23133 16.995 2.53133 16.685C 1.83133 16.375 1.26133 15.94 0.821328 15.38C 0.771328 15.31 0.746328 15.255 0.746328 15.215C 0.746328 15.135 0.791328 15.065 0.881328 15.005L 1.87133 14.285C 1.95133 14.235 2.01133 14.21 2.05133 14.21C 2.10133 14.21 2.14133 14.235 2.17133 14.285C 2.63133 14.755 3.06633 15.085 3.47633 15.275C 3.89633 15.465 4.39133 15.56 4.96133 15.56C 5.66133 15.56 6.21133 15.405 6.61133 15.095C 7.02133 14.785 7.22633 14.38 7.22633 13.88C 7.22633 13.32 6.99633 12.88 6.53633 12.56C 6.08633 12.23 5.53633 12.06 4.88633 12.05L 3.58133 12.035C 3.42133 12.035 3.34133 11.97 3.34133 11.84L 3.34133 10.655C 3.34133 10.545 3.42133 10.48 3.58133 10.46L 4.63133 10.43C 5.29133 10.41 5.83133 10.245 6.25133 9.935C 6.68133 9.615 6.89633 9.21 6.89633 8.72C 6.89633 8.31 6.71633 7.97 6.35633 7.7C 5.99633 7.42 5.54133 7.28 4.99133 7.28C 4.52133 7.28 4.08633 7.37 3.68633 7.55C 3.28633 7.73 2.88633 8.01 2.48633 8.39C 2.41633 8.46 2.36133 8.495 2.32133 8.495C 2.28133 8.495 2.23133 8.465 2.17133 8.405L 1.27133 7.55ZM 15.3894 5.705C 16.2394 5.705 16.9994 5.94 17.6694 6.41C 18.3494 6.87 18.8794 7.54 19.2594 8.42C 19.6494 9.29 19.8444 10.305 19.8444 11.465C 19.8444 12.625 19.6544 13.635 19.2744 14.495C 18.8944 15.345 18.3644 16 17.6844 16.46C 17.0144 16.91 16.2444 17.135 15.3744 17.135C 14.5044 17.135 13.7294 16.91 13.0494 16.46C 12.3794 16 11.8494 15.345 11.4594 14.495C 11.0794 13.645 10.8894 12.64 10.8894 11.48C 10.8894 10.31 11.0844 9.29 11.4744 8.42C 11.8644 7.55 12.3994 6.88 13.0794 6.41C 13.7594 5.94 14.5294 5.705 15.3894 5.705ZM 15.3744 15.545C 16.1144 15.545 16.6694 15.225 17.0394 14.585C 17.4094 13.935 17.5944 12.9 17.5944 11.48C 17.5944 10.03 17.4044 8.97 17.0244 8.3C 16.6544 7.62 16.1044 7.28 15.3744 7.28C 13.8844 7.28 13.1394 8.68 13.1394 11.48C 13.1394 12.89 13.3294 13.92 13.7094 14.57C 14.0894 15.22 14.6444 15.545 15.3744 15.545ZM 23.237 9.05C 23.427 9.05 23.522 9.14 23.522 9.32L 23.522 9.83C 23.522 9.91 23.547 9.95 23.597 9.95C 23.627 9.95 23.667 9.925 23.717 9.875C 24.037 9.575 24.357 9.34 24.677 9.17C 25.007 8.99 25.437 8.9 25.967 8.9C 26.577 8.9 27.117 9.05 27.587 9.35C 28.067 9.65 28.442 10.105 28.712 10.715C 28.982 11.315 29.117 12.055 29.117 12.935C 29.117 14.305 28.817 15.35 28.217 16.07C 27.617 16.79 26.822 17.15 25.832 17.15C 25.032 17.15 24.352 16.895 23.792 16.385C 23.692 16.305 23.627 16.265 23.597 16.265C 23.547 16.265 23.522 16.335 23.522 16.475L 23.522 19.235C 23.522 19.395 23.452 19.475 23.312 19.475L 21.782 19.475C 21.642 19.475 21.572 19.395 21.572 19.235L 21.572 9.35C 21.572 9.24 21.592 9.165 21.632 9.125C 21.682 9.075 21.762 9.05 21.872 9.05L 23.237 9.05ZM 23.522 15.05C 24.022 15.6 24.567 15.875 25.157 15.875C 25.777 15.875 26.262 15.635 26.612 15.155C 26.962 14.665 27.137 13.92 27.137 12.92C 27.137 11.96 26.962 11.265 26.612 10.835C 26.272 10.395 25.807 10.175 25.217 10.175C 24.897 10.175 24.607 10.245 24.347 10.385C 24.087 10.515 23.882 10.685 23.732 10.895C 23.592 11.105 23.522 11.325 23.522 11.555L 23.522 15.05ZM 37.3559 16.565C 37.4659 16.705 37.5209 16.81 37.5209 16.88C 37.5209 16.96 37.4359 17 37.2659 17L 35.6459 17C 35.4459 17 35.3009 16.935 35.2109 16.805L 33.4709 14.36C 33.4009 14.26 33.3459 14.21 33.3059 14.21C 33.2659 14.21 33.2109 14.26 33.1409 14.36L 31.3559 16.805C 31.2659 16.935 31.1209 17 30.9209 17L 29.8709 17C 29.6609 17 29.5559 16.935 29.5559 16.805C 29.5559 16.745 29.6109 16.635 29.7209 16.475L 32.2709 13.205C 32.3309 13.125 32.3609 13.065 32.3609 13.025C 32.3609 12.965 32.3259 12.885 32.2559 12.785L 29.7659 9.41C 29.7259 9.37 29.7059 9.315 29.7059 9.245C 29.7059 9.185 29.7259 9.14 29.7659 9.11C 29.8159 9.07 29.8809 9.05 29.9609 9.05L 31.5059 9.05C 31.6159 9.05 31.6959 9.065 31.7459 9.095C 31.8059 9.125 31.8659 9.175 31.9259 9.245L 33.5309 11.495C 33.5809 11.555 33.6209 11.585 33.6509 11.585C 33.6909 11.585 33.7309 11.555 33.7709 11.495L 35.3159 9.245C 35.3659 9.175 35.4209 9.125 35.4809 9.095C 35.5409 9.065 35.6259 9.05 35.7359 9.05L 36.8909 9.05C 37.0409 9.05 37.1159 9.095 37.1159 9.185C 37.1159 9.225 37.0909 9.28 37.0409 9.35L 34.7009 12.5C 34.6409 12.57 34.6109 12.635 34.6109 12.695C 34.6109 12.735 34.6459 12.81 34.7159 12.92L 37.3559 16.565ZM 53.2436 13.43C 53.2436 13.57 53.1636 13.64 53.0036 13.64L 42.0986 13.64C 42.0286 13.64 41.9786 13.63 41.9486 13.61C 41.9186 13.58 41.9036 13.53 41.9036 13.46L 41.9036 12.8C 41.9036 12.69 41.9486 12.635 42.0386 12.635L 53.0936 12.62C 53.1936 12.62 53.2436 12.67 53.2436 12.77L 53.2436 13.43ZM 58.8495 6.08C 58.8495 5.94 58.9095 5.87 59.0295 5.87L 60.1095 5.87C 60.2295 5.87 60.2895 5.935 60.2895 6.065L 60.2895 15.74C 60.2895 15.8 60.2995 15.84 60.3195 15.86C 60.3395 15.88 60.3795 15.89 60.4395 15.89L 65.6295 15.89C 65.6895 15.89 65.7345 15.9 65.7645 15.92C 65.7945 15.94 65.8095 15.98 65.8095 16.04L 65.8095 16.835C 65.8095 16.945 65.7495 17 65.6295 17L 59.0595 17C 58.9795 17 58.9245 16.985 58.8945 16.955C 58.8645 16.925 58.8495 16.87 58.8495 16.79L 58.8495 6.08ZM 72.193 16.04C 71.423 16.78 70.533 17.15 69.523 17.15C 68.743 17.15 68.128 16.955 67.678 16.565C 67.238 16.165 67.018 15.635 67.018 14.975C 67.018 14.175 67.353 13.545 68.023 13.085C 68.703 12.625 69.683 12.355 70.963 12.275L 72.133 12.185C 72.303 12.165 72.388 12.09 72.388 11.96L 72.388 11.555C 72.388 11.015 72.218 10.59 71.878 10.28C 71.548 9.96 71.098 9.8 70.528 9.8C 69.648 9.8 68.928 10.2 68.368 11C 68.338 11.05 68.308 11.085 68.278 11.105C 68.248 11.115 68.208 11.11 68.158 11.09L 67.348 10.82C 67.298 10.8 67.273 10.765 67.273 10.715C 67.273 10.685 67.288 10.64 67.318 10.58C 67.618 10.05 68.043 9.64 68.593 9.35C 69.153 9.05 69.813 8.9 70.573 8.9C 71.553 8.9 72.303 9.13 72.823 9.59C 73.343 10.04 73.603 10.665 73.603 11.465L 73.603 16.775C 73.603 16.865 73.588 16.925 73.558 16.955C 73.528 16.985 73.473 17 73.393 17L 72.643 17C 72.523 17 72.453 16.92 72.433 16.76L 72.403 16.07C 72.393 16 72.368 15.965 72.328 15.965C 72.288 15.965 72.243 15.99 72.193 16.04ZM 72.388 13.19C 72.388 13.03 72.313 12.95 72.163 12.95L 71.188 13.04C 70.258 13.1 69.538 13.28 69.028 13.58C 68.528 13.88 68.278 14.295 68.278 14.825C 68.278 15.255 68.428 15.595 68.728 15.845C 69.038 16.095 69.448 16.22 69.958 16.22C 70.268 16.22 70.573 16.165 70.873 16.055C 71.173 15.945 71.438 15.795 71.668 15.605C 71.898 15.425 72.073 15.235 72.193 15.035C 72.323 14.825 72.388 14.625 72.388 14.435L 72.388 13.19ZM 76.0007 17C 75.8607 17 75.7907 16.935 75.7907 16.805L 75.7907 9.245C 75.7907 9.115 75.8457 9.05 75.9557 9.05L 76.8257 9.05C 76.9357 9.05 76.9907 9.105 76.9907 9.215L 76.9907 10.19C 76.9907 10.25 77.0057 10.285 77.0357 10.295C 77.0757 10.305 77.1157 10.285 77.1557 10.235C 77.9157 9.345 78.6907 8.9 79.4807 8.9C 79.8307 8.9 80.0057 8.965 80.0057 9.095L 80.0057 9.995C 80.0057 10.095 79.9607 10.135 79.8707 10.115C 79.6907 10.085 79.4657 10.07 79.1957 10.07C 78.9057 10.07 78.5907 10.155 78.2507 10.325C 77.9107 10.495 77.6257 10.715 77.3957 10.985C 77.1657 11.255 77.0507 11.53 77.0507 11.81L 77.0507 16.775C 77.0507 16.925 76.9757 17 76.8257 17L 76.0007 17ZM 88.7179 8.915C 88.9079 8.915 89.0029 8.995 89.0029 9.155L 89.0029 9.68C 89.0029 9.78 88.9779 9.855 88.9279 9.905C 88.8879 9.945 88.8129 9.96 88.7029 9.95C 88.3729 9.95 88.1129 9.995 87.9229 10.085C 87.6829 10.185 87.5829 10.3 87.6229 10.43C 87.6329 10.47 87.6629 10.545 87.7129 10.655C 87.7629 10.765 87.8029 10.89 87.8329 11.03C 87.8629 11.16 87.8779 11.3 87.8779 11.45C 87.8779 12.16 87.5979 12.74 87.0379 13.19C 86.4879 13.64 85.6829 13.865 84.6229 13.865C 83.9129 13.865 83.4029 13.925 83.0929 14.045C 82.7829 14.165 82.6279 14.32 82.6279 14.51C 82.6279 14.66 82.7329 14.775 82.9429 14.855C 83.1529 14.925 83.5029 14.975 83.9929 15.005L 85.9279 15.11C 86.7879 15.16 87.4279 15.365 87.8479 15.725C 88.2679 16.085 88.4779 16.575 88.4779 17.195C 88.4779 17.955 88.1429 18.55 87.4729 18.98C 86.8129 19.41 85.8679 19.625 84.6379 19.625C 83.3679 19.625 82.3979 19.44 81.7279 19.07C 81.0679 18.71 80.7379 18.19 80.7379 17.51C 80.7379 16.84 81.2079 16.275 82.1479 15.815C 82.2579 15.765 82.2579 15.71 82.1479 15.65C 81.6879 15.45 81.4579 15.155 81.4579 14.765C 81.4579 14.545 81.5579 14.335 81.7579 14.135C 81.9679 13.935 82.2629 13.77 82.6429 13.64C 82.6929 13.63 82.7179 13.605 82.7179 13.565C 82.7179 13.515 82.6929 13.48 82.6429 13.46C 82.2029 13.23 81.8779 12.955 81.6679 12.635C 81.4579 12.305 81.3529 11.91 81.3529 11.45C 81.3529 10.67 81.6479 10.055 82.2379 9.605C 82.8279 9.155 83.6629 8.93 84.7429 8.93C 85.6929 8.93 86.4429 9.155 86.9929 9.605C 87.0629 9.655 87.1129 9.68 87.1429 9.68C 87.1829 9.68 87.2379 9.655 87.3079 9.605C 87.4979 9.415 87.7179 9.255 87.9679 9.125C 88.2279 8.985 88.4779 8.915 88.7179 8.915ZM 84.6229 13.07C 85.3129 13.07 85.8279 12.93 86.1679 12.65C 86.5179 12.37 86.6929 11.965 86.6929 11.435C 86.6929 10.895 86.5179 10.475 86.1679 10.175C 85.8179 9.875 85.3029 9.725 84.6229 9.725C 83.9629 9.725 83.4479 9.88 83.0779 10.19C 82.7079 10.49 82.5229 10.905 82.5229 11.435C 82.5229 11.955 82.7029 12.36 83.0629 12.65C 83.4329 12.93 83.9529 13.07 84.6229 13.07ZM 83.3029 16.025C 83.1229 16.015 82.9179 16.07 82.6879 16.19C 82.4579 16.3 82.2629 16.46 82.1029 16.67C 81.9429 16.88 81.8629 17.11 81.8629 17.36C 81.8629 17.84 82.1079 18.205 82.5979 18.455C 83.0879 18.715 83.8129 18.845 84.7729 18.845C 86.4629 18.845 87.3079 18.345 87.3079 17.345C 87.3079 16.995 87.1879 16.72 86.9479 16.52C 86.7179 16.32 86.3379 16.205 85.8079 16.175L 83.3029 16.025ZM 91.2792 13.52C 91.2792 14 91.3942 14.445 91.6242 14.855C 91.8642 15.265 92.1842 15.59 92.5842 15.83C 92.9842 16.07 93.4242 16.19 93.9042 16.19C 94.9042 16.19 95.6842 15.775 96.2442 14.945C 96.2842 14.905 96.3192 14.885 96.3492 14.885C 96.3792 14.875 96.4142 14.88 96.4542 14.9L 97.0842 15.215C 97.1642 15.265 97.1742 15.335 97.1142 15.425C 96.7242 16.025 96.2592 16.465 95.7192 16.745C 95.1792 17.015 94.5342 17.15 93.7842 17.15C 93.0542 17.15 92.3992 16.98 91.8192 16.64C 91.2392 16.3 90.7842 15.825 90.4542 15.215C 90.1342 14.595 89.9742 13.89 89.9742 13.1C 89.9742 12.25 90.1392 11.51 90.4692 10.88C 90.7992 10.24 91.2492 9.75 91.8192 9.41C 92.3992 9.07 93.0492 8.9 93.7692 8.9C 94.4892 8.9 95.1192 9.06 95.6592 9.38C 96.2092 9.7 96.6342 10.17 96.9342 10.79C 97.2342 11.4 97.3842 12.125 97.3842 12.965L 97.3842 13.025C 97.3842 13.115 97.3692 13.185 97.3392 13.235C 97.3092 13.275 97.2492 13.295 97.1592 13.295L 91.4142 13.295C 91.3242 13.295 91.2792 13.37 91.2792 13.52ZM 95.8692 12.47C 95.9792 12.47 96.0492 12.46 96.0792 12.44C 96.1092 12.41 96.1242 12.35 96.1242 12.26C 96.1242 11.82 96.0292 11.415 95.8392 11.045C 95.6592 10.665 95.3892 10.365 95.0292 10.145C 94.6792 9.915 94.2692 9.8 93.7992 9.8C 93.2892 9.8 92.8442 9.93 92.4642 10.19C 92.0842 10.44 91.7942 10.77 91.5942 11.18C 91.3942 11.58 91.2992 12.01 91.3092 12.47L 95.8692 12.47Z" transform="translate(0 121)" fill="#494949"/>
<rect id="Rectangle 2.6" width="883" height="48" transform="translate(0 198)" fill="#CC3BC6" fill-opacity="0.2"/>
<path id="48px &#226;&#128;&#148; Giant" d="M 6.05328 6.11C 6.13328 6.01 6.20828 5.945 6.27828 5.915C 6.34828 5.885 6.44828 5.87 6.57828 5.87L 8.16828 5.87C 8.30828 5.87 8.37828 5.95 8.37828 6.11L 8.37828 12.545C 8.37828 12.595 8.39328 12.635 8.42328 12.665C 8.45328 12.695 8.48828 12.71 8.52828 12.71L 9.81828 12.71C 9.98828 12.71 10.0733 12.775 10.0733 12.905L 10.0733 14C 10.0733 14.17 9.98328 14.255 9.80328 14.255L 8.54328 14.255C 8.43328 14.255 8.37828 14.31 8.37828 14.42L 8.37828 16.7C 8.37828 16.81 8.35328 16.89 8.30328 16.94C 8.25328 16.98 8.16828 17 8.04828 17L 6.41328 17C 6.22328 17 6.12828 16.91 6.12828 16.73L 6.14328 14.375C 6.14328 14.295 6.08828 14.255 5.97828 14.255L 1.34328 14.255C 1.16328 14.255 1.07328 14.17 1.07328 14L 1.07328 12.92C 1.07328 12.84 1.09828 12.755 1.14828 12.665C 1.19828 12.565 1.28328 12.435 1.40328 12.275L 6.05328 6.11ZM 6.00828 12.71C 6.04828 12.71 6.07828 12.7 6.09828 12.68C 6.12828 12.66 6.14328 12.635 6.14328 12.605L 6.14328 8.435C 6.14328 8.295 6.12328 8.225 6.08328 8.225C 6.06328 8.225 6.01328 8.275 5.93328 8.375L 2.90328 12.515C 2.86328 12.575 2.84328 12.615 2.84328 12.635C 2.84328 12.685 2.89828 12.71 3.00828 12.71L 6.00828 12.71ZM 15.6504 5.72C 16.4104 5.72 17.0904 5.855 17.6904 6.125C 18.2904 6.385 18.7604 6.75 19.1004 7.22C 19.4404 7.69 19.6104 8.22 19.6104 8.81C 19.6104 9.25 19.4904 9.645 19.2504 9.995C 19.0104 10.345 18.6404 10.675 18.1404 10.985C 18.0604 11.035 18.0204 11.08 18.0204 11.12C 18.0204 11.16 18.0554 11.2 18.1254 11.24C 18.8254 11.59 19.3304 11.98 19.6404 12.41C 19.9504 12.84 20.1054 13.345 20.1054 13.925C 20.1054 14.585 19.9154 15.16 19.5354 15.65C 19.1554 16.13 18.6204 16.5 17.9304 16.76C 17.2504 17.02 16.4654 17.15 15.5754 17.15C 14.2854 17.15 13.2554 16.895 12.4854 16.385C 11.7154 15.875 11.3304 15.165 11.3304 14.255C 11.3304 13.735 11.4604 13.275 11.7204 12.875C 11.9904 12.475 12.4354 12.09 13.0554 11.72C 13.1554 11.66 13.2054 11.615 13.2054 11.585C 13.2054 11.545 13.1604 11.495 13.0704 11.435C 12.6204 11.145 12.2654 10.815 12.0054 10.445C 11.7554 10.075 11.6304 9.615 11.6304 9.065C 11.6304 8.445 11.7954 7.88 12.1254 7.37C 12.4554 6.86 12.9254 6.46 13.5354 6.17C 14.1454 5.87 14.8504 5.72 15.6504 5.72ZM 15.6804 7.22C 15.1204 7.22 14.6504 7.37 14.2704 7.67C 13.9004 7.97 13.7154 8.355 13.7154 8.825C 13.7154 9.545 14.1204 10.005 14.9304 10.205L 16.2354 10.565C 16.2654 10.575 16.3054 10.58 16.3554 10.58C 16.5454 10.58 16.7454 10.495 16.9554 10.325C 17.1754 10.145 17.3554 9.92 17.4954 9.65C 17.6454 9.38 17.7204 9.11 17.7204 8.84C 17.7204 8.37 17.5354 7.985 17.1654 7.685C 16.7954 7.375 16.3004 7.22 15.6804 7.22ZM 15.7104 15.65C 16.3904 15.65 16.9254 15.51 17.3154 15.23C 17.7054 14.94 17.9004 14.55 17.9004 14.06C 17.9004 13.69 17.7954 13.39 17.5854 13.16C 17.3854 12.92 17.0454 12.735 16.5654 12.605L 14.9604 12.17C 14.8804 12.15 14.8204 12.14 14.7804 12.14C 14.5704 12.14 14.3404 12.22 14.0904 12.38C 13.8504 12.54 13.6454 12.76 13.4754 13.04C 13.3154 13.31 13.2354 13.61 13.2354 13.94C 13.2354 14.48 13.4404 14.9 13.8504 15.2C 14.2704 15.5 14.8904 15.65 15.7104 15.65ZM 23.3864 9.05C 23.5764 9.05 23.6714 9.14 23.6714 9.32L 23.6714 9.83C 23.6714 9.91 23.6964 9.95 23.7464 9.95C 23.7764 9.95 23.8164 9.925 23.8664 9.875C 24.1864 9.575 24.5064 9.34 24.8264 9.17C 25.1564 8.99 25.5864 8.9 26.1164 8.9C 26.7264 8.9 27.2664 9.05 27.7364 9.35C 28.2164 9.65 28.5914 10.105 28.8614 10.715C 29.1314 11.315 29.2664 12.055 29.2664 12.935C 29.2664 14.305 28.9664 15.35 28.3664 16.07C 27.7664 16.79 26.9714 17.15 25.9814 17.15C 25.1814 17.15 24.5014 16.895 23.9414 16.385C 23.8414 16.305 23.7764 16.265 23.7464 16.265C 23.6964 16.265 23.6714 16.335 23.6714 16.475L 23.6714 19.235C 23.6714 19.395 23.6014 19.475 23.4614 19.475L 21.9314 19.475C 21.7914 19.475 21.7214 19.395 21.7214 19.235L 21.7214 9.35C 21.7214 9.24 21.7414 9.165 21.7814 9.125C 21.8314 9.075 21.9114 9.05 22.0214 9.05L 23.3864 9.05ZM 23.6714 15.05C 24.1714 15.6 24.7164 15.875 25.3064 15.875C 25.9264 15.875 26.4114 15.635 26.7614 15.155C 27.1114 14.665 27.2864 13.92 27.2864 12.92C 27.2864 11.96 27.1114 11.265 26.7614 10.835C 26.4214 10.395 25.9564 10.175 25.3664 10.175C 25.0464 10.175 24.7564 10.245 24.4964 10.385C 24.2364 10.515 24.0314 10.685 23.8814 10.895C 23.7414 11.105 23.6714 11.325 23.6714 11.555L 23.6714 15.05ZM 37.5054 16.565C 37.6154 16.705 37.6704 16.81 37.6704 16.88C 37.6704 16.96 37.5854 17 37.4154 17L 35.7954 17C 35.5954 17 35.4504 16.935 35.3604 16.805L 33.6204 14.36C 33.5504 14.26 33.4954 14.21 33.4554 14.21C 33.4154 14.21 33.3604 14.26 33.2904 14.36L 31.5054 16.805C 31.4154 16.935 31.2704 17 31.0704 17L 30.0204 17C 29.8104 17 29.7054 16.935 29.7054 16.805C 29.7054 16.745 29.7604 16.635 29.8704 16.475L 32.4204 13.205C 32.4804 13.125 32.5104 13.065 32.5104 13.025C 32.5104 12.965 32.4754 12.885 32.4054 12.785L 29.9154 9.41C 29.8754 9.37 29.8554 9.315 29.8554 9.245C 29.8554 9.185 29.8754 9.14 29.9154 9.11C 29.9654 9.07 30.0304 9.05 30.1104 9.05L 31.6554 9.05C 31.7654 9.05 31.8454 9.065 31.8954 9.095C 31.9554 9.125 32.0154 9.175 32.0754 9.245L 33.6804 11.495C 33.7304 11.555 33.7704 11.585 33.8004 11.585C 33.8404 11.585 33.8804 11.555 33.9204 11.495L 35.4654 9.245C 35.5154 9.175 35.5704 9.125 35.6304 9.095C 35.6904 9.065 35.7754 9.05 35.8854 9.05L 37.0404 9.05C 37.1904 9.05 37.2654 9.095 37.2654 9.185C 37.2654 9.225 37.2404 9.28 37.1904 9.35L 34.8504 12.5C 34.7904 12.57 34.7604 12.635 34.7604 12.695C 34.7604 12.735 34.7954 12.81 34.8654 12.92L 37.5054 16.565ZM 53.393 13.43C 53.393 13.57 53.313 13.64 53.153 13.64L 42.248 13.64C 42.178 13.64 42.128 13.63 42.098 13.61C 42.068 13.58 42.053 13.53 42.053 13.46L 42.053 12.8C 42.053 12.69 42.098 12.635 42.188 12.635L 53.243 12.62C 53.343 12.62 53.393 12.67 53.393 12.77L 53.393 13.43ZM 63.1689 17.15C 62.2189 17.15 61.3939 16.925 60.6939 16.475C 59.9939 16.015 59.4539 15.36 59.0739 14.51C 58.7039 13.66 58.5189 12.65 58.5189 11.48C 58.5189 10.29 58.7089 9.26 59.0889 8.39C 59.4789 7.52 60.0289 6.86 60.7389 6.41C 61.4489 5.95 62.2789 5.72 63.2289 5.72C 63.9089 5.72 64.5439 5.86 65.1339 6.14C 65.7339 6.42 66.2239 6.79 66.6039 7.25C 66.9939 7.71 67.2289 8.2 67.3089 8.72L 67.3089 8.81C 67.3089 8.85 67.2989 8.88 67.2789 8.9C 67.2689 8.92 67.2389 8.94 67.1889 8.96L 66.1089 9.125L 66.0789 9.125C 66.0189 9.125 65.9739 9.075 65.9439 8.975C 65.8339 8.365 65.5289 7.855 65.0289 7.445C 64.5289 7.025 63.9239 6.815 63.2139 6.815C 62.1839 6.815 61.3939 7.205 60.8439 7.985C 60.2939 8.765 60.0189 9.9 60.0189 11.39C 60.0189 12.95 60.2939 14.12 60.8439 14.9C 61.3939 15.67 62.1939 16.055 63.2439 16.055C 63.8539 16.055 64.3789 15.92 64.8189 15.65C 65.2589 15.38 65.5889 15.035 65.8089 14.615C 66.0389 14.195 66.1689 13.77 66.1989 13.34L 66.1989 12.44L 66.1989 12.41C 66.1989 12.32 66.1489 12.275 66.0489 12.275L 63.6039 12.275C 63.4939 12.275 63.4389 12.225 63.4389 12.125L 63.4389 11.48C 63.4389 11.39 63.4889 11.345 63.5889 11.345L 67.3089 11.36C 67.4589 11.36 67.5339 11.42 67.5339 11.54L 67.5339 16.805C 67.5339 16.935 67.4739 17 67.3539 17L 67.0089 17C 66.9289 17 66.8689 16.99 66.8289 16.97C 66.7889 16.95 66.7589 16.9 66.7389 16.82L 66.5739 15.425C 66.5639 15.385 66.5439 15.365 66.5139 15.365C 66.4939 15.365 66.4689 15.39 66.4389 15.44C 66.1189 15.95 65.6889 16.365 65.1489 16.685C 64.6189 16.995 63.9589 17.15 63.1689 17.15ZM 71.1078 7.34C 71.1078 7.44 71.0878 7.515 71.0478 7.565C 71.0078 7.605 70.9378 7.625 70.8378 7.625L 69.9678 7.625C 69.8178 7.625 69.7428 7.54 69.7428 7.37L 69.7428 6.11C 69.7428 5.95 69.8128 5.87 69.9528 5.87L 70.8978 5.87C 70.9578 5.87 71.0078 5.89 71.0478 5.93C 71.0878 5.97 71.1078 6.025 71.1078 6.095L 71.1078 7.34ZM 71.0478 16.745C 71.0478 16.845 71.0278 16.915 70.9878 16.955C 70.9478 16.985 70.8778 17 70.7778 17L 70.0128 17C 69.9228 17 69.8628 16.985 69.8328 16.955C 69.8028 16.925 69.7878 16.87 69.7878 16.79L 69.7878 9.26C 69.7878 9.12 69.8478 9.05 69.9678 9.05L 70.8828 9.05C 70.9928 9.05 71.0478 9.115 71.0478 9.245L 71.0478 16.745ZM 77.9967 16.04C 77.2267 16.78 76.3367 17.15 75.3267 17.15C 74.5467 17.15 73.9317 16.955 73.4817 16.565C 73.0417 16.165 72.8217 15.635 72.8217 14.975C 72.8217 14.175 73.1567 13.545 73.8267 13.085C 74.5067 12.625 75.4867 12.355 76.7667 12.275L 77.9367 12.185C 78.1067 12.165 78.1917 12.09 78.1917 11.96L 78.1917 11.555C 78.1917 11.015 78.0217 10.59 77.6817 10.28C 77.3517 9.96 76.9017 9.8 76.3317 9.8C 75.4517 9.8 74.7317 10.2 74.1717 11C 74.1417 11.05 74.1117 11.085 74.0817 11.105C 74.0517 11.115 74.0117 11.11 73.9617 11.09L 73.1517 10.82C 73.1017 10.8 73.0767 10.765 73.0767 10.715C 73.0767 10.685 73.0917 10.64 73.1217 10.58C 73.4217 10.05 73.8467 9.64 74.3967 9.35C 74.9567 9.05 75.6167 8.9 76.3767 8.9C 77.3567 8.9 78.1067 9.13 78.6267 9.59C 79.1467 10.04 79.4067 10.665 79.4067 11.465L 79.4067 16.775C 79.4067 16.865 79.3917 16.925 79.3617 16.955C 79.3317 16.985 79.2767 17 79.1967 17L 78.4467 17C 78.3267 17 78.2567 16.92 78.2367 16.76L 78.2067 16.07C 78.1967 16 78.1717 15.965 78.1317 15.965C 78.0917 15.965 78.0467 15.99 77.9967 16.04ZM 78.1917 13.19C 78.1917 13.03 78.1167 12.95 77.9667 12.95L 76.9917 13.04C 76.0617 13.1 75.3417 13.28 74.8317 13.58C 74.3317 13.88 74.0817 14.295 74.0817 14.825C 74.0817 15.255 74.2317 15.595 74.5317 15.845C 74.8417 16.095 75.2517 16.22 75.7617 16.22C 76.0717 16.22 76.3767 16.165 76.6767 16.055C 76.9767 15.945 77.2417 15.795 77.4717 15.605C 77.7017 15.425 77.8767 15.235 77.9967 15.035C 78.1267 14.825 78.1917 14.625 78.1917 14.435L 78.1917 13.19ZM 81.8045 17C 81.6645 17 81.5945 16.935 81.5945 16.805L 81.5945 9.245C 81.5945 9.115 81.6495 9.05 81.7595 9.05L 82.6595 9.05C 82.7695 9.05 82.8245 9.105 82.8245 9.215L 82.8245 10.085C 82.8245 10.195 82.8695 10.21 82.9595 10.13C 83.5195 9.69 83.9945 9.375 84.3845 9.185C 84.7845 8.995 85.2295 8.9 85.7195 8.9C 86.4795 8.9 87.0695 9.105 87.4895 9.515C 87.9195 9.925 88.1345 10.475 88.1345 11.165L 88.1345 16.76C 88.1345 16.92 88.0595 17 87.9095 17L 87.0695 17C 86.9395 17 86.8745 16.935 86.8745 16.805L 86.8745 11.45C 86.8745 10.95 86.7445 10.565 86.4845 10.295C 86.2345 10.025 85.8445 9.89 85.3145 9.89C 84.8945 9.89 84.5045 9.985 84.1445 10.175C 83.7945 10.355 83.3645 10.665 82.8545 11.105L 82.8545 16.775C 82.8545 16.855 82.8345 16.915 82.7945 16.955C 82.7645 16.985 82.7095 17 82.6295 17L 81.8045 17ZM 92.4542 9.98C 92.3742 9.98 92.3342 10.025 92.3342 10.115L 92.3342 14.87C 92.3342 15.32 92.4092 15.63 92.5592 15.8C 92.7092 15.97 92.9542 16.055 93.2942 16.055L 94.3292 16.055C 94.4392 16.055 94.4942 16.11 94.4942 16.22L 94.4792 16.73C 94.4792 16.83 94.4192 16.895 94.2992 16.925C 94.0392 16.975 93.5692 17 92.8892 17C 92.2592 17 91.7992 16.855 91.5092 16.565C 91.2192 16.265 91.0742 15.795 91.0742 15.155L 91.0742 10.145C 91.0742 10.035 91.0242 9.98 90.9242 9.98L 89.7242 9.98C 89.6142 9.98 89.5592 9.93 89.5592 9.83L 89.5592 9.2C 89.5592 9.1 89.6092 9.05 89.7092 9.05L 90.9842 9.05C 91.0542 9.05 91.0892 9.01 91.0892 8.93L 91.2542 6.545C 91.2542 6.415 91.3092 6.35 91.4192 6.35L 92.1692 6.35C 92.2892 6.35 92.3492 6.42 92.3492 6.56L 92.3492 8.93C 92.3492 9.01 92.3892 9.05 92.4692 9.05L 94.3592 9.05C 94.4692 9.05 94.5242 9.095 94.5242 9.185L 94.5242 9.83C 94.5242 9.93 94.4692 9.98 94.3592 9.98L 92.4542 9.98Z" transform="translate(0 181)" fill="#494949"/>
</g>
</svg>
