<svg width="883" height="246" viewBox="0 0 883 246" version="1.1" xmlns="http://www.w3.org/2000/svg" xmlns:xlink="http://www.w3.org/1999/xlink">
<g id="Canvas" fill="none">
<path id="6px &#226;&#128;&#148; Single stack" d="M 5.565 5.735C 6.125 5.735 6.635 5.83 7.095 6.02C 7.555 6.2 7.935 6.43 8.235 6.71C 8.545 6.99 8.765 7.275 8.895 7.565C 8.915 7.625 8.925 7.67 8.925 7.7C 8.925 7.78 8.885 7.835 8.805 7.865L 7.44 8.345L 7.38 8.36C 7.31 8.36 7.24 8.305 7.17 8.195C 6.95 7.905 6.72 7.685 6.48 7.535C 6.24 7.385 5.935 7.31 5.565 7.31C 4.735 7.31 4.095 7.61 3.645 8.21C 3.205 8.8 2.985 9.585 2.985 10.565C 2.985 10.705 2.99 10.8 3 10.85C 3.02 10.9 3.055 10.925 3.105 10.925C 3.125 10.925 3.185 10.905 3.285 10.865C 3.745 10.665 4.15 10.515 4.5 10.415C 4.85 10.305 5.26 10.25 5.73 10.25C 6.49 10.25 7.155 10.39 7.725 10.67C 8.295 10.95 8.735 11.34 9.045 11.84C 9.355 12.34 9.51 12.905 9.51 13.535C 9.51 14.225 9.325 14.845 8.955 15.395C 8.585 15.945 8.08 16.375 7.44 16.685C 6.8 16.985 6.095 17.135 5.325 17.135C 4.395 17.135 3.585 16.915 2.895 16.475C 2.215 16.035 1.69 15.405 1.32 14.585C 0.96 13.755 0.78 12.775 0.78 11.645C 0.78 10.425 0.975 9.375 1.365 8.495C 1.755 7.605 2.31 6.925 3.03 6.455C 3.75 5.975 4.595 5.735 5.565 5.735ZM 5.31 11.735C 4.98 11.735 4.615 11.795 4.215 11.915C 3.815 12.025 3.495 12.155 3.255 12.305C 3.155 12.375 3.09 12.445 3.06 12.515C 3.03 12.585 3.015 12.7 3.015 12.86C 3.015 13.32 3.1 13.765 3.27 14.195C 3.45 14.615 3.71 14.96 4.05 15.23C 4.39 15.5 4.8 15.635 5.28 15.635C 5.86 15.635 6.345 15.445 6.735 15.065C 7.125 14.675 7.32 14.19 7.32 13.61C 7.32 13.06 7.13 12.61 6.75 12.26C 6.38 11.91 5.9 11.735 5.31 11.735ZM 12.7614 9.05C 12.9514 9.05 13.0464 9.14 13.0464 9.32L 13.0464 9.83C 13.0464 9.91 13.0714 9.95 13.1214 9.95C 13.1514 9.95 13.1914 9.925 13.2414 9.875C 13.5614 9.575 13.8814 9.34 14.2014 9.17C 14.5314 8.99 14.9614 8.9 15.4914 8.9C 16.1014 8.9 16.6414 9.05 17.1114 9.35C 17.5914 9.65 17.9664 10.105 18.2364 10.715C 18.5064 11.315 18.6414 12.055 18.6414 12.935C 18.6414 14.305 18.3414 15.35 17.7414 16.07C 17.1414 16.79 16.3464 17.15 15.3564 17.15C 14.5564 17.15 13.8764 16.895 13.3164 16.385C 13.2164 16.305 13.1514 16.265 13.1214 16.265C 13.0714 16.265 13.0464 16.335 13.0464 16.475L 13.0464 19.235C 13.0464 19.395 12.9764 19.475 12.8364 19.475L 11.3064 19.475C 11.1664 19.475 11.0964 19.395 11.0964 19.235L 11.0964 9.35C 11.0964 9.24 11.1164 9.165 11.1564 9.125C 11.2064 9.075 11.2864 9.05 11.3964 9.05L 12.7614 9.05ZM 13.0464 15.05C 13.5464 15.6 14.0914 15.875 14.6814 15.875C 15.3014 15.875 15.7864 15.635 16.1364 15.155C 16.4864 14.665 16.6614 13.92 16.6614 12.92C 16.6614 11.96 16.4864 11.265 16.1364 10.835C 15.7964 10.395 15.3314 10.175 14.7414 10.175C 14.4214 10.175 14.1314 10.245 13.8714 10.385C 13.6114 10.515 13.4064 10.685 13.2564 10.895C 13.1164 11.105 13.0464 11.325 13.0464 11.555L 13.0464 15.05ZM 26.8804 16.565C 26.9904 16.705 27.0454 16.81 27.0454 16.88C 27.0454 16.96 26.9604 17 26.7904 17L 25.1704 17C 24.9704 17 24.8254 16.935 24.7354 16.805L 22.9954 14.36C 22.9254 14.26 22.8704 14.21 22.8304 14.21C 22.7904 14.21 22.7354 14.26 22.6654 14.36L 20.8804 16.805C 20.7904 16.935 20.6454 17 20.4454 17L 19.3954 17C 19.1854 17 19.0804 16.935 19.0804 16.805C 19.0804 16.745 19.1354 16.635 19.2454 16.475L 21.7954 13.205C 21.8554 13.125 21.8854 13.065 21.8854 13.025C 21.8854 12.965 21.8504 12.885 21.7804 12.785L 19.2904 9.41C 19.2504 9.37 19.2304 9.315 19.2304 9.245C 19.2304 9.185 19.2504 9.14 19.2904 9.11C 19.3404 9.07 19.4054 9.05 19.4854 9.05L 21.0304 9.05C 21.1404 9.05 21.2204 9.065 21.2704 9.095C 21.3304 9.125 21.3904 9.175 21.4504 9.245L 23.0554 11.495C 23.1054 11.555 23.1454 11.585 23.1754 11.585C 23.2154 11.585 23.2554 11.555 23.2954 11.495L 24.8404 9.245C 24.8904 9.175 24.9454 9.125 25.0054 9.095C 25.0654 9.065 25.1504 9.05 25.2604 9.05L 26.4154 9.05C 26.5654 9.05 26.6404 9.095 26.6404 9.185C 26.6404 9.225 26.6154 9.28 26.5654 9.35L 24.2254 12.5C 24.1654 12.57 24.1354 12.635 24.1354 12.695C 24.1354 12.735 24.1704 12.81 24.2404 12.92L 26.8804 16.565ZM 42.768 13.43C 42.768 13.57 42.688 13.64 42.528 13.64L 31.623 13.64C 31.553 13.64 31.503 13.63 31.473 13.61C 31.443 13.58 31.428 13.53 31.428 13.46L 31.428 12.8C 31.428 12.69 31.473 12.635 31.563 12.635L 42.618 12.62C 42.718 12.62 42.768 12.67 42.768 12.77L 42.768 13.43ZM 54.3889 7.94C 53.7489 7.19 52.8989 6.815 51.8389 6.815C 51.0889 6.815 50.4989 6.98 50.0689 7.31C 49.6389 7.64 49.4239 8.1 49.4239 8.69C 49.4239 9.47 49.9589 10.04 51.0289 10.4L 53.2039 11.12C 54.0839 11.41 54.7189 11.8 55.1089 12.29C 55.5089 12.77 55.7089 13.36 55.7089 14.06C 55.7089 15.02 55.3539 15.775 54.6439 16.325C 53.9339 16.875 52.9639 17.15 51.7339 17.15C 50.8339 17.15 50.0389 16.99 49.3489 16.67C 48.6689 16.35 48.1189 15.885 47.6989 15.275C 47.6589 15.195 47.6389 15.145 47.6389 15.125C 47.6389 15.055 47.6889 14.985 47.7889 14.915L 48.3289 14.54C 48.4189 14.48 48.4889 14.45 48.5389 14.45C 48.5989 14.45 48.6539 14.48 48.7039 14.54C 49.1339 15.09 49.5589 15.48 49.9789 15.71C 50.3989 15.94 50.9639 16.055 51.6739 16.055C 52.5139 16.055 53.1639 15.905 53.6239 15.605C 54.0939 15.305 54.3289 14.84 54.3289 14.21C 54.3289 13.82 54.2039 13.49 53.9539 13.22C 53.7139 12.94 53.2739 12.68 52.6339 12.44L 50.3539 11.66C 49.5639 11.39 48.9789 11.005 48.5989 10.505C 48.2289 9.995 48.0439 9.435 48.0439 8.825C 48.0439 8.205 48.1989 7.66 48.5089 7.19C 48.8289 6.72 49.2739 6.36 49.8439 6.11C 50.4239 5.85 51.0889 5.72 51.8389 5.72C 52.5689 5.72 53.2289 5.85 53.8189 6.11C 54.4189 6.37 54.9289 6.735 55.3489 7.205C 55.3989 7.255 55.4239 7.305 55.4239 7.355C 55.4239 7.405 55.3989 7.45 55.3489 7.49L 54.6589 8.03C 54.6289 8.06 54.5989 8.075 54.5689 8.075C 54.5389 8.075 54.4789 8.03 54.3889 7.94ZM 59.0033 7.34C 59.0033 7.44 58.9833 7.515 58.9433 7.565C 58.9033 7.605 58.8333 7.625 58.7333 7.625L 57.8633 7.625C 57.7133 7.625 57.6383 7.54 57.6383 7.37L 57.6383 6.11C 57.6383 5.95 57.7083 5.87 57.8483 5.87L 58.7933 5.87C 58.8533 5.87 58.9033 5.89 58.9433 5.93C 58.9833 5.97 59.0033 6.025 59.0033 6.095L 59.0033 7.34ZM 58.9433 16.745C 58.9433 16.845 58.9233 16.915 58.8833 16.955C 58.8433 16.985 58.7733 17 58.6733 17L 57.9083 17C 57.8183 17 57.7583 16.985 57.7283 16.955C 57.6983 16.925 57.6833 16.87 57.6833 16.79L 57.6833 9.26C 57.6833 9.12 57.7433 9.05 57.8633 9.05L 58.7783 9.05C 58.8883 9.05 58.9433 9.115 58.9433 9.245L 58.9433 16.745ZM 61.4822 17C 61.3422 17 61.2722 16.935 61.2722 16.805L 61.2722 9.245C 61.2722 9.115 61.3272 9.05 61.4372 9.05L 62.3372 9.05C 62.4472 9.05 62.5022 9.105 62.5022 9.215L 62.5022 10.085C 62.5022 10.195 62.5472 10.21 62.6372 10.13C 63.1972 9.69 63.6722 9.375 64.0622 9.185C 64.4622 8.995 64.9072 8.9 65.3972 8.9C 66.1572 8.9 66.7472 9.105 67.1672 9.515C 67.5972 9.925 67.8122 10.475 67.8122 11.165L 67.8122 16.76C 67.8122 16.92 67.7372 17 67.5872 17L 66.7472 17C 66.6172 17 66.5522 16.935 66.5522 16.805L 66.5522 11.45C 66.5522 10.95 66.4222 10.565 66.1622 10.295C 65.9122 10.025 65.5222 9.89 64.9922 9.89C 64.5722 9.89 64.1822 9.985 63.8222 10.175C 63.4722 10.355 63.0422 10.665 62.5322 11.105L 62.5322 16.775C 62.5322 16.855 62.5122 16.915 62.4722 16.955C 62.4422 16.985 62.3872 17 62.3072 17L 61.4822 17ZM 77.217 8.915C 77.407 8.915 77.502 8.995 77.502 9.155L 77.502 9.68C 77.502 9.78 77.477 9.855 77.427 9.905C 77.387 9.945 77.312 9.96 77.202 9.95C 76.872 9.95 76.612 9.995 76.422 10.085C 76.182 10.185 76.082 10.3 76.122 10.43C 76.132 10.47 76.162 10.545 76.212 10.655C 76.262 10.765 76.302 10.89 76.332 11.03C 76.362 11.16 76.377 11.3 76.377 11.45C 76.377 12.16 76.097 12.74 75.537 13.19C 74.987 13.64 74.182 13.865 73.122 13.865C 72.412 13.865 71.902 13.925 71.592 14.045C 71.282 14.165 71.127 14.32 71.127 14.51C 71.127 14.66 71.232 14.775 71.442 14.855C 71.652 14.925 72.002 14.975 72.492 15.005L 74.427 15.11C 75.287 15.16 75.927 15.365 76.347 15.725C 76.767 16.085 76.977 16.575 76.977 17.195C 76.977 17.955 76.642 18.55 75.972 18.98C 75.312 19.41 74.367 19.625 73.137 19.625C 71.867 19.625 70.897 19.44 70.227 19.07C 69.567 18.71 69.237 18.19 69.237 17.51C 69.237 16.84 69.707 16.275 70.647 15.815C 70.757 15.765 70.757 15.71 70.647 15.65C 70.187 15.45 69.957 15.155 69.957 14.765C 69.957 14.545 70.057 14.335 70.257 14.135C 70.467 13.935 70.762 13.77 71.142 13.64C 71.192 13.63 71.217 13.605 71.217 13.565C 71.217 13.515 71.192 13.48 71.142 13.46C 70.702 13.23 70.377 12.955 70.167 12.635C 69.957 12.305 69.852 11.91 69.852 11.45C 69.852 10.67 70.147 10.055 70.737 9.605C 71.327 9.155 72.162 8.93 73.242 8.93C 74.192 8.93 74.942 9.155 75.492 9.605C 75.562 9.655 75.612 9.68 75.642 9.68C 75.682 9.68 75.737 9.655 75.807 9.605C 75.997 9.415 76.217 9.255 76.467 9.125C 76.727 8.985 76.977 8.915 77.217 8.915ZM 73.122 13.07C 73.812 13.07 74.327 12.93 74.667 12.65C 75.017 12.37 75.192 11.965 75.192 11.435C 75.192 10.895 75.017 10.475 74.667 10.175C 74.317 9.875 73.802 9.725 73.122 9.725C 72.462 9.725 71.947 9.88 71.577 10.19C 71.207 10.49 71.022 10.905 71.022 11.435C 71.022 11.955 71.202 12.36 71.562 12.65C 71.932 12.93 72.452 13.07 73.122 13.07ZM 71.802 16.025C 71.622 16.015 71.417 16.07 71.187 16.19C 70.957 16.3 70.762 16.46 70.602 16.67C 70.442 16.88 70.362 17.11 70.362 17.36C 70.362 17.84 70.607 18.205 71.097 18.455C 71.587 18.715 72.312 18.845 73.272 18.845C 74.962 18.845 75.807 18.345 75.807 17.345C 75.807 16.995 75.687 16.72 75.447 16.52C 75.217 16.32 74.837 16.205 74.307 16.175L 71.802 16.025ZM 80.3304 16.745C 80.3304 16.845 80.3104 16.915 80.2704 16.955C 80.2304 16.985 80.1604 17 80.0604 17L 79.2804 17C 79.1904 17 79.1304 16.985 79.1004 16.955C 79.0704 16.925 79.0554 16.87 79.0554 16.79L 79.0704 6.08C 79.0704 5.94 79.1304 5.87 79.2504 5.87L 80.1504 5.87C 80.2704 5.87 80.3304 5.935 80.3304 6.065L 80.3304 16.745ZM 83.4843 13.52C 83.4843 14 83.5993 14.445 83.8293 14.855C 84.0693 15.265 84.3893 15.59 84.7893 15.83C 85.1893 16.07 85.6293 16.19 86.1093 16.19C 87.1093 16.19 87.8893 15.775 88.4493 14.945C 88.4893 14.905 88.5243 14.885 88.5543 14.885C 88.5843 14.875 88.6193 14.88 88.6593 14.9L 89.2893 15.215C 89.3693 15.265 89.3793 15.335 89.3193 15.425C 88.9293 16.025 88.4643 16.465 87.9243 16.745C 87.3843 17.015 86.7393 17.15 85.9893 17.15C 85.2593 17.15 84.6043 16.98 84.0243 16.64C 83.4443 16.3 82.9893 15.825 82.6593 15.215C 82.3393 14.595 82.1793 13.89 82.1793 13.1C 82.1793 12.25 82.3443 11.51 82.6743 10.88C 83.0043 10.24 83.4543 9.75 84.0243 9.41C 84.6043 9.07 85.2543 8.9 85.9743 8.9C 86.6943 8.9 87.3243 9.06 87.8643 9.38C 88.4143 9.7 88.8393 10.17 89.1393 10.79C 89.4393 11.4 89.5893 12.125 89.5893 12.965L 89.5893 13.025C 89.5893 13.115 89.5743 13.185 89.5443 13.235C 89.5143 13.275 89.4543 13.295 89.3643 13.295L 83.6193 13.295C 83.5293 13.295 83.4843 13.37 83.4843 13.52ZM 88.0743 12.47C 88.1843 12.47 88.2543 12.46 88.2843 12.44C 88.3143 12.41 88.3293 12.35 88.3293 12.26C 88.3293 11.82 88.2343 11.415 88.0443 11.045C 87.8643 10.665 87.5943 10.365 87.2343 10.145C 86.8843 9.915 86.4743 9.8 86.0043 9.8C 85.4943 9.8 85.0493 9.93 84.6693 10.19C 84.2893 10.44 83.9993 10.77 83.7993 11.18C 83.5993 11.58 83.5043 12.01 83.5143 12.47L 88.0743 12.47ZM 99.3527 10.805C 99.1427 10.495 98.8527 10.25 98.4827 10.07C 98.1227 9.88 97.7027 9.785 97.2227 9.785C 96.6727 9.785 96.2227 9.905 95.8727 10.145C 95.5227 10.375 95.3477 10.68 95.3477 11.06C 95.3477 11.29 95.4327 11.5 95.6027 11.69C 95.7827 11.87 96.1027 12.03 96.5627 12.17L 98.4677 12.74C 99.1277 12.92 99.6177 13.19 99.9377 13.55C 100.258 13.9 100.418 14.32 100.418 14.81C 100.418 15.27 100.278 15.68 99.9977 16.04C 99.7177 16.39 99.3327 16.665 98.8427 16.865C 98.3527 17.055 97.7977 17.15 97.1777 17.15C 96.4077 17.15 95.7227 17 95.1227 16.7C 94.5227 16.39 94.0977 15.99 93.8477 15.5C 93.8177 15.45 93.8027 15.41 93.8027 15.38C 93.8027 15.33 93.8277 15.29 93.8777 15.26L 94.4627 14.93C 94.5627 14.87 94.6377 14.875 94.6877 14.945C 95.2277 15.805 96.0627 16.235 97.1927 16.235C 97.7827 16.225 98.2677 16.105 98.6477 15.875C 99.0377 15.635 99.2327 15.325 99.2327 14.945C 99.2327 14.665 99.1177 14.43 98.8877 14.24C 98.6577 14.05 98.2827 13.88 97.7627 13.73L 96.2177 13.295C 95.4877 13.105 94.9627 12.84 94.6427 12.5C 94.3327 12.16 94.1777 11.745 94.1777 11.255C 94.1777 10.795 94.3027 10.385 94.5527 10.025C 94.8127 9.665 95.1727 9.39 95.6327 9.2C 96.1027 9 96.6377 8.9 97.2377 8.9C 97.8977 8.9 98.4877 9.025 99.0077 9.275C 99.5377 9.525 99.9427 9.865 100.223 10.295C 100.293 10.395 100.288 10.465 100.208 10.505L 99.5777 10.85C 99.5377 10.87 99.5077 10.88 99.4877 10.88C 99.4477 10.88 99.4027 10.855 99.3527 10.805ZM 104.359 9.98C 104.279 9.98 104.239 10.025 104.239 10.115L 104.239 14.87C 104.239 15.32 104.314 15.63 104.464 15.8C 104.614 15.97 104.859 16.055 105.199 16.055L 106.234 16.055C 106.344 16.055 106.399 16.11 106.399 16.22L 106.384 16.73C 106.384 16.83 106.324 16.895 106.204 16.925C 105.944 16.975 105.474 17 104.794 17C 104.164 17 103.704 16.855 103.414 16.565C 103.124 16.265 102.979 15.795 102.979 15.155L 102.979 10.145C 102.979 10.035 102.929 9.98 102.829 9.98L 101.629 9.98C 101.519 9.98 101.464 9.93 101.464 9.83L 101.464 9.2C 101.464 9.1 101.514 9.05 101.614 9.05L 102.889 9.05C 102.959 9.05 102.994 9.01 102.994 8.93L 103.159 6.545C 103.159 6.415 103.214 6.35 103.324 6.35L 104.074 6.35C 104.194 6.35 104.254 6.42 104.254 6.56L 104.254 8.93C 104.254 9.01 104.294 9.05 104.374 9.05L 106.264 9.05C 106.374 9.05 106.429 9.095 106.429 9.185L 106.429 9.83C 106.429 9.93 106.374 9.98 106.264 9.98L 104.359 9.98ZM 112.679 16.04C 111.909 16.78 111.019 17.15 110.009 17.15C 109.229 17.15 108.614 16.955 108.164 16.565C 107.724 16.165 107.504 15.635 107.504 14.975C 107.504 14.175 107.839 13.545 108.509 13.085C 109.189 12.625 110.169 12.355 111.449 12.275L 112.619 12.185C 112.789 12.165 112.874 12.09 112.874 11.96L 112.874 11.555C 112.874 11.015 112.704 10.59 112.364 10.28C 112.034 9.96 111.584 9.8 111.014 9.8C 110.134 9.8 109.414 10.2 108.854 11C 108.824 11.05 108.794 11.085 108.764 11.105C 108.734 11.115 108.694 11.11 108.644 11.09L 107.834 10.82C 107.784 10.8 107.759 10.765 107.759 10.715C 107.759 10.685 107.774 10.64 107.804 10.58C 108.104 10.05 108.529 9.64 109.079 9.35C 109.639 9.05 110.299 8.9 111.059 8.9C 112.039 8.9 112.789 9.13 113.309 9.59C 113.829 10.04 114.089 10.665 114.089 11.465L 114.089 16.775C 114.089 16.865 114.074 16.925 114.044 16.955C 114.014 16.985 113.959 17 113.879 17L 113.129 17C 113.009 17 112.939 16.92 112.919 16.76L 112.889 16.07C 112.879 16 112.854 15.965 112.814 15.965C 112.774 15.965 112.729 15.99 112.679 16.04ZM 112.874 13.19C 112.874 13.03 112.799 12.95 112.649 12.95L 111.674 13.04C 110.744 13.1 110.024 13.28 109.514 13.58C 109.014 13.88 108.764 14.295 108.764 14.825C 108.764 15.255 108.914 15.595 109.214 15.845C 109.524 16.095 109.934 16.22 110.444 16.22C 110.754 16.22 111.059 16.165 111.359 16.055C 111.659 15.945 111.924 15.795 112.154 15.605C 112.384 15.425 112.559 15.235 112.679 15.035C 112.809 14.825 112.874 14.625 112.874 14.435L 112.874 13.19ZM 119.577 8.9C 120.307 8.9 120.927 9.07 121.437 9.41C 121.957 9.75 122.372 10.2 122.682 10.76L 122.712 10.88C 122.712 10.94 122.677 10.975 122.607 10.985L 121.782 11.18L 121.737 11.195C 121.687 11.195 121.637 11.155 121.587 11.075C 121.267 10.645 120.957 10.33 120.657 10.13C 120.367 9.93 120.032 9.83 119.652 9.83C 118.872 9.83 118.252 10.12 117.792 10.7C 117.332 11.27 117.102 12.045 117.102 13.025C 117.102 14.015 117.332 14.795 117.792 15.365C 118.262 15.935 118.892 16.22 119.682 16.22C 120.152 16.22 120.562 16.105 120.912 15.875C 121.272 15.645 121.597 15.29 121.887 14.81C 121.917 14.76 121.947 14.735 121.977 14.735C 122.007 14.725 122.042 14.73 122.082 14.75L 122.727 14.99C 122.797 15.02 122.817 15.085 122.787 15.185C 122.477 15.765 122.052 16.24 121.512 16.61C 120.972 16.97 120.327 17.15 119.577 17.15C 118.847 17.15 118.197 16.98 117.627 16.64C 117.057 16.29 116.612 15.805 116.292 15.185C 115.972 14.565 115.812 13.855 115.812 13.055C 115.812 12.255 115.972 11.54 116.292 10.91C 116.612 10.27 117.057 9.775 117.627 9.425C 118.207 9.075 118.857 8.9 119.577 8.9ZM 131.277 16.76C 131.297 16.78 131.307 16.815 131.307 16.865C 131.307 16.955 131.252 17 131.142 17L 130.092 17C 130.032 17 129.982 16.99 129.942 16.97C 129.902 16.94 129.862 16.89 129.822 16.82L 127.557 12.935C 127.537 12.885 127.512 12.86 127.482 12.86C 127.452 12.85 127.417 12.865 127.377 12.905L 125.787 14.51C 125.717 14.58 125.682 14.68 125.682 14.81L 125.682 16.745C 125.682 16.845 125.662 16.915 125.622 16.955C 125.582 16.985 125.512 17 125.412 17L 124.647 17C 124.557 17 124.497 16.985 124.467 16.955C 124.437 16.925 124.422 16.87 124.422 16.79L 124.422 6.08C 124.422 5.94 124.477 5.87 124.587 5.87L 125.502 5.87C 125.622 5.87 125.682 5.935 125.682 6.065L 125.682 13.025C 125.682 13.125 125.697 13.175 125.727 13.175C 125.757 13.175 125.792 13.145 125.832 13.085L 129.537 9.23C 129.647 9.11 129.752 9.05 129.852 9.05L 130.767 9.05C 130.887 9.05 130.947 9.085 130.947 9.155C 130.947 9.185 130.912 9.245 130.842 9.335L 128.472 11.75C 128.432 11.81 128.412 11.855 128.412 11.885C 128.412 11.915 128.427 11.955 128.457 12.005L 131.277 16.76Z" transform="translate(0 -5)" fill="#494949"/>
<path id="12px &#226;&#128;&#148; Small stack" d="M 6.615 15.335C 6.775 15.335 6.855 15.405 6.855 15.545L 6.855 16.775C 6.855 16.835 6.835 16.89 6.795 16.94C 6.755 16.98 6.69 17 6.6 17L 0.9 17C 0.74 17 0.66 16.93 0.66 16.79L 0.66 15.545C 0.66 15.405 0.735 15.335 0.885 15.335L 2.565 15.335C 2.655 15.335 2.7 15.305 2.7 15.245L 2.7 8.27C 2.7 8.2 2.685 8.155 2.655 8.135C 2.635 8.115 2.59 8.11 2.52 8.12L 0.93 8.645C 0.91 8.655 0.88 8.66 0.84 8.66C 0.71 8.66 0.645 8.575 0.645 8.405L 0.645 7.535C 0.645 7.445 0.655 7.385 0.675 7.355C 0.705 7.315 0.76 7.275 0.84 7.235L 3.255 6.02C 3.365 5.97 3.46 5.935 3.54 5.915C 3.63 5.885 3.725 5.87 3.825 5.87L 4.725 5.87C 4.855 5.87 4.92 5.95 4.92 6.11L 4.92 15.2C 4.92 15.29 4.965 15.335 5.055 15.335L 6.615 15.335ZM 11.5521 12.23C 12.1821 11.67 12.6571 11.215 12.9771 10.865C 13.3071 10.505 13.5371 10.185 13.6671 9.905C 13.7971 9.615 13.8621 9.31 13.8621 8.99C 13.8621 8.49 13.6821 8.095 13.3221 7.805C 12.9621 7.505 12.5221 7.355 12.0021 7.355C 11.0821 7.355 10.3121 7.87 9.69211 8.9C 9.66211 8.97 9.60211 9.005 9.51211 9.005C 9.45211 9.005 9.38711 8.985 9.31711 8.945L 8.20711 8.36C 8.10711 8.3 8.05711 8.225 8.05711 8.135C 8.05711 8.075 8.08211 8.005 8.13211 7.925C 9.08211 6.455 10.4221 5.72 12.1521 5.72C 12.9021 5.72 13.5671 5.85 14.1471 6.11C 14.7371 6.37 15.1971 6.75 15.5271 7.25C 15.8571 7.74 16.0221 8.325 16.0221 9.005C 16.0221 9.625 15.8521 10.205 15.5121 10.745C 15.1721 11.275 14.5921 11.885 13.7721 12.575L 10.9071 14.99C 10.8571 15.04 10.8321 15.075 10.8321 15.095C 10.8321 15.145 10.8871 15.17 10.9971 15.17L 15.8721 15.17C 15.9621 15.17 16.0271 15.185 16.0671 15.215C 16.1071 15.245 16.1271 15.3 16.1271 15.38L 16.1271 16.76C 16.1271 16.92 16.0371 17 15.8571 17L 8.34211 17C 8.22211 17 8.13711 16.98 8.08711 16.94C 8.04711 16.9 8.02711 16.825 8.02711 16.715L 8.02711 15.74C 8.02711 15.65 8.06211 15.555 8.13211 15.455C 8.20211 15.345 8.36711 15.185 8.62711 14.975L 11.5521 12.23ZM 19.4411 9.05C 19.6311 9.05 19.7261 9.14 19.7261 9.32L 19.7261 9.83C 19.7261 9.91 19.7511 9.95 19.8011 9.95C 19.8311 9.95 19.8711 9.925 19.9211 9.875C 20.2411 9.575 20.5611 9.34 20.8811 9.17C 21.2111 8.99 21.6411 8.9 22.1711 8.9C 22.7811 8.9 23.3211 9.05 23.7911 9.35C 24.2711 9.65 24.6461 10.105 24.9161 10.715C 25.1861 11.315 25.3211 12.055 25.3211 12.935C 25.3211 14.305 25.0211 15.35 24.4211 16.07C 23.8211 16.79 23.0261 17.15 22.0361 17.15C 21.2361 17.15 20.5561 16.895 19.9961 16.385C 19.8961 16.305 19.8311 16.265 19.8011 16.265C 19.7511 16.265 19.7261 16.335 19.7261 16.475L 19.7261 19.235C 19.7261 19.395 19.6561 19.475 19.5161 19.475L 17.9861 19.475C 17.8461 19.475 17.7761 19.395 17.7761 19.235L 17.7761 9.35C 17.7761 9.24 17.7961 9.165 17.8361 9.125C 17.8861 9.075 17.9661 9.05 18.0761 9.05L 19.4411 9.05ZM 19.7261 15.05C 20.2261 15.6 20.7711 15.875 21.3611 15.875C 21.9811 15.875 22.4661 15.635 22.8161 15.155C 23.1661 14.665 23.3411 13.92 23.3411 12.92C 23.3411 11.96 23.1661 11.265 22.8161 10.835C 22.4761 10.395 22.0111 10.175 21.4211 10.175C 21.1011 10.175 20.8111 10.245 20.5511 10.385C 20.2911 10.515 20.0861 10.685 19.9361 10.895C 19.7961 11.105 19.7261 11.325 19.7261 11.555L 19.7261 15.05ZM 33.56 16.565C 33.67 16.705 33.725 16.81 33.725 16.88C 33.725 16.96 33.64 17 33.47 17L 31.85 17C 31.65 17 31.505 16.935 31.415 16.805L 29.675 14.36C 29.605 14.26 29.55 14.21 29.51 14.21C 29.47 14.21 29.415 14.26 29.345 14.36L 27.56 16.805C 27.47 16.935 27.325 17 27.125 17L 26.075 17C 25.865 17 25.76 16.935 25.76 16.805C 25.76 16.745 25.815 16.635 25.925 16.475L 28.475 13.205C 28.535 13.125 28.565 13.065 28.565 13.025C 28.565 12.965 28.53 12.885 28.46 12.785L 25.97 9.41C 25.93 9.37 25.91 9.315 25.91 9.245C 25.91 9.185 25.93 9.14 25.97 9.11C 26.02 9.07 26.085 9.05 26.165 9.05L 27.71 9.05C 27.82 9.05 27.9 9.065 27.95 9.095C 28.01 9.125 28.07 9.175 28.13 9.245L 29.735 11.495C 29.785 11.555 29.825 11.585 29.855 11.585C 29.895 11.585 29.935 11.555 29.975 11.495L 31.52 9.245C 31.57 9.175 31.625 9.125 31.685 9.095C 31.745 9.065 31.83 9.05 31.94 9.05L 33.095 9.05C 33.245 9.05 33.32 9.095 33.32 9.185C 33.32 9.225 33.295 9.28 33.245 9.35L 30.905 12.5C 30.845 12.57 30.815 12.635 30.815 12.695C 30.815 12.735 30.85 12.81 30.92 12.92L 33.56 16.565ZM 49.4477 13.43C 49.4477 13.57 49.3677 13.64 49.2077 13.64L 38.3027 13.64C 38.2327 13.64 38.1827 13.63 38.1527 13.61C 38.1227 13.58 38.1077 13.53 38.1077 13.46L 38.1077 12.8C 38.1077 12.69 38.1527 12.635 38.2427 12.635L 49.2977 12.62C 49.3977 12.62 49.4477 12.67 49.4477 12.77L 49.4477 13.43ZM 61.0686 7.94C 60.4286 7.19 59.5786 6.815 58.5186 6.815C 57.7686 6.815 57.1786 6.98 56.7486 7.31C 56.3186 7.64 56.1036 8.1 56.1036 8.69C 56.1036 9.47 56.6386 10.04 57.7086 10.4L 59.8836 11.12C 60.7636 11.41 61.3986 11.8 61.7886 12.29C 62.1886 12.77 62.3886 13.36 62.3886 14.06C 62.3886 15.02 62.0336 15.775 61.3236 16.325C 60.6136 16.875 59.6436 17.15 58.4136 17.15C 57.5136 17.15 56.7186 16.99 56.0286 16.67C 55.3486 16.35 54.7986 15.885 54.3786 15.275C 54.3386 15.195 54.3186 15.145 54.3186 15.125C 54.3186 15.055 54.3686 14.985 54.4686 14.915L 55.0086 14.54C 55.0986 14.48 55.1686 14.45 55.2186 14.45C 55.2786 14.45 55.3336 14.48 55.3836 14.54C 55.8136 15.09 56.2386 15.48 56.6586 15.71C 57.0786 15.94 57.6436 16.055 58.3536 16.055C 59.1936 16.055 59.8436 15.905 60.3036 15.605C 60.7736 15.305 61.0086 14.84 61.0086 14.21C 61.0086 13.82 60.8836 13.49 60.6336 13.22C 60.3936 12.94 59.9536 12.68 59.3136 12.44L 57.0336 11.66C 56.2436 11.39 55.6586 11.005 55.2786 10.505C 54.9086 9.995 54.7236 9.435 54.7236 8.825C 54.7236 8.205 54.8786 7.66 55.1886 7.19C 55.5086 6.72 55.9536 6.36 56.5236 6.11C 57.1036 5.85 57.7686 5.72 58.5186 5.72C 59.2486 5.72 59.9086 5.85 60.4986 6.11C 61.0986 6.37 61.6086 6.735 62.0286 7.205C 62.0786 7.255 62.1036 7.305 62.1036 7.355C 62.1036 7.405 62.0786 7.45 62.0286 7.49L 61.3386 8.03C 61.3086 8.06 61.2786 8.075 61.2486 8.075C 61.2186 8.075 61.1586 8.03 61.0686 7.94ZM 64.573 17C 64.433 17 64.363 16.935 64.363 16.805L 64.363 9.245C 64.363 9.115 64.418 9.05 64.528 9.05L 65.428 9.05C 65.528 9.05 65.578 9.105 65.578 9.215L 65.578 10.085C 65.578 10.205 65.628 10.22 65.728 10.13C 66.268 9.69 66.728 9.375 67.108 9.185C 67.488 8.995 67.913 8.9 68.383 8.9C 68.943 8.9 69.403 9.025 69.763 9.275C 70.133 9.525 70.383 9.84 70.513 10.22C 70.533 10.25 70.553 10.265 70.573 10.265C 70.603 10.265 70.653 10.24 70.723 10.19C 71.243 9.75 71.708 9.425 72.118 9.215C 72.538 9.005 72.978 8.9 73.438 8.9C 74.158 8.9 74.718 9.105 75.118 9.515C 75.528 9.925 75.733 10.48 75.733 11.18L 75.733 16.76C 75.733 16.92 75.658 17 75.508 17L 74.668 17C 74.538 17 74.473 16.935 74.473 16.805L 74.473 11.45C 74.473 10.95 74.353 10.565 74.113 10.295C 73.873 10.025 73.513 9.89 73.033 9.89C 72.633 9.89 72.258 9.99 71.908 10.19C 71.558 10.38 71.218 10.62 70.888 10.91C 70.808 10.99 70.753 11.06 70.723 11.12C 70.693 11.18 70.678 11.255 70.678 11.345L 70.678 16.76C 70.678 16.92 70.603 17 70.453 17L 69.613 17C 69.483 17 69.418 16.935 69.418 16.805L 69.418 11.45C 69.418 10.41 68.938 9.89 67.978 9.89C 67.578 9.89 67.208 9.985 66.868 10.175C 66.538 10.355 66.123 10.665 65.623 11.105L 65.623 16.775C 65.623 16.855 65.603 16.915 65.563 16.955C 65.533 16.985 65.478 17 65.398 17L 64.573 17ZM 82.5768 16.04C 81.8068 16.78 80.9168 17.15 79.9068 17.15C 79.1268 17.15 78.5118 16.955 78.0618 16.565C 77.6218 16.165 77.4018 15.635 77.4018 14.975C 77.4018 14.175 77.7368 13.545 78.4068 13.085C 79.0868 12.625 80.0668 12.355 81.3468 12.275L 82.5168 12.185C 82.6868 12.165 82.7718 12.09 82.7718 11.96L 82.7718 11.555C 82.7718 11.015 82.6018 10.59 82.2618 10.28C 81.9318 9.96 81.4818 9.8 80.9118 9.8C 80.0318 9.8 79.3118 10.2 78.7518 11C 78.7218 11.05 78.6918 11.085 78.6618 11.105C 78.6318 11.115 78.5918 11.11 78.5418 11.09L 77.7318 10.82C 77.6818 10.8 77.6568 10.765 77.6568 10.715C 77.6568 10.685 77.6718 10.64 77.7018 10.58C 78.0018 10.05 78.4268 9.64 78.9768 9.35C 79.5368 9.05 80.1968 8.9 80.9568 8.9C 81.9368 8.9 82.6868 9.13 83.2068 9.59C 83.7268 10.04 83.9868 10.665 83.9868 11.465L 83.9868 16.775C 83.9868 16.865 83.9718 16.925 83.9418 16.955C 83.9118 16.985 83.8568 17 83.7768 17L 83.0268 17C 82.9068 17 82.8368 16.92 82.8168 16.76L 82.7868 16.07C 82.7768 16 82.7518 15.965 82.7118 15.965C 82.6718 15.965 82.6268 15.99 82.5768 16.04ZM 82.7718 13.19C 82.7718 13.03 82.6968 12.95 82.5468 12.95L 81.5718 13.04C 80.6418 13.1 79.9218 13.28 79.4118 13.58C 78.9118 13.88 78.6618 14.295 78.6618 14.825C 78.6618 15.255 78.8118 15.595 79.1118 15.845C 79.4218 16.095 79.8318 16.22 80.3418 16.22C 80.6518 16.22 80.9568 16.165 81.2568 16.055C 81.5568 15.945 81.8218 15.795 82.0518 15.605C 82.2818 15.425 82.4568 15.235 82.5768 15.035C 82.7068 14.825 82.7718 14.625 82.7718 14.435L 82.7718 13.19ZM 87.4495 16.745C 87.4495 16.845 87.4295 16.915 87.3895 16.955C 87.3495 16.985 87.2795 17 87.1795 17L 86.3995 17C 86.3095 17 86.2495 16.985 86.2195 16.955C 86.1895 16.925 86.1745 16.87 86.1745 16.79L 86.1895 6.08C 86.1895 5.94 86.2495 5.87 86.3695 5.87L 87.2695 5.87C 87.3895 5.87 87.4495 5.935 87.4495 6.065L 87.4495 16.745ZM 91.0384 16.745C 91.0384 16.845 91.0184 16.915 90.9784 16.955C 90.9384 16.985 90.8684 17 90.7684 17L 89.9884 17C 89.8984 17 89.8384 16.985 89.8084 16.955C 89.7784 16.925 89.7634 16.87 89.7634 16.79L 89.7784 6.08C 89.7784 5.94 89.8384 5.87 89.9584 5.87L 90.8584 5.87C 90.9784 5.87 91.0384 5.935 91.0384 6.065L 91.0384 16.745ZM 101.345 10.805C 101.135 10.495 100.845 10.25 100.475 10.07C 100.115 9.88 99.6949 9.785 99.2149 9.785C 98.6649 9.785 98.2149 9.905 97.8649 10.145C 97.5149 10.375 97.3399 10.68 97.3399 11.06C 97.3399 11.29 97.4249 11.5 97.5949 11.69C 97.7749 11.87 98.0949 12.03 98.5549 12.17L 100.46 12.74C 101.12 12.92 101.61 13.19 101.93 13.55C 102.25 13.9 102.41 14.32 102.41 14.81C 102.41 15.27 102.27 15.68 101.99 16.04C 101.71 16.39 101.325 16.665 100.835 16.865C 100.345 17.055 99.7899 17.15 99.1699 17.15C 98.3999 17.15 97.7149 17 97.1149 16.7C 96.5149 16.39 96.0899 15.99 95.8399 15.5C 95.8099 15.45 95.7949 15.41 95.7949 15.38C 95.7949 15.33 95.8199 15.29 95.8699 15.26L 96.4549 14.93C 96.5549 14.87 96.6299 14.875 96.6799 14.945C 97.2199 15.805 98.0549 16.235 99.1849 16.235C 99.7749 16.225 100.26 16.105 100.64 15.875C 101.03 15.635 101.225 15.325 101.225 14.945C 101.225 14.665 101.11 14.43 100.88 14.24C 100.65 14.05 100.275 13.88 99.7549 13.73L 98.2099 13.295C 97.4799 13.105 96.9549 12.84 96.6349 12.5C 96.3249 12.16 96.1699 11.745 96.1699 11.255C 96.1699 10.795 96.2949 10.385 96.5449 10.025C 96.8049 9.665 97.1649 9.39 97.6249 9.2C 98.0949 9 98.6299 8.9 99.2299 8.9C 99.8899 8.9 100.48 9.025 101 9.275C 101.53 9.525 101.935 9.865 102.215 10.295C 102.285 10.395 102.28 10.465 102.2 10.505L 101.57 10.85C 101.53 10.87 101.5 10.88 101.48 10.88C 101.44 10.88 101.395 10.855 101.345 10.805ZM 106.351 9.98C 106.271 9.98 106.231 10.025 106.231 10.115L 106.231 14.87C 106.231 15.32 106.306 15.63 106.456 15.8C 106.606 15.97 106.851 16.055 107.191 16.055L 108.226 16.055C 108.336 16.055 108.391 16.11 108.391 16.22L 108.376 16.73C 108.376 16.83 108.316 16.895 108.196 16.925C 107.936 16.975 107.466 17 106.786 17C 106.156 17 105.696 16.855 105.406 16.565C 105.116 16.265 104.971 15.795 104.971 15.155L 104.971 10.145C 104.971 10.035 104.921 9.98 104.821 9.98L 103.621 9.98C 103.511 9.98 103.456 9.93 103.456 9.83L 103.456 9.2C 103.456 9.1 103.506 9.05 103.606 9.05L 104.881 9.05C 104.951 9.05 104.986 9.01 104.986 8.93L 105.151 6.545C 105.151 6.415 105.206 6.35 105.316 6.35L 106.066 6.35C 106.186 6.35 106.246 6.42 106.246 6.56L 106.246 8.93C 106.246 9.01 106.286 9.05 106.366 9.05L 108.256 9.05C 108.366 9.05 108.421 9.095 108.421 9.185L 108.421 9.83C 108.421 9.93 108.366 9.98 108.256 9.98L 106.351 9.98ZM 114.671 16.04C 113.901 16.78 113.011 17.15 112.001 17.15C 111.221 17.15 110.606 16.955 110.156 16.565C 109.716 16.165 109.496 15.635 109.496 14.975C 109.496 14.175 109.831 13.545 110.501 13.085C 111.181 12.625 112.161 12.355 113.441 12.275L 114.611 12.185C 114.781 12.165 114.866 12.09 114.866 11.96L 114.866 11.555C 114.866 11.015 114.696 10.59 114.356 10.28C 114.026 9.96 113.576 9.8 113.006 9.8C 112.126 9.8 111.406 10.2 110.846 11C 110.816 11.05 110.786 11.085 110.756 11.105C 110.726 11.115 110.686 11.11 110.636 11.09L 109.826 10.82C 109.776 10.8 109.751 10.765 109.751 10.715C 109.751 10.685 109.766 10.64 109.796 10.58C 110.096 10.05 110.521 9.64 111.071 9.35C 111.631 9.05 112.291 8.9 113.051 8.9C 114.031 8.9 114.781 9.13 115.301 9.59C 115.821 10.04 116.081 10.665 116.081 11.465L 116.081 16.775C 116.081 16.865 116.066 16.925 116.036 16.955C 116.006 16.985 115.951 17 115.871 17L 115.121 17C 115.001 17 114.931 16.92 114.911 16.76L 114.881 16.07C 114.871 16 114.846 15.965 114.806 15.965C 114.766 15.965 114.721 15.99 114.671 16.04ZM 114.866 13.19C 114.866 13.03 114.791 12.95 114.641 12.95L 113.666 13.04C 112.736 13.1 112.016 13.28 111.506 13.58C 111.006 13.88 110.756 14.295 110.756 14.825C 110.756 15.255 110.906 15.595 111.206 15.845C 111.516 16.095 111.926 16.22 112.436 16.22C 112.746 16.22 113.051 16.165 113.351 16.055C 113.651 15.945 113.916 15.795 114.146 15.605C 114.376 15.425 114.551 15.235 114.671 15.035C 114.801 14.825 114.866 14.625 114.866 14.435L 114.866 13.19ZM 121.569 8.9C 122.299 8.9 122.919 9.07 123.429 9.41C 123.949 9.75 124.364 10.2 124.674 10.76L 124.704 10.88C 124.704 10.94 124.669 10.975 124.599 10.985L 123.774 11.18L 123.729 11.195C 123.679 11.195 123.629 11.155 123.579 11.075C 123.259 10.645 122.949 10.33 122.649 10.13C 122.359 9.93 122.024 9.83 121.644 9.83C 120.864 9.83 120.244 10.12 119.784 10.7C 119.324 11.27 119.094 12.045 119.094 13.025C 119.094 14.015 119.324 14.795 119.784 15.365C 120.254 15.935 120.884 16.22 121.674 16.22C 122.144 16.22 122.554 16.105 122.904 15.875C 123.264 15.645 123.589 15.29 123.879 14.81C 123.909 14.76 123.939 14.735 123.969 14.735C 123.999 14.725 124.034 14.73 124.074 14.75L 124.719 14.99C 124.789 15.02 124.809 15.085 124.779 15.185C 124.469 15.765 124.044 16.24 123.504 16.61C 122.964 16.97 122.319 17.15 121.569 17.15C 120.839 17.15 120.189 16.98 119.619 16.64C 119.049 16.29 118.604 15.805 118.284 15.185C 117.964 14.565 117.804 13.855 117.804 13.055C 117.804 12.255 117.964 11.54 118.284 10.91C 118.604 10.27 119.049 9.775 119.619 9.425C 120.199 9.075 120.849 8.9 121.569 8.9ZM 133.269 16.76C 133.289 16.78 133.299 16.815 133.299 16.865C 133.299 16.955 133.244 17 133.134 17L 132.084 17C 132.024 17 131.974 16.99 131.934 16.97C 131.894 16.94 131.854 16.89 131.814 16.82L 129.549 12.935C 129.529 12.885 129.504 12.86 129.474 12.86C 129.444 12.85 129.409 12.865 129.369 12.905L 127.779 14.51C 127.709 14.58 127.674 14.68 127.674 14.81L 127.674 16.745C 127.674 16.845 127.654 16.915 127.614 16.955C 127.574 16.985 127.504 17 127.404 17L 126.639 17C 126.549 17 126.489 16.985 126.459 16.955C 126.429 16.925 126.414 16.87 126.414 16.79L 126.414 6.08C 126.414 5.94 126.469 5.87 126.579 5.87L 127.494 5.87C 127.614 5.87 127.674 5.935 127.674 6.065L 127.674 13.025C 127.674 13.125 127.689 13.175 127.719 13.175C 127.749 13.175 127.784 13.145 127.824 13.085L 131.529 9.23C 131.639 9.11 131.744 9.05 131.844 9.05L 132.759 9.05C 132.879 9.05 132.939 9.085 132.939 9.155C 132.939 9.185 132.904 9.245 132.834 9.335L 130.464 11.75C 130.424 11.81 130.404 11.855 130.404 11.885C 130.404 11.915 130.419 11.955 130.449 12.005L 133.269 16.76Z" transform="translate(0 31)" fill="#494949"/>
<path id="18px &#226;&#128;&#148; Medium stack" d="M 6.615 15.335C 6.775 15.335 6.855 15.405 6.855 15.545L 6.855 16.775C 6.855 16.835 6.835 16.89 6.795 16.94C 6.755 16.98 6.69 17 6.6 17L 0.9 17C 0.74 17 0.66 16.93 0.66 16.79L 0.66 15.545C 0.66 15.405 0.735 15.335 0.885 15.335L 2.565 15.335C 2.655 15.335 2.7 15.305 2.7 15.245L 2.7 8.27C 2.7 8.2 2.685 8.155 2.655 8.135C 2.635 8.115 2.59 8.11 2.52 8.12L 0.93 8.645C 0.91 8.655 0.88 8.66 0.84 8.66C 0.71 8.66 0.645 8.575 0.645 8.405L 0.645 7.535C 0.645 7.445 0.655 7.385 0.675 7.355C 0.705 7.315 0.76 7.275 0.84 7.235L 3.255 6.02C 3.365 5.97 3.46 5.935 3.54 5.915C 3.63 5.885 3.725 5.87 3.825 5.87L 4.725 5.87C 4.855 5.87 4.92 5.95 4.92 6.11L 4.92 15.2C 4.92 15.29 4.965 15.335 5.055 15.335L 6.615 15.335ZM 12.4521 5.72C 13.2121 5.72 13.8921 5.855 14.4921 6.125C 15.0921 6.385 15.5621 6.75 15.9021 7.22C 16.2421 7.69 16.4121 8.22 16.4121 8.81C 16.4121 9.25 16.2921 9.645 16.0521 9.995C 15.8121 10.345 15.4421 10.675 14.9421 10.985C 14.8621 11.035 14.8221 11.08 14.8221 11.12C 14.8221 11.16 14.8571 11.2 14.9271 11.24C 15.6271 11.59 16.1321 11.98 16.4421 12.41C 16.7521 12.84 16.9071 13.345 16.9071 13.925C 16.9071 14.585 16.7171 15.16 16.3371 15.65C 15.9571 16.13 15.4221 16.5 14.7321 16.76C 14.0521 17.02 13.2671 17.15 12.3771 17.15C 11.0871 17.15 10.0571 16.895 9.28711 16.385C 8.51711 15.875 8.13211 15.165 8.13211 14.255C 8.13211 13.735 8.26211 13.275 8.52211 12.875C 8.79211 12.475 9.23711 12.09 9.85711 11.72C 9.95711 11.66 10.0071 11.615 10.0071 11.585C 10.0071 11.545 9.96211 11.495 9.87211 11.435C 9.42211 11.145 9.06711 10.815 8.80711 10.445C 8.55711 10.075 8.43211 9.615 8.43211 9.065C 8.43211 8.445 8.59711 7.88 8.92711 7.37C 9.25711 6.86 9.72711 6.46 10.3371 6.17C 10.9471 5.87 11.6521 5.72 12.4521 5.72ZM 12.4821 7.22C 11.9221 7.22 11.4521 7.37 11.0721 7.67C 10.7021 7.97 10.5171 8.355 10.5171 8.825C 10.5171 9.545 10.9221 10.005 11.7321 10.205L 13.0371 10.565C 13.0671 10.575 13.1071 10.58 13.1571 10.58C 13.3471 10.58 13.5471 10.495 13.7571 10.325C 13.9771 10.145 14.1571 9.92 14.2971 9.65C 14.4471 9.38 14.5221 9.11 14.5221 8.84C 14.5221 8.37 14.3371 7.985 13.9671 7.685C 13.5971 7.375 13.1021 7.22 12.4821 7.22ZM 12.5121 15.65C 13.1921 15.65 13.7271 15.51 14.1171 15.23C 14.5071 14.94 14.7021 14.55 14.7021 14.06C 14.7021 13.69 14.5971 13.39 14.3871 13.16C 14.1871 12.92 13.8471 12.735 13.3671 12.605L 11.7621 12.17C 11.6821 12.15 11.6221 12.14 11.5821 12.14C 11.3721 12.14 11.1421 12.22 10.8921 12.38C 10.6521 12.54 10.4471 12.76 10.2771 13.04C 10.1171 13.31 10.0371 13.61 10.0371 13.94C 10.0371 14.48 10.2421 14.9 10.6521 15.2C 11.0721 15.5 11.6921 15.65 12.5121 15.65ZM 20.1881 9.05C 20.3781 9.05 20.4731 9.14 20.4731 9.32L 20.4731 9.83C 20.4731 9.91 20.4981 9.95 20.5481 9.95C 20.5781 9.95 20.6181 9.925 20.6681 9.875C 20.9881 9.575 21.3081 9.34 21.6281 9.17C 21.9581 8.99 22.3881 8.9 22.9181 8.9C 23.5281 8.9 24.0681 9.05 24.5381 9.35C 25.0181 9.65 25.3931 10.105 25.6631 10.715C 25.9331 11.315 26.0681 12.055 26.0681 12.935C 26.0681 14.305 25.7681 15.35 25.1681 16.07C 24.5681 16.79 23.7731 17.15 22.7831 17.15C 21.9831 17.15 21.3031 16.895 20.7431 16.385C 20.6431 16.305 20.5781 16.265 20.5481 16.265C 20.4981 16.265 20.4731 16.335 20.4731 16.475L 20.4731 19.235C 20.4731 19.395 20.4031 19.475 20.2631 19.475L 18.7331 19.475C 18.5931 19.475 18.5231 19.395 18.5231 19.235L 18.5231 9.35C 18.5231 9.24 18.5431 9.165 18.5831 9.125C 18.6331 9.075 18.7131 9.05 18.8231 9.05L 20.1881 9.05ZM 20.4731 15.05C 20.9731 15.6 21.5181 15.875 22.1081 15.875C 22.7281 15.875 23.2131 15.635 23.5631 15.155C 23.9131 14.665 24.0881 13.92 24.0881 12.92C 24.0881 11.96 23.9131 11.265 23.5631 10.835C 23.2231 10.395 22.7581 10.175 22.1681 10.175C 21.8481 10.175 21.5581 10.245 21.2981 10.385C 21.0381 10.515 20.8331 10.685 20.6831 10.895C 20.5431 11.105 20.4731 11.325 20.4731 11.555L 20.4731 15.05ZM 34.3071 16.565C 34.4171 16.705 34.4721 16.81 34.4721 16.88C 34.4721 16.96 34.3871 17 34.2171 17L 32.5971 17C 32.3971 17 32.2521 16.935 32.1621 16.805L 30.4221 14.36C 30.3521 14.26 30.2971 14.21 30.2571 14.21C 30.2171 14.21 30.1621 14.26 30.0921 14.36L 28.3071 16.805C 28.2171 16.935 28.0721 17 27.8721 17L 26.8221 17C 26.6121 17 26.5071 16.935 26.5071 16.805C 26.5071 16.745 26.5621 16.635 26.6721 16.475L 29.2221 13.205C 29.2821 13.125 29.3121 13.065 29.3121 13.025C 29.3121 12.965 29.2771 12.885 29.2071 12.785L 26.7171 9.41C 26.6771 9.37 26.6571 9.315 26.6571 9.245C 26.6571 9.185 26.6771 9.14 26.7171 9.11C 26.7671 9.07 26.8321 9.05 26.9121 9.05L 28.4571 9.05C 28.5671 9.05 28.6471 9.065 28.6971 9.095C 28.7571 9.125 28.8171 9.175 28.8771 9.245L 30.4821 11.495C 30.5321 11.555 30.5721 11.585 30.6021 11.585C 30.6421 11.585 30.6821 11.555 30.7221 11.495L 32.2671 9.245C 32.3171 9.175 32.3721 9.125 32.4321 9.095C 32.4921 9.065 32.5771 9.05 32.6871 9.05L 33.8421 9.05C 33.9921 9.05 34.0671 9.095 34.0671 9.185C 34.0671 9.225 34.0421 9.28 33.9921 9.35L 31.6521 12.5C 31.5921 12.57 31.5621 12.635 31.5621 12.695C 31.5621 12.735 31.5971 12.81 31.6671 12.92L 34.3071 16.565ZM 50.1948 13.43C 50.1948 13.57 50.1148 13.64 49.9548 13.64L 39.0498 13.64C 38.9798 13.64 38.9298 13.63 38.8998 13.61C 38.8698 13.58 38.8548 13.53 38.8548 13.46L 38.8548 12.8C 38.8548 12.69 38.8998 12.635 38.9898 12.635L 50.0448 12.62C 50.1448 12.62 50.1948 12.67 50.1948 12.77L 50.1948 13.43ZM 56.0107 17C 55.8707 17 55.8007 16.925 55.8007 16.775L 55.8007 6.08C 55.8007 6 55.8107 5.945 55.8307 5.915C 55.8607 5.885 55.9107 5.87 55.9807 5.87L 57.4207 5.87C 57.5007 5.87 57.5557 5.885 57.5857 5.915C 57.6257 5.935 57.6557 5.975 57.6757 6.035L 61.0057 14.63C 61.0357 14.72 61.0707 14.765 61.1107 14.765C 61.1607 14.765 61.2057 14.715 61.2457 14.615L 64.5757 6.065C 64.6057 5.935 64.6807 5.87 64.8007 5.87L 66.3157 5.87C 66.4257 5.87 66.4807 5.935 66.4807 6.065L 66.4807 16.775C 66.4807 16.925 66.4057 17 66.2557 17L 65.2657 17C 65.1157 17 65.0407 16.935 65.0407 16.805L 65.0407 8.225C 65.0407 8.175 65.0307 8.155 65.0107 8.165C 65.0007 8.165 64.9857 8.185 64.9657 8.225L 61.6657 16.805C 61.6057 16.935 61.5107 17 61.3807 17L 60.6607 17C 60.5107 17 60.4107 16.94 60.3607 16.82L 57.1057 8.315C 57.0957 8.265 57.0807 8.24 57.0607 8.24C 57.0407 8.24 57.0307 8.265 57.0307 8.315L 57.0307 16.805C 57.0307 16.875 57.0157 16.925 56.9857 16.955C 56.9557 16.985 56.9007 17 56.8207 17L 56.0107 17ZM 69.9345 13.52C 69.9345 14 70.0495 14.445 70.2795 14.855C 70.5195 15.265 70.8395 15.59 71.2395 15.83C 71.6395 16.07 72.0795 16.19 72.5595 16.19C 73.5595 16.19 74.3395 15.775 74.8995 14.945C 74.9395 14.905 74.9745 14.885 75.0045 14.885C 75.0345 14.875 75.0695 14.88 75.1095 14.9L 75.7395 15.215C 75.8195 15.265 75.8295 15.335 75.7695 15.425C 75.3795 16.025 74.9145 16.465 74.3745 16.745C 73.8345 17.015 73.1895 17.15 72.4395 17.15C 71.7095 17.15 71.0545 16.98 70.4745 16.64C 69.8945 16.3 69.4395 15.825 69.1095 15.215C 68.7895 14.595 68.6295 13.89 68.6295 13.1C 68.6295 12.25 68.7945 11.51 69.1245 10.88C 69.4545 10.24 69.9045 9.75 70.4745 9.41C 71.0545 9.07 71.7045 8.9 72.4245 8.9C 73.1445 8.9 73.7745 9.06 74.3145 9.38C 74.8645 9.7 75.2895 10.17 75.5895 10.79C 75.8895 11.4 76.0395 12.125 76.0395 12.965L 76.0395 13.025C 76.0395 13.115 76.0245 13.185 75.9945 13.235C 75.9645 13.275 75.9045 13.295 75.8145 13.295L 70.0695 13.295C 69.9795 13.295 69.9345 13.37 69.9345 13.52ZM 74.5245 12.47C 74.6345 12.47 74.7045 12.46 74.7345 12.44C 74.7645 12.41 74.7795 12.35 74.7795 12.26C 74.7795 11.82 74.6845 11.415 74.4945 11.045C 74.3145 10.665 74.0445 10.365 73.6845 10.145C 73.3345 9.915 72.9245 9.8 72.4545 9.8C 71.9445 9.8 71.4995 9.93 71.1195 10.19C 70.7395 10.44 70.4495 10.77 70.2495 11.18C 70.0495 11.58 69.9545 12.01 69.9645 12.47L 74.5245 12.47ZM 83.4653 17C 83.3253 17 83.2553 16.93 83.2553 16.79L 83.2553 16.145C 83.2553 16.055 83.2303 16.01 83.1803 16.01C 83.1503 16.01 83.1103 16.035 83.0603 16.085C 82.7603 16.385 82.4303 16.64 82.0703 16.85C 81.7203 17.05 81.2653 17.15 80.7053 17.15C 80.0653 17.15 79.4953 17 78.9953 16.7C 78.4953 16.4 78.1003 15.95 77.8103 15.35C 77.5203 14.74 77.3753 14.005 77.3753 13.145C 77.3753 12.305 77.5253 11.565 77.8253 10.925C 78.1253 10.285 78.5403 9.79 79.0703 9.44C 79.6003 9.08 80.2053 8.9 80.8853 8.9C 81.3353 8.9 81.7253 8.97 82.0553 9.11C 82.3853 9.25 82.6953 9.445 82.9853 9.695C 83.0653 9.755 83.1203 9.785 83.1503 9.785C 83.2003 9.785 83.2253 9.72 83.2253 9.59L 83.2253 6.065C 83.2253 5.935 83.2803 5.87 83.3903 5.87L 84.3053 5.87C 84.4153 5.87 84.4703 5.935 84.4703 6.065L 84.4703 16.76C 84.4703 16.85 84.4553 16.915 84.4253 16.955C 84.3953 16.985 84.3303 17 84.2303 17L 83.4653 17ZM 83.2103 10.805C 82.8903 10.485 82.5653 10.245 82.2353 10.085C 81.9153 9.915 81.5653 9.83 81.1853 9.83C 80.4253 9.83 79.8153 10.115 79.3553 10.685C 78.8953 11.255 78.6653 12.06 78.6653 13.1C 78.6653 14.15 78.8903 14.935 79.3403 15.455C 79.8003 15.975 80.3853 16.235 81.0953 16.235C 81.4853 16.235 81.8403 16.145 82.1603 15.965C 82.4903 15.775 82.7453 15.54 82.9253 15.26C 83.1153 14.98 83.2103 14.7 83.2103 14.42L 83.2103 10.805ZM 88.1098 7.34C 88.1098 7.44 88.0898 7.515 88.0498 7.565C 88.0098 7.605 87.9398 7.625 87.8398 7.625L 86.9698 7.625C 86.8198 7.625 86.7448 7.54 86.7448 7.37L 86.7448 6.11C 86.7448 5.95 86.8148 5.87 86.9548 5.87L 87.8998 5.87C 87.9598 5.87 88.0098 5.89 88.0498 5.93C 88.0898 5.97 88.1098 6.025 88.1098 6.095L 88.1098 7.34ZM 88.0498 16.745C 88.0498 16.845 88.0298 16.915 87.9898 16.955C 87.9498 16.985 87.8798 17 87.7798 17L 87.0148 17C 86.9248 17 86.8648 16.985 86.8348 16.955C 86.8048 16.925 86.7898 16.87 86.7898 16.79L 86.7898 9.26C 86.7898 9.12 86.8498 9.05 86.9698 9.05L 87.8848 9.05C 87.9948 9.05 88.0498 9.115 88.0498 9.245L 88.0498 16.745ZM 93.0786 16.16C 93.4886 16.16 93.8886 16.05 94.2786 15.83C 94.6786 15.6 95.0836 15.275 95.4936 14.855L 95.4936 9.26C 95.4936 9.12 95.5736 9.05 95.7336 9.05L 96.5586 9.05C 96.6986 9.05 96.7686 9.12 96.7686 9.26L 96.7386 16.805C 96.7386 16.935 96.6836 17 96.5736 17L 95.7036 17C 95.5936 17 95.5386 16.945 95.5386 16.835L 95.5386 15.95C 95.5386 15.83 95.4936 15.815 95.4036 15.905C 94.8636 16.365 94.3836 16.69 93.9636 16.88C 93.5436 17.06 93.1136 17.15 92.6736 17.15C 91.9736 17.15 91.3986 16.94 90.9486 16.52C 90.4986 16.1 90.2736 15.545 90.2736 14.855L 90.2736 9.275C 90.2736 9.125 90.3486 9.05 90.4986 9.05L 91.3386 9.05C 91.4686 9.05 91.5336 9.12 91.5336 9.26L 91.5336 14.525C 91.5336 15.025 91.6686 15.425 91.9386 15.725C 92.2186 16.015 92.5986 16.16 93.0786 16.16ZM 99.2752 17C 99.1352 17 99.0652 16.935 99.0652 16.805L 99.0652 9.245C 99.0652 9.115 99.1202 9.05 99.2302 9.05L 100.13 9.05C 100.23 9.05 100.28 9.105 100.28 9.215L 100.28 10.085C 100.28 10.205 100.33 10.22 100.43 10.13C 100.97 9.69 101.43 9.375 101.81 9.185C 102.19 8.995 102.615 8.9 103.085 8.9C 103.645 8.9 104.105 9.025 104.465 9.275C 104.835 9.525 105.085 9.84 105.215 10.22C 105.235 10.25 105.255 10.265 105.275 10.265C 105.305 10.265 105.355 10.24 105.425 10.19C 105.945 9.75 106.41 9.425 106.82 9.215C 107.24 9.005 107.68 8.9 108.14 8.9C 108.86 8.9 109.42 9.105 109.82 9.515C 110.23 9.925 110.435 10.48 110.435 11.18L 110.435 16.76C 110.435 16.92 110.36 17 110.21 17L 109.37 17C 109.24 17 109.175 16.935 109.175 16.805L 109.175 11.45C 109.175 10.95 109.055 10.565 108.815 10.295C 108.575 10.025 108.215 9.89 107.735 9.89C 107.335 9.89 106.96 9.99 106.61 10.19C 106.26 10.38 105.92 10.62 105.59 10.91C 105.51 10.99 105.455 11.06 105.425 11.12C 105.395 11.18 105.38 11.255 105.38 11.345L 105.38 16.76C 105.38 16.92 105.305 17 105.155 17L 104.315 17C 104.185 17 104.12 16.935 104.12 16.805L 104.12 11.45C 104.12 10.41 103.64 9.89 102.68 9.89C 102.28 9.89 101.91 9.985 101.57 10.175C 101.24 10.355 100.825 10.665 100.325 11.105L 100.325 16.775C 100.325 16.855 100.305 16.915 100.265 16.955C 100.235 16.985 100.18 17 100.1 17L 99.2752 17ZM 120.652 10.805C 120.442 10.495 120.152 10.25 119.782 10.07C 119.422 9.88 119.002 9.785 118.522 9.785C 117.972 9.785 117.522 9.905 117.172 10.145C 116.822 10.375 116.647 10.68 116.647 11.06C 116.647 11.29 116.732 11.5 116.902 11.69C 117.082 11.87 117.402 12.03 117.862 12.17L 119.767 12.74C 120.427 12.92 120.917 13.19 121.237 13.55C 121.557 13.9 121.717 14.32 121.717 14.81C 121.717 15.27 121.577 15.68 121.297 16.04C 121.017 16.39 120.632 16.665 120.142 16.865C 119.652 17.055 119.097 17.15 118.477 17.15C 117.707 17.15 117.022 17 116.422 16.7C 115.822 16.39 115.397 15.99 115.147 15.5C 115.117 15.45 115.102 15.41 115.102 15.38C 115.102 15.33 115.127 15.29 115.177 15.26L 115.762 14.93C 115.862 14.87 115.937 14.875 115.987 14.945C 116.527 15.805 117.362 16.235 118.492 16.235C 119.082 16.225 119.567 16.105 119.947 15.875C 120.337 15.635 120.532 15.325 120.532 14.945C 120.532 14.665 120.417 14.43 120.187 14.24C 119.957 14.05 119.582 13.88 119.062 13.73L 117.517 13.295C 116.787 13.105 116.262 12.84 115.942 12.5C 115.632 12.16 115.477 11.745 115.477 11.255C 115.477 10.795 115.602 10.385 115.852 10.025C 116.112 9.665 116.472 9.39 116.932 9.2C 117.402 9 117.937 8.9 118.537 8.9C 119.197 8.9 119.787 9.025 120.307 9.275C 120.837 9.525 121.242 9.865 121.522 10.295C 121.592 10.395 121.587 10.465 121.507 10.505L 120.877 10.85C 120.837 10.87 120.807 10.88 120.787 10.88C 120.747 10.88 120.702 10.855 120.652 10.805ZM 125.657 9.98C 125.577 9.98 125.537 10.025 125.537 10.115L 125.537 14.87C 125.537 15.32 125.612 15.63 125.762 15.8C 125.912 15.97 126.157 16.055 126.497 16.055L 127.532 16.055C 127.642 16.055 127.697 16.11 127.697 16.22L 127.682 16.73C 127.682 16.83 127.622 16.895 127.502 16.925C 127.242 16.975 126.772 17 126.092 17C 125.462 17 125.002 16.855 124.712 16.565C 124.422 16.265 124.277 15.795 124.277 15.155L 124.277 10.145C 124.277 10.035 124.227 9.98 124.127 9.98L 122.927 9.98C 122.817 9.98 122.762 9.93 122.762 9.83L 122.762 9.2C 122.762 9.1 122.812 9.05 122.912 9.05L 124.187 9.05C 124.257 9.05 124.292 9.01 124.292 8.93L 124.457 6.545C 124.457 6.415 124.512 6.35 124.622 6.35L 125.372 6.35C 125.492 6.35 125.552 6.42 125.552 6.56L 125.552 8.93C 125.552 9.01 125.592 9.05 125.672 9.05L 127.562 9.05C 127.672 9.05 127.727 9.095 127.727 9.185L 127.727 9.83C 127.727 9.93 127.672 9.98 127.562 9.98L 125.657 9.98ZM 133.978 16.04C 133.208 16.78 132.318 17.15 131.308 17.15C 130.528 17.15 129.913 16.955 129.463 16.565C 129.023 16.165 128.803 15.635 128.803 14.975C 128.803 14.175 129.138 13.545 129.808 13.085C 130.488 12.625 131.468 12.355 132.748 12.275L 133.918 12.185C 134.088 12.165 134.173 12.09 134.173 11.96L 134.173 11.555C 134.173 11.015 134.003 10.59 133.663 10.28C 133.333 9.96 132.883 9.8 132.313 9.8C 131.433 9.8 130.713 10.2 130.153 11C 130.123 11.05 130.093 11.085 130.063 11.105C 130.033 11.115 129.993 11.11 129.943 11.09L 129.133 10.82C 129.083 10.8 129.058 10.765 129.058 10.715C 129.058 10.685 129.073 10.64 129.103 10.58C 129.403 10.05 129.828 9.64 130.378 9.35C 130.938 9.05 131.598 8.9 132.358 8.9C 133.338 8.9 134.088 9.13 134.608 9.59C 135.128 10.04 135.388 10.665 135.388 11.465L 135.388 16.775C 135.388 16.865 135.373 16.925 135.343 16.955C 135.313 16.985 135.258 17 135.178 17L 134.428 17C 134.308 17 134.238 16.92 134.218 16.76L 134.188 16.07C 134.178 16 134.153 15.965 134.113 15.965C 134.073 15.965 134.028 15.99 133.978 16.04ZM 134.173 13.19C 134.173 13.03 134.098 12.95 133.948 12.95L 132.973 13.04C 132.043 13.1 131.323 13.28 130.813 13.58C 130.313 13.88 130.063 14.295 130.063 14.825C 130.063 15.255 130.213 15.595 130.513 15.845C 130.823 16.095 131.233 16.22 131.743 16.22C 132.053 16.22 132.358 16.165 132.658 16.055C 132.958 15.945 133.223 15.795 133.453 15.605C 133.683 15.425 133.858 15.235 133.978 15.035C 134.108 14.825 134.173 14.625 134.173 14.435L 134.173 13.19ZM 140.876 8.9C 141.606 8.9 142.226 9.07 142.736 9.41C 143.256 9.75 143.671 10.2 143.981 10.76L 144.011 10.88C 144.011 10.94 143.976 10.975 143.906 10.985L 143.081 11.18L 143.036 11.195C 142.986 11.195 142.936 11.155 142.886 11.075C 142.566 10.645 142.256 10.33 141.956 10.13C 141.666 9.93 141.331 9.83 140.951 9.83C 140.171 9.83 139.551 10.12 139.091 10.7C 138.631 11.27 138.401 12.045 138.401 13.025C 138.401 14.015 138.631 14.795 139.091 15.365C 139.561 15.935 140.191 16.22 140.981 16.22C 141.451 16.22 141.861 16.105 142.211 15.875C 142.571 15.645 142.896 15.29 143.186 14.81C 143.216 14.76 143.246 14.735 143.276 14.735C 143.306 14.725 143.341 14.73 143.381 14.75L 144.026 14.99C 144.096 15.02 144.116 15.085 144.086 15.185C 143.776 15.765 143.351 16.24 142.811 16.61C 142.271 16.97 141.626 17.15 140.876 17.15C 140.146 17.15 139.496 16.98 138.926 16.64C 138.356 16.29 137.911 15.805 137.591 15.185C 137.271 14.565 137.111 13.855 137.111 13.055C 137.111 12.255 137.271 11.54 137.591 10.91C 137.911 10.27 138.356 9.775 138.926 9.425C 139.506 9.075 140.156 8.9 140.876 8.9ZM 152.576 16.76C 152.596 16.78 152.606 16.815 152.606 16.865C 152.606 16.955 152.551 17 152.441 17L 151.391 17C 151.331 17 151.281 16.99 151.241 16.97C 151.201 16.94 151.161 16.89 151.121 16.82L 148.856 12.935C 148.836 12.885 148.811 12.86 148.781 12.86C 148.751 12.85 148.716 12.865 148.676 12.905L 147.086 14.51C 147.016 14.58 146.981 14.68 146.981 14.81L 146.981 16.745C 146.981 16.845 146.961 16.915 146.921 16.955C 146.881 16.985 146.811 17 146.711 17L 145.946 17C 145.856 17 145.796 16.985 145.766 16.955C 145.736 16.925 145.721 16.87 145.721 16.79L 145.721 6.08C 145.721 5.94 145.776 5.87 145.886 5.87L 146.801 5.87C 146.921 5.87 146.981 5.935 146.981 6.065L 146.981 13.025C 146.981 13.125 146.996 13.175 147.026 13.175C 147.056 13.175 147.091 13.145 147.131 13.085L 150.836 9.23C 150.946 9.11 151.051 9.05 151.151 9.05L 152.066 9.05C 152.186 9.05 152.246 9.085 152.246 9.155C 152.246 9.185 152.211 9.245 152.141 9.335L 149.771 11.75C 149.731 11.81 149.711 11.855 149.711 11.885C 149.711 11.915 149.726 11.955 149.756 12.005L 152.576 16.76Z" transform="translate(0 73)" fill="#494949"/>
<path id="30px &#226;&#128;&#148; Large stack" d="M 1.035 7.55C 0.995 7.49 0.975 7.445 0.975 7.415C 0.975 7.385 0.995 7.33 1.035 7.25C 1.465 6.76 2.005 6.385 2.655 6.125C 3.315 5.855 4.025 5.72 4.785 5.72C 5.605 5.72 6.32 5.845 6.93 6.095C 7.54 6.335 8.005 6.675 8.325 7.115C 8.655 7.545 8.82 8.04 8.82 8.6C 8.82 9.11 8.66 9.58 8.34 10.01C 8.02 10.44 7.575 10.745 7.005 10.925C 6.895 10.955 6.84 11 6.84 11.06C 6.84 11.11 6.895 11.15 7.005 11.18C 7.645 11.38 8.165 11.715 8.565 12.185C 8.965 12.655 9.165 13.205 9.165 13.835C 9.165 14.875 8.775 15.69 7.995 16.28C 7.225 16.86 6.09 17.15 4.59 17.15C 3.76 17.15 2.995 16.995 2.295 16.685C 1.595 16.375 1.025 15.94 0.585 15.38C 0.535 15.31 0.51 15.255 0.51 15.215C 0.51 15.135 0.555 15.065 0.645 15.005L 1.635 14.285C 1.715 14.235 1.775 14.21 1.815 14.21C 1.865 14.21 1.905 14.235 1.935 14.285C 2.395 14.755 2.83 15.085 3.24 15.275C 3.66 15.465 4.155 15.56 4.725 15.56C 5.425 15.56 5.975 15.405 6.375 15.095C 6.785 14.785 6.99 14.38 6.99 13.88C 6.99 13.32 6.76 12.88 6.3 12.56C 5.85 12.23 5.3 12.06 4.65 12.05L 3.345 12.035C 3.185 12.035 3.105 11.97 3.105 11.84L 3.105 10.655C 3.105 10.545 3.185 10.48 3.345 10.46L 4.395 10.43C 5.055 10.41 5.595 10.245 6.015 9.935C 6.445 9.615 6.66 9.21 6.66 8.72C 6.66 8.31 6.48 7.97 6.12 7.7C 5.76 7.42 5.305 7.28 4.755 7.28C 4.285 7.28 3.85 7.37 3.45 7.55C 3.05 7.73 2.65 8.01 2.25 8.39C 2.18 8.46 2.125 8.495 2.085 8.495C 2.045 8.495 1.995 8.465 1.935 8.405L 1.035 7.55ZM 15.153 5.705C 16.003 5.705 16.763 5.94 17.433 6.41C 18.113 6.87 18.643 7.54 19.023 8.42C 19.413 9.29 19.608 10.305 19.608 11.465C 19.608 12.625 19.418 13.635 19.038 14.495C 18.658 15.345 18.128 16 17.448 16.46C 16.778 16.91 16.008 17.135 15.138 17.135C 14.268 17.135 13.493 16.91 12.813 16.46C 12.143 16 11.613 15.345 11.223 14.495C 10.843 13.645 10.653 12.64 10.653 11.48C 10.653 10.31 10.848 9.29 11.238 8.42C 11.628 7.55 12.163 6.88 12.843 6.41C 13.523 5.94 14.293 5.705 15.153 5.705ZM 15.138 15.545C 15.878 15.545 16.433 15.225 16.803 14.585C 17.173 13.935 17.358 12.9 17.358 11.48C 17.358 10.03 17.168 8.97 16.788 8.3C 16.418 7.62 15.868 7.28 15.138 7.28C 13.648 7.28 12.903 8.68 12.903 11.48C 12.903 12.89 13.093 13.92 13.473 14.57C 13.853 15.22 14.408 15.545 15.138 15.545ZM 23.0006 9.05C 23.1906 9.05 23.2856 9.14 23.2856 9.32L 23.2856 9.83C 23.2856 9.91 23.3106 9.95 23.3606 9.95C 23.3906 9.95 23.4306 9.925 23.4806 9.875C 23.8006 9.575 24.1206 9.34 24.4406 9.17C 24.7706 8.99 25.2006 8.9 25.7306 8.9C 26.3406 8.9 26.8806 9.05 27.3506 9.35C 27.8306 9.65 28.2056 10.105 28.4756 10.715C 28.7456 11.315 28.8806 12.055 28.8806 12.935C 28.8806 14.305 28.5806 15.35 27.9806 16.07C 27.3806 16.79 26.5856 17.15 25.5956 17.15C 24.7956 17.15 24.1156 16.895 23.5556 16.385C 23.4556 16.305 23.3906 16.265 23.3606 16.265C 23.3106 16.265 23.2856 16.335 23.2856 16.475L 23.2856 19.235C 23.2856 19.395 23.2156 19.475 23.0756 19.475L 21.5456 19.475C 21.4056 19.475 21.3356 19.395 21.3356 19.235L 21.3356 9.35C 21.3356 9.24 21.3556 9.165 21.3956 9.125C 21.4456 9.075 21.5256 9.05 21.6356 9.05L 23.0006 9.05ZM 23.2856 15.05C 23.7856 15.6 24.3306 15.875 24.9206 15.875C 25.5406 15.875 26.0256 15.635 26.3756 15.155C 26.7256 14.665 26.9006 13.92 26.9006 12.92C 26.9006 11.96 26.7256 11.265 26.3756 10.835C 26.0356 10.395 25.5706 10.175 24.9806 10.175C 24.6606 10.175 24.3706 10.245 24.1106 10.385C 23.8506 10.515 23.6456 10.685 23.4956 10.895C 23.3556 11.105 23.2856 11.325 23.2856 11.555L 23.2856 15.05ZM 37.1196 16.565C 37.2296 16.705 37.2846 16.81 37.2846 16.88C 37.2846 16.96 37.1996 17 37.0296 17L 35.4096 17C 35.2096 17 35.0646 16.935 34.9746 16.805L 33.2346 14.36C 33.1646 14.26 33.1096 14.21 33.0696 14.21C 33.0296 14.21 32.9746 14.26 32.9046 14.36L 31.1196 16.805C 31.0296 16.935 30.8846 17 30.6846 17L 29.6346 17C 29.4246 17 29.3196 16.935 29.3196 16.805C 29.3196 16.745 29.3746 16.635 29.4846 16.475L 32.0346 13.205C 32.0946 13.125 32.1246 13.065 32.1246 13.025C 32.1246 12.965 32.0896 12.885 32.0196 12.785L 29.5296 9.41C 29.4896 9.37 29.4696 9.315 29.4696 9.245C 29.4696 9.185 29.4896 9.14 29.5296 9.11C 29.5796 9.07 29.6446 9.05 29.7246 9.05L 31.2696 9.05C 31.3796 9.05 31.4596 9.065 31.5096 9.095C 31.5696 9.125 31.6296 9.175 31.6896 9.245L 33.2946 11.495C 33.3446 11.555 33.3846 11.585 33.4146 11.585C 33.4546 11.585 33.4946 11.555 33.5346 11.495L 35.0796 9.245C 35.1296 9.175 35.1846 9.125 35.2446 9.095C 35.3046 9.065 35.3896 9.05 35.4996 9.05L 36.6546 9.05C 36.8046 9.05 36.8796 9.095 36.8796 9.185C 36.8796 9.225 36.8546 9.28 36.8046 9.35L 34.4646 12.5C 34.4046 12.57 34.3746 12.635 34.3746 12.695C 34.3746 12.735 34.4096 12.81 34.4796 12.92L 37.1196 16.565ZM 53.0073 13.43C 53.0073 13.57 52.9273 13.64 52.7673 13.64L 41.8623 13.64C 41.7923 13.64 41.7423 13.63 41.7123 13.61C 41.6823 13.58 41.6673 13.53 41.6673 13.46L 41.6673 12.8C 41.6673 12.69 41.7123 12.635 41.8023 12.635L 52.8573 12.62C 52.9573 12.62 53.0073 12.67 53.0073 12.77L 53.0073 13.43ZM 58.6132 6.08C 58.6132 5.94 58.6732 5.87 58.7932 5.87L 59.8732 5.87C 59.9932 5.87 60.0532 5.935 60.0532 6.065L 60.0532 15.74C 60.0532 15.8 60.0632 15.84 60.0832 15.86C 60.1032 15.88 60.1432 15.89 60.2032 15.89L 65.3932 15.89C 65.4532 15.89 65.4982 15.9 65.5282 15.92C 65.5582 15.94 65.5732 15.98 65.5732 16.04L 65.5732 16.835C 65.5732 16.945 65.5132 17 65.3932 17L 58.8232 17C 58.7432 17 58.6882 16.985 58.6582 16.955C 58.6282 16.925 58.6132 16.87 58.6132 16.79L 58.6132 6.08ZM 71.9566 16.04C 71.1866 16.78 70.2966 17.15 69.2866 17.15C 68.5066 17.15 67.8916 16.955 67.4416 16.565C 67.0016 16.165 66.7816 15.635 66.7816 14.975C 66.7816 14.175 67.1166 13.545 67.7866 13.085C 68.4666 12.625 69.4466 12.355 70.7266 12.275L 71.8966 12.185C 72.0666 12.165 72.1516 12.09 72.1516 11.96L 72.1516 11.555C 72.1516 11.015 71.9816 10.59 71.6416 10.28C 71.3116 9.96 70.8616 9.8 70.2916 9.8C 69.4116 9.8 68.6916 10.2 68.1316 11C 68.1016 11.05 68.0716 11.085 68.0416 11.105C 68.0116 11.115 67.9716 11.11 67.9216 11.09L 67.1116 10.82C 67.0616 10.8 67.0366 10.765 67.0366 10.715C 67.0366 10.685 67.0516 10.64 67.0816 10.58C 67.3816 10.05 67.8066 9.64 68.3566 9.35C 68.9166 9.05 69.5766 8.9 70.3366 8.9C 71.3166 8.9 72.0666 9.13 72.5866 9.59C 73.1066 10.04 73.3666 10.665 73.3666 11.465L 73.3666 16.775C 73.3666 16.865 73.3516 16.925 73.3216 16.955C 73.2916 16.985 73.2366 17 73.1566 17L 72.4066 17C 72.2866 17 72.2166 16.92 72.1966 16.76L 72.1666 16.07C 72.1566 16 72.1316 15.965 72.0916 15.965C 72.0516 15.965 72.0066 15.99 71.9566 16.04ZM 72.1516 13.19C 72.1516 13.03 72.0766 12.95 71.9266 12.95L 70.9516 13.04C 70.0216 13.1 69.3016 13.28 68.7916 13.58C 68.2916 13.88 68.0416 14.295 68.0416 14.825C 68.0416 15.255 68.1916 15.595 68.4916 15.845C 68.8016 16.095 69.2116 16.22 69.7216 16.22C 70.0316 16.22 70.3366 16.165 70.6366 16.055C 70.9366 15.945 71.2016 15.795 71.4316 15.605C 71.6616 15.425 71.8366 15.235 71.9566 15.035C 72.0866 14.825 72.1516 14.625 72.1516 14.435L 72.1516 13.19ZM 75.7644 17C 75.6244 17 75.5544 16.935 75.5544 16.805L 75.5544 9.245C 75.5544 9.115 75.6094 9.05 75.7194 9.05L 76.5894 9.05C 76.6994 9.05 76.7544 9.105 76.7544 9.215L 76.7544 10.19C 76.7544 10.25 76.7694 10.285 76.7994 10.295C 76.8394 10.305 76.8794 10.285 76.9194 10.235C 77.6794 9.345 78.4544 8.9 79.2444 8.9C 79.5944 8.9 79.7694 8.965 79.7694 9.095L 79.7694 9.995C 79.7694 10.095 79.7244 10.135 79.6344 10.115C 79.4544 10.085 79.2294 10.07 78.9594 10.07C 78.6694 10.07 78.3544 10.155 78.0144 10.325C 77.6744 10.495 77.3894 10.715 77.1594 10.985C 76.9294 11.255 76.8144 11.53 76.8144 11.81L 76.8144 16.775C 76.8144 16.925 76.7394 17 76.5894 17L 75.7644 17ZM 88.4816 8.915C 88.6716 8.915 88.7666 8.995 88.7666 9.155L 88.7666 9.68C 88.7666 9.78 88.7416 9.855 88.6916 9.905C 88.6516 9.945 88.5766 9.96 88.4666 9.95C 88.1366 9.95 87.8766 9.995 87.6866 10.085C 87.4466 10.185 87.3466 10.3 87.3866 10.43C 87.3966 10.47 87.4266 10.545 87.4766 10.655C 87.5266 10.765 87.5666 10.89 87.5966 11.03C 87.6266 11.16 87.6416 11.3 87.6416 11.45C 87.6416 12.16 87.3616 12.74 86.8016 13.19C 86.2516 13.64 85.4466 13.865 84.3866 13.865C 83.6766 13.865 83.1666 13.925 82.8566 14.045C 82.5466 14.165 82.3916 14.32 82.3916 14.51C 82.3916 14.66 82.4966 14.775 82.7066 14.855C 82.9166 14.925 83.2666 14.975 83.7566 15.005L 85.6916 15.11C 86.5516 15.16 87.1916 15.365 87.6116 15.725C 88.0316 16.085 88.2416 16.575 88.2416 17.195C 88.2416 17.955 87.9066 18.55 87.2366 18.98C 86.5766 19.41 85.6316 19.625 84.4016 19.625C 83.1316 19.625 82.1616 19.44 81.4916 19.07C 80.8316 18.71 80.5016 18.19 80.5016 17.51C 80.5016 16.84 80.9716 16.275 81.9116 15.815C 82.0216 15.765 82.0216 15.71 81.9116 15.65C 81.4516 15.45 81.2216 15.155 81.2216 14.765C 81.2216 14.545 81.3216 14.335 81.5216 14.135C 81.7316 13.935 82.0266 13.77 82.4066 13.64C 82.4566 13.63 82.4816 13.605 82.4816 13.565C 82.4816 13.515 82.4566 13.48 82.4066 13.46C 81.9666 13.23 81.6416 12.955 81.4316 12.635C 81.2216 12.305 81.1166 11.91 81.1166 11.45C 81.1166 10.67 81.4116 10.055 82.0016 9.605C 82.5916 9.155 83.4266 8.93 84.5066 8.93C 85.4566 8.93 86.2066 9.155 86.7566 9.605C 86.8266 9.655 86.8766 9.68 86.9066 9.68C 86.9466 9.68 87.0016 9.655 87.0716 9.605C 87.2616 9.415 87.4816 9.255 87.7316 9.125C 87.9916 8.985 88.2416 8.915 88.4816 8.915ZM 84.3866 13.07C 85.0766 13.07 85.5916 12.93 85.9316 12.65C 86.2816 12.37 86.4566 11.965 86.4566 11.435C 86.4566 10.895 86.2816 10.475 85.9316 10.175C 85.5816 9.875 85.0666 9.725 84.3866 9.725C 83.7266 9.725 83.2116 9.88 82.8416 10.19C 82.4716 10.49 82.2866 10.905 82.2866 11.435C 82.2866 11.955 82.4666 12.36 82.8266 12.65C 83.1966 12.93 83.7166 13.07 84.3866 13.07ZM 83.0666 16.025C 82.8866 16.015 82.6816 16.07 82.4516 16.19C 82.2216 16.3 82.0266 16.46 81.8666 16.67C 81.7066 16.88 81.6266 17.11 81.6266 17.36C 81.6266 17.84 81.8716 18.205 82.3616 18.455C 82.8516 18.715 83.5766 18.845 84.5366 18.845C 86.2266 18.845 87.0716 18.345 87.0716 17.345C 87.0716 16.995 86.9516 16.72 86.7116 16.52C 86.4816 16.32 86.1016 16.205 85.5716 16.175L 83.0666 16.025ZM 91.0429 13.52C 91.0429 14 91.1579 14.445 91.3879 14.855C 91.6279 15.265 91.9479 15.59 92.3479 15.83C 92.7479 16.07 93.1879 16.19 93.6679 16.19C 94.6679 16.19 95.4479 15.775 96.0079 14.945C 96.0479 14.905 96.0829 14.885 96.1129 14.885C 96.1429 14.875 96.1779 14.88 96.2179 14.9L 96.8479 15.215C 96.9279 15.265 96.9379 15.335 96.8779 15.425C 96.4879 16.025 96.0229 16.465 95.4829 16.745C 94.9429 17.015 94.2979 17.15 93.5479 17.15C 92.8179 17.15 92.1629 16.98 91.5829 16.64C 91.0029 16.3 90.5479 15.825 90.2179 15.215C 89.8979 14.595 89.7379 13.89 89.7379 13.1C 89.7379 12.25 89.9029 11.51 90.2329 10.88C 90.5629 10.24 91.0129 9.75 91.5829 9.41C 92.1629 9.07 92.8129 8.9 93.5329 8.9C 94.2529 8.9 94.8829 9.06 95.4229 9.38C 95.9729 9.7 96.3979 10.17 96.6979 10.79C 96.9979 11.4 97.1479 12.125 97.1479 12.965L 97.1479 13.025C 97.1479 13.115 97.1329 13.185 97.1029 13.235C 97.0729 13.275 97.0129 13.295 96.9229 13.295L 91.1779 13.295C 91.0879 13.295 91.0429 13.37 91.0429 13.52ZM 95.6329 12.47C 95.7429 12.47 95.8129 12.46 95.8429 12.44C 95.8729 12.41 95.8879 12.35 95.8879 12.26C 95.8879 11.82 95.7929 11.415 95.6029 11.045C 95.4229 10.665 95.1529 10.365 94.7929 10.145C 94.4429 9.915 94.0329 9.8 93.5629 9.8C 93.0529 9.8 92.6079 9.93 92.2279 10.19C 91.8479 10.44 91.5579 10.77 91.3579 11.18C 91.1579 11.58 91.0629 12.01 91.0729 12.47L 95.6329 12.47ZM 106.911 10.805C 106.701 10.495 106.411 10.25 106.041 10.07C 105.681 9.88 105.261 9.785 104.781 9.785C 104.231 9.785 103.781 9.905 103.431 10.145C 103.081 10.375 102.906 10.68 102.906 11.06C 102.906 11.29 102.991 11.5 103.161 11.69C 103.341 11.87 103.661 12.03 104.121 12.17L 106.026 12.74C 106.686 12.92 107.176 13.19 107.496 13.55C 107.816 13.9 107.976 14.32 107.976 14.81C 107.976 15.27 107.836 15.68 107.556 16.04C 107.276 16.39 106.891 16.665 106.401 16.865C 105.911 17.055 105.356 17.15 104.736 17.15C 103.966 17.15 103.281 17 102.681 16.7C 102.081 16.39 101.656 15.99 101.406 15.5C 101.376 15.45 101.361 15.41 101.361 15.38C 101.361 15.33 101.386 15.29 101.436 15.26L 102.021 14.93C 102.121 14.87 102.196 14.875 102.246 14.945C 102.786 15.805 103.621 16.235 104.751 16.235C 105.341 16.225 105.826 16.105 106.206 15.875C 106.596 15.635 106.791 15.325 106.791 14.945C 106.791 14.665 106.676 14.43 106.446 14.24C 106.216 14.05 105.841 13.88 105.321 13.73L 103.776 13.295C 103.046 13.105 102.521 12.84 102.201 12.5C 101.891 12.16 101.736 11.745 101.736 11.255C 101.736 10.795 101.861 10.385 102.111 10.025C 102.371 9.665 102.731 9.39 103.191 9.2C 103.661 9 104.196 8.9 104.796 8.9C 105.456 8.9 106.046 9.025 106.566 9.275C 107.096 9.525 107.501 9.865 107.781 10.295C 107.851 10.395 107.846 10.465 107.766 10.505L 107.136 10.85C 107.096 10.87 107.066 10.88 107.046 10.88C 107.006 10.88 106.961 10.855 106.911 10.805ZM 111.917 9.98C 111.837 9.98 111.797 10.025 111.797 10.115L 111.797 14.87C 111.797 15.32 111.872 15.63 112.022 15.8C 112.172 15.97 112.417 16.055 112.757 16.055L 113.792 16.055C 113.902 16.055 113.957 16.11 113.957 16.22L 113.942 16.73C 113.942 16.83 113.882 16.895 113.762 16.925C 113.502 16.975 113.032 17 112.352 17C 111.722 17 111.262 16.855 110.972 16.565C 110.682 16.265 110.537 15.795 110.537 15.155L 110.537 10.145C 110.537 10.035 110.487 9.98 110.387 9.98L 109.187 9.98C 109.077 9.98 109.022 9.93 109.022 9.83L 109.022 9.2C 109.022 9.1 109.072 9.05 109.172 9.05L 110.447 9.05C 110.517 9.05 110.552 9.01 110.552 8.93L 110.717 6.545C 110.717 6.415 110.772 6.35 110.882 6.35L 111.632 6.35C 111.752 6.35 111.812 6.42 111.812 6.56L 111.812 8.93C 111.812 9.01 111.852 9.05 111.932 9.05L 113.822 9.05C 113.932 9.05 113.987 9.095 113.987 9.185L 113.987 9.83C 113.987 9.93 113.932 9.98 113.822 9.98L 111.917 9.98ZM 120.238 16.04C 119.468 16.78 118.578 17.15 117.568 17.15C 116.788 17.15 116.173 16.955 115.723 16.565C 115.283 16.165 115.063 15.635 115.063 14.975C 115.063 14.175 115.398 13.545 116.068 13.085C 116.748 12.625 117.728 12.355 119.008 12.275L 120.178 12.185C 120.348 12.165 120.433 12.09 120.433 11.96L 120.433 11.555C 120.433 11.015 120.263 10.59 119.923 10.28C 119.593 9.96 119.143 9.8 118.573 9.8C 117.693 9.8 116.973 10.2 116.413 11C 116.383 11.05 116.353 11.085 116.323 11.105C 116.293 11.115 116.253 11.11 116.203 11.09L 115.393 10.82C 115.343 10.8 115.318 10.765 115.318 10.715C 115.318 10.685 115.333 10.64 115.363 10.58C 115.663 10.05 116.088 9.64 116.638 9.35C 117.198 9.05 117.858 8.9 118.618 8.9C 119.598 8.9 120.348 9.13 120.868 9.59C 121.388 10.04 121.648 10.665 121.648 11.465L 121.648 16.775C 121.648 16.865 121.633 16.925 121.603 16.955C 121.573 16.985 121.518 17 121.438 17L 120.688 17C 120.568 17 120.498 16.92 120.478 16.76L 120.448 16.07C 120.438 16 120.413 15.965 120.373 15.965C 120.333 15.965 120.288 15.99 120.238 16.04ZM 120.433 13.19C 120.433 13.03 120.358 12.95 120.208 12.95L 119.233 13.04C 118.303 13.1 117.583 13.28 117.073 13.58C 116.573 13.88 116.323 14.295 116.323 14.825C 116.323 15.255 116.473 15.595 116.773 15.845C 117.083 16.095 117.493 16.22 118.003 16.22C 118.313 16.22 118.618 16.165 118.918 16.055C 119.218 15.945 119.483 15.795 119.713 15.605C 119.943 15.425 120.118 15.235 120.238 15.035C 120.368 14.825 120.433 14.625 120.433 14.435L 120.433 13.19ZM 127.136 8.9C 127.866 8.9 128.486 9.07 128.996 9.41C 129.516 9.75 129.931 10.2 130.241 10.76L 130.271 10.88C 130.271 10.94 130.236 10.975 130.166 10.985L 129.341 11.18L 129.296 11.195C 129.246 11.195 129.196 11.155 129.146 11.075C 128.826 10.645 128.516 10.33 128.216 10.13C 127.926 9.93 127.591 9.83 127.211 9.83C 126.431 9.83 125.811 10.12 125.351 10.7C 124.891 11.27 124.661 12.045 124.661 13.025C 124.661 14.015 124.891 14.795 125.351 15.365C 125.821 15.935 126.451 16.22 127.241 16.22C 127.711 16.22 128.121 16.105 128.471 15.875C 128.831 15.645 129.156 15.29 129.446 14.81C 129.476 14.76 129.506 14.735 129.536 14.735C 129.566 14.725 129.601 14.73 129.641 14.75L 130.286 14.99C 130.356 15.02 130.376 15.085 130.346 15.185C 130.036 15.765 129.611 16.24 129.071 16.61C 128.531 16.97 127.886 17.15 127.136 17.15C 126.406 17.15 125.756 16.98 125.186 16.64C 124.616 16.29 124.171 15.805 123.851 15.185C 123.531 14.565 123.371 13.855 123.371 13.055C 123.371 12.255 123.531 11.54 123.851 10.91C 124.171 10.27 124.616 9.775 125.186 9.425C 125.766 9.075 126.416 8.9 127.136 8.9ZM 138.836 16.76C 138.856 16.78 138.866 16.815 138.866 16.865C 138.866 16.955 138.811 17 138.701 17L 137.651 17C 137.591 17 137.541 16.99 137.501 16.97C 137.461 16.94 137.421 16.89 137.381 16.82L 135.116 12.935C 135.096 12.885 135.071 12.86 135.041 12.86C 135.011 12.85 134.976 12.865 134.936 12.905L 133.346 14.51C 133.276 14.58 133.241 14.68 133.241 14.81L 133.241 16.745C 133.241 16.845 133.221 16.915 133.181 16.955C 133.141 16.985 133.071 17 132.971 17L 132.206 17C 132.116 17 132.056 16.985 132.026 16.955C 131.996 16.925 131.981 16.87 131.981 16.79L 131.981 6.08C 131.981 5.94 132.036 5.87 132.146 5.87L 133.061 5.87C 133.181 5.87 133.241 5.935 133.241 6.065L 133.241 13.025C 133.241 13.125 133.256 13.175 133.286 13.175C 133.316 13.175 133.351 13.145 133.391 13.085L 137.096 9.23C 137.206 9.11 137.311 9.05 137.411 9.05L 138.326 9.05C 138.446 9.05 138.506 9.085 138.506 9.155C 138.506 9.185 138.471 9.245 138.401 9.335L 136.031 11.75C 135.991 11.81 135.971 11.855 135.971 11.885C 135.971 11.915 135.986 11.955 136.016 12.005L 138.836 16.76Z" transform="translate(0 121)" fill="#494949"/>
<path id="48px &#226;&#128;&#148; Giant stack" d="M 5.565 6.11C 5.645 6.01 5.72 5.945 5.79 5.915C 5.86 5.885 5.96 5.87 6.09 5.87L 7.68 5.87C 7.82 5.87 7.89 5.95 7.89 6.11L 7.89 12.545C 7.89 12.595 7.905 12.635 7.935 12.665C 7.965 12.695 8 12.71 8.04 12.71L 9.33 12.71C 9.5 12.71 9.585 12.775 9.585 12.905L 9.585 14C 9.585 14.17 9.495 14.255 9.315 14.255L 8.055 14.255C 7.945 14.255 7.89 14.31 7.89 14.42L 7.89 16.7C 7.89 16.81 7.865 16.89 7.815 16.94C 7.765 16.98 7.68 17 7.56 17L 5.925 17C 5.735 17 5.64 16.91 5.64 16.73L 5.655 14.375C 5.655 14.295 5.6 14.255 5.49 14.255L 0.855 14.255C 0.675 14.255 0.585 14.17 0.585 14L 0.585 12.92C 0.585 12.84 0.61 12.755 0.66 12.665C 0.71 12.565 0.795 12.435 0.915 12.275L 5.565 6.11ZM 5.52 12.71C 5.56 12.71 5.59 12.7 5.61 12.68C 5.64 12.66 5.655 12.635 5.655 12.605L 5.655 8.435C 5.655 8.295 5.635 8.225 5.595 8.225C 5.575 8.225 5.525 8.275 5.445 8.375L 2.415 12.515C 2.375 12.575 2.355 12.615 2.355 12.635C 2.355 12.685 2.41 12.71 2.52 12.71L 5.52 12.71ZM 15.1621 5.72C 15.9221 5.72 16.6021 5.855 17.2021 6.125C 17.8021 6.385 18.2721 6.75 18.6121 7.22C 18.9521 7.69 19.1221 8.22 19.1221 8.81C 19.1221 9.25 19.0021 9.645 18.7621 9.995C 18.5221 10.345 18.1521 10.675 17.6521 10.985C 17.5721 11.035 17.5321 11.08 17.5321 11.12C 17.5321 11.16 17.5671 11.2 17.6371 11.24C 18.3371 11.59 18.8421 11.98 19.1521 12.41C 19.4621 12.84 19.6171 13.345 19.6171 13.925C 19.6171 14.585 19.4271 15.16 19.0471 15.65C 18.6671 16.13 18.1321 16.5 17.4421 16.76C 16.7621 17.02 15.9771 17.15 15.0871 17.15C 13.7971 17.15 12.7671 16.895 11.9971 16.385C 11.2271 15.875 10.8421 15.165 10.8421 14.255C 10.8421 13.735 10.9721 13.275 11.2321 12.875C 11.5021 12.475 11.9471 12.09 12.5671 11.72C 12.6671 11.66 12.7171 11.615 12.7171 11.585C 12.7171 11.545 12.6721 11.495 12.5821 11.435C 12.1321 11.145 11.7771 10.815 11.5171 10.445C 11.2671 10.075 11.1421 9.615 11.1421 9.065C 11.1421 8.445 11.3071 7.88 11.6371 7.37C 11.9671 6.86 12.4371 6.46 13.0471 6.17C 13.6571 5.87 14.3621 5.72 15.1621 5.72ZM 15.1921 7.22C 14.6321 7.22 14.1621 7.37 13.7821 7.67C 13.4121 7.97 13.2271 8.355 13.2271 8.825C 13.2271 9.545 13.6321 10.005 14.4421 10.205L 15.7471 10.565C 15.7771 10.575 15.8171 10.58 15.8671 10.58C 16.0571 10.58 16.2571 10.495 16.4671 10.325C 16.6871 10.145 16.8671 9.92 17.0071 9.65C 17.1571 9.38 17.2321 9.11 17.2321 8.84C 17.2321 8.37 17.0471 7.985 16.6771 7.685C 16.3071 7.375 15.8121 7.22 15.1921 7.22ZM 15.2221 15.65C 15.9021 15.65 16.4371 15.51 16.8271 15.23C 17.2171 14.94 17.4121 14.55 17.4121 14.06C 17.4121 13.69 17.3071 13.39 17.0971 13.16C 16.8971 12.92 16.5571 12.735 16.0771 12.605L 14.4721 12.17C 14.3921 12.15 14.3321 12.14 14.2921 12.14C 14.0821 12.14 13.8521 12.22 13.6021 12.38C 13.3621 12.54 13.1571 12.76 12.9871 13.04C 12.8271 13.31 12.7471 13.61 12.7471 13.94C 12.7471 14.48 12.9521 14.9 13.3621 15.2C 13.7821 15.5 14.4021 15.65 15.2221 15.65ZM 22.8981 9.05C 23.0881 9.05 23.1831 9.14 23.1831 9.32L 23.1831 9.83C 23.1831 9.91 23.2081 9.95 23.2581 9.95C 23.2881 9.95 23.3281 9.925 23.3781 9.875C 23.6981 9.575 24.0181 9.34 24.3381 9.17C 24.6681 8.99 25.0981 8.9 25.6281 8.9C 26.2381 8.9 26.7781 9.05 27.2481 9.35C 27.7281 9.65 28.1031 10.105 28.3731 10.715C 28.6431 11.315 28.7781 12.055 28.7781 12.935C 28.7781 14.305 28.4781 15.35 27.8781 16.07C 27.2781 16.79 26.4831 17.15 25.4931 17.15C 24.6931 17.15 24.0131 16.895 23.4531 16.385C 23.3531 16.305 23.2881 16.265 23.2581 16.265C 23.2081 16.265 23.1831 16.335 23.1831 16.475L 23.1831 19.235C 23.1831 19.395 23.1131 19.475 22.9731 19.475L 21.4431 19.475C 21.3031 19.475 21.2331 19.395 21.2331 19.235L 21.2331 9.35C 21.2331 9.24 21.2531 9.165 21.2931 9.125C 21.3431 9.075 21.4231 9.05 21.5331 9.05L 22.8981 9.05ZM 23.1831 15.05C 23.6831 15.6 24.2281 15.875 24.8181 15.875C 25.4381 15.875 25.9231 15.635 26.2731 15.155C 26.6231 14.665 26.7981 13.92 26.7981 12.92C 26.7981 11.96 26.6231 11.265 26.2731 10.835C 25.9331 10.395 25.4681 10.175 24.8781 10.175C 24.5581 10.175 24.2681 10.245 24.0081 10.385C 23.7481 10.515 23.5431 10.685 23.3931 10.895C 23.2531 11.105 23.1831 11.325 23.1831 11.555L 23.1831 15.05ZM 37.0171 16.565C 37.1271 16.705 37.1821 16.81 37.1821 16.88C 37.1821 16.96 37.0971 17 36.9271 17L 35.3071 17C 35.1071 17 34.9621 16.935 34.8721 16.805L 33.1321 14.36C 33.0621 14.26 33.0071 14.21 32.9671 14.21C 32.9271 14.21 32.8721 14.26 32.8021 14.36L 31.0171 16.805C 30.9271 16.935 30.7821 17 30.5821 17L 29.5321 17C 29.3221 17 29.2171 16.935 29.2171 16.805C 29.2171 16.745 29.2721 16.635 29.3821 16.475L 31.9321 13.205C 31.9921 13.125 32.0221 13.065 32.0221 13.025C 32.0221 12.965 31.9871 12.885 31.9171 12.785L 29.4271 9.41C 29.3871 9.37 29.3671 9.315 29.3671 9.245C 29.3671 9.185 29.3871 9.14 29.4271 9.11C 29.4771 9.07 29.5421 9.05 29.6221 9.05L 31.1671 9.05C 31.2771 9.05 31.3571 9.065 31.4071 9.095C 31.4671 9.125 31.5271 9.175 31.5871 9.245L 33.1921 11.495C 33.2421 11.555 33.2821 11.585 33.3121 11.585C 33.3521 11.585 33.3921 11.555 33.4321 11.495L 34.9771 9.245C 35.0271 9.175 35.0821 9.125 35.1421 9.095C 35.2021 9.065 35.2871 9.05 35.3971 9.05L 36.5521 9.05C 36.7021 9.05 36.7771 9.095 36.7771 9.185C 36.7771 9.225 36.7521 9.28 36.7021 9.35L 34.3621 12.5C 34.3021 12.57 34.2721 12.635 34.2721 12.695C 34.2721 12.735 34.3071 12.81 34.3771 12.92L 37.0171 16.565ZM 52.9048 13.43C 52.9048 13.57 52.8248 13.64 52.6648 13.64L 41.7598 13.64C 41.6898 13.64 41.6398 13.63 41.6098 13.61C 41.5798 13.58 41.5648 13.53 41.5648 13.46L 41.5648 12.8C 41.5648 12.69 41.6098 12.635 41.6998 12.635L 52.7548 12.62C 52.8548 12.62 52.9048 12.67 52.9048 12.77L 52.9048 13.43ZM 62.6807 17.15C 61.7307 17.15 60.9057 16.925 60.2057 16.475C 59.5057 16.015 58.9657 15.36 58.5857 14.51C 58.2157 13.66 58.0307 12.65 58.0307 11.48C 58.0307 10.29 58.2207 9.26 58.6007 8.39C 58.9907 7.52 59.5407 6.86 60.2507 6.41C 60.9607 5.95 61.7907 5.72 62.7407 5.72C 63.4207 5.72 64.0557 5.86 64.6457 6.14C 65.2457 6.42 65.7357 6.79 66.1157 7.25C 66.5057 7.71 66.7407 8.2 66.8207 8.72L 66.8207 8.81C 66.8207 8.85 66.8107 8.88 66.7907 8.9C 66.7807 8.92 66.7507 8.94 66.7007 8.96L 65.6207 9.125L 65.5907 9.125C 65.5307 9.125 65.4857 9.075 65.4557 8.975C 65.3457 8.365 65.0407 7.855 64.5407 7.445C 64.0407 7.025 63.4357 6.815 62.7257 6.815C 61.6957 6.815 60.9057 7.205 60.3557 7.985C 59.8057 8.765 59.5307 9.9 59.5307 11.39C 59.5307 12.95 59.8057 14.12 60.3557 14.9C 60.9057 15.67 61.7057 16.055 62.7557 16.055C 63.3657 16.055 63.8907 15.92 64.3307 15.65C 64.7707 15.38 65.1007 15.035 65.3207 14.615C 65.5507 14.195 65.6807 13.77 65.7107 13.34L 65.7107 12.44L 65.7107 12.41C 65.7107 12.32 65.6607 12.275 65.5607 12.275L 63.1157 12.275C 63.0057 12.275 62.9507 12.225 62.9507 12.125L 62.9507 11.48C 62.9507 11.39 63.0007 11.345 63.1007 11.345L 66.8207 11.36C 66.9707 11.36 67.0457 11.42 67.0457 11.54L 67.0457 16.805C 67.0457 16.935 66.9857 17 66.8657 17L 66.5207 17C 66.4407 17 66.3807 16.99 66.3407 16.97C 66.3007 16.95 66.2707 16.9 66.2507 16.82L 66.0857 15.425C 66.0757 15.385 66.0557 15.365 66.0257 15.365C 66.0057 15.365 65.9807 15.39 65.9507 15.44C 65.6307 15.95 65.2007 16.365 64.6607 16.685C 64.1307 16.995 63.4707 17.15 62.6807 17.15ZM 70.6195 7.34C 70.6195 7.44 70.5995 7.515 70.5595 7.565C 70.5195 7.605 70.4495 7.625 70.3495 7.625L 69.4795 7.625C 69.3295 7.625 69.2545 7.54 69.2545 7.37L 69.2545 6.11C 69.2545 5.95 69.3245 5.87 69.4645 5.87L 70.4095 5.87C 70.4695 5.87 70.5195 5.89 70.5595 5.93C 70.5995 5.97 70.6195 6.025 70.6195 6.095L 70.6195 7.34ZM 70.5595 16.745C 70.5595 16.845 70.5395 16.915 70.4995 16.955C 70.4595 16.985 70.3895 17 70.2895 17L 69.5245 17C 69.4345 17 69.3745 16.985 69.3445 16.955C 69.3145 16.925 69.2995 16.87 69.2995 16.79L 69.2995 9.26C 69.2995 9.12 69.3595 9.05 69.4795 9.05L 70.3945 9.05C 70.5045 9.05 70.5595 9.115 70.5595 9.245L 70.5595 16.745ZM 77.5084 16.04C 76.7384 16.78 75.8484 17.15 74.8384 17.15C 74.0584 17.15 73.4434 16.955 72.9934 16.565C 72.5534 16.165 72.3334 15.635 72.3334 14.975C 72.3334 14.175 72.6684 13.545 73.3384 13.085C 74.0184 12.625 74.9984 12.355 76.2784 12.275L 77.4484 12.185C 77.6184 12.165 77.7034 12.09 77.7034 11.96L 77.7034 11.555C 77.7034 11.015 77.5334 10.59 77.1934 10.28C 76.8634 9.96 76.4134 9.8 75.8434 9.8C 74.9634 9.8 74.2434 10.2 73.6834 11C 73.6534 11.05 73.6234 11.085 73.5934 11.105C 73.5634 11.115 73.5234 11.11 73.4734 11.09L 72.6634 10.82C 72.6134 10.8 72.5884 10.765 72.5884 10.715C 72.5884 10.685 72.6034 10.64 72.6334 10.58C 72.9334 10.05 73.3584 9.64 73.9084 9.35C 74.4684 9.05 75.1284 8.9 75.8884 8.9C 76.8684 8.9 77.6184 9.13 78.1384 9.59C 78.6584 10.04 78.9184 10.665 78.9184 11.465L 78.9184 16.775C 78.9184 16.865 78.9034 16.925 78.8734 16.955C 78.8434 16.985 78.7884 17 78.7084 17L 77.9584 17C 77.8384 17 77.7684 16.92 77.7484 16.76L 77.7184 16.07C 77.7084 16 77.6834 15.965 77.6434 15.965C 77.6034 15.965 77.5584 15.99 77.5084 16.04ZM 77.7034 13.19C 77.7034 13.03 77.6284 12.95 77.4784 12.95L 76.5034 13.04C 75.5734 13.1 74.8534 13.28 74.3434 13.58C 73.8434 13.88 73.5934 14.295 73.5934 14.825C 73.5934 15.255 73.7434 15.595 74.0434 15.845C 74.3534 16.095 74.7634 16.22 75.2734 16.22C 75.5834 16.22 75.8884 16.165 76.1884 16.055C 76.4884 15.945 76.7534 15.795 76.9834 15.605C 77.2134 15.425 77.3884 15.235 77.5084 15.035C 77.6384 14.825 77.7034 14.625 77.7034 14.435L 77.7034 13.19ZM 81.3162 17C 81.1762 17 81.1062 16.935 81.1062 16.805L 81.1062 9.245C 81.1062 9.115 81.1612 9.05 81.2712 9.05L 82.1712 9.05C 82.2812 9.05 82.3362 9.105 82.3362 9.215L 82.3362 10.085C 82.3362 10.195 82.3812 10.21 82.4712 10.13C 83.0312 9.69 83.5062 9.375 83.8962 9.185C 84.2962 8.995 84.7412 8.9 85.2312 8.9C 85.9912 8.9 86.5812 9.105 87.0012 9.515C 87.4312 9.925 87.6462 10.475 87.6462 11.165L 87.6462 16.76C 87.6462 16.92 87.5712 17 87.4212 17L 86.5812 17C 86.4512 17 86.3862 16.935 86.3862 16.805L 86.3862 11.45C 86.3862 10.95 86.2562 10.565 85.9962 10.295C 85.7462 10.025 85.3562 9.89 84.8262 9.89C 84.4062 9.89 84.0162 9.985 83.6562 10.175C 83.3062 10.355 82.8762 10.665 82.3662 11.105L 82.3662 16.775C 82.3662 16.855 82.3462 16.915 82.3062 16.955C 82.2762 16.985 82.2212 17 82.1412 17L 81.3162 17ZM 91.9659 9.98C 91.8859 9.98 91.8459 10.025 91.8459 10.115L 91.8459 14.87C 91.8459 15.32 91.9209 15.63 92.0709 15.8C 92.2209 15.97 92.4659 16.055 92.8059 16.055L 93.8409 16.055C 93.9509 16.055 94.0059 16.11 94.0059 16.22L 93.9909 16.73C 93.9909 16.83 93.9309 16.895 93.8109 16.925C 93.5509 16.975 93.0809 17 92.4009 17C 91.7709 17 91.3109 16.855 91.0209 16.565C 90.7309 16.265 90.5859 15.795 90.5859 15.155L 90.5859 10.145C 90.5859 10.035 90.5359 9.98 90.4359 9.98L 89.2359 9.98C 89.1259 9.98 89.0709 9.93 89.0709 9.83L 89.0709 9.2C 89.0709 9.1 89.1209 9.05 89.2209 9.05L 90.4959 9.05C 90.5659 9.05 90.6009 9.01 90.6009 8.93L 90.7659 6.545C 90.7659 6.415 90.8209 6.35 90.9309 6.35L 91.6809 6.35C 91.8009 6.35 91.8609 6.42 91.8609 6.56L 91.8609 8.93C 91.8609 9.01 91.9009 9.05 91.9809 9.05L 93.8709 9.05C 93.9809 9.05 94.0359 9.095 94.0359 9.185L 94.0359 9.83C 94.0359 9.93 93.9809 9.98 93.8709 9.98L 91.9659 9.98ZM 103.659 10.805C 103.449 10.495 103.159 10.25 102.789 10.07C 102.429 9.88 102.009 9.785 101.529 9.785C 100.979 9.785 100.529 9.905 100.179 10.145C 99.8294 10.375 99.6544 10.68 99.6544 11.06C 99.6544 11.29 99.7394 11.5 99.9094 11.69C 100.089 11.87 100.409 12.03 100.869 12.17L 102.774 12.74C 103.434 12.92 103.924 13.19 104.244 13.55C 104.564 13.9 104.724 14.32 104.724 14.81C 104.724 15.27 104.584 15.68 104.304 16.04C 104.024 16.39 103.639 16.665 103.149 16.865C 102.659 17.055 102.104 17.15 101.484 17.15C 100.714 17.15 100.029 17 99.4294 16.7C 98.8294 16.39 98.4044 15.99 98.1544 15.5C 98.1244 15.45 98.1094 15.41 98.1094 15.38C 98.1094 15.33 98.1344 15.29 98.1844 15.26L 98.7694 14.93C 98.8694 14.87 98.9444 14.875 98.9944 14.945C 99.5344 15.805 100.369 16.235 101.499 16.235C 102.089 16.225 102.574 16.105 102.954 15.875C 103.344 15.635 103.539 15.325 103.539 14.945C 103.539 14.665 103.424 14.43 103.194 14.24C 102.964 14.05 102.589 13.88 102.069 13.73L 100.524 13.295C 99.7944 13.105 99.2694 12.84 98.9494 12.5C 98.6394 12.16 98.4844 11.745 98.4844 11.255C 98.4844 10.795 98.6094 10.385 98.8594 10.025C 99.1194 9.665 99.4794 9.39 99.9394 9.2C 100.409 9 100.944 8.9 101.544 8.9C 102.204 8.9 102.794 9.025 103.314 9.275C 103.844 9.525 104.249 9.865 104.529 10.295C 104.599 10.395 104.594 10.465 104.514 10.505L 103.884 10.85C 103.844 10.87 103.814 10.88 103.794 10.88C 103.754 10.88 103.709 10.855 103.659 10.805ZM 108.665 9.98C 108.585 9.98 108.545 10.025 108.545 10.115L 108.545 14.87C 108.545 15.32 108.62 15.63 108.77 15.8C 108.92 15.97 109.165 16.055 109.505 16.055L 110.54 16.055C 110.65 16.055 110.705 16.11 110.705 16.22L 110.69 16.73C 110.69 16.83 110.63 16.895 110.51 16.925C 110.25 16.975 109.78 17 109.1 17C 108.47 17 108.01 16.855 107.72 16.565C 107.43 16.265 107.285 15.795 107.285 15.155L 107.285 10.145C 107.285 10.035 107.235 9.98 107.135 9.98L 105.935 9.98C 105.825 9.98 105.77 9.93 105.77 9.83L 105.77 9.2C 105.77 9.1 105.82 9.05 105.92 9.05L 107.195 9.05C 107.265 9.05 107.3 9.01 107.3 8.93L 107.465 6.545C 107.465 6.415 107.52 6.35 107.63 6.35L 108.38 6.35C 108.5 6.35 108.56 6.42 108.56 6.56L 108.56 8.93C 108.56 9.01 108.6 9.05 108.68 9.05L 110.57 9.05C 110.68 9.05 110.735 9.095 110.735 9.185L 110.735 9.83C 110.735 9.93 110.68 9.98 110.57 9.98L 108.665 9.98ZM 116.986 16.04C 116.216 16.78 115.326 17.15 114.316 17.15C 113.536 17.15 112.921 16.955 112.471 16.565C 112.031 16.165 111.811 15.635 111.811 14.975C 111.811 14.175 112.146 13.545 112.816 13.085C 113.496 12.625 114.476 12.355 115.756 12.275L 116.926 12.185C 117.096 12.165 117.181 12.09 117.181 11.96L 117.181 11.555C 117.181 11.015 117.011 10.59 116.671 10.28C 116.341 9.96 115.891 9.8 115.321 9.8C 114.441 9.8 113.721 10.2 113.161 11C 113.131 11.05 113.101 11.085 113.071 11.105C 113.041 11.115 113.001 11.11 112.951 11.09L 112.141 10.82C 112.091 10.8 112.066 10.765 112.066 10.715C 112.066 10.685 112.081 10.64 112.111 10.58C 112.411 10.05 112.836 9.64 113.386 9.35C 113.946 9.05 114.606 8.9 115.366 8.9C 116.346 8.9 117.096 9.13 117.616 9.59C 118.136 10.04 118.396 10.665 118.396 11.465L 118.396 16.775C 118.396 16.865 118.381 16.925 118.351 16.955C 118.321 16.985 118.266 17 118.186 17L 117.436 17C 117.316 17 117.246 16.92 117.226 16.76L 117.196 16.07C 117.186 16 117.161 15.965 117.121 15.965C 117.081 15.965 117.036 15.99 116.986 16.04ZM 117.181 13.19C 117.181 13.03 117.106 12.95 116.956 12.95L 115.981 13.04C 115.051 13.1 114.331 13.28 113.821 13.58C 113.321 13.88 113.071 14.295 113.071 14.825C 113.071 15.255 113.221 15.595 113.521 15.845C 113.831 16.095 114.241 16.22 114.751 16.22C 115.061 16.22 115.366 16.165 115.666 16.055C 115.966 15.945 116.231 15.795 116.461 15.605C 116.691 15.425 116.866 15.235 116.986 15.035C 117.116 14.825 117.181 14.625 117.181 14.435L 117.181 13.19ZM 123.884 8.9C 124.614 8.9 125.234 9.07 125.744 9.41C 126.264 9.75 126.679 10.2 126.989 10.76L 127.019 10.88C 127.019 10.94 126.984 10.975 126.914 10.985L 126.089 11.18L 126.044 11.195C 125.994 11.195 125.944 11.155 125.894 11.075C 125.574 10.645 125.264 10.33 124.964 10.13C 124.674 9.93 124.339 9.83 123.959 9.83C 123.179 9.83 122.559 10.12 122.099 10.7C 121.639 11.27 121.409 12.045 121.409 13.025C 121.409 14.015 121.639 14.795 122.099 15.365C 122.569 15.935 123.199 16.22 123.989 16.22C 124.459 16.22 124.869 16.105 125.219 15.875C 125.579 15.645 125.904 15.29 126.194 14.81C 126.224 14.76 126.254 14.735 126.284 14.735C 126.314 14.725 126.349 14.73 126.389 14.75L 127.034 14.99C 127.104 15.02 127.124 15.085 127.094 15.185C 126.784 15.765 126.359 16.24 125.819 16.61C 125.279 16.97 124.634 17.15 123.884 17.15C 123.154 17.15 122.504 16.98 121.934 16.64C 121.364 16.29 120.919 15.805 120.599 15.185C 120.279 14.565 120.119 13.855 120.119 13.055C 120.119 12.255 120.279 11.54 120.599 10.91C 120.919 10.27 121.364 9.775 121.934 9.425C 122.514 9.075 123.164 8.9 123.884 8.9ZM 135.584 16.76C 135.604 16.78 135.614 16.815 135.614 16.865C 135.614 16.955 135.559 17 135.449 17L 134.399 17C 134.339 17 134.289 16.99 134.249 16.97C 134.209 16.94 134.169 16.89 134.129 16.82L 131.864 12.935C 131.844 12.885 131.819 12.86 131.789 12.86C 131.759 12.85 131.724 12.865 131.684 12.905L 130.094 14.51C 130.024 14.58 129.989 14.68 129.989 14.81L 129.989 16.745C 129.989 16.845 129.969 16.915 129.929 16.955C 129.889 16.985 129.819 17 129.719 17L 128.954 17C 128.864 17 128.804 16.985 128.774 16.955C 128.744 16.925 128.729 16.87 128.729 16.79L 128.729 6.08C 128.729 5.94 128.784 5.87 128.894 5.87L 129.809 5.87C 129.929 5.87 129.989 5.935 129.989 6.065L 129.989 13.025C 129.989 13.125 130.004 13.175 130.034 13.175C 130.064 13.175 130.099 13.145 130.139 13.085L 133.844 9.23C 133.954 9.11 134.059 9.05 134.159 9.05L 135.074 9.05C 135.194 9.05 135.254 9.085 135.254 9.155C 135.254 9.185 135.219 9.245 135.149 9.335L 132.779 11.75C 132.739 11.81 132.719 11.855 132.719 11.885C 132.719 11.915 132.734 11.955 132.764 12.005L 135.584 16.76Z" transform="translate(0 181)" fill="#494949"/>
<g id="SingleStack">
<rect id="SingleStack_2" width="883" height="6" transform="translate(0 12)" fill="#009858" fill-opacity="0.6"/>
</g>
<g id="SmallStack">
<rect id="SmallStack_2" width="883" height="12" transform="translate(0 48)" fill="#009858" fill-opacity="0.5"/>
</g>
<g id="MediumStack">
<rect id="MediumStack_2" width="883" height="18" transform="translate(0 90)" fill="#009858" fill-opacity="0.4"/>
</g>
<g id="LargeStack">
<rect id="LargeStack_2" width="883" height="30" transform="translate(0 138)" fill="#009858" fill-opacity="0.3"/>
</g>
<g id="GiantStack">
<rect id="GiantStack_2" width="883" height="48" transform="translate(0 198)" fill="#009858" fill-opacity="0.2"/>
</g>
</g>
</svg>
